ISO-10303-21;
HEADER;
/* Generated by software containing ST-Developer
 * from STEP Tools, Inc. (www.steptools.com) 
 */

FILE_DESCRIPTION(
/* description */ (''),
/* implementation_level */ '2;1');

FILE_NAME(
/* name */ 'snap remover.step',
/* time_stamp */ '2026-08-09T18:02:26+08:00',
/* author */ (''),
/* organization */ (''),
/* preprocessor_version */ 'ST-DEVELOPER v20.1',
/* originating_system */ 'Autodesk Translation Framework v15.8.0.0',
/* authorisation */ '');

FILE_SCHEMA (('AUTOMOTIVE_DESIGN { 1 0 10303 214 3 1 1 }'));
ENDSEC;

DATA;
#10=MECHANICAL_DESIGN_GEOMETRIC_PRESENTATION_REPRESENTATION('',(#13),#1152);
#11=SHAPE_REPRESENTATION_RELATIONSHIP('SRR','None',#1159,#12);
#12=ADVANCED_BREP_SHAPE_REPRESENTATION('',(#14),#1151);
#13=STYLED_ITEM('',(#1168),#14);
#14=MANIFOLD_SOLID_BREP('Body2',#666);
#15=FACE_BOUND('',#116,.T.);
#16=PLANE('',#695);
#17=PLANE('',#696);
#18=PLANE('',#712);
#19=PLANE('',#713);
#20=PLANE('',#717);
#21=PLANE('',#718);
#22=PLANE('',#725);
#23=PLANE('',#726);
#24=PLANE('',#728);
#25=PLANE('',#741);
#26=PLANE('',#742);
#27=PLANE('',#743);
#28=PLANE('',#744);
#29=PLANE('',#745);
#30=PLANE('',#746);
#31=PLANE('',#747);
#32=PLANE('',#748);
#33=PLANE('',#749);
#34=PLANE('',#750);
#35=PLANE('',#751);
#36=FACE_OUTER_BOUND('',#76,.T.);
#37=FACE_OUTER_BOUND('',#77,.T.);
#38=FACE_OUTER_BOUND('',#78,.T.);
#39=FACE_OUTER_BOUND('',#79,.T.);
#40=FACE_OUTER_BOUND('',#80,.T.);
#41=FACE_OUTER_BOUND('',#81,.T.);
#42=FACE_OUTER_BOUND('',#82,.T.);
#43=FACE_OUTER_BOUND('',#83,.T.);
#44=FACE_OUTER_BOUND('',#84,.T.);
#45=FACE_OUTER_BOUND('',#85,.T.);
#46=FACE_OUTER_BOUND('',#86,.T.);
#47=FACE_OUTER_BOUND('',#87,.T.);
#48=FACE_OUTER_BOUND('',#88,.T.);
#49=FACE_OUTER_BOUND('',#89,.T.);
#50=FACE_OUTER_BOUND('',#90,.T.);
#51=FACE_OUTER_BOUND('',#91,.T.);
#52=FACE_OUTER_BOUND('',#92,.T.);
#53=FACE_OUTER_BOUND('',#93,.T.);
#54=FACE_OUTER_BOUND('',#94,.T.);
#55=FACE_OUTER_BOUND('',#95,.T.);
#56=FACE_OUTER_BOUND('',#96,.T.);
#57=FACE_OUTER_BOUND('',#97,.T.);
#58=FACE_OUTER_BOUND('',#98,.T.);
#59=FACE_OUTER_BOUND('',#99,.T.);
#60=FACE_OUTER_BOUND('',#100,.T.);
#61=FACE_OUTER_BOUND('',#101,.T.);
#62=FACE_OUTER_BOUND('',#102,.T.);
#63=FACE_OUTER_BOUND('',#103,.T.);
#64=FACE_OUTER_BOUND('',#104,.T.);
#65=FACE_OUTER_BOUND('',#105,.T.);
#66=FACE_OUTER_BOUND('',#106,.T.);
#67=FACE_OUTER_BOUND('',#107,.T.);
#68=FACE_OUTER_BOUND('',#108,.T.);
#69=FACE_OUTER_BOUND('',#109,.T.);
#70=FACE_OUTER_BOUND('',#110,.T.);
#71=FACE_OUTER_BOUND('',#111,.T.);
#72=FACE_OUTER_BOUND('',#112,.T.);
#73=FACE_OUTER_BOUND('',#113,.T.);
#74=FACE_OUTER_BOUND('',#114,.T.);
#75=FACE_OUTER_BOUND('',#115,.T.);
#76=EDGE_LOOP('',(#420,#421,#422,#423));
#77=EDGE_LOOP('',(#424,#425,#426,#427));
#78=EDGE_LOOP('',(#428,#429,#430,#431));
#79=EDGE_LOOP('',(#432,#433,#434,#435));
#80=EDGE_LOOP('',(#436,#437,#438,#439));
#81=EDGE_LOOP('',(#440,#441,#442,#443));
#82=EDGE_LOOP('',(#444,#445,#446,#447));
#83=EDGE_LOOP('',(#448,#449,#450,#451,#452,#453,#454,#455));
#84=EDGE_LOOP('',(#456,#457,#458,#459));
#85=EDGE_LOOP('',(#460,#461,#462,#463));
#86=EDGE_LOOP('',(#464,#465,#466,#467));
#87=EDGE_LOOP('',(#468,#469,#470,#471));
#88=EDGE_LOOP('',(#472,#473,#474,#475));
#89=EDGE_LOOP('',(#476,#477,#478,#479));
#90=EDGE_LOOP('',(#480,#481,#482,#483));
#91=EDGE_LOOP('',(#484,#485,#486,#487));
#92=EDGE_LOOP('',(#488,#489,#490,#491,#492,#493,#494,#495));
#93=EDGE_LOOP('',(#496,#497,#498,#499));
#94=EDGE_LOOP('',(#500,#501,#502,#503));
#95=EDGE_LOOP('',(#504,#505,#506,#507,#508));
#96=EDGE_LOOP('',(#509,#510,#511,#512));
#97=EDGE_LOOP('',(#513,#514,#515,#516,#517,#518));
#98=EDGE_LOOP('',(#519,#520,#521,#522,#523));
#99=EDGE_LOOP('',(#524,#525,#526,#527));
#100=EDGE_LOOP('',(#528,#529,#530,#531));
#101=EDGE_LOOP('',(#532,#533,#534,#535,#536,#537));
#102=EDGE_LOOP('',(#538,#539,#540,#541));
#103=EDGE_LOOP('',(#542,#543,#544,#545));
#104=EDGE_LOOP('',(#546,#547,#548,#549));
#105=EDGE_LOOP('',(#550,#551,#552,#553,#554));
#106=EDGE_LOOP('',(#555,#556,#557,#558));
#107=EDGE_LOOP('',(#559,#560,#561,#562));
#108=EDGE_LOOP('',(#563,#564,#565,#566,#567));
#109=EDGE_LOOP('',(#568,#569,#570,#571));
#110=EDGE_LOOP('',(#572,#573,#574,#575));
#111=EDGE_LOOP('',(#576,#577,#578,#579));
#112=EDGE_LOOP('',(#580,#581,#582,#583));
#113=EDGE_LOOP('',(#584,#585,#586,#587));
#114=EDGE_LOOP('',(#588,#589,#590,#591));
#115=EDGE_LOOP('',(#592,#593,#594,#595,#596,#597,#598,#599));
#116=EDGE_LOOP('',(#600,#601,#602,#603,#604,#605));
#117=ELLIPSE('',#682,6.36396103068187,4.5);
#118=ELLIPSE('',#684,6.36396103067892,4.5);
#119=ELLIPSE('',#686,6.36396103067893,4.5);
#120=ELLIPSE('',#688,6.36396103067892,4.5);
#121=ELLIPSE('',#690,6.36396103067893,4.5);
#122=ELLIPSE('',#692,6.36396103067599,4.5);
#123=ELLIPSE('',#699,6.36396103068186,4.5);
#124=ELLIPSE('',#701,6.36396103067893,4.5);
#125=ELLIPSE('',#703,6.36396103067892,4.5);
#126=ELLIPSE('',#705,6.36396103067893,4.5);
#127=ELLIPSE('',#707,6.36396103067893,4.5);
#128=ELLIPSE('',#709,6.36396103067599,4.5);
#129=ELLIPSE('',#722,1.50022849206586,1.5);
#130=ELLIPSE('',#723,1.50022849206586,1.5);
#131=ELLIPSE('',#727,1.50022849206586,1.5);
#132=ELLIPSE('',#732,1.50022849206586,1.5);
#133=ELLIPSE('',#736,1.50022849206586,1.5);
#134=ELLIPSE('',#739,1.50022849206586,1.5);
#135=CIRCLE('',#681,4.5);
#136=CIRCLE('',#694,4.5);
#137=CIRCLE('',#698,4.5);
#138=CIRCLE('',#711,4.5);
#139=CIRCLE('',#715,1.5);
#140=CIRCLE('',#716,1.5);
#141=CIRCLE('',#719,1.5);
#142=CIRCLE('',#720,1.5);
#143=CIRCLE('',#724,1.5);
#144=CIRCLE('',#729,1.5);
#145=CIRCLE('',#730,1.5);
#146=CIRCLE('',#734,1.5);
#147=CIRCLE('',#737,1.5);
#148=CIRCLE('',#740,1.5);
#149=LINE('',#963,#210);
#150=LINE('',#967,#211);
#151=LINE('',#971,#212);
#152=LINE('',#974,#213);
#153=LINE('',#977,#214);
#154=LINE('',#980,#215);
#155=LINE('',#983,#216);
#156=LINE('',#986,#217);
#157=LINE('',#989,#218);
#158=LINE('',#992,#219);
#159=LINE('',#995,#220);
#160=LINE('',#997,#221);
#161=LINE('',#1001,#222);
#162=LINE('',#1004,#223);
#163=LINE('',#1006,#224);
#164=LINE('',#1009,#225);
#165=LINE('',#1011,#226);
#166=LINE('',#1012,#227);
#167=LINE('',#1016,#228);
#168=LINE('',#1020,#229);
#169=LINE('',#1024,#230);
#170=LINE('',#1026,#231);
#171=LINE('',#1030,#232);
#172=LINE('',#1032,#233);
#173=LINE('',#1036,#234);
#174=LINE('',#1038,#235);
#175=LINE('',#1042,#236);
#176=LINE('',#1044,#237);
#177=LINE('',#1047,#238);
#178=LINE('',#1049,#239);
#179=LINE('',#1053,#240);
#180=LINE('',#1056,#241);
#181=LINE('',#1058,#242);
#182=LINE('',#1059,#243);
#183=LINE('',#1065,#244);
#184=LINE('',#1068,#245);
#185=LINE('',#1071,#246);
#186=LINE('',#1073,#247);
#187=LINE('',#1075,#248);
#188=LINE('',#1077,#249);
#189=LINE('',#1078,#250);
#190=LINE('',#1084,#251);
#191=LINE('',#1089,#252);
#192=LINE('',#1095,#253);
#193=LINE('',#1097,#254);
#194=LINE('',#1099,#255);
#195=LINE('',#1100,#256);
#196=LINE('',#1108,#257);
#197=LINE('',#1114,#258);
#198=LINE('',#1119,#259);
#199=LINE('',#1122,#260);
#200=LINE('',#1128,#261);
#201=LINE('',#1130,#262);
#202=LINE('',#1131,#263);
#203=LINE('',#1133,#264);
#204=LINE('',#1135,#265);
#205=LINE('',#1136,#266);
#206=LINE('',#1140,#267);
#207=LINE('',#1142,#268);
#208=LINE('',#1144,#269);
#209=LINE('',#1146,#270);
#210=VECTOR('',#756,10.);
#211=VECTOR('',#759,10.);
#212=VECTOR('',#764,10.);
#213=VECTOR('',#767,10.);
#214=VECTOR('',#770,10.);
#215=VECTOR('',#773,10.);
#216=VECTOR('',#776,10.);
#217=VECTOR('',#779,10.);
#218=VECTOR('',#782,10.);
#219=VECTOR('',#785,10.);
#220=VECTOR('',#788,10.);
#221=VECTOR('',#789,10.);
#222=VECTOR('',#794,10.);
#223=VECTOR('',#797,10.);
#224=VECTOR('',#800,10.);
#225=VECTOR('',#803,10.);
#226=VECTOR('',#804,10.);
#227=VECTOR('',#805,10.);
#228=VECTOR('',#808,10.);
#229=VECTOR('',#811,10.);
#230=VECTOR('',#816,10.);
#231=VECTOR('',#817,10.);
#232=VECTOR('',#822,10.);
#233=VECTOR('',#823,10.);
#234=VECTOR('',#828,10.);
#235=VECTOR('',#829,10.);
#236=VECTOR('',#834,10.);
#237=VECTOR('',#835,10.);
#238=VECTOR('',#840,10.);
#239=VECTOR('',#841,10.);
#240=VECTOR('',#846,10.);
#241=VECTOR('',#851,10.);
#242=VECTOR('',#854,10.);
#243=VECTOR('',#855,10.);
#244=VECTOR('',#860,1.5);
#245=VECTOR('',#863,10.);
#246=VECTOR('',#866,10.);
#247=VECTOR('',#867,10.);
#248=VECTOR('',#868,10.);
#249=VECTOR('',#869,10.);
#250=VECTOR('',#870,10.);
#251=VECTOR('',#877,10.);
#252=VECTOR('',#882,1.5);
#253=VECTOR('',#889,10.);
#254=VECTOR('',#890,1.5);
#255=VECTOR('',#891,10.);
#256=VECTOR('',#892,10.);
#257=VECTOR('',#903,10.);
#258=VECTOR('',#912,10.);
#259=VECTOR('',#917,1.5);
#260=VECTOR('',#920,1.5);
#261=VECTOR('',#927,10.);
#262=VECTOR('',#930,10.);
#263=VECTOR('',#931,10.);
#264=VECTOR('',#934,10.);
#265=VECTOR('',#937,10.);
#266=VECTOR('',#938,10.);
#267=VECTOR('',#945,10.);
#268=VECTOR('',#948,10.);
#269=VECTOR('',#951,10.);
#270=VECTOR('',#954,10.);
#271=VERTEX_POINT('',#961);
#272=VERTEX_POINT('',#962);
#273=VERTEX_POINT('',#964);
#274=VERTEX_POINT('',#966);
#275=VERTEX_POINT('',#970);
#276=VERTEX_POINT('',#972);
#277=VERTEX_POINT('',#976);
#278=VERTEX_POINT('',#978);
#279=VERTEX_POINT('',#982);
#280=VERTEX_POINT('',#984);
#281=VERTEX_POINT('',#988);
#282=VERTEX_POINT('',#990);
#283=VERTEX_POINT('',#994);
#284=VERTEX_POINT('',#996);
#285=VERTEX_POINT('',#1000);
#286=VERTEX_POINT('',#1002);
#287=VERTEX_POINT('',#1008);
#288=VERTEX_POINT('',#1010);
#289=VERTEX_POINT('',#1014);
#290=VERTEX_POINT('',#1015);
#291=VERTEX_POINT('',#1017);
#292=VERTEX_POINT('',#1019);
#293=VERTEX_POINT('',#1023);
#294=VERTEX_POINT('',#1025);
#295=VERTEX_POINT('',#1029);
#296=VERTEX_POINT('',#1031);
#297=VERTEX_POINT('',#1035);
#298=VERTEX_POINT('',#1037);
#299=VERTEX_POINT('',#1041);
#300=VERTEX_POINT('',#1043);
#301=VERTEX_POINT('',#1048);
#302=VERTEX_POINT('',#1052);
#303=VERTEX_POINT('',#1061);
#304=VERTEX_POINT('',#1062);
#305=VERTEX_POINT('',#1064);
#306=VERTEX_POINT('',#1066);
#307=VERTEX_POINT('',#1070);
#308=VERTEX_POINT('',#1072);
#309=VERTEX_POINT('',#1074);
#310=VERTEX_POINT('',#1076);
#311=VERTEX_POINT('',#1080);
#312=VERTEX_POINT('',#1082);
#313=VERTEX_POINT('',#1086);
#314=VERTEX_POINT('',#1088);
#315=VERTEX_POINT('',#1090);
#316=VERTEX_POINT('',#1094);
#317=VERTEX_POINT('',#1096);
#318=VERTEX_POINT('',#1098);
#319=VERTEX_POINT('',#1104);
#320=VERTEX_POINT('',#1106);
#321=VERTEX_POINT('',#1112);
#322=VERTEX_POINT('',#1116);
#323=VERTEX_POINT('',#1118);
#324=VERTEX_POINT('',#1120);
#325=VERTEX_POINT('',#1124);
#326=VERTEX_POINT('',#1126);
#327=EDGE_CURVE('',#271,#272,#149,.T.);
#328=EDGE_CURVE('',#272,#273,#135,.T.);
#329=EDGE_CURVE('',#273,#274,#150,.T.);
#330=EDGE_CURVE('',#274,#271,#117,.T.);
#331=EDGE_CURVE('',#274,#275,#151,.T.);
#332=EDGE_CURVE('',#275,#276,#118,.T.);
#333=EDGE_CURVE('',#276,#271,#152,.T.);
#334=EDGE_CURVE('',#275,#277,#153,.T.);
#335=EDGE_CURVE('',#277,#278,#119,.T.);
#336=EDGE_CURVE('',#278,#276,#154,.T.);
#337=EDGE_CURVE('',#277,#279,#155,.T.);
#338=EDGE_CURVE('',#279,#280,#120,.T.);
#339=EDGE_CURVE('',#280,#278,#156,.T.);
#340=EDGE_CURVE('',#279,#281,#157,.T.);
#341=EDGE_CURVE('',#281,#282,#121,.T.);
#342=EDGE_CURVE('',#282,#280,#158,.T.);
#343=EDGE_CURVE('',#283,#282,#159,.T.);
#344=EDGE_CURVE('',#281,#284,#160,.T.);
#345=EDGE_CURVE('',#284,#283,#122,.T.);
#346=EDGE_CURVE('',#284,#285,#161,.T.);
#347=EDGE_CURVE('',#285,#286,#136,.T.);
#348=EDGE_CURVE('',#286,#283,#162,.T.);
#349=EDGE_CURVE('',#273,#285,#163,.T.);
#350=EDGE_CURVE('',#271,#287,#164,.T.);
#351=EDGE_CURVE('',#288,#287,#165,.T.);
#352=EDGE_CURVE('',#272,#288,#166,.T.);
#353=EDGE_CURVE('',#289,#290,#167,.T.);
#354=EDGE_CURVE('',#290,#291,#137,.T.);
#355=EDGE_CURVE('',#291,#292,#168,.T.);
#356=EDGE_CURVE('',#292,#289,#123,.T.);
#357=EDGE_CURVE('',#293,#289,#169,.T.);
#358=EDGE_CURVE('',#292,#294,#170,.T.);
#359=EDGE_CURVE('',#294,#293,#124,.T.);
#360=EDGE_CURVE('',#295,#293,#171,.T.);
#361=EDGE_CURVE('',#294,#296,#172,.T.);
#362=EDGE_CURVE('',#296,#295,#125,.T.);
#363=EDGE_CURVE('',#297,#295,#173,.T.);
#364=EDGE_CURVE('',#296,#298,#174,.T.);
#365=EDGE_CURVE('',#298,#297,#126,.T.);
#366=EDGE_CURVE('',#299,#297,#175,.T.);
#367=EDGE_CURVE('',#298,#300,#176,.T.);
#368=EDGE_CURVE('',#300,#299,#127,.T.);
#369=EDGE_CURVE('',#287,#299,#177,.T.);
#370=EDGE_CURVE('',#300,#301,#178,.T.);
#371=EDGE_CURVE('',#301,#287,#128,.T.);
#372=EDGE_CURVE('',#301,#302,#179,.T.);
#373=EDGE_CURVE('',#302,#288,#138,.T.);
#374=EDGE_CURVE('',#291,#302,#180,.T.);
#375=EDGE_CURVE('',#286,#290,#181,.T.);
#376=EDGE_CURVE('',#283,#289,#182,.T.);
#377=EDGE_CURVE('',#303,#304,#139,.F.);
#378=EDGE_CURVE('',#304,#305,#183,.T.);
#379=EDGE_CURVE('',#305,#306,#140,.F.);
#380=EDGE_CURVE('',#303,#306,#184,.T.);
#381=EDGE_CURVE('',#307,#303,#185,.T.);
#382=EDGE_CURVE('',#303,#308,#186,.T.);
#383=EDGE_CURVE('',#309,#308,#187,.T.);
#384=EDGE_CURVE('',#309,#310,#188,.T.);
#385=EDGE_CURVE('',#307,#310,#189,.T.);
#386=EDGE_CURVE('',#310,#311,#141,.T.);
#387=EDGE_CURVE('',#312,#309,#142,.T.);
#388=EDGE_CURVE('',#312,#311,#190,.T.);
#389=EDGE_CURVE('',#311,#313,#129,.T.);
#390=EDGE_CURVE('',#313,#314,#191,.T.);
#391=EDGE_CURVE('',#314,#315,#130,.T.);
#392=EDGE_CURVE('',#315,#307,#143,.T.);
#393=EDGE_CURVE('',#316,#313,#192,.T.);
#394=EDGE_CURVE('',#317,#316,#193,.T.);
#395=EDGE_CURVE('',#318,#317,#194,.T.);
#396=EDGE_CURVE('',#314,#318,#195,.T.);
#397=EDGE_CURVE('',#316,#312,#131,.T.);
#398=EDGE_CURVE('',#308,#319,#144,.T.);
#399=EDGE_CURVE('',#320,#303,#145,.F.);
#400=EDGE_CURVE('',#320,#319,#196,.T.);
#401=EDGE_CURVE('',#319,#317,#132,.T.);
#402=EDGE_CURVE('',#306,#321,#146,.F.);
#403=EDGE_CURVE('',#320,#321,#197,.T.);
#404=EDGE_CURVE('',#318,#322,#133,.F.);
#405=EDGE_CURVE('',#322,#323,#198,.T.);
#406=EDGE_CURVE('',#324,#323,#147,.T.);
#407=EDGE_CURVE('',#318,#324,#199,.T.);
#408=EDGE_CURVE('',#318,#325,#134,.T.);
#409=EDGE_CURVE('',#324,#326,#148,.F.);
#410=EDGE_CURVE('',#326,#325,#200,.T.);
#411=EDGE_CURVE('',#315,#325,#201,.T.);
#412=EDGE_CURVE('',#325,#304,#202,.T.);
#413=EDGE_CURVE('',#305,#326,#203,.T.);
#414=EDGE_CURVE('',#320,#322,#204,.T.);
#415=EDGE_CURVE('',#323,#321,#205,.T.);
#416=EDGE_CURVE('',#282,#293,#206,.T.);
#417=EDGE_CURVE('',#280,#295,#207,.T.);
#418=EDGE_CURVE('',#278,#297,#208,.T.);
#419=EDGE_CURVE('',#276,#299,#209,.T.);
#420=ORIENTED_EDGE('',*,*,#327,.T.);
#421=ORIENTED_EDGE('',*,*,#328,.T.);
#422=ORIENTED_EDGE('',*,*,#329,.T.);
#423=ORIENTED_EDGE('',*,*,#330,.T.);
#424=ORIENTED_EDGE('',*,*,#331,.T.);
#425=ORIENTED_EDGE('',*,*,#332,.T.);
#426=ORIENTED_EDGE('',*,*,#333,.T.);
#427=ORIENTED_EDGE('',*,*,#330,.F.);
#428=ORIENTED_EDGE('',*,*,#334,.T.);
#429=ORIENTED_EDGE('',*,*,#335,.T.);
#430=ORIENTED_EDGE('',*,*,#336,.T.);
#431=ORIENTED_EDGE('',*,*,#332,.F.);
#432=ORIENTED_EDGE('',*,*,#337,.T.);
#433=ORIENTED_EDGE('',*,*,#338,.T.);
#434=ORIENTED_EDGE('',*,*,#339,.T.);
#435=ORIENTED_EDGE('',*,*,#335,.F.);
#436=ORIENTED_EDGE('',*,*,#340,.T.);
#437=ORIENTED_EDGE('',*,*,#341,.T.);
#438=ORIENTED_EDGE('',*,*,#342,.T.);
#439=ORIENTED_EDGE('',*,*,#338,.F.);
#440=ORIENTED_EDGE('',*,*,#343,.T.);
#441=ORIENTED_EDGE('',*,*,#341,.F.);
#442=ORIENTED_EDGE('',*,*,#344,.T.);
#443=ORIENTED_EDGE('',*,*,#345,.T.);
#444=ORIENTED_EDGE('',*,*,#346,.T.);
#445=ORIENTED_EDGE('',*,*,#347,.T.);
#446=ORIENTED_EDGE('',*,*,#348,.T.);
#447=ORIENTED_EDGE('',*,*,#345,.F.);
#448=ORIENTED_EDGE('',*,*,#346,.F.);
#449=ORIENTED_EDGE('',*,*,#344,.F.);
#450=ORIENTED_EDGE('',*,*,#340,.F.);
#451=ORIENTED_EDGE('',*,*,#337,.F.);
#452=ORIENTED_EDGE('',*,*,#334,.F.);
#453=ORIENTED_EDGE('',*,*,#331,.F.);
#454=ORIENTED_EDGE('',*,*,#329,.F.);
#455=ORIENTED_EDGE('',*,*,#349,.T.);
#456=ORIENTED_EDGE('',*,*,#327,.F.);
#457=ORIENTED_EDGE('',*,*,#350,.T.);
#458=ORIENTED_EDGE('',*,*,#351,.F.);
#459=ORIENTED_EDGE('',*,*,#352,.F.);
#460=ORIENTED_EDGE('',*,*,#353,.T.);
#461=ORIENTED_EDGE('',*,*,#354,.T.);
#462=ORIENTED_EDGE('',*,*,#355,.T.);
#463=ORIENTED_EDGE('',*,*,#356,.T.);
#464=ORIENTED_EDGE('',*,*,#357,.T.);
#465=ORIENTED_EDGE('',*,*,#356,.F.);
#466=ORIENTED_EDGE('',*,*,#358,.T.);
#467=ORIENTED_EDGE('',*,*,#359,.T.);
#468=ORIENTED_EDGE('',*,*,#360,.T.);
#469=ORIENTED_EDGE('',*,*,#359,.F.);
#470=ORIENTED_EDGE('',*,*,#361,.T.);
#471=ORIENTED_EDGE('',*,*,#362,.T.);
#472=ORIENTED_EDGE('',*,*,#363,.T.);
#473=ORIENTED_EDGE('',*,*,#362,.F.);
#474=ORIENTED_EDGE('',*,*,#364,.T.);
#475=ORIENTED_EDGE('',*,*,#365,.T.);
#476=ORIENTED_EDGE('',*,*,#366,.T.);
#477=ORIENTED_EDGE('',*,*,#365,.F.);
#478=ORIENTED_EDGE('',*,*,#367,.T.);
#479=ORIENTED_EDGE('',*,*,#368,.T.);
#480=ORIENTED_EDGE('',*,*,#369,.T.);
#481=ORIENTED_EDGE('',*,*,#368,.F.);
#482=ORIENTED_EDGE('',*,*,#370,.T.);
#483=ORIENTED_EDGE('',*,*,#371,.T.);
#484=ORIENTED_EDGE('',*,*,#372,.T.);
#485=ORIENTED_EDGE('',*,*,#373,.T.);
#486=ORIENTED_EDGE('',*,*,#351,.T.);
#487=ORIENTED_EDGE('',*,*,#371,.F.);
#488=ORIENTED_EDGE('',*,*,#372,.F.);
#489=ORIENTED_EDGE('',*,*,#370,.F.);
#490=ORIENTED_EDGE('',*,*,#367,.F.);
#491=ORIENTED_EDGE('',*,*,#364,.F.);
#492=ORIENTED_EDGE('',*,*,#361,.F.);
#493=ORIENTED_EDGE('',*,*,#358,.F.);
#494=ORIENTED_EDGE('',*,*,#355,.F.);
#495=ORIENTED_EDGE('',*,*,#374,.T.);
#496=ORIENTED_EDGE('',*,*,#348,.F.);
#497=ORIENTED_EDGE('',*,*,#375,.T.);
#498=ORIENTED_EDGE('',*,*,#353,.F.);
#499=ORIENTED_EDGE('',*,*,#376,.F.);
#500=ORIENTED_EDGE('',*,*,#377,.T.);
#501=ORIENTED_EDGE('',*,*,#378,.T.);
#502=ORIENTED_EDGE('',*,*,#379,.T.);
#503=ORIENTED_EDGE('',*,*,#380,.F.);
#504=ORIENTED_EDGE('',*,*,#381,.T.);
#505=ORIENTED_EDGE('',*,*,#382,.T.);
#506=ORIENTED_EDGE('',*,*,#383,.F.);
#507=ORIENTED_EDGE('',*,*,#384,.T.);
#508=ORIENTED_EDGE('',*,*,#385,.F.);
#509=ORIENTED_EDGE('',*,*,#386,.F.);
#510=ORIENTED_EDGE('',*,*,#384,.F.);
#511=ORIENTED_EDGE('',*,*,#387,.F.);
#512=ORIENTED_EDGE('',*,*,#388,.T.);
#513=ORIENTED_EDGE('',*,*,#389,.T.);
#514=ORIENTED_EDGE('',*,*,#390,.T.);
#515=ORIENTED_EDGE('',*,*,#391,.T.);
#516=ORIENTED_EDGE('',*,*,#392,.T.);
#517=ORIENTED_EDGE('',*,*,#385,.T.);
#518=ORIENTED_EDGE('',*,*,#386,.T.);
#519=ORIENTED_EDGE('',*,*,#390,.F.);
#520=ORIENTED_EDGE('',*,*,#393,.F.);
#521=ORIENTED_EDGE('',*,*,#394,.F.);
#522=ORIENTED_EDGE('',*,*,#395,.F.);
#523=ORIENTED_EDGE('',*,*,#396,.F.);
#524=ORIENTED_EDGE('',*,*,#389,.F.);
#525=ORIENTED_EDGE('',*,*,#388,.F.);
#526=ORIENTED_EDGE('',*,*,#397,.F.);
#527=ORIENTED_EDGE('',*,*,#393,.T.);
#528=ORIENTED_EDGE('',*,*,#398,.F.);
#529=ORIENTED_EDGE('',*,*,#382,.F.);
#530=ORIENTED_EDGE('',*,*,#399,.F.);
#531=ORIENTED_EDGE('',*,*,#400,.T.);
#532=ORIENTED_EDGE('',*,*,#401,.T.);
#533=ORIENTED_EDGE('',*,*,#394,.T.);
#534=ORIENTED_EDGE('',*,*,#397,.T.);
#535=ORIENTED_EDGE('',*,*,#387,.T.);
#536=ORIENTED_EDGE('',*,*,#383,.T.);
#537=ORIENTED_EDGE('',*,*,#398,.T.);
#538=ORIENTED_EDGE('',*,*,#399,.T.);
#539=ORIENTED_EDGE('',*,*,#380,.T.);
#540=ORIENTED_EDGE('',*,*,#402,.T.);
#541=ORIENTED_EDGE('',*,*,#403,.F.);
#542=ORIENTED_EDGE('',*,*,#404,.T.);
#543=ORIENTED_EDGE('',*,*,#405,.T.);
#544=ORIENTED_EDGE('',*,*,#406,.F.);
#545=ORIENTED_EDGE('',*,*,#407,.F.);
#546=ORIENTED_EDGE('',*,*,#408,.F.);
#547=ORIENTED_EDGE('',*,*,#407,.T.);
#548=ORIENTED_EDGE('',*,*,#409,.T.);
#549=ORIENTED_EDGE('',*,*,#410,.T.);
#550=ORIENTED_EDGE('',*,*,#392,.F.);
#551=ORIENTED_EDGE('',*,*,#411,.T.);
#552=ORIENTED_EDGE('',*,*,#412,.T.);
#553=ORIENTED_EDGE('',*,*,#377,.F.);
#554=ORIENTED_EDGE('',*,*,#381,.F.);
#555=ORIENTED_EDGE('',*,*,#378,.F.);
#556=ORIENTED_EDGE('',*,*,#412,.F.);
#557=ORIENTED_EDGE('',*,*,#410,.F.);
#558=ORIENTED_EDGE('',*,*,#413,.F.);
#559=ORIENTED_EDGE('',*,*,#405,.F.);
#560=ORIENTED_EDGE('',*,*,#414,.F.);
#561=ORIENTED_EDGE('',*,*,#403,.T.);
#562=ORIENTED_EDGE('',*,*,#415,.F.);
#563=ORIENTED_EDGE('',*,*,#401,.F.);
#564=ORIENTED_EDGE('',*,*,#400,.F.);
#565=ORIENTED_EDGE('',*,*,#414,.T.);
#566=ORIENTED_EDGE('',*,*,#404,.F.);
#567=ORIENTED_EDGE('',*,*,#395,.T.);
#568=ORIENTED_EDGE('',*,*,#391,.F.);
#569=ORIENTED_EDGE('',*,*,#396,.T.);
#570=ORIENTED_EDGE('',*,*,#408,.T.);
#571=ORIENTED_EDGE('',*,*,#411,.F.);
#572=ORIENTED_EDGE('',*,*,#343,.F.);
#573=ORIENTED_EDGE('',*,*,#376,.T.);
#574=ORIENTED_EDGE('',*,*,#357,.F.);
#575=ORIENTED_EDGE('',*,*,#416,.F.);
#576=ORIENTED_EDGE('',*,*,#342,.F.);
#577=ORIENTED_EDGE('',*,*,#416,.T.);
#578=ORIENTED_EDGE('',*,*,#360,.F.);
#579=ORIENTED_EDGE('',*,*,#417,.F.);
#580=ORIENTED_EDGE('',*,*,#339,.F.);
#581=ORIENTED_EDGE('',*,*,#417,.T.);
#582=ORIENTED_EDGE('',*,*,#363,.F.);
#583=ORIENTED_EDGE('',*,*,#418,.F.);
#584=ORIENTED_EDGE('',*,*,#336,.F.);
#585=ORIENTED_EDGE('',*,*,#418,.T.);
#586=ORIENTED_EDGE('',*,*,#366,.F.);
#587=ORIENTED_EDGE('',*,*,#419,.F.);
#588=ORIENTED_EDGE('',*,*,#333,.F.);
#589=ORIENTED_EDGE('',*,*,#419,.T.);
#590=ORIENTED_EDGE('',*,*,#369,.F.);
#591=ORIENTED_EDGE('',*,*,#350,.F.);
#592=ORIENTED_EDGE('',*,*,#347,.F.);
#593=ORIENTED_EDGE('',*,*,#349,.F.);
#594=ORIENTED_EDGE('',*,*,#328,.F.);
#595=ORIENTED_EDGE('',*,*,#352,.T.);
#596=ORIENTED_EDGE('',*,*,#373,.F.);
#597=ORIENTED_EDGE('',*,*,#374,.F.);
#598=ORIENTED_EDGE('',*,*,#354,.F.);
#599=ORIENTED_EDGE('',*,*,#375,.F.);
#600=ORIENTED_EDGE('',*,*,#413,.T.);
#601=ORIENTED_EDGE('',*,*,#409,.F.);
#602=ORIENTED_EDGE('',*,*,#406,.T.);
#603=ORIENTED_EDGE('',*,*,#415,.T.);
#604=ORIENTED_EDGE('',*,*,#402,.F.);
#605=ORIENTED_EDGE('',*,*,#379,.F.);
#606=CYLINDRICAL_SURFACE('',#680,4.5);
#607=CYLINDRICAL_SURFACE('',#683,4.5);
#608=CYLINDRICAL_SURFACE('',#685,4.5);
#609=CYLINDRICAL_SURFACE('',#687,4.5);
#610=CYLINDRICAL_SURFACE('',#689,4.5);
#611=CYLINDRICAL_SURFACE('',#691,4.5);
#612=CYLINDRICAL_SURFACE('',#693,4.5);
#613=CYLINDRICAL_SURFACE('',#697,4.5);
#614=CYLINDRICAL_SURFACE('',#700,4.5);
#615=CYLINDRICAL_SURFACE('',#702,4.5);
#616=CYLINDRICAL_SURFACE('',#704,4.5);
#617=CYLINDRICAL_SURFACE('',#706,4.5);
#618=CYLINDRICAL_SURFACE('',#708,4.5);
#619=CYLINDRICAL_SURFACE('',#710,4.5);
#620=CYLINDRICAL_SURFACE('',#714,1.5);
#621=CYLINDRICAL_SURFACE('',#721,1.5);
#622=CYLINDRICAL_SURFACE('',#731,1.5);
#623=CYLINDRICAL_SURFACE('',#733,1.5);
#624=CYLINDRICAL_SURFACE('',#735,1.5);
#625=CYLINDRICAL_SURFACE('',#738,1.5);
#626=ADVANCED_FACE('',(#36),#606,.T.);
#627=ADVANCED_FACE('',(#37),#607,.T.);
#628=ADVANCED_FACE('',(#38),#608,.T.);
#629=ADVANCED_FACE('',(#39),#609,.T.);
#630=ADVANCED_FACE('',(#40),#610,.T.);
#631=ADVANCED_FACE('',(#41),#611,.T.);
#632=ADVANCED_FACE('',(#42),#612,.T.);
#633=ADVANCED_FACE('',(#43),#16,.T.);
#634=ADVANCED_FACE('',(#44),#17,.T.);
#635=ADVANCED_FACE('',(#45),#613,.T.);
#636=ADVANCED_FACE('',(#46),#614,.T.);
#637=ADVANCED_FACE('',(#47),#615,.T.);
#638=ADVANCED_FACE('',(#48),#616,.T.);
#639=ADVANCED_FACE('',(#49),#617,.T.);
#640=ADVANCED_FACE('',(#50),#618,.T.);
#641=ADVANCED_FACE('',(#51),#619,.T.);
#642=ADVANCED_FACE('',(#52),#18,.T.);
#643=ADVANCED_FACE('',(#53),#19,.T.);
#644=ADVANCED_FACE('',(#54),#620,.T.);
#645=ADVANCED_FACE('',(#55),#20,.T.);
#646=ADVANCED_FACE('',(#56),#21,.T.);
#647=ADVANCED_FACE('',(#57),#621,.T.);
#648=ADVANCED_FACE('',(#58),#22,.T.);
#649=ADVANCED_FACE('',(#59),#23,.T.);
#650=ADVANCED_FACE('',(#60),#24,.T.);
#651=ADVANCED_FACE('',(#61),#622,.T.);
#652=ADVANCED_FACE('',(#62),#623,.T.);
#653=ADVANCED_FACE('',(#63),#624,.T.);
#654=ADVANCED_FACE('',(#64),#625,.T.);
#655=ADVANCED_FACE('',(#65),#25,.T.);
#656=ADVANCED_FACE('',(#66),#26,.T.);
#657=ADVANCED_FACE('',(#67),#27,.T.);
#658=ADVANCED_FACE('',(#68),#28,.T.);
#659=ADVANCED_FACE('',(#69),#29,.T.);
#660=ADVANCED_FACE('',(#70),#30,.T.);
#661=ADVANCED_FACE('',(#71),#31,.T.);
#662=ADVANCED_FACE('',(#72),#32,.T.);
#663=ADVANCED_FACE('',(#73),#33,.T.);
#664=ADVANCED_FACE('',(#74),#34,.T.);
#665=ADVANCED_FACE('',(#75,#15),#35,.T.);
#666=CLOSED_SHELL('',(#626,#627,#628,#629,#630,#631,#632,#633,#634,#635,
#636,#637,#638,#639,#640,#641,#642,#643,#644,#645,#646,#647,#648,#649,#650,
#651,#652,#653,#654,#655,#656,#657,#658,#659,#660,#661,#662,#663,#664,#665));
#667=DERIVED_UNIT_ELEMENT(#669,1.);
#668=DERIVED_UNIT_ELEMENT(#1154,-3.);
#669=(
MASS_UNIT()
NAMED_UNIT(*)
SI_UNIT(.KILO.,.GRAM.)
);
#670=DERIVED_UNIT((#667,#668));
#671=MEASURE_REPRESENTATION_ITEM('density measure',
POSITIVE_RATIO_MEASURE(7850.),#670);
#672=PROPERTY_DEFINITION_REPRESENTATION(#677,#674);
#673=PROPERTY_DEFINITION_REPRESENTATION(#678,#675);
#674=REPRESENTATION('material name',(#676),#1151);
#675=REPRESENTATION('density',(#671),#1151);
#676=DESCRIPTIVE_REPRESENTATION_ITEM('Steel','Steel');
#677=PROPERTY_DEFINITION('material property','material name',#1161);
#678=PROPERTY_DEFINITION('material property','density of part',#1161);
#679=AXIS2_PLACEMENT_3D('',#959,#752,#753);
#680=AXIS2_PLACEMENT_3D('',#960,#754,#755);
#681=AXIS2_PLACEMENT_3D('',#965,#757,#758);
#682=AXIS2_PLACEMENT_3D('',#968,#760,#761);
#683=AXIS2_PLACEMENT_3D('',#969,#762,#763);
#684=AXIS2_PLACEMENT_3D('',#973,#765,#766);
#685=AXIS2_PLACEMENT_3D('',#975,#768,#769);
#686=AXIS2_PLACEMENT_3D('',#979,#771,#772);
#687=AXIS2_PLACEMENT_3D('',#981,#774,#775);
#688=AXIS2_PLACEMENT_3D('',#985,#777,#778);
#689=AXIS2_PLACEMENT_3D('',#987,#780,#781);
#690=AXIS2_PLACEMENT_3D('',#991,#783,#784);
#691=AXIS2_PLACEMENT_3D('',#993,#786,#787);
#692=AXIS2_PLACEMENT_3D('',#998,#790,#791);
#693=AXIS2_PLACEMENT_3D('',#999,#792,#793);
#694=AXIS2_PLACEMENT_3D('',#1003,#795,#796);
#695=AXIS2_PLACEMENT_3D('',#1005,#798,#799);
#696=AXIS2_PLACEMENT_3D('',#1007,#801,#802);
#697=AXIS2_PLACEMENT_3D('',#1013,#806,#807);
#698=AXIS2_PLACEMENT_3D('',#1018,#809,#810);
#699=AXIS2_PLACEMENT_3D('',#1021,#812,#813);
#700=AXIS2_PLACEMENT_3D('',#1022,#814,#815);
#701=AXIS2_PLACEMENT_3D('',#1027,#818,#819);
#702=AXIS2_PLACEMENT_3D('',#1028,#820,#821);
#703=AXIS2_PLACEMENT_3D('',#1033,#824,#825);
#704=AXIS2_PLACEMENT_3D('',#1034,#826,#827);
#705=AXIS2_PLACEMENT_3D('',#1039,#830,#831);
#706=AXIS2_PLACEMENT_3D('',#1040,#832,#833);
#707=AXIS2_PLACEMENT_3D('',#1045,#836,#837);
#708=AXIS2_PLACEMENT_3D('',#1046,#838,#839);
#709=AXIS2_PLACEMENT_3D('',#1050,#842,#843);
#710=AXIS2_PLACEMENT_3D('',#1051,#844,#845);
#711=AXIS2_PLACEMENT_3D('',#1054,#847,#848);
#712=AXIS2_PLACEMENT_3D('',#1055,#849,#850);
#713=AXIS2_PLACEMENT_3D('',#1057,#852,#853);
#714=AXIS2_PLACEMENT_3D('',#1060,#856,#857);
#715=AXIS2_PLACEMENT_3D('',#1063,#858,#859);
#716=AXIS2_PLACEMENT_3D('',#1067,#861,#862);
#717=AXIS2_PLACEMENT_3D('',#1069,#864,#865);
#718=AXIS2_PLACEMENT_3D('',#1079,#871,#872);
#719=AXIS2_PLACEMENT_3D('',#1081,#873,#874);
#720=AXIS2_PLACEMENT_3D('',#1083,#875,#876);
#721=AXIS2_PLACEMENT_3D('',#1085,#878,#879);
#722=AXIS2_PLACEMENT_3D('',#1087,#880,#881);
#723=AXIS2_PLACEMENT_3D('',#1091,#883,#884);
#724=AXIS2_PLACEMENT_3D('',#1092,#885,#886);
#725=AXIS2_PLACEMENT_3D('',#1093,#887,#888);
#726=AXIS2_PLACEMENT_3D('',#1101,#893,#894);
#727=AXIS2_PLACEMENT_3D('',#1102,#895,#896);
#728=AXIS2_PLACEMENT_3D('',#1103,#897,#898);
#729=AXIS2_PLACEMENT_3D('',#1105,#899,#900);
#730=AXIS2_PLACEMENT_3D('',#1107,#901,#902);
#731=AXIS2_PLACEMENT_3D('',#1109,#904,#905);
#732=AXIS2_PLACEMENT_3D('',#1110,#906,#907);
#733=AXIS2_PLACEMENT_3D('',#1111,#908,#909);
#734=AXIS2_PLACEMENT_3D('',#1113,#910,#911);
#735=AXIS2_PLACEMENT_3D('',#1115,#913,#914);
#736=AXIS2_PLACEMENT_3D('',#1117,#915,#916);
#737=AXIS2_PLACEMENT_3D('',#1121,#918,#919);
#738=AXIS2_PLACEMENT_3D('',#1123,#921,#922);
#739=AXIS2_PLACEMENT_3D('',#1125,#923,#924);
#740=AXIS2_PLACEMENT_3D('',#1127,#925,#926);
#741=AXIS2_PLACEMENT_3D('',#1129,#928,#929);
#742=AXIS2_PLACEMENT_3D('',#1132,#932,#933);
#743=AXIS2_PLACEMENT_3D('',#1134,#935,#936);
#744=AXIS2_PLACEMENT_3D('',#1137,#939,#940);
#745=AXIS2_PLACEMENT_3D('',#1138,#941,#942);
#746=AXIS2_PLACEMENT_3D('',#1139,#943,#944);
#747=AXIS2_PLACEMENT_3D('',#1141,#946,#947);
#748=AXIS2_PLACEMENT_3D('',#1143,#949,#950);
#749=AXIS2_PLACEMENT_3D('',#1145,#952,#953);
#750=AXIS2_PLACEMENT_3D('',#1147,#955,#956);
#751=AXIS2_PLACEMENT_3D('',#1148,#957,#958);
#752=DIRECTION('axis',(0.,0.,1.));
#753=DIRECTION('refdir',(1.,0.,0.));
#754=DIRECTION('center_axis',(-1.,0.,0.));
#755=DIRECTION('ref_axis',(0.,-0.707106781186548,-0.707106781186548));
#756=DIRECTION('',(-1.,0.,0.));
#757=DIRECTION('center_axis',(1.,-8.30446822419617E-13,0.));
#758=DIRECTION('ref_axis',(0.,-0.707106781186548,-0.707106781186548));
#759=DIRECTION('',(1.,0.,0.));
#760=DIRECTION('center_axis',(-0.707106781186221,0.707106781186874,0.));
#761=DIRECTION('ref_axis',(0.707106781186874,0.707106781186221,0.));
#762=DIRECTION('center_axis',(2.22044604925031E-16,1.,0.));
#763=DIRECTION('ref_axis',(-0.707106781186548,1.74454717631531E-16,-0.707106781186547));
#764=DIRECTION('',(-2.22044604925031E-16,-1.,0.));
#765=DIRECTION('center_axis',(-0.707106781186547,0.707106781186548,0.));
#766=DIRECTION('ref_axis',(-0.707106781186548,-0.707106781186547,0.));
#767=DIRECTION('',(2.22044604925031E-16,1.,0.));
#768=DIRECTION('center_axis',(-1.,8.88178419700124E-16,0.));
#769=DIRECTION('ref_axis',(-6.97818870526122E-16,-0.707106781186547,-0.707106781186548));
#770=DIRECTION('',(1.,-8.88178419700124E-16,0.));
#771=DIRECTION('center_axis',(-0.707106781186548,-0.707106781186547,0.));
#772=DIRECTION('ref_axis',(0.707106781186547,-0.707106781186548,0.));
#773=DIRECTION('',(-1.,8.88178419700124E-16,0.));
#774=DIRECTION('center_axis',(0.,-1.,0.));
#775=DIRECTION('ref_axis',(0.707106781186547,0.,-0.707106781186548));
#776=DIRECTION('',(0.,1.,0.));
#777=DIRECTION('center_axis',(0.707106781186547,-0.707106781186548,0.));
#778=DIRECTION('ref_axis',(0.707106781186548,0.707106781186547,0.));
#779=DIRECTION('',(0.,-1.,0.));
#780=DIRECTION('center_axis',(1.,-1.11022302462516E-15,0.));
#781=DIRECTION('ref_axis',(6.97818870526122E-16,0.707106781186548,-0.707106781186547));
#782=DIRECTION('',(-1.,1.11022302462516E-15,0.));
#783=DIRECTION('center_axis',(0.707106781186548,0.707106781186547,0.));
#784=DIRECTION('ref_axis',(-0.707106781186547,0.707106781186548,0.));
#785=DIRECTION('',(1.,-1.11022302462516E-15,0.));
#786=DIRECTION('center_axis',(2.22044604925031E-16,1.,0.));
#787=DIRECTION('ref_axis',(-0.707106781186547,3.48909435263061E-16,-0.707106781186548));
#788=DIRECTION('',(2.22044604925031E-16,1.,0.));
#789=DIRECTION('',(-2.22044604925031E-16,-1.,0.));
#790=DIRECTION('center_axis',(0.707106781186222,0.707106781186874,2.18068397039514E-17));
#791=DIRECTION('ref_axis',(0.707106781186874,-0.707106781186222,2.18068397039715E-17));
#792=DIRECTION('center_axis',(1.,2.299349701138E-17,0.));
#793=DIRECTION('ref_axis',(0.,0.707106781186547,-0.707106781186548));
#794=DIRECTION('',(-1.,-2.299349701138E-17,0.));
#795=DIRECTION('center_axis',(1.,-8.30446822419617E-13,0.));
#796=DIRECTION('ref_axis',(0.,0.707106781186547,-0.707106781186548));
#797=DIRECTION('',(1.,2.299349701138E-17,0.));
#798=DIRECTION('center_axis',(0.,0.,-1.));
#799=DIRECTION('ref_axis',(-1.,0.,0.));
#800=DIRECTION('',(8.30446822419617E-13,1.,0.));
#801=DIRECTION('center_axis',(0.,-1.,0.));
#802=DIRECTION('ref_axis',(1.,0.,0.));
#803=DIRECTION('',(0.,0.,1.));
#804=DIRECTION('',(1.,0.,0.));
#805=DIRECTION('',(0.,0.,1.));
#806=DIRECTION('center_axis',(-1.,-2.299349701138E-17,0.));
#807=DIRECTION('ref_axis',(0.,0.707106781186547,0.707106781186548));
#808=DIRECTION('',(-1.,-2.299349701138E-17,0.));
#809=DIRECTION('center_axis',(1.,-8.30446822419617E-13,0.));
#810=DIRECTION('ref_axis',(0.,0.707106781186547,0.707106781186548));
#811=DIRECTION('',(1.,2.299349701138E-17,0.));
#812=DIRECTION('center_axis',(-0.707106781186222,-0.707106781186874,-2.18068397039514E-17));
#813=DIRECTION('ref_axis',(0.707106781186874,-0.707106781186222,-2.18068397039313E-17));
#814=DIRECTION('center_axis',(-2.22044604925031E-16,-1.,0.));
#815=DIRECTION('ref_axis',(-0.707106781186547,3.48909435263061E-16,0.707106781186548));
#816=DIRECTION('',(-2.22044604925031E-16,-1.,0.));
#817=DIRECTION('',(2.22044604925031E-16,1.,0.));
#818=DIRECTION('center_axis',(-0.707106781186548,-0.707106781186547,0.));
#819=DIRECTION('ref_axis',(-0.707106781186547,0.707106781186548,0.));
#820=DIRECTION('center_axis',(-1.,1.11022302462516E-15,0.));
#821=DIRECTION('ref_axis',(6.97818870526122E-16,0.707106781186548,0.707106781186547));
#822=DIRECTION('',(-1.,1.11022302462516E-15,0.));
#823=DIRECTION('',(1.,-1.11022302462516E-15,0.));
#824=DIRECTION('center_axis',(-0.707106781186547,0.707106781186548,0.));
#825=DIRECTION('ref_axis',(0.707106781186548,0.707106781186547,0.));
#826=DIRECTION('center_axis',(0.,1.,0.));
#827=DIRECTION('ref_axis',(0.707106781186547,0.,0.707106781186548));
#828=DIRECTION('',(0.,1.,0.));
#829=DIRECTION('',(0.,-1.,0.));
#830=DIRECTION('center_axis',(0.707106781186548,0.707106781186547,0.));
#831=DIRECTION('ref_axis',(0.707106781186547,-0.707106781186548,0.));
#832=DIRECTION('center_axis',(1.,-8.88178419700124E-16,0.));
#833=DIRECTION('ref_axis',(-6.97818870526122E-16,-0.707106781186547,0.707106781186548));
#834=DIRECTION('',(1.,-8.88178419700124E-16,0.));
#835=DIRECTION('',(-1.,8.88178419700124E-16,0.));
#836=DIRECTION('center_axis',(0.707106781186547,-0.707106781186548,-3.48909435263061E-16));
#837=DIRECTION('ref_axis',(-0.707106781186548,-0.707106781186547,-3.48909435263061E-16));
#838=DIRECTION('center_axis',(-2.22044604925031E-16,-1.,0.));
#839=DIRECTION('ref_axis',(-0.707106781186548,1.74454717631531E-16,0.707106781186547));
#840=DIRECTION('',(-2.22044604925031E-16,-1.,0.));
#841=DIRECTION('',(2.22044604925031E-16,1.,0.));
#842=DIRECTION('center_axis',(0.707106781186221,-0.707106781186874,0.));
#843=DIRECTION('ref_axis',(0.707106781186874,0.707106781186221,0.));
#844=DIRECTION('center_axis',(1.,0.,0.));
#845=DIRECTION('ref_axis',(0.,-0.707106781186548,0.707106781186548));
#846=DIRECTION('',(-1.,0.,0.));
#847=DIRECTION('center_axis',(1.,-8.30446822419617E-13,0.));
#848=DIRECTION('ref_axis',(0.,-0.707106781186548,0.707106781186548));
#849=DIRECTION('center_axis',(0.,0.,1.));
#850=DIRECTION('ref_axis',(1.,0.,0.));
#851=DIRECTION('',(-8.30446822419617E-13,-1.,0.));
#852=DIRECTION('center_axis',(-2.299349701138E-17,1.,0.));
#853=DIRECTION('ref_axis',(-1.,-2.299349701138E-17,0.));
#854=DIRECTION('',(0.,0.,1.));
#855=DIRECTION('',(0.,0.,1.));
#856=DIRECTION('center_axis',(1.,1.70582524765846E-17,0.));
#857=DIRECTION('ref_axis',(0.,0.666666666666667,-0.74535599249993));
#858=DIRECTION('center_axis',(-1.,1.48029736616688E-15,0.));
#859=DIRECTION('ref_axis',(0.,0.666666666666667,-0.74535599249993));
#860=DIRECTION('',(1.,1.70582524765846E-17,0.));
#861=DIRECTION('center_axis',(1.,-8.30446822419617E-13,0.));
#862=DIRECTION('ref_axis',(0.,0.666666666666667,-0.74535599249993));
#863=DIRECTION('',(1.,1.23672330455238E-16,0.));
#864=DIRECTION('center_axis',(0.,0.,-1.));
#865=DIRECTION('ref_axis',(-1.,0.,0.));
#866=DIRECTION('',(-1.48029736616688E-15,-1.,0.));
#867=DIRECTION('',(-1.48029736616688E-15,-1.,0.));
#868=DIRECTION('',(1.,-3.08395284618101E-16,0.));
#869=DIRECTION('',(-2.96059473233375E-16,1.,0.));
#870=DIRECTION('',(-1.,-6.16790569236198E-16,0.));
#871=DIRECTION('center_axis',(-1.,-2.96059473233375E-16,0.));
#872=DIRECTION('ref_axis',(-2.96059473233375E-16,1.,0.));
#873=DIRECTION('center_axis',(1.,2.96059473233375E-16,0.));
#874=DIRECTION('ref_axis',(0.,0.707106781186548,-0.707106781186548));
#875=DIRECTION('center_axis',(1.,2.96059473233375E-16,0.));
#876=DIRECTION('ref_axis',(0.,-0.707106781186548,-0.707106781186548));
#877=DIRECTION('',(-2.96059473233375E-16,1.,0.));
#878=DIRECTION('center_axis',(1.,6.16790569236198E-16,0.));
#879=DIRECTION('ref_axis',(0.,1.,0.));
#880=DIRECTION('center_axis',(0.999847695156391,2.96014381941605E-16,0.0174524064372831));
#881=DIRECTION('ref_axis',(-0.0174524064372831,-1.07644797009933E-17,0.999847695156391));
#882=DIRECTION('',(1.,6.16790569236198E-16,0.));
#883=DIRECTION('center_axis',(-0.999847695156391,1.48007190970803E-15,0.0174524064372831));
#884=DIRECTION('ref_axis',(0.0174524064372831,1.07644797009933E-17,0.999847695156391));
#885=DIRECTION('center_axis',(-1.,1.48029736616688E-15,0.));
#886=DIRECTION('ref_axis',(0.,0.707106781186548,-0.707106781186548));
#887=DIRECTION('center_axis',(0.,0.,1.));
#888=DIRECTION('ref_axis',(1.,0.,0.));
#889=DIRECTION('',(-2.96059473233375E-16,1.,0.));
#890=DIRECTION('',(-1.,3.08395284618101E-16,0.));
#891=DIRECTION('',(-1.48029736616688E-15,-1.,0.));
#892=DIRECTION('',(-1.48029736616688E-15,-1.,0.));
#893=DIRECTION('center_axis',(-0.999847695156391,-2.96014381941605E-16,
-0.0174524064372831));
#894=DIRECTION('ref_axis',(2.96059473233375E-16,-1.,0.));
#895=DIRECTION('center_axis',(0.999847695156391,2.96014381941605E-16,0.0174524064372831));
#896=DIRECTION('ref_axis',(-0.0174524064372831,5.3822398504967E-18,0.999847695156391));
#897=DIRECTION('center_axis',(1.,-1.48029736616688E-15,0.));
#898=DIRECTION('ref_axis',(-1.48029736616688E-15,-1.,0.));
#899=DIRECTION('center_axis',(-1.,1.48029736616688E-15,0.));
#900=DIRECTION('ref_axis',(0.,-0.707106781186548,-0.707106781186548));
#901=DIRECTION('center_axis',(-1.,1.48029736616688E-15,0.));
#902=DIRECTION('ref_axis',(0.,-0.707106781186548,-0.707106781186548));
#903=DIRECTION('',(-1.48029736616688E-15,-1.,0.));
#904=DIRECTION('center_axis',(-1.,3.08395284618101E-16,0.));
#905=DIRECTION('ref_axis',(0.,-1.,0.));
#906=DIRECTION('center_axis',(-0.999847695156391,1.48007190970803E-15,0.0174524064372831));
#907=DIRECTION('ref_axis',(0.0174524064372831,-5.38223985049671E-18,0.999847695156391));
#908=DIRECTION('center_axis',(-1.,-1.23672330455238E-16,0.));
#909=DIRECTION('ref_axis',(0.,-0.707106781186548,-0.707106781186548));
#910=DIRECTION('center_axis',(1.,-8.30446822419617E-13,0.));
#911=DIRECTION('ref_axis',(0.,-0.707106781186548,-0.707106781186548));
#912=DIRECTION('',(1.,1.23672330455238E-16,0.));
#913=DIRECTION('center_axis',(1.,1.23639857247394E-16,1.86038883142811E-18));
#914=DIRECTION('ref_axis',(0.,-0.662439783656395,0.749115166732906));
#915=DIRECTION('center_axis',(-0.999847695156391,1.48007190970803E-15,0.0174524064372831));
#916=DIRECTION('ref_axis',(0.0174524064372831,-2.86116401045433E-13,0.999847695156391));
#917=DIRECTION('',(1.,1.23639857247394E-16,1.86038883142811E-18));
#918=DIRECTION('center_axis',(1.,-8.30446822419617E-13,0.));
#919=DIRECTION('ref_axis',(0.,-0.662439783656395,0.749115166732906));
#920=DIRECTION('',(1.,1.70582524765846E-17,0.));
#921=DIRECTION('center_axis',(1.,1.70582524765846E-17,0.));
#922=DIRECTION('ref_axis',(0.,1.,0.));
#923=DIRECTION('center_axis',(-0.999847695156391,1.48007190970803E-15,0.0174524064372831));
#924=DIRECTION('ref_axis',(0.0174524064372831,2.97707555331145E-19,0.999847695156391));
#925=DIRECTION('center_axis',(1.,-8.30446822419617E-13,0.));
#926=DIRECTION('ref_axis',(0.,1.,0.));
#927=DIRECTION('',(-1.,-1.70582524765846E-17,0.));
#928=DIRECTION('center_axis',(1.,-1.48029736616688E-15,0.));
#929=DIRECTION('ref_axis',(-1.48029736616688E-15,-1.,0.));
#930=DIRECTION('',(-1.48029736616688E-15,-1.,0.));
#931=DIRECTION('',(0.,0.,-1.));
#932=DIRECTION('center_axis',(-1.70582524765846E-17,1.,0.));
#933=DIRECTION('ref_axis',(1.,1.70582524765846E-17,0.));
#934=DIRECTION('',(0.,0.,1.));
#935=DIRECTION('center_axis',(1.2365349456029E-16,-0.999847695156391,-0.0174524064372836));
#936=DIRECTION('ref_axis',(1.,1.23672330455238E-16,0.));
#937=DIRECTION('',(0.0174497491606823,-0.0174497491606827,0.999695459881887));
#938=DIRECTION('',(1.44932954694178E-14,0.0174524064372836,-0.999847695156391));
#939=DIRECTION('center_axis',(0.999847695156391,-1.48007190970803E-15,-0.0174524064372831));
#940=DIRECTION('ref_axis',(1.48029736616688E-15,1.,0.));
#941=DIRECTION('center_axis',(0.999847695156391,-1.48007190970803E-15,-0.0174524064372831));
#942=DIRECTION('ref_axis',(1.48029736616688E-15,1.,0.));
#943=DIRECTION('center_axis',(-1.,2.22044604925031E-16,0.));
#944=DIRECTION('ref_axis',(-2.22044604925031E-16,-1.,0.));
#945=DIRECTION('',(0.,0.,1.));
#946=DIRECTION('center_axis',(1.11022302462516E-15,1.,0.));
#947=DIRECTION('ref_axis',(-1.,1.11022302462516E-15,0.));
#948=DIRECTION('',(0.,0.,1.));
#949=DIRECTION('center_axis',(1.,0.,0.));
#950=DIRECTION('ref_axis',(0.,1.,0.));
#951=DIRECTION('',(0.,0.,1.));
#952=DIRECTION('center_axis',(-8.88178419700124E-16,-1.,0.));
#953=DIRECTION('ref_axis',(1.,-8.88178419700124E-16,0.));
#954=DIRECTION('',(0.,0.,1.));
#955=DIRECTION('center_axis',(-1.,2.22044604925031E-16,0.));
#956=DIRECTION('ref_axis',(-2.22044604925031E-16,-1.,0.));
#957=DIRECTION('center_axis',(-1.,8.30446822419617E-13,0.));
#958=DIRECTION('ref_axis',(-8.30446822419617E-13,-1.,0.));
#959=CARTESIAN_POINT('',(0.,0.,0.));
#960=CARTESIAN_POINT('Origin',(-4.33552726275104,-0.500000000000004,-0.5));
#961=CARTESIAN_POINT('',(11.2710545254979,-5.,-0.5));
#962=CARTESIAN_POINT('',(-12.8710545255021,-5.,-0.5));
#963=CARTESIAN_POINT('',(-4.33552726275104,-5.,-0.5));
#964=CARTESIAN_POINT('',(-12.8710545254983,-0.500000000000004,-5.));
#965=CARTESIAN_POINT('Origin',(-12.8710545254938,-0.500000000000004,-0.5));
#966=CARTESIAN_POINT('',(15.7710545255021,-0.500000000000004,-5.));
#967=CARTESIAN_POINT('',(-4.33552726275104,-0.500000000000004,-5.));
#968=CARTESIAN_POINT('Origin',(15.7710545255021,-0.500000000000004,-0.5));
#969=CARTESIAN_POINT('Origin',(15.7710545255021,-2.50000000000001,-0.5));
#970=CARTESIAN_POINT('',(15.7710545255021,-15.5,-5.));
#971=CARTESIAN_POINT('',(15.7710545255021,-2.50000000000001,-5.));
#972=CARTESIAN_POINT('',(11.2710545255021,-20.,-0.5));
#973=CARTESIAN_POINT('Origin',(15.7710545255021,-15.5,-0.5));
#974=CARTESIAN_POINT('',(11.2710545255021,-2.5,-0.5));
#975=CARTESIAN_POINT('Origin',(7.73552726275103,-15.5,-0.5));
#976=CARTESIAN_POINT('',(16.7710545255021,-15.5,-5.));
#977=CARTESIAN_POINT('',(7.73552726275103,-15.5,-5.));
#978=CARTESIAN_POINT('',(21.2710545255021,-20.,-0.5));
#979=CARTESIAN_POINT('Origin',(16.7710545255021,-15.5,-0.5));
#980=CARTESIAN_POINT('',(7.73552726275103,-20.,-0.5));
#981=CARTESIAN_POINT('Origin',(16.7710545255021,-10.,-0.5));
#982=CARTESIAN_POINT('',(16.7710545255021,15.5,-5.));
#983=CARTESIAN_POINT('',(16.7710545255021,-10.,-5.));
#984=CARTESIAN_POINT('',(21.2710545255021,20.,-0.5));
#985=CARTESIAN_POINT('Origin',(16.7710545255021,15.5,-0.5));
#986=CARTESIAN_POINT('',(21.2710545255021,-10.,-0.5));
#987=CARTESIAN_POINT('Origin',(12.735527262751,15.5,-0.5));
#988=CARTESIAN_POINT('',(15.7710545255021,15.5,-5.));
#989=CARTESIAN_POINT('',(12.735527262751,15.5,-5.));
#990=CARTESIAN_POINT('',(11.2710545255021,20.,-0.5));
#991=CARTESIAN_POINT('Origin',(15.7710545255021,15.5,-0.5));
#992=CARTESIAN_POINT('',(12.7355272627511,20.,-0.5));
#993=CARTESIAN_POINT('Origin',(15.7710545255021,10.,-0.5));
#994=CARTESIAN_POINT('',(11.2710545254979,5.,-0.5));
#995=CARTESIAN_POINT('',(11.2710545255021,10.,-0.5));
#996=CARTESIAN_POINT('',(15.7710545255021,0.499999999999997,-5.));
#997=CARTESIAN_POINT('',(15.7710545255021,10.,-5.));
#998=CARTESIAN_POINT('Origin',(15.7710545255021,0.499999999999997,-0.5));
#999=CARTESIAN_POINT('Origin',(7.73552726274897,0.499999999999997,-0.5));
#1000=CARTESIAN_POINT('',(-12.8710545254975,0.499999999999997,-5.));
#1001=CARTESIAN_POINT('',(7.73552726274897,0.499999999999997,-5.));
#1002=CARTESIAN_POINT('',(-12.8710545255021,5.,-0.5));
#1003=CARTESIAN_POINT('Origin',(-12.8710545254938,0.499999999999997,-0.5));
#1004=CARTESIAN_POINT('',(7.73552726274897,5.,-0.5));
#1005=CARTESIAN_POINT('Origin',(4.2,-4.44089209850063E-15,-5.));
#1006=CARTESIAN_POINT('',(-12.8710545254979,-3.92122865118911E-15,-5.));
#1007=CARTESIAN_POINT('Origin',(-12.8710545255021,-5.,0.));
#1008=CARTESIAN_POINT('',(11.2710545254979,-5.,0.5));
#1009=CARTESIAN_POINT('',(11.2710545254979,-5.,0.));
#1010=CARTESIAN_POINT('',(-12.8710545255021,-5.,0.5));
#1011=CARTESIAN_POINT('',(-4.33552726275104,-5.,0.5));
#1012=CARTESIAN_POINT('',(-12.8710545255021,-5.,0.));
#1013=CARTESIAN_POINT('Origin',(7.73552726274897,0.499999999999997,0.5));
#1014=CARTESIAN_POINT('',(11.2710545254979,5.,0.5));
#1015=CARTESIAN_POINT('',(-12.8710545255021,5.,0.5));
#1016=CARTESIAN_POINT('',(7.73552726274897,5.,0.5));
#1017=CARTESIAN_POINT('',(-12.8710545254975,0.499999999999997,5.));
#1018=CARTESIAN_POINT('Origin',(-12.8710545254938,0.499999999999997,0.5));
#1019=CARTESIAN_POINT('',(15.7710545255021,0.499999999999997,5.));
#1020=CARTESIAN_POINT('',(7.73552726274897,0.499999999999997,5.));
#1021=CARTESIAN_POINT('Origin',(15.7710545255021,0.499999999999997,0.5));
#1022=CARTESIAN_POINT('Origin',(15.7710545255021,10.,0.5));
#1023=CARTESIAN_POINT('',(11.2710545255021,20.,0.5));
#1024=CARTESIAN_POINT('',(11.2710545255021,10.,0.5));
#1025=CARTESIAN_POINT('',(15.7710545255021,15.5,5.));
#1026=CARTESIAN_POINT('',(15.7710545255021,10.,5.));
#1027=CARTESIAN_POINT('Origin',(15.7710545255021,15.5,0.5));
#1028=CARTESIAN_POINT('Origin',(12.735527262751,15.5,0.5));
#1029=CARTESIAN_POINT('',(21.2710545255021,20.,0.5));
#1030=CARTESIAN_POINT('',(12.7355272627511,20.,0.5));
#1031=CARTESIAN_POINT('',(16.7710545255021,15.5,5.));
#1032=CARTESIAN_POINT('',(12.735527262751,15.5,5.));
#1033=CARTESIAN_POINT('Origin',(16.7710545255021,15.5,0.5));
#1034=CARTESIAN_POINT('Origin',(16.7710545255021,-10.,0.5));
#1035=CARTESIAN_POINT('',(21.2710545255021,-20.,0.5));
#1036=CARTESIAN_POINT('',(21.2710545255021,-10.,0.5));
#1037=CARTESIAN_POINT('',(16.7710545255021,-15.5,5.));
#1038=CARTESIAN_POINT('',(16.7710545255021,-10.,5.));
#1039=CARTESIAN_POINT('Origin',(16.7710545255021,-15.5,0.5));
#1040=CARTESIAN_POINT('Origin',(7.73552726275103,-15.5,0.5));
#1041=CARTESIAN_POINT('',(11.2710545255021,-20.,0.5));
#1042=CARTESIAN_POINT('',(7.73552726275103,-20.,0.5));
#1043=CARTESIAN_POINT('',(15.7710545255021,-15.5,5.));
#1044=CARTESIAN_POINT('',(7.73552726275103,-15.5,5.));
#1045=CARTESIAN_POINT('Origin',(15.7710545255021,-15.5,0.5));
#1046=CARTESIAN_POINT('Origin',(15.7710545255021,-2.50000000000001,0.5));
#1047=CARTESIAN_POINT('',(11.2710545255021,-2.5,0.5));
#1048=CARTESIAN_POINT('',(15.7710545255021,-0.500000000000004,5.));
#1049=CARTESIAN_POINT('',(15.7710545255021,-2.50000000000001,5.));
#1050=CARTESIAN_POINT('Origin',(15.7710545255021,-0.500000000000004,0.5));
#1051=CARTESIAN_POINT('Origin',(-4.33552726275104,-0.500000000000004,0.5));
#1052=CARTESIAN_POINT('',(-12.8710545254983,-0.500000000000004,5.));
#1053=CARTESIAN_POINT('',(-4.33552726275104,-0.500000000000004,5.));
#1054=CARTESIAN_POINT('Origin',(-12.8710545254938,-0.500000000000004,0.5));
#1055=CARTESIAN_POINT('Origin',(4.2,-4.44089209850063E-15,5.));
#1056=CARTESIAN_POINT('',(-12.8710545254979,-3.92122865118911E-15,5.));
#1057=CARTESIAN_POINT('Origin',(11.2710545254979,5.,0.));
#1058=CARTESIAN_POINT('',(-12.8710545255021,5.,0.));
#1059=CARTESIAN_POINT('',(11.2710545254979,5.,0.));
#1060=CARTESIAN_POINT('Origin',(-13.9460545254994,-0.500000000000002,-0.381966011250106));
#1061=CARTESIAN_POINT('',(-15.3710545255021,0.499999999999998,-1.5));
#1062=CARTESIAN_POINT('',(-15.3710545255021,0.999999999999998,-0.381966011250106));
#1063=CARTESIAN_POINT('Origin',(-15.3710545255021,-0.500000000000002,-0.381966011250106));
#1064=CARTESIAN_POINT('',(-12.8710545254971,0.999999999999998,-0.381966011250106));
#1065=CARTESIAN_POINT('',(-13.9460545254994,0.999999999999998,-0.381966011250106));
#1066=CARTESIAN_POINT('',(-12.8710545254975,0.499999999999998,-1.5));
#1067=CARTESIAN_POINT('Origin',(-12.8710545254938,-0.500000000000002,-0.381966011250106));
#1068=CARTESIAN_POINT('',(-13.9460545254994,0.499999999999998,-1.5));
#1069=CARTESIAN_POINT('Origin',(-15.0210545255,1.49880108324396E-14,-1.5));
#1070=CARTESIAN_POINT('',(-15.3710545255021,2.25000000000002,-1.5));
#1071=CARTESIAN_POINT('',(-15.3710545255021,3.75000000000002,-1.5));
#1072=CARTESIAN_POINT('',(-15.3710545255021,-2.24999999999999,-1.5));
#1073=CARTESIAN_POINT('',(-15.3710545255021,3.75000000000002,-1.5));
#1074=CARTESIAN_POINT('',(-17.1710545255021,-2.24999999999998,-1.5));
#1075=CARTESIAN_POINT('',(-15.196054525501,-2.24999999999999,-1.5));
#1076=CARTESIAN_POINT('',(-17.1710545255021,2.25000000000001,-1.5));
#1077=CARTESIAN_POINT('',(-17.1710545255021,-3.74999999999998,-1.5));
#1078=CARTESIAN_POINT('',(-16.096054525501,2.25000000000001,-1.5));
#1079=CARTESIAN_POINT('Origin',(-17.1710545255021,-3.74999999999998,0.));
#1080=CARTESIAN_POINT('',(-17.1710545255021,3.75000000000001,0.));
#1081=CARTESIAN_POINT('Origin',(-17.1710545255021,2.25000000000001,0.));
#1082=CARTESIAN_POINT('',(-17.1710545255021,-3.74999999999998,0.));
#1083=CARTESIAN_POINT('Origin',(-17.1710545255021,-2.24999999999998,0.));
#1084=CARTESIAN_POINT('',(-17.1710545255021,-3.74999999999998,0.));
#1085=CARTESIAN_POINT('Origin',(-17.1710545255021,2.25000000000001,0.));
#1086=CARTESIAN_POINT('',(-17.1972371228944,2.25000000000001,1.5));
#1087=CARTESIAN_POINT('Origin',(-17.1710545255021,2.25000000000001,0.));
#1088=CARTESIAN_POINT('',(-15.3448719281098,2.25000000000002,1.5));
#1089=CARTESIAN_POINT('',(-17.1710545255021,2.25000000000001,1.5));
#1090=CARTESIAN_POINT('',(-15.3710545255021,3.75000000000002,0.));
#1091=CARTESIAN_POINT('Origin',(-15.3710545255021,2.25000000000002,0.));
#1092=CARTESIAN_POINT('Origin',(-15.3710545255021,2.25000000000002,0.));
#1093=CARTESIAN_POINT('Origin',(-15.0210545255,1.49880108324396E-14,1.5));
#1094=CARTESIAN_POINT('',(-17.1972371228944,-2.24999999999998,1.5));
#1095=CARTESIAN_POINT('',(-17.1972371228944,-3.74999999999998,1.5));
#1096=CARTESIAN_POINT('',(-15.3448719281098,-2.24999999999999,1.5));
#1097=CARTESIAN_POINT('',(-15.3710545255021,-2.24999999999999,1.5));
#1098=CARTESIAN_POINT('',(-15.3448719281098,-0.500000000000002,1.5));
#1099=CARTESIAN_POINT('',(-15.3448719281098,3.75000000000002,1.5));
#1100=CARTESIAN_POINT('',(-15.3448719281098,1.87500000000002,1.5));
#1101=CARTESIAN_POINT('Origin',(-17.1710545255021,-3.74999999999998,0.));
#1102=CARTESIAN_POINT('Origin',(-17.1710545255021,-2.24999999999998,0.));
#1103=CARTESIAN_POINT('Origin',(-15.3710545255021,-1.,0.));
#1104=CARTESIAN_POINT('',(-15.3710545255021,-3.74999999999999,0.));
#1105=CARTESIAN_POINT('Origin',(-15.3710545255021,-2.24999999999999,0.));
#1106=CARTESIAN_POINT('',(-15.3710545255021,-1.,0.));
#1107=CARTESIAN_POINT('Origin',(-15.3710545255021,0.499999999999998,0.));
#1108=CARTESIAN_POINT('',(-15.3710545255021,3.75000000000002,0.));
#1109=CARTESIAN_POINT('Origin',(-15.3710545255021,-2.24999999999999,0.));
#1110=CARTESIAN_POINT('Origin',(-15.3710545255021,-2.24999999999999,0.));
#1111=CARTESIAN_POINT('Origin',(-13.9460545254994,0.499999999999998,0.));
#1112=CARTESIAN_POINT('',(-12.8710545254988,-1.,0.));
#1113=CARTESIAN_POINT('Origin',(-12.8710545254938,0.499999999999999,0.));
#1114=CARTESIAN_POINT('',(-16.2710545255021,-1.,0.));
#1115=CARTESIAN_POINT('Origin',(16.2710545255021,0.49365967548459,0.376327249900641));
#1116=CARTESIAN_POINT('',(-15.3649426582521,-1.00611186725,0.350148640244716));
#1117=CARTESIAN_POINT('Origin',(-15.3644857089208,0.493659675484586,0.376327249900641));
#1118=CARTESIAN_POINT('',(-12.8710545254988,-1.00611186725,0.350148640244716));
#1119=CARTESIAN_POINT('',(16.2710545255021,-1.00611186725,0.350148640244716));
#1120=CARTESIAN_POINT('',(-12.8710545254983,-0.500000000000002,1.5));
#1121=CARTESIAN_POINT('Origin',(-12.8710545254938,0.493659675484587,0.376327249900641));
#1122=CARTESIAN_POINT('',(16.2710545255021,-0.500000000000002,1.5));
#1123=CARTESIAN_POINT('Origin',(16.2710545255021,-0.500000000000002,0.));
#1124=CARTESIAN_POINT('',(-15.3710545255021,0.999999999999998,0.));
#1125=CARTESIAN_POINT('Origin',(-15.3710545255021,-0.500000000000002,0.));
#1126=CARTESIAN_POINT('',(-12.8710545255021,0.999999999999998,0.));
#1127=CARTESIAN_POINT('Origin',(-12.8710545254938,-0.500000000000002,0.));
#1128=CARTESIAN_POINT('',(16.2710545255021,0.999999999999999,0.));
#1129=CARTESIAN_POINT('Origin',(-15.3710545255021,3.75000000000002,0.));
#1130=CARTESIAN_POINT('',(-15.3710545255021,3.75000000000002,0.));
#1131=CARTESIAN_POINT('',(-15.3710545255021,0.999999999999998,0.));
#1132=CARTESIAN_POINT('Origin',(-15.3710545255021,0.999999999999998,0.));
#1133=CARTESIAN_POINT('',(-12.8710545254971,0.999999999999998,0.));
#1134=CARTESIAN_POINT('Origin',(-12.8710545254988,-1.,0.));
#1135=CARTESIAN_POINT('',(-15.3706739083199,-1.00038061718222,0.0218055437650439));
#1136=CARTESIAN_POINT('',(-12.8710545254988,-0.999086240528645,-0.0523492450537516));
#1137=CARTESIAN_POINT('Origin',(-15.3710545255021,-1.,0.));
#1138=CARTESIAN_POINT('Origin',(-15.3710545255021,3.75000000000002,0.));
#1139=CARTESIAN_POINT('Origin',(11.2710545255021,20.,0.));
#1140=CARTESIAN_POINT('',(11.2710545255021,20.,0.));
#1141=CARTESIAN_POINT('Origin',(21.2710545255021,20.,0.));
#1142=CARTESIAN_POINT('',(21.2710545255021,20.,0.));
#1143=CARTESIAN_POINT('Origin',(21.2710545255021,-20.,0.));
#1144=CARTESIAN_POINT('',(21.2710545255021,-20.,0.));
#1145=CARTESIAN_POINT('Origin',(11.2710545255021,-20.,0.));
#1146=CARTESIAN_POINT('',(11.2710545255021,-20.,0.));
#1147=CARTESIAN_POINT('Origin',(11.2710545255021,-5.,0.));
#1148=CARTESIAN_POINT('Origin',(-12.8710545254938,5.,0.));
#1149=UNCERTAINTY_MEASURE_WITH_UNIT(LENGTH_MEASURE(0.01),#1153,
'DISTANCE_ACCURACY_VALUE',
'Maximum model space distance between geometric entities at asserted c
onnectivities');
#1150=UNCERTAINTY_MEASURE_WITH_UNIT(LENGTH_MEASURE(0.01),#1153,
'DISTANCE_ACCURACY_VALUE',
'Maximum model space distance between geometric entities at asserted c
onnectivities');
#1151=(
GEOMETRIC_REPRESENTATION_CONTEXT(3)
GLOBAL_UNCERTAINTY_ASSIGNED_CONTEXT((#1149))
GLOBAL_UNIT_ASSIGNED_CONTEXT((#1153,#1155,#1156))
REPRESENTATION_CONTEXT('','3D')
);
#1152=(
GEOMETRIC_REPRESENTATION_CONTEXT(3)
GLOBAL_UNCERTAINTY_ASSIGNED_CONTEXT((#1150))
GLOBAL_UNIT_ASSIGNED_CONTEXT((#1153,#1155,#1156))
REPRESENTATION_CONTEXT('','3D')
);
#1153=(
LENGTH_UNIT()
NAMED_UNIT(*)
SI_UNIT(.MILLI.,.METRE.)
);
#1154=(
LENGTH_UNIT()
NAMED_UNIT(*)
SI_UNIT($,.METRE.)
);
#1155=(
NAMED_UNIT(*)
PLANE_ANGLE_UNIT()
SI_UNIT($,.RADIAN.)
);
#1156=(
NAMED_UNIT(*)
SI_UNIT($,.STERADIAN.)
SOLID_ANGLE_UNIT()
);
#1157=SHAPE_DEFINITION_REPRESENTATION(#1158,#1159);
#1158=PRODUCT_DEFINITION_SHAPE('',$,#1161);
#1159=SHAPE_REPRESENTATION('',(#679),#1151);
#1160=PRODUCT_DEFINITION_CONTEXT('part definition',#1165,'design');
#1161=PRODUCT_DEFINITION('snap remover','snap remover v3',#1162,#1160);
#1162=PRODUCT_DEFINITION_FORMATION('',$,#1167);
#1163=PRODUCT_RELATED_PRODUCT_CATEGORY('snap remover v3',
'snap remover v3',(#1167));
#1164=APPLICATION_PROTOCOL_DEFINITION('international standard',
'automotive_design',2009,#1165);
#1165=APPLICATION_CONTEXT(
'Core Data for Automotive Mechanical Design Process');
#1166=PRODUCT_CONTEXT('part definition',#1165,'mechanical');
#1167=PRODUCT('snap remover','snap remover v3',$,(#1166));
#1168=PRESENTATION_STYLE_ASSIGNMENT((#1169));
#1169=SURFACE_STYLE_USAGE(.BOTH.,#1170);
#1170=SURFACE_SIDE_STYLE('',(#1171));
#1171=SURFACE_STYLE_FILL_AREA(#1172);
#1172=FILL_AREA_STYLE('Steel - Satin',(#1173));
#1173=FILL_AREA_STYLE_COLOUR('Steel - Satin',#1174);
#1174=COLOUR_RGB('Steel - Satin',0.627450980392157,0.627450980392157,0.627450980392157);
ENDSEC;
END-ISO-10303-21;
