ISO-10303-21;
HEADER;
/* Generated by software containing ST-Developer
 * from STEP Tools, Inc. (www.steptools.com) 
 */

FILE_DESCRIPTION(
/* description */ (''),
/* implementation_level */ '2;1');

FILE_NAME(
/* name */ 'board-cell-template.step',
/* time_stamp */ '2026-08-05T23:05:06+08:00',
/* author */ (''),
/* organization */ (''),
/* preprocessor_version */ 'ST-DEVELOPER v20.1',
/* originating_system */ 'Autodesk Translation Framework v15.8.0.0',
/* authorisation */ '');

FILE_SCHEMA (('AUTOMOTIVE_DESIGN { 1 0 10303 214 3 1 1 }'));
ENDSEC;

DATA;
#10=MECHANICAL_DESIGN_GEOMETRIC_PRESENTATION_REPRESENTATION('',(#13),#1043);
#11=SHAPE_REPRESENTATION_RELATIONSHIP('SRR','None',#1050,#12);
#12=ADVANCED_BREP_SHAPE_REPRESENTATION('',(#14),#1042);
#13=STYLED_ITEM('',(#1059),#14);
#14=MANIFOLD_SOLID_BREP('Body1',#615);
#15=FACE_BOUND('',#99,.T.);
#16=FACE_BOUND('',#102,.T.);
#17=FACE_BOUND('',#105,.T.);
#18=FACE_BOUND('',#108,.T.);
#19=FACE_BOUND('',#114,.T.);
#20=FACE_BOUND('',#116,.T.);
#21=PLANE('',#632);
#22=PLANE('',#636);
#23=PLANE('',#640);
#24=PLANE('',#642);
#25=PLANE('',#648);
#26=PLANE('',#652);
#27=PLANE('',#656);
#28=PLANE('',#658);
#29=PLANE('',#661);
#30=PLANE('',#662);
#31=PLANE('',#663);
#32=PLANE('',#664);
#33=PLANE('',#668);
#34=PLANE('',#672);
#35=PLANE('',#676);
#36=PLANE('',#680);
#37=PLANE('',#681);
#38=PLANE('',#682);
#39=PLANE('',#683);
#40=PLANE('',#684);
#41=PLANE('',#685);
#42=PLANE('',#686);
#43=FACE_OUTER_BOUND('',#77,.T.);
#44=FACE_OUTER_BOUND('',#78,.T.);
#45=FACE_OUTER_BOUND('',#79,.T.);
#46=FACE_OUTER_BOUND('',#80,.T.);
#47=FACE_OUTER_BOUND('',#81,.T.);
#48=FACE_OUTER_BOUND('',#82,.T.);
#49=FACE_OUTER_BOUND('',#83,.T.);
#50=FACE_OUTER_BOUND('',#84,.T.);
#51=FACE_OUTER_BOUND('',#85,.T.);
#52=FACE_OUTER_BOUND('',#86,.T.);
#53=FACE_OUTER_BOUND('',#87,.T.);
#54=FACE_OUTER_BOUND('',#88,.T.);
#55=FACE_OUTER_BOUND('',#89,.T.);
#56=FACE_OUTER_BOUND('',#90,.T.);
#57=FACE_OUTER_BOUND('',#91,.T.);
#58=FACE_OUTER_BOUND('',#92,.T.);
#59=FACE_OUTER_BOUND('',#93,.T.);
#60=FACE_OUTER_BOUND('',#94,.T.);
#61=FACE_OUTER_BOUND('',#95,.T.);
#62=FACE_OUTER_BOUND('',#96,.T.);
#63=FACE_OUTER_BOUND('',#97,.T.);
#64=FACE_OUTER_BOUND('',#98,.T.);
#65=FACE_OUTER_BOUND('',#100,.T.);
#66=FACE_OUTER_BOUND('',#101,.T.);
#67=FACE_OUTER_BOUND('',#103,.T.);
#68=FACE_OUTER_BOUND('',#104,.T.);
#69=FACE_OUTER_BOUND('',#106,.T.);
#70=FACE_OUTER_BOUND('',#107,.T.);
#71=FACE_OUTER_BOUND('',#109,.T.);
#72=FACE_OUTER_BOUND('',#110,.T.);
#73=FACE_OUTER_BOUND('',#111,.T.);
#74=FACE_OUTER_BOUND('',#112,.T.);
#75=FACE_OUTER_BOUND('',#113,.T.);
#76=FACE_OUTER_BOUND('',#115,.T.);
#77=EDGE_LOOP('',(#401,#402,#403,#404));
#78=EDGE_LOOP('',(#405,#406,#407,#408));
#79=EDGE_LOOP('',(#409,#410,#411,#412));
#80=EDGE_LOOP('',(#413,#414,#415,#416));
#81=EDGE_LOOP('',(#417,#418,#419,#420));
#82=EDGE_LOOP('',(#421,#422,#423,#424));
#83=EDGE_LOOP('',(#425,#426,#427,#428));
#84=EDGE_LOOP('',(#429,#430,#431,#432));
#85=EDGE_LOOP('',(#433,#434,#435,#436));
#86=EDGE_LOOP('',(#437,#438,#439,#440));
#87=EDGE_LOOP('',(#441,#442,#443,#444));
#88=EDGE_LOOP('',(#445,#446,#447,#448));
#89=EDGE_LOOP('',(#449,#450,#451,#452));
#90=EDGE_LOOP('',(#453,#454,#455,#456));
#91=EDGE_LOOP('',(#457,#458,#459,#460));
#92=EDGE_LOOP('',(#461,#462,#463,#464));
#93=EDGE_LOOP('',(#465,#466,#467,#468));
#94=EDGE_LOOP('',(#469,#470,#471,#472));
#95=EDGE_LOOP('',(#473,#474,#475,#476));
#96=EDGE_LOOP('',(#477,#478,#479,#480));
#97=EDGE_LOOP('',(#481,#482,#483,#484));
#98=EDGE_LOOP('',(#485,#486,#487,#488));
#99=EDGE_LOOP('',(#489,#490,#491,#492));
#100=EDGE_LOOP('',(#493,#494,#495,#496));
#101=EDGE_LOOP('',(#497,#498,#499,#500));
#102=EDGE_LOOP('',(#501,#502,#503,#504));
#103=EDGE_LOOP('',(#505,#506,#507,#508));
#104=EDGE_LOOP('',(#509,#510,#511,#512));
#105=EDGE_LOOP('',(#513,#514,#515,#516));
#106=EDGE_LOOP('',(#517,#518,#519,#520));
#107=EDGE_LOOP('',(#521,#522,#523,#524));
#108=EDGE_LOOP('',(#525,#526,#527,#528));
#109=EDGE_LOOP('',(#529,#530,#531,#532));
#110=EDGE_LOOP('',(#533,#534,#535,#536));
#111=EDGE_LOOP('',(#537,#538,#539,#540));
#112=EDGE_LOOP('',(#541,#542,#543,#544));
#113=EDGE_LOOP('',(#545,#546,#547,#548));
#114=EDGE_LOOP('',(#549,#550,#551,#552,#553,#554,#555,#556));
#115=EDGE_LOOP('',(#557,#558,#559,#560));
#116=EDGE_LOOP('',(#561,#562,#563,#564,#565,#566,#567,#568));
#117=LINE('',#871,#177);
#118=LINE('',#874,#178);
#119=LINE('',#877,#179);
#120=LINE('',#880,#180);
#121=LINE('',#883,#181);
#122=LINE('',#886,#182);
#123=LINE('',#888,#183);
#124=LINE('',#889,#184);
#125=LINE('',#895,#185);
#126=LINE('',#898,#186);
#127=LINE('',#901,#187);
#128=LINE('',#904,#188);
#129=LINE('',#907,#189);
#130=LINE('',#908,#190);
#131=LINE('',#912,#191);
#132=LINE('',#918,#192);
#133=LINE('',#921,#193);
#134=LINE('',#924,#194);
#135=LINE('',#927,#195);
#136=LINE('',#930,#196);
#137=LINE('',#933,#197);
#138=LINE('',#935,#198);
#139=LINE('',#936,#199);
#140=LINE('',#942,#200);
#141=LINE('',#945,#201);
#142=LINE('',#948,#202);
#143=LINE('',#951,#203);
#144=LINE('',#954,#204);
#145=LINE('',#955,#205);
#146=LINE('',#959,#206);
#147=LINE('',#962,#207);
#148=LINE('',#965,#208);
#149=LINE('',#971,#209);
#150=LINE('',#974,#210);
#151=LINE('',#977,#211);
#152=LINE('',#979,#212);
#153=LINE('',#980,#213);
#154=LINE('',#985,#214);
#155=LINE('',#989,#215);
#156=LINE('',#991,#216);
#157=LINE('',#992,#217);
#158=LINE('',#997,#218);
#159=LINE('',#1001,#219);
#160=LINE('',#1003,#220);
#161=LINE('',#1004,#221);
#162=LINE('',#1009,#222);
#163=LINE('',#1012,#223);
#164=LINE('',#1013,#224);
#165=LINE('',#1017,#225);
#166=LINE('',#1019,#226);
#167=LINE('',#1021,#227);
#168=LINE('',#1022,#228);
#169=LINE('',#1025,#229);
#170=LINE('',#1027,#230);
#171=LINE('',#1028,#231);
#172=LINE('',#1031,#232);
#173=LINE('',#1033,#233);
#174=LINE('',#1034,#234);
#175=LINE('',#1036,#235);
#176=LINE('',#1037,#236);
#177=VECTOR('',#693,1.);
#178=VECTOR('',#696,10.);
#179=VECTOR('',#699,10.);
#180=VECTOR('',#702,10.);
#181=VECTOR('',#705,1.);
#182=VECTOR('',#708,10.);
#183=VECTOR('',#711,10.);
#184=VECTOR('',#712,10.);
#185=VECTOR('',#717,1.);
#186=VECTOR('',#720,10.);
#187=VECTOR('',#723,10.);
#188=VECTOR('',#726,10.);
#189=VECTOR('',#729,10.);
#190=VECTOR('',#730,1.);
#191=VECTOR('',#735,10.);
#192=VECTOR('',#740,1.);
#193=VECTOR('',#743,10.);
#194=VECTOR('',#746,10.);
#195=VECTOR('',#749,10.);
#196=VECTOR('',#752,1.);
#197=VECTOR('',#755,10.);
#198=VECTOR('',#758,10.);
#199=VECTOR('',#759,10.);
#200=VECTOR('',#764,1.);
#201=VECTOR('',#767,10.);
#202=VECTOR('',#770,10.);
#203=VECTOR('',#773,10.);
#204=VECTOR('',#776,10.);
#205=VECTOR('',#777,1.);
#206=VECTOR('',#782,10.);
#207=VECTOR('',#787,10.);
#208=VECTOR('',#792,10.);
#209=VECTOR('',#797,10.);
#210=VECTOR('',#800,10.);
#211=VECTOR('',#803,10.);
#212=VECTOR('',#804,10.);
#213=VECTOR('',#805,10.);
#214=VECTOR('',#810,10.);
#215=VECTOR('',#815,10.);
#216=VECTOR('',#816,10.);
#217=VECTOR('',#817,10.);
#218=VECTOR('',#822,10.);
#219=VECTOR('',#827,10.);
#220=VECTOR('',#828,10.);
#221=VECTOR('',#829,10.);
#222=VECTOR('',#834,10.);
#223=VECTOR('',#839,10.);
#224=VECTOR('',#840,10.);
#225=VECTOR('',#843,10.);
#226=VECTOR('',#844,10.);
#227=VECTOR('',#845,10.);
#228=VECTOR('',#846,10.);
#229=VECTOR('',#849,10.);
#230=VECTOR('',#850,10.);
#231=VECTOR('',#851,10.);
#232=VECTOR('',#854,10.);
#233=VECTOR('',#855,10.);
#234=VECTOR('',#856,10.);
#235=VECTOR('',#859,10.);
#236=VECTOR('',#860,10.);
#237=CIRCLE('',#630,1.);
#238=CIRCLE('',#631,1.);
#239=CIRCLE('',#633,1.);
#240=CIRCLE('',#635,1.);
#241=CIRCLE('',#638,1.);
#242=CIRCLE('',#639,1.);
#243=CIRCLE('',#641,1.);
#244=CIRCLE('',#644,1.);
#245=CIRCLE('',#646,1.);
#246=CIRCLE('',#647,1.);
#247=CIRCLE('',#649,1.);
#248=CIRCLE('',#651,1.);
#249=CIRCLE('',#654,1.);
#250=CIRCLE('',#655,1.);
#251=CIRCLE('',#657,1.);
#252=CIRCLE('',#660,1.);
#253=CIRCLE('',#666,2.5);
#254=CIRCLE('',#667,2.5);
#255=CIRCLE('',#670,2.5);
#256=CIRCLE('',#671,2.5);
#257=CIRCLE('',#674,2.5);
#258=CIRCLE('',#675,2.5);
#259=CIRCLE('',#678,2.5);
#260=CIRCLE('',#679,2.5);
#261=VERTEX_POINT('',#867);
#262=VERTEX_POINT('',#868);
#263=VERTEX_POINT('',#870);
#264=VERTEX_POINT('',#872);
#265=VERTEX_POINT('',#876);
#266=VERTEX_POINT('',#878);
#267=VERTEX_POINT('',#882);
#268=VERTEX_POINT('',#884);
#269=VERTEX_POINT('',#891);
#270=VERTEX_POINT('',#892);
#271=VERTEX_POINT('',#894);
#272=VERTEX_POINT('',#896);
#273=VERTEX_POINT('',#900);
#274=VERTEX_POINT('',#902);
#275=VERTEX_POINT('',#906);
#276=VERTEX_POINT('',#910);
#277=VERTEX_POINT('',#914);
#278=VERTEX_POINT('',#915);
#279=VERTEX_POINT('',#917);
#280=VERTEX_POINT('',#919);
#281=VERTEX_POINT('',#923);
#282=VERTEX_POINT('',#925);
#283=VERTEX_POINT('',#929);
#284=VERTEX_POINT('',#931);
#285=VERTEX_POINT('',#938);
#286=VERTEX_POINT('',#939);
#287=VERTEX_POINT('',#941);
#288=VERTEX_POINT('',#943);
#289=VERTEX_POINT('',#947);
#290=VERTEX_POINT('',#949);
#291=VERTEX_POINT('',#953);
#292=VERTEX_POINT('',#957);
#293=VERTEX_POINT('',#967);
#294=VERTEX_POINT('',#968);
#295=VERTEX_POINT('',#970);
#296=VERTEX_POINT('',#972);
#297=VERTEX_POINT('',#976);
#298=VERTEX_POINT('',#978);
#299=VERTEX_POINT('',#982);
#300=VERTEX_POINT('',#984);
#301=VERTEX_POINT('',#988);
#302=VERTEX_POINT('',#990);
#303=VERTEX_POINT('',#994);
#304=VERTEX_POINT('',#996);
#305=VERTEX_POINT('',#1000);
#306=VERTEX_POINT('',#1002);
#307=VERTEX_POINT('',#1006);
#308=VERTEX_POINT('',#1008);
#309=VERTEX_POINT('',#1015);
#310=VERTEX_POINT('',#1016);
#311=VERTEX_POINT('',#1018);
#312=VERTEX_POINT('',#1020);
#313=VERTEX_POINT('',#1024);
#314=VERTEX_POINT('',#1026);
#315=VERTEX_POINT('',#1030);
#316=VERTEX_POINT('',#1032);
#317=EDGE_CURVE('',#261,#262,#237,.T.);
#318=EDGE_CURVE('',#262,#263,#117,.T.);
#319=EDGE_CURVE('',#263,#264,#238,.T.);
#320=EDGE_CURVE('',#261,#264,#118,.T.);
#321=EDGE_CURVE('',#263,#265,#119,.T.);
#322=EDGE_CURVE('',#266,#265,#239,.T.);
#323=EDGE_CURVE('',#264,#266,#120,.T.);
#324=EDGE_CURVE('',#265,#267,#121,.T.);
#325=EDGE_CURVE('',#267,#268,#240,.T.);
#326=EDGE_CURVE('',#266,#268,#122,.T.);
#327=EDGE_CURVE('',#268,#261,#123,.T.);
#328=EDGE_CURVE('',#267,#262,#124,.T.);
#329=EDGE_CURVE('',#269,#270,#241,.T.);
#330=EDGE_CURVE('',#270,#271,#125,.T.);
#331=EDGE_CURVE('',#271,#272,#242,.T.);
#332=EDGE_CURVE('',#269,#272,#126,.T.);
#333=EDGE_CURVE('',#273,#271,#127,.T.);
#334=EDGE_CURVE('',#274,#273,#243,.T.);
#335=EDGE_CURVE('',#272,#274,#128,.T.);
#336=EDGE_CURVE('',#270,#275,#129,.T.);
#337=EDGE_CURVE('',#273,#275,#130,.T.);
#338=EDGE_CURVE('',#275,#276,#244,.T.);
#339=EDGE_CURVE('',#274,#276,#131,.T.);
#340=EDGE_CURVE('',#277,#278,#245,.T.);
#341=EDGE_CURVE('',#278,#279,#132,.T.);
#342=EDGE_CURVE('',#279,#280,#246,.T.);
#343=EDGE_CURVE('',#277,#280,#133,.T.);
#344=EDGE_CURVE('',#279,#281,#134,.T.);
#345=EDGE_CURVE('',#282,#281,#247,.T.);
#346=EDGE_CURVE('',#280,#282,#135,.T.);
#347=EDGE_CURVE('',#281,#283,#136,.T.);
#348=EDGE_CURVE('',#283,#284,#248,.T.);
#349=EDGE_CURVE('',#282,#284,#137,.T.);
#350=EDGE_CURVE('',#284,#277,#138,.T.);
#351=EDGE_CURVE('',#283,#278,#139,.T.);
#352=EDGE_CURVE('',#285,#286,#249,.T.);
#353=EDGE_CURVE('',#286,#287,#140,.T.);
#354=EDGE_CURVE('',#287,#288,#250,.T.);
#355=EDGE_CURVE('',#285,#288,#141,.T.);
#356=EDGE_CURVE('',#289,#287,#142,.T.);
#357=EDGE_CURVE('',#290,#289,#251,.T.);
#358=EDGE_CURVE('',#288,#290,#143,.T.);
#359=EDGE_CURVE('',#286,#291,#144,.T.);
#360=EDGE_CURVE('',#289,#291,#145,.T.);
#361=EDGE_CURVE('',#291,#292,#252,.T.);
#362=EDGE_CURVE('',#290,#292,#146,.T.);
#363=EDGE_CURVE('',#292,#285,#147,.T.);
#364=EDGE_CURVE('',#276,#269,#148,.T.);
#365=EDGE_CURVE('',#293,#294,#253,.T.);
#366=EDGE_CURVE('',#294,#295,#149,.T.);
#367=EDGE_CURVE('',#295,#296,#254,.T.);
#368=EDGE_CURVE('',#296,#293,#150,.T.);
#369=EDGE_CURVE('',#294,#297,#151,.T.);
#370=EDGE_CURVE('',#298,#297,#152,.T.);
#371=EDGE_CURVE('',#295,#298,#153,.T.);
#372=EDGE_CURVE('',#297,#299,#255,.T.);
#373=EDGE_CURVE('',#299,#300,#154,.T.);
#374=EDGE_CURVE('',#300,#298,#256,.T.);
#375=EDGE_CURVE('',#299,#301,#155,.T.);
#376=EDGE_CURVE('',#302,#301,#156,.T.);
#377=EDGE_CURVE('',#300,#302,#157,.T.);
#378=EDGE_CURVE('',#301,#303,#257,.T.);
#379=EDGE_CURVE('',#303,#304,#158,.T.);
#380=EDGE_CURVE('',#304,#302,#258,.T.);
#381=EDGE_CURVE('',#303,#305,#159,.T.);
#382=EDGE_CURVE('',#306,#305,#160,.T.);
#383=EDGE_CURVE('',#304,#306,#161,.T.);
#384=EDGE_CURVE('',#305,#307,#259,.T.);
#385=EDGE_CURVE('',#307,#308,#162,.T.);
#386=EDGE_CURVE('',#308,#306,#260,.T.);
#387=EDGE_CURVE('',#308,#296,#163,.T.);
#388=EDGE_CURVE('',#307,#293,#164,.T.);
#389=EDGE_CURVE('',#309,#310,#165,.T.);
#390=EDGE_CURVE('',#309,#311,#166,.T.);
#391=EDGE_CURVE('',#312,#311,#167,.T.);
#392=EDGE_CURVE('',#310,#312,#168,.T.);
#393=EDGE_CURVE('',#310,#313,#169,.T.);
#394=EDGE_CURVE('',#314,#312,#170,.T.);
#395=EDGE_CURVE('',#313,#314,#171,.T.);
#396=EDGE_CURVE('',#313,#315,#172,.T.);
#397=EDGE_CURVE('',#316,#314,#173,.T.);
#398=EDGE_CURVE('',#315,#316,#174,.T.);
#399=EDGE_CURVE('',#315,#309,#175,.T.);
#400=EDGE_CURVE('',#311,#316,#176,.T.);
#401=ORIENTED_EDGE('',*,*,#317,.T.);
#402=ORIENTED_EDGE('',*,*,#318,.T.);
#403=ORIENTED_EDGE('',*,*,#319,.T.);
#404=ORIENTED_EDGE('',*,*,#320,.F.);
#405=ORIENTED_EDGE('',*,*,#319,.F.);
#406=ORIENTED_EDGE('',*,*,#321,.T.);
#407=ORIENTED_EDGE('',*,*,#322,.F.);
#408=ORIENTED_EDGE('',*,*,#323,.F.);
#409=ORIENTED_EDGE('',*,*,#322,.T.);
#410=ORIENTED_EDGE('',*,*,#324,.T.);
#411=ORIENTED_EDGE('',*,*,#325,.T.);
#412=ORIENTED_EDGE('',*,*,#326,.F.);
#413=ORIENTED_EDGE('',*,*,#317,.F.);
#414=ORIENTED_EDGE('',*,*,#327,.F.);
#415=ORIENTED_EDGE('',*,*,#325,.F.);
#416=ORIENTED_EDGE('',*,*,#328,.T.);
#417=ORIENTED_EDGE('',*,*,#329,.T.);
#418=ORIENTED_EDGE('',*,*,#330,.T.);
#419=ORIENTED_EDGE('',*,*,#331,.T.);
#420=ORIENTED_EDGE('',*,*,#332,.F.);
#421=ORIENTED_EDGE('',*,*,#331,.F.);
#422=ORIENTED_EDGE('',*,*,#333,.F.);
#423=ORIENTED_EDGE('',*,*,#334,.F.);
#424=ORIENTED_EDGE('',*,*,#335,.F.);
#425=ORIENTED_EDGE('',*,*,#330,.F.);
#426=ORIENTED_EDGE('',*,*,#336,.T.);
#427=ORIENTED_EDGE('',*,*,#337,.F.);
#428=ORIENTED_EDGE('',*,*,#333,.T.);
#429=ORIENTED_EDGE('',*,*,#334,.T.);
#430=ORIENTED_EDGE('',*,*,#337,.T.);
#431=ORIENTED_EDGE('',*,*,#338,.T.);
#432=ORIENTED_EDGE('',*,*,#339,.F.);
#433=ORIENTED_EDGE('',*,*,#340,.T.);
#434=ORIENTED_EDGE('',*,*,#341,.T.);
#435=ORIENTED_EDGE('',*,*,#342,.T.);
#436=ORIENTED_EDGE('',*,*,#343,.F.);
#437=ORIENTED_EDGE('',*,*,#342,.F.);
#438=ORIENTED_EDGE('',*,*,#344,.T.);
#439=ORIENTED_EDGE('',*,*,#345,.F.);
#440=ORIENTED_EDGE('',*,*,#346,.F.);
#441=ORIENTED_EDGE('',*,*,#345,.T.);
#442=ORIENTED_EDGE('',*,*,#347,.T.);
#443=ORIENTED_EDGE('',*,*,#348,.T.);
#444=ORIENTED_EDGE('',*,*,#349,.F.);
#445=ORIENTED_EDGE('',*,*,#340,.F.);
#446=ORIENTED_EDGE('',*,*,#350,.F.);
#447=ORIENTED_EDGE('',*,*,#348,.F.);
#448=ORIENTED_EDGE('',*,*,#351,.T.);
#449=ORIENTED_EDGE('',*,*,#352,.T.);
#450=ORIENTED_EDGE('',*,*,#353,.T.);
#451=ORIENTED_EDGE('',*,*,#354,.T.);
#452=ORIENTED_EDGE('',*,*,#355,.F.);
#453=ORIENTED_EDGE('',*,*,#354,.F.);
#454=ORIENTED_EDGE('',*,*,#356,.F.);
#455=ORIENTED_EDGE('',*,*,#357,.F.);
#456=ORIENTED_EDGE('',*,*,#358,.F.);
#457=ORIENTED_EDGE('',*,*,#353,.F.);
#458=ORIENTED_EDGE('',*,*,#359,.T.);
#459=ORIENTED_EDGE('',*,*,#360,.F.);
#460=ORIENTED_EDGE('',*,*,#356,.T.);
#461=ORIENTED_EDGE('',*,*,#357,.T.);
#462=ORIENTED_EDGE('',*,*,#360,.T.);
#463=ORIENTED_EDGE('',*,*,#361,.T.);
#464=ORIENTED_EDGE('',*,*,#362,.F.);
#465=ORIENTED_EDGE('',*,*,#341,.F.);
#466=ORIENTED_EDGE('',*,*,#351,.F.);
#467=ORIENTED_EDGE('',*,*,#347,.F.);
#468=ORIENTED_EDGE('',*,*,#344,.F.);
#469=ORIENTED_EDGE('',*,*,#352,.F.);
#470=ORIENTED_EDGE('',*,*,#363,.F.);
#471=ORIENTED_EDGE('',*,*,#361,.F.);
#472=ORIENTED_EDGE('',*,*,#359,.F.);
#473=ORIENTED_EDGE('',*,*,#318,.F.);
#474=ORIENTED_EDGE('',*,*,#328,.F.);
#475=ORIENTED_EDGE('',*,*,#324,.F.);
#476=ORIENTED_EDGE('',*,*,#321,.F.);
#477=ORIENTED_EDGE('',*,*,#329,.F.);
#478=ORIENTED_EDGE('',*,*,#364,.F.);
#479=ORIENTED_EDGE('',*,*,#338,.F.);
#480=ORIENTED_EDGE('',*,*,#336,.F.);
#481=ORIENTED_EDGE('',*,*,#365,.T.);
#482=ORIENTED_EDGE('',*,*,#366,.T.);
#483=ORIENTED_EDGE('',*,*,#367,.T.);
#484=ORIENTED_EDGE('',*,*,#368,.T.);
#485=ORIENTED_EDGE('',*,*,#366,.F.);
#486=ORIENTED_EDGE('',*,*,#369,.T.);
#487=ORIENTED_EDGE('',*,*,#370,.F.);
#488=ORIENTED_EDGE('',*,*,#371,.F.);
#489=ORIENTED_EDGE('',*,*,#327,.T.);
#490=ORIENTED_EDGE('',*,*,#320,.T.);
#491=ORIENTED_EDGE('',*,*,#323,.T.);
#492=ORIENTED_EDGE('',*,*,#326,.T.);
#493=ORIENTED_EDGE('',*,*,#372,.T.);
#494=ORIENTED_EDGE('',*,*,#373,.T.);
#495=ORIENTED_EDGE('',*,*,#374,.T.);
#496=ORIENTED_EDGE('',*,*,#370,.T.);
#497=ORIENTED_EDGE('',*,*,#373,.F.);
#498=ORIENTED_EDGE('',*,*,#375,.T.);
#499=ORIENTED_EDGE('',*,*,#376,.F.);
#500=ORIENTED_EDGE('',*,*,#377,.F.);
#501=ORIENTED_EDGE('',*,*,#350,.T.);
#502=ORIENTED_EDGE('',*,*,#343,.T.);
#503=ORIENTED_EDGE('',*,*,#346,.T.);
#504=ORIENTED_EDGE('',*,*,#349,.T.);
#505=ORIENTED_EDGE('',*,*,#378,.T.);
#506=ORIENTED_EDGE('',*,*,#379,.T.);
#507=ORIENTED_EDGE('',*,*,#380,.T.);
#508=ORIENTED_EDGE('',*,*,#376,.T.);
#509=ORIENTED_EDGE('',*,*,#379,.F.);
#510=ORIENTED_EDGE('',*,*,#381,.T.);
#511=ORIENTED_EDGE('',*,*,#382,.F.);
#512=ORIENTED_EDGE('',*,*,#383,.F.);
#513=ORIENTED_EDGE('',*,*,#364,.T.);
#514=ORIENTED_EDGE('',*,*,#332,.T.);
#515=ORIENTED_EDGE('',*,*,#335,.T.);
#516=ORIENTED_EDGE('',*,*,#339,.T.);
#517=ORIENTED_EDGE('',*,*,#384,.T.);
#518=ORIENTED_EDGE('',*,*,#385,.T.);
#519=ORIENTED_EDGE('',*,*,#386,.T.);
#520=ORIENTED_EDGE('',*,*,#382,.T.);
#521=ORIENTED_EDGE('',*,*,#368,.F.);
#522=ORIENTED_EDGE('',*,*,#387,.F.);
#523=ORIENTED_EDGE('',*,*,#385,.F.);
#524=ORIENTED_EDGE('',*,*,#388,.T.);
#525=ORIENTED_EDGE('',*,*,#363,.T.);
#526=ORIENTED_EDGE('',*,*,#355,.T.);
#527=ORIENTED_EDGE('',*,*,#358,.T.);
#528=ORIENTED_EDGE('',*,*,#362,.T.);
#529=ORIENTED_EDGE('',*,*,#389,.F.);
#530=ORIENTED_EDGE('',*,*,#390,.T.);
#531=ORIENTED_EDGE('',*,*,#391,.F.);
#532=ORIENTED_EDGE('',*,*,#392,.F.);
#533=ORIENTED_EDGE('',*,*,#393,.F.);
#534=ORIENTED_EDGE('',*,*,#392,.T.);
#535=ORIENTED_EDGE('',*,*,#394,.F.);
#536=ORIENTED_EDGE('',*,*,#395,.F.);
#537=ORIENTED_EDGE('',*,*,#396,.F.);
#538=ORIENTED_EDGE('',*,*,#395,.T.);
#539=ORIENTED_EDGE('',*,*,#397,.F.);
#540=ORIENTED_EDGE('',*,*,#398,.F.);
#541=ORIENTED_EDGE('',*,*,#399,.F.);
#542=ORIENTED_EDGE('',*,*,#398,.T.);
#543=ORIENTED_EDGE('',*,*,#400,.F.);
#544=ORIENTED_EDGE('',*,*,#390,.F.);
#545=ORIENTED_EDGE('',*,*,#400,.T.);
#546=ORIENTED_EDGE('',*,*,#397,.T.);
#547=ORIENTED_EDGE('',*,*,#394,.T.);
#548=ORIENTED_EDGE('',*,*,#391,.T.);
#549=ORIENTED_EDGE('',*,*,#387,.T.);
#550=ORIENTED_EDGE('',*,*,#367,.F.);
#551=ORIENTED_EDGE('',*,*,#371,.T.);
#552=ORIENTED_EDGE('',*,*,#374,.F.);
#553=ORIENTED_EDGE('',*,*,#377,.T.);
#554=ORIENTED_EDGE('',*,*,#380,.F.);
#555=ORIENTED_EDGE('',*,*,#383,.T.);
#556=ORIENTED_EDGE('',*,*,#386,.F.);
#557=ORIENTED_EDGE('',*,*,#399,.T.);
#558=ORIENTED_EDGE('',*,*,#389,.T.);
#559=ORIENTED_EDGE('',*,*,#393,.T.);
#560=ORIENTED_EDGE('',*,*,#396,.T.);
#561=ORIENTED_EDGE('',*,*,#384,.F.);
#562=ORIENTED_EDGE('',*,*,#381,.F.);
#563=ORIENTED_EDGE('',*,*,#378,.F.);
#564=ORIENTED_EDGE('',*,*,#375,.F.);
#565=ORIENTED_EDGE('',*,*,#372,.F.);
#566=ORIENTED_EDGE('',*,*,#369,.F.);
#567=ORIENTED_EDGE('',*,*,#365,.F.);
#568=ORIENTED_EDGE('',*,*,#388,.F.);
#569=CYLINDRICAL_SURFACE('',#629,1.);
#570=CYLINDRICAL_SURFACE('',#634,1.);
#571=CYLINDRICAL_SURFACE('',#637,1.);
#572=CYLINDRICAL_SURFACE('',#643,1.);
#573=CYLINDRICAL_SURFACE('',#645,1.);
#574=CYLINDRICAL_SURFACE('',#650,1.);
#575=CYLINDRICAL_SURFACE('',#653,1.);
#576=CYLINDRICAL_SURFACE('',#659,1.);
#577=CYLINDRICAL_SURFACE('',#665,2.5);
#578=CYLINDRICAL_SURFACE('',#669,2.5);
#579=CYLINDRICAL_SURFACE('',#673,2.5);
#580=CYLINDRICAL_SURFACE('',#677,2.5);
#581=ADVANCED_FACE('',(#43),#569,.T.);
#582=ADVANCED_FACE('',(#44),#21,.F.);
#583=ADVANCED_FACE('',(#45),#570,.T.);
#584=ADVANCED_FACE('',(#46),#22,.F.);
#585=ADVANCED_FACE('',(#47),#571,.T.);
#586=ADVANCED_FACE('',(#48),#23,.T.);
#587=ADVANCED_FACE('',(#49),#24,.T.);
#588=ADVANCED_FACE('',(#50),#572,.T.);
#589=ADVANCED_FACE('',(#51),#573,.T.);
#590=ADVANCED_FACE('',(#52),#25,.F.);
#591=ADVANCED_FACE('',(#53),#574,.T.);
#592=ADVANCED_FACE('',(#54),#26,.F.);
#593=ADVANCED_FACE('',(#55),#575,.T.);
#594=ADVANCED_FACE('',(#56),#27,.T.);
#595=ADVANCED_FACE('',(#57),#28,.T.);
#596=ADVANCED_FACE('',(#58),#576,.T.);
#597=ADVANCED_FACE('',(#59),#29,.F.);
#598=ADVANCED_FACE('',(#60),#30,.T.);
#599=ADVANCED_FACE('',(#61),#31,.F.);
#600=ADVANCED_FACE('',(#62),#32,.T.);
#601=ADVANCED_FACE('',(#63),#577,.F.);
#602=ADVANCED_FACE('',(#64,#15),#33,.T.);
#603=ADVANCED_FACE('',(#65),#578,.F.);
#604=ADVANCED_FACE('',(#66,#16),#34,.T.);
#605=ADVANCED_FACE('',(#67),#579,.F.);
#606=ADVANCED_FACE('',(#68,#17),#35,.T.);
#607=ADVANCED_FACE('',(#69),#580,.F.);
#608=ADVANCED_FACE('',(#70,#18),#36,.T.);
#609=ADVANCED_FACE('',(#71),#37,.T.);
#610=ADVANCED_FACE('',(#72),#38,.T.);
#611=ADVANCED_FACE('',(#73),#39,.T.);
#612=ADVANCED_FACE('',(#74),#40,.T.);
#613=ADVANCED_FACE('',(#75,#19),#41,.T.);
#614=ADVANCED_FACE('',(#76,#20),#42,.F.);
#615=CLOSED_SHELL('',(#581,#582,#583,#584,#585,#586,#587,#588,#589,#590,
#591,#592,#593,#594,#595,#596,#597,#598,#599,#600,#601,#602,#603,#604,#605,
#606,#607,#608,#609,#610,#611,#612,#613,#614));
#616=DERIVED_UNIT_ELEMENT(#618,1.);
#617=DERIVED_UNIT_ELEMENT(#1045,-3.);
#618=(
MASS_UNIT()
NAMED_UNIT(*)
SI_UNIT(.KILO.,.GRAM.)
);
#619=DERIVED_UNIT((#616,#617));
#620=MEASURE_REPRESENTATION_ITEM('density measure',
POSITIVE_RATIO_MEASURE(7850.),#619);
#621=PROPERTY_DEFINITION_REPRESENTATION(#626,#623);
#622=PROPERTY_DEFINITION_REPRESENTATION(#627,#624);
#623=REPRESENTATION('material name',(#625),#1042);
#624=REPRESENTATION('density',(#620),#1042);
#625=DESCRIPTIVE_REPRESENTATION_ITEM('Steel','Steel');
#626=PROPERTY_DEFINITION('material property','material name',#1052);
#627=PROPERTY_DEFINITION('material property','density of part',#1052);
#628=AXIS2_PLACEMENT_3D('',#865,#687,#688);
#629=AXIS2_PLACEMENT_3D('',#866,#689,#690);
#630=AXIS2_PLACEMENT_3D('',#869,#691,#692);
#631=AXIS2_PLACEMENT_3D('',#873,#694,#695);
#632=AXIS2_PLACEMENT_3D('',#875,#697,#698);
#633=AXIS2_PLACEMENT_3D('',#879,#700,#701);
#634=AXIS2_PLACEMENT_3D('',#881,#703,#704);
#635=AXIS2_PLACEMENT_3D('',#885,#706,#707);
#636=AXIS2_PLACEMENT_3D('',#887,#709,#710);
#637=AXIS2_PLACEMENT_3D('',#890,#713,#714);
#638=AXIS2_PLACEMENT_3D('',#893,#715,#716);
#639=AXIS2_PLACEMENT_3D('',#897,#718,#719);
#640=AXIS2_PLACEMENT_3D('',#899,#721,#722);
#641=AXIS2_PLACEMENT_3D('',#903,#724,#725);
#642=AXIS2_PLACEMENT_3D('',#905,#727,#728);
#643=AXIS2_PLACEMENT_3D('',#909,#731,#732);
#644=AXIS2_PLACEMENT_3D('',#911,#733,#734);
#645=AXIS2_PLACEMENT_3D('',#913,#736,#737);
#646=AXIS2_PLACEMENT_3D('',#916,#738,#739);
#647=AXIS2_PLACEMENT_3D('',#920,#741,#742);
#648=AXIS2_PLACEMENT_3D('',#922,#744,#745);
#649=AXIS2_PLACEMENT_3D('',#926,#747,#748);
#650=AXIS2_PLACEMENT_3D('',#928,#750,#751);
#651=AXIS2_PLACEMENT_3D('',#932,#753,#754);
#652=AXIS2_PLACEMENT_3D('',#934,#756,#757);
#653=AXIS2_PLACEMENT_3D('',#937,#760,#761);
#654=AXIS2_PLACEMENT_3D('',#940,#762,#763);
#655=AXIS2_PLACEMENT_3D('',#944,#765,#766);
#656=AXIS2_PLACEMENT_3D('',#946,#768,#769);
#657=AXIS2_PLACEMENT_3D('',#950,#771,#772);
#658=AXIS2_PLACEMENT_3D('',#952,#774,#775);
#659=AXIS2_PLACEMENT_3D('',#956,#778,#779);
#660=AXIS2_PLACEMENT_3D('',#958,#780,#781);
#661=AXIS2_PLACEMENT_3D('',#960,#783,#784);
#662=AXIS2_PLACEMENT_3D('',#961,#785,#786);
#663=AXIS2_PLACEMENT_3D('',#963,#788,#789);
#664=AXIS2_PLACEMENT_3D('',#964,#790,#791);
#665=AXIS2_PLACEMENT_3D('',#966,#793,#794);
#666=AXIS2_PLACEMENT_3D('',#969,#795,#796);
#667=AXIS2_PLACEMENT_3D('',#973,#798,#799);
#668=AXIS2_PLACEMENT_3D('',#975,#801,#802);
#669=AXIS2_PLACEMENT_3D('',#981,#806,#807);
#670=AXIS2_PLACEMENT_3D('',#983,#808,#809);
#671=AXIS2_PLACEMENT_3D('',#986,#811,#812);
#672=AXIS2_PLACEMENT_3D('',#987,#813,#814);
#673=AXIS2_PLACEMENT_3D('',#993,#818,#819);
#674=AXIS2_PLACEMENT_3D('',#995,#820,#821);
#675=AXIS2_PLACEMENT_3D('',#998,#823,#824);
#676=AXIS2_PLACEMENT_3D('',#999,#825,#826);
#677=AXIS2_PLACEMENT_3D('',#1005,#830,#831);
#678=AXIS2_PLACEMENT_3D('',#1007,#832,#833);
#679=AXIS2_PLACEMENT_3D('',#1010,#835,#836);
#680=AXIS2_PLACEMENT_3D('',#1011,#837,#838);
#681=AXIS2_PLACEMENT_3D('',#1014,#841,#842);
#682=AXIS2_PLACEMENT_3D('',#1023,#847,#848);
#683=AXIS2_PLACEMENT_3D('',#1029,#852,#853);
#684=AXIS2_PLACEMENT_3D('',#1035,#857,#858);
#685=AXIS2_PLACEMENT_3D('',#1038,#861,#862);
#686=AXIS2_PLACEMENT_3D('',#1039,#863,#864);
#687=DIRECTION('axis',(0.,0.,1.));
#688=DIRECTION('refdir',(1.,0.,0.));
#689=DIRECTION('center_axis',(0.,0.,-1.));
#690=DIRECTION('ref_axis',(-0.599999999999998,-0.800000000000001,0.));
#691=DIRECTION('center_axis',(0.,0.,-1.));
#692=DIRECTION('ref_axis',(-0.599999999999998,-0.800000000000001,0.));
#693=DIRECTION('',(0.,0.,-1.));
#694=DIRECTION('center_axis',(0.,0.,1.));
#695=DIRECTION('ref_axis',(-0.599999999999998,-0.800000000000001,0.));
#696=DIRECTION('',(0.,0.,-1.));
#697=DIRECTION('center_axis',(0.,0.,1.));
#698=DIRECTION('ref_axis',(0.,1.,0.));
#699=DIRECTION('',(0.,1.,0.));
#700=DIRECTION('center_axis',(0.,0.,1.));
#701=DIRECTION('ref_axis',(-0.599999999999998,0.800000000000001,0.));
#702=DIRECTION('',(0.,1.,0.));
#703=DIRECTION('center_axis',(0.,0.,1.));
#704=DIRECTION('ref_axis',(-0.599999999999998,0.800000000000001,0.));
#705=DIRECTION('',(0.,0.,1.));
#706=DIRECTION('center_axis',(0.,0.,-1.));
#707=DIRECTION('ref_axis',(-0.599999999999998,0.800000000000001,0.));
#708=DIRECTION('',(0.,0.,1.));
#709=DIRECTION('center_axis',(0.,0.,-1.));
#710=DIRECTION('ref_axis',(0.,-1.,0.));
#711=DIRECTION('',(0.,-1.,0.));
#712=DIRECTION('',(0.,-1.,0.));
#713=DIRECTION('center_axis',(0.,0.,-1.));
#714=DIRECTION('ref_axis',(0.599999999999999,0.8,0.));
#715=DIRECTION('center_axis',(0.,0.,-1.));
#716=DIRECTION('ref_axis',(0.599999999999999,0.8,0.));
#717=DIRECTION('',(0.,0.,-1.));
#718=DIRECTION('center_axis',(0.,0.,1.));
#719=DIRECTION('ref_axis',(0.599999999999999,0.8,0.));
#720=DIRECTION('',(0.,0.,-1.));
#721=DIRECTION('center_axis',(0.,0.,-1.));
#722=DIRECTION('ref_axis',(0.,1.,0.));
#723=DIRECTION('',(0.,1.,0.));
#724=DIRECTION('center_axis',(0.,0.,1.));
#725=DIRECTION('ref_axis',(0.599999999999999,-0.8,0.));
#726=DIRECTION('',(0.,-1.,0.));
#727=DIRECTION('center_axis',(1.,0.,0.));
#728=DIRECTION('ref_axis',(0.,0.,-1.));
#729=DIRECTION('',(0.,-1.,0.));
#730=DIRECTION('',(0.,0.,1.));
#731=DIRECTION('center_axis',(0.,0.,1.));
#732=DIRECTION('ref_axis',(0.599999999999999,-0.8,0.));
#733=DIRECTION('center_axis',(0.,0.,-1.));
#734=DIRECTION('ref_axis',(0.599999999999999,-0.8,0.));
#735=DIRECTION('',(0.,0.,1.));
#736=DIRECTION('center_axis',(0.,0.,-1.));
#737=DIRECTION('ref_axis',(-0.916515138991168,0.4,0.));
#738=DIRECTION('center_axis',(0.,0.,-1.));
#739=DIRECTION('ref_axis',(-0.916515138991168,0.4,0.));
#740=DIRECTION('',(0.,0.,-1.));
#741=DIRECTION('center_axis',(0.,0.,1.));
#742=DIRECTION('ref_axis',(-0.916515138991168,0.4,0.));
#743=DIRECTION('',(0.,0.,-1.));
#744=DIRECTION('center_axis',(0.,0.,1.));
#745=DIRECTION('ref_axis',(1.,-6.53072367426563E-17,0.));
#746=DIRECTION('',(1.,-6.53072367426563E-17,0.));
#747=DIRECTION('center_axis',(0.,0.,1.));
#748=DIRECTION('ref_axis',(0.916515138991168,0.4,0.));
#749=DIRECTION('',(1.,-1.26882631385732E-16,0.));
#750=DIRECTION('center_axis',(0.,0.,1.));
#751=DIRECTION('ref_axis',(0.916515138991168,0.4,0.));
#752=DIRECTION('',(0.,0.,1.));
#753=DIRECTION('center_axis',(0.,0.,-1.));
#754=DIRECTION('ref_axis',(0.916515138991168,0.4,0.));
#755=DIRECTION('',(0.,0.,1.));
#756=DIRECTION('center_axis',(0.,0.,-1.));
#757=DIRECTION('ref_axis',(-1.,6.53072367426563E-17,0.));
#758=DIRECTION('',(-1.,1.26882631385732E-16,0.));
#759=DIRECTION('',(-1.,6.53072367426563E-17,0.));
#760=DIRECTION('center_axis',(0.,0.,-1.));
#761=DIRECTION('ref_axis',(0.916515138991168,-0.399999999999999,0.));
#762=DIRECTION('center_axis',(0.,0.,-1.));
#763=DIRECTION('ref_axis',(0.916515138991168,-0.399999999999999,0.));
#764=DIRECTION('',(0.,0.,-1.));
#765=DIRECTION('center_axis',(0.,0.,1.));
#766=DIRECTION('ref_axis',(0.916515138991168,-0.399999999999999,0.));
#767=DIRECTION('',(0.,0.,-1.));
#768=DIRECTION('center_axis',(0.,0.,-1.));
#769=DIRECTION('ref_axis',(1.,6.53072367426563E-17,0.));
#770=DIRECTION('',(1.,6.53072367426563E-17,0.));
#771=DIRECTION('center_axis',(0.,0.,1.));
#772=DIRECTION('ref_axis',(-0.916515138991168,-0.399999999999999,0.));
#773=DIRECTION('',(-1.,-1.26882631385732E-16,0.));
#774=DIRECTION('center_axis',(0.,-1.,0.));
#775=DIRECTION('ref_axis',(0.,0.,-1.));
#776=DIRECTION('',(-1.,-6.53072367426563E-17,0.));
#777=DIRECTION('',(0.,0.,1.));
#778=DIRECTION('center_axis',(0.,0.,1.));
#779=DIRECTION('ref_axis',(-0.916515138991168,-0.399999999999999,0.));
#780=DIRECTION('center_axis',(0.,0.,-1.));
#781=DIRECTION('ref_axis',(-0.916515138991168,-0.399999999999999,0.));
#782=DIRECTION('',(0.,0.,1.));
#783=DIRECTION('center_axis',(0.,-1.,0.));
#784=DIRECTION('ref_axis',(0.,0.,-1.));
#785=DIRECTION('center_axis',(0.,0.,1.));
#786=DIRECTION('ref_axis',(-1.,-6.53072367426563E-17,0.));
#787=DIRECTION('',(1.,1.26882631385732E-16,0.));
#788=DIRECTION('center_axis',(1.,0.,0.));
#789=DIRECTION('ref_axis',(0.,0.,-1.));
#790=DIRECTION('center_axis',(0.,0.,1.));
#791=DIRECTION('ref_axis',(0.,-1.,0.));
#792=DIRECTION('',(0.,1.,0.));
#793=DIRECTION('center_axis',(0.,0.,1.));
#794=DIRECTION('ref_axis',(0.707106781186547,0.707106781186547,0.));
#795=DIRECTION('center_axis',(0.,0.,-1.));
#796=DIRECTION('ref_axis',(0.707106781186547,0.707106781186547,0.));
#797=DIRECTION('',(0.,0.,1.));
#798=DIRECTION('center_axis',(0.,0.,1.));
#799=DIRECTION('ref_axis',(0.707106781186547,0.707106781186547,0.));
#800=DIRECTION('',(0.,0.,-1.));
#801=DIRECTION('center_axis',(-1.,0.,0.));
#802=DIRECTION('ref_axis',(0.,-1.,0.));
#803=DIRECTION('',(0.,-1.,0.));
#804=DIRECTION('',(0.,0.,-1.));
#805=DIRECTION('',(0.,-1.,0.));
#806=DIRECTION('center_axis',(0.,0.,1.));
#807=DIRECTION('ref_axis',(0.707106781186547,-0.707106781186547,0.));
#808=DIRECTION('center_axis',(0.,0.,-1.));
#809=DIRECTION('ref_axis',(0.707106781186547,-0.707106781186547,0.));
#810=DIRECTION('',(0.,0.,1.));
#811=DIRECTION('center_axis',(0.,0.,1.));
#812=DIRECTION('ref_axis',(0.707106781186547,-0.707106781186547,0.));
#813=DIRECTION('center_axis',(1.26882631385732E-16,1.,0.));
#814=DIRECTION('ref_axis',(-1.,1.26882631385732E-16,0.));
#815=DIRECTION('',(-1.,1.26882631385732E-16,0.));
#816=DIRECTION('',(0.,0.,-1.));
#817=DIRECTION('',(-1.,1.26882631385732E-16,0.));
#818=DIRECTION('center_axis',(0.,0.,1.));
#819=DIRECTION('ref_axis',(-0.707106781186547,-0.707106781186547,0.));
#820=DIRECTION('center_axis',(0.,0.,-1.));
#821=DIRECTION('ref_axis',(-0.707106781186547,-0.707106781186547,0.));
#822=DIRECTION('',(0.,0.,1.));
#823=DIRECTION('center_axis',(0.,0.,1.));
#824=DIRECTION('ref_axis',(-0.707106781186547,-0.707106781186547,0.));
#825=DIRECTION('center_axis',(1.,0.,0.));
#826=DIRECTION('ref_axis',(0.,1.,0.));
#827=DIRECTION('',(0.,1.,0.));
#828=DIRECTION('',(0.,0.,-1.));
#829=DIRECTION('',(0.,1.,0.));
#830=DIRECTION('center_axis',(0.,0.,1.));
#831=DIRECTION('ref_axis',(-0.707106781186547,0.707106781186548,0.));
#832=DIRECTION('center_axis',(0.,0.,-1.));
#833=DIRECTION('ref_axis',(-0.707106781186547,0.707106781186548,0.));
#834=DIRECTION('',(0.,0.,1.));
#835=DIRECTION('center_axis',(0.,0.,1.));
#836=DIRECTION('ref_axis',(-0.707106781186547,0.707106781186548,0.));
#837=DIRECTION('center_axis',(1.26882631385732E-16,-1.,0.));
#838=DIRECTION('ref_axis',(1.,1.26882631385732E-16,0.));
#839=DIRECTION('',(1.,1.26882631385732E-16,0.));
#840=DIRECTION('',(1.,1.26882631385732E-16,0.));
#841=DIRECTION('center_axis',(1.,0.,0.));
#842=DIRECTION('ref_axis',(0.,1.,0.));
#843=DIRECTION('',(0.,-1.,0.));
#844=DIRECTION('',(0.,0.,1.));
#845=DIRECTION('',(0.,1.,0.));
#846=DIRECTION('',(0.,0.,1.));
#847=DIRECTION('center_axis',(0.,-1.,0.));
#848=DIRECTION('ref_axis',(1.,0.,0.));
#849=DIRECTION('',(-1.,0.,0.));
#850=DIRECTION('',(1.,0.,0.));
#851=DIRECTION('',(0.,0.,1.));
#852=DIRECTION('center_axis',(-1.,0.,0.));
#853=DIRECTION('ref_axis',(0.,-1.,0.));
#854=DIRECTION('',(0.,1.,0.));
#855=DIRECTION('',(0.,-1.,0.));
#856=DIRECTION('',(0.,0.,1.));
#857=DIRECTION('center_axis',(0.,1.,0.));
#858=DIRECTION('ref_axis',(-1.,0.,0.));
#859=DIRECTION('',(1.,0.,0.));
#860=DIRECTION('',(-1.,0.,0.));
#861=DIRECTION('center_axis',(0.,0.,1.));
#862=DIRECTION('ref_axis',(1.,0.,0.));
#863=DIRECTION('center_axis',(0.,0.,1.));
#864=DIRECTION('ref_axis',(1.,0.,0.));
#865=CARTESIAN_POINT('',(0.,0.,0.));
#866=CARTESIAN_POINT('Origin',(9.35,-2.2,1.76634289158851));
#867=CARTESIAN_POINT('',(8.75,-3.,3.53268578317702));
#868=CARTESIAN_POINT('',(8.35,-2.2,3.53268578317702));
#869=CARTESIAN_POINT('Origin',(9.35,-2.2,3.53268578317702));
#870=CARTESIAN_POINT('',(8.35,-2.2,2.53268578317702));
#871=CARTESIAN_POINT('',(8.35,-2.2,1.76634289158851));
#872=CARTESIAN_POINT('',(8.75,-3.,2.53268578317702));
#873=CARTESIAN_POINT('Origin',(9.35,-2.2,2.53268578317702));
#874=CARTESIAN_POINT('',(8.75,-3.,1.76634289158851));
#875=CARTESIAN_POINT('Origin',(8.75,-3.,2.53268578317702));
#876=CARTESIAN_POINT('',(8.35,2.2,2.53268578317702));
#877=CARTESIAN_POINT('',(8.35,-3.,2.53268578317702));
#878=CARTESIAN_POINT('',(8.75,3.,2.53268578317702));
#879=CARTESIAN_POINT('Origin',(9.35,2.2,2.53268578317702));
#880=CARTESIAN_POINT('',(8.75,2.875,2.53268578317702));
#881=CARTESIAN_POINT('Origin',(9.35,2.2,1.26634289158851));
#882=CARTESIAN_POINT('',(8.35,2.2,3.53268578317702));
#883=CARTESIAN_POINT('',(8.35,2.2,1.26634289158851));
#884=CARTESIAN_POINT('',(8.75,3.,3.53268578317702));
#885=CARTESIAN_POINT('Origin',(9.35,2.2,3.53268578317702));
#886=CARTESIAN_POINT('',(8.75,3.,1.26634289158851));
#887=CARTESIAN_POINT('Origin',(8.75,3.,3.53268578317702));
#888=CARTESIAN_POINT('',(8.75,5.875,3.53268578317702));
#889=CARTESIAN_POINT('',(8.35,-3.,3.53268578317702));
#890=CARTESIAN_POINT('Origin',(-9.35,2.2,1.26634289158851));
#891=CARTESIAN_POINT('',(-8.75,3.,3.53268578317702));
#892=CARTESIAN_POINT('',(-8.35,2.2,3.53268578317702));
#893=CARTESIAN_POINT('Origin',(-9.35,2.2,3.53268578317702));
#894=CARTESIAN_POINT('',(-8.35,2.2,2.53268578317702));
#895=CARTESIAN_POINT('',(-8.35,2.2,1.26634289158851));
#896=CARTESIAN_POINT('',(-8.75,3.,2.53268578317702));
#897=CARTESIAN_POINT('Origin',(-9.35,2.2,2.53268578317702));
#898=CARTESIAN_POINT('',(-8.75,3.,1.26634289158851));
#899=CARTESIAN_POINT('Origin',(-8.75,-3.,2.53268578317702));
#900=CARTESIAN_POINT('',(-8.35,-2.2,2.53268578317702));
#901=CARTESIAN_POINT('',(-8.35,-3.,2.53268578317702));
#902=CARTESIAN_POINT('',(-8.75,-3.,2.53268578317702));
#903=CARTESIAN_POINT('Origin',(-9.35,-2.2,2.53268578317702));
#904=CARTESIAN_POINT('',(-8.75,-5.875,2.53268578317702));
#905=CARTESIAN_POINT('Origin',(-8.35,0.,3.03268578317702));
#906=CARTESIAN_POINT('',(-8.35,-2.2,3.53268578317702));
#907=CARTESIAN_POINT('',(-8.35,-3.,3.53268578317702));
#908=CARTESIAN_POINT('',(-8.35,-2.2,1.76634289158851));
#909=CARTESIAN_POINT('Origin',(-9.35,-2.2,1.76634289158851));
#910=CARTESIAN_POINT('',(-8.75,-3.,3.53268578317702));
#911=CARTESIAN_POINT('Origin',(-9.35,-2.2,3.53268578317702));
#912=CARTESIAN_POINT('',(-8.75,-3.,1.76634289158851));
#913=CARTESIAN_POINT('Origin',(-2.08348486100883,-9.15,1.75000001862645));
#914=CARTESIAN_POINT('',(-3.,-8.75,3.5000000372529));
#915=CARTESIAN_POINT('',(-2.08348486100883,-8.15,3.5000000372529));
#916=CARTESIAN_POINT('Origin',(-2.08348486100883,-9.15,3.5000000372529));
#917=CARTESIAN_POINT('',(-2.08348486100883,-8.15,2.5000000372529));
#918=CARTESIAN_POINT('',(-2.08348486100883,-8.15,1.75000001862645));
#919=CARTESIAN_POINT('',(-3.,-8.75,2.5000000372529));
#920=CARTESIAN_POINT('Origin',(-2.08348486100883,-9.15,2.5000000372529));
#921=CARTESIAN_POINT('',(-3.,-8.75,1.75000001862645));
#922=CARTESIAN_POINT('Origin',(-3.,-8.75,2.5000000372529));
#923=CARTESIAN_POINT('',(2.08348486100883,-8.15,2.5000000372529));
#924=CARTESIAN_POINT('',(-3.,-8.15,2.5000000372529));
#925=CARTESIAN_POINT('',(3.,-8.75,2.5000000372529));
#926=CARTESIAN_POINT('Origin',(2.08348486100883,-9.15,2.5000000372529));
#927=CARTESIAN_POINT('',(2.875,-8.75,2.5000000372529));
#928=CARTESIAN_POINT('Origin',(2.08348486100883,-9.15,1.25000001862645));
#929=CARTESIAN_POINT('',(2.08348486100883,-8.15,3.5000000372529));
#930=CARTESIAN_POINT('',(2.08348486100883,-8.15,1.25000001862645));
#931=CARTESIAN_POINT('',(3.,-8.75,3.5000000372529));
#932=CARTESIAN_POINT('Origin',(2.08348486100883,-9.15,3.5000000372529));
#933=CARTESIAN_POINT('',(3.,-8.75,1.25000001862645));
#934=CARTESIAN_POINT('Origin',(3.,-8.75,3.5000000372529));
#935=CARTESIAN_POINT('',(5.875,-8.75,3.5000000372529));
#936=CARTESIAN_POINT('',(-3.,-8.15,3.5000000372529));
#937=CARTESIAN_POINT('Origin',(2.08348486100883,9.15,1.25000001862645));
#938=CARTESIAN_POINT('',(3.,8.75,3.5000000372529));
#939=CARTESIAN_POINT('',(2.08348486100883,8.15,3.5000000372529));
#940=CARTESIAN_POINT('Origin',(2.08348486100883,9.15,3.5000000372529));
#941=CARTESIAN_POINT('',(2.08348486100883,8.15,2.5000000372529));
#942=CARTESIAN_POINT('',(2.08348486100883,8.15,1.25000001862645));
#943=CARTESIAN_POINT('',(3.,8.75,2.5000000372529));
#944=CARTESIAN_POINT('Origin',(2.08348486100883,9.15,2.5000000372529));
#945=CARTESIAN_POINT('',(3.,8.75,1.25000001862645));
#946=CARTESIAN_POINT('Origin',(-3.,8.75,2.5000000372529));
#947=CARTESIAN_POINT('',(-2.08348486100883,8.15,2.5000000372529));
#948=CARTESIAN_POINT('',(-3.,8.15,2.5000000372529));
#949=CARTESIAN_POINT('',(-3.,8.75,2.5000000372529));
#950=CARTESIAN_POINT('Origin',(-2.08348486100883,9.15,2.5000000372529));
#951=CARTESIAN_POINT('',(-5.875,8.75,2.5000000372529));
#952=CARTESIAN_POINT('Origin',(-5.55111512312578E-16,8.15,3.0000000372529));
#953=CARTESIAN_POINT('',(-2.08348486100883,8.15,3.5000000372529));
#954=CARTESIAN_POINT('',(-3.,8.15,3.5000000372529));
#955=CARTESIAN_POINT('',(-2.08348486100883,8.15,1.75000001862645));
#956=CARTESIAN_POINT('Origin',(-2.08348486100883,9.15,1.75000001862645));
#957=CARTESIAN_POINT('',(-3.,8.75,3.5000000372529));
#958=CARTESIAN_POINT('Origin',(-2.08348486100883,9.15,3.5000000372529));
#959=CARTESIAN_POINT('',(-3.,8.75,1.75000001862645));
#960=CARTESIAN_POINT('Origin',(-5.55111512312578E-16,-8.15,3.0000000372529));
#961=CARTESIAN_POINT('Origin',(3.,8.75,3.5000000372529));
#962=CARTESIAN_POINT('',(-2.875,8.75,3.5000000372529));
#963=CARTESIAN_POINT('Origin',(8.35,0.,3.03268578317702));
#964=CARTESIAN_POINT('Origin',(-8.75,3.,3.53268578317702));
#965=CARTESIAN_POINT('',(-8.75,-2.875,3.53268578317702));
#966=CARTESIAN_POINT('Origin',(6.25,6.25,0.));
#967=CARTESIAN_POINT('',(6.25,8.75,0.));
#968=CARTESIAN_POINT('',(8.75,6.25,0.));
#969=CARTESIAN_POINT('Origin',(6.25,6.25,0.));
#970=CARTESIAN_POINT('',(8.75,6.25,5.));
#971=CARTESIAN_POINT('',(8.75,6.25,0.));
#972=CARTESIAN_POINT('',(6.25,8.75,5.));
#973=CARTESIAN_POINT('Origin',(6.25,6.25,5.));
#974=CARTESIAN_POINT('',(6.25,8.75,0.));
#975=CARTESIAN_POINT('Origin',(8.75,8.75,0.));
#976=CARTESIAN_POINT('',(8.75,-6.25,0.));
#977=CARTESIAN_POINT('',(8.75,8.75,0.));
#978=CARTESIAN_POINT('',(8.75,-6.25,5.));
#979=CARTESIAN_POINT('',(8.75,-6.25,0.));
#980=CARTESIAN_POINT('',(8.75,8.75,5.));
#981=CARTESIAN_POINT('Origin',(6.25,-6.25,0.));
#982=CARTESIAN_POINT('',(6.25,-8.75,0.));
#983=CARTESIAN_POINT('Origin',(6.25,-6.25,0.));
#984=CARTESIAN_POINT('',(6.25,-8.75,5.));
#985=CARTESIAN_POINT('',(6.25,-8.75,0.));
#986=CARTESIAN_POINT('Origin',(6.25,-6.25,5.));
#987=CARTESIAN_POINT('Origin',(8.75,-8.75,0.));
#988=CARTESIAN_POINT('',(-6.25,-8.75,0.));
#989=CARTESIAN_POINT('',(8.75,-8.75,0.));
#990=CARTESIAN_POINT('',(-6.25,-8.75,5.));
#991=CARTESIAN_POINT('',(-6.25,-8.75,0.));
#992=CARTESIAN_POINT('',(8.75,-8.75,5.));
#993=CARTESIAN_POINT('Origin',(-6.25,-6.25,0.));
#994=CARTESIAN_POINT('',(-8.75,-6.25,0.));
#995=CARTESIAN_POINT('Origin',(-6.25,-6.25,0.));
#996=CARTESIAN_POINT('',(-8.75,-6.25,5.));
#997=CARTESIAN_POINT('',(-8.75,-6.25,0.));
#998=CARTESIAN_POINT('Origin',(-6.25,-6.25,5.));
#999=CARTESIAN_POINT('Origin',(-8.75,-8.75,0.));
#1000=CARTESIAN_POINT('',(-8.75,6.25,0.));
#1001=CARTESIAN_POINT('',(-8.75,-8.75,0.));
#1002=CARTESIAN_POINT('',(-8.75,6.25,5.));
#1003=CARTESIAN_POINT('',(-8.75,6.25,0.));
#1004=CARTESIAN_POINT('',(-8.75,-8.75,5.));
#1005=CARTESIAN_POINT('Origin',(-6.25,6.25,0.));
#1006=CARTESIAN_POINT('',(-6.25,8.75,0.));
#1007=CARTESIAN_POINT('Origin',(-6.25,6.25,0.));
#1008=CARTESIAN_POINT('',(-6.25,8.75,5.));
#1009=CARTESIAN_POINT('',(-6.25,8.75,0.));
#1010=CARTESIAN_POINT('Origin',(-6.25,6.25,5.));
#1011=CARTESIAN_POINT('Origin',(-8.75,8.75,0.));
#1012=CARTESIAN_POINT('',(-8.75,8.75,5.));
#1013=CARTESIAN_POINT('',(-8.75,8.75,0.));
#1014=CARTESIAN_POINT('Origin',(10.,-10.,0.));
#1015=CARTESIAN_POINT('',(10.,10.,0.));
#1016=CARTESIAN_POINT('',(10.,-10.,0.));
#1017=CARTESIAN_POINT('',(10.,10.,0.));
#1018=CARTESIAN_POINT('',(10.,10.,5.));
#1019=CARTESIAN_POINT('',(10.,10.,0.));
#1020=CARTESIAN_POINT('',(10.,-10.,5.));
#1021=CARTESIAN_POINT('',(10.,10.,5.));
#1022=CARTESIAN_POINT('',(10.,-10.,0.));
#1023=CARTESIAN_POINT('Origin',(-10.,-10.,0.));
#1024=CARTESIAN_POINT('',(-10.,-10.,0.));
#1025=CARTESIAN_POINT('',(10.,-10.,0.));
#1026=CARTESIAN_POINT('',(-10.,-10.,5.));
#1027=CARTESIAN_POINT('',(10.,-10.,5.));
#1028=CARTESIAN_POINT('',(-10.,-10.,0.));
#1029=CARTESIAN_POINT('Origin',(-10.,10.,0.));
#1030=CARTESIAN_POINT('',(-10.,10.,0.));
#1031=CARTESIAN_POINT('',(-10.,-10.,0.));
#1032=CARTESIAN_POINT('',(-10.,10.,5.));
#1033=CARTESIAN_POINT('',(-10.,-10.,5.));
#1034=CARTESIAN_POINT('',(-10.,10.,0.));
#1035=CARTESIAN_POINT('Origin',(10.,10.,0.));
#1036=CARTESIAN_POINT('',(-10.,10.,0.));
#1037=CARTESIAN_POINT('',(-10.,10.,5.));
#1038=CARTESIAN_POINT('Origin',(0.,0.,5.));
#1039=CARTESIAN_POINT('Origin',(0.,0.,0.));
#1040=UNCERTAINTY_MEASURE_WITH_UNIT(LENGTH_MEASURE(0.01),#1044,
'DISTANCE_ACCURACY_VALUE',
'Maximum model space distance between geometric entities at asserted c
onnectivities');
#1041=UNCERTAINTY_MEASURE_WITH_UNIT(LENGTH_MEASURE(0.01),#1044,
'DISTANCE_ACCURACY_VALUE',
'Maximum model space distance between geometric entities at asserted c
onnectivities');
#1042=(
GEOMETRIC_REPRESENTATION_CONTEXT(3)
GLOBAL_UNCERTAINTY_ASSIGNED_CONTEXT((#1040))
GLOBAL_UNIT_ASSIGNED_CONTEXT((#1044,#1046,#1047))
REPRESENTATION_CONTEXT('','3D')
);
#1043=(
GEOMETRIC_REPRESENTATION_CONTEXT(3)
GLOBAL_UNCERTAINTY_ASSIGNED_CONTEXT((#1041))
GLOBAL_UNIT_ASSIGNED_CONTEXT((#1044,#1046,#1047))
REPRESENTATION_CONTEXT('','3D')
);
#1044=(
LENGTH_UNIT()
NAMED_UNIT(*)
SI_UNIT(.MILLI.,.METRE.)
);
#1045=(
LENGTH_UNIT()
NAMED_UNIT(*)
SI_UNIT($,.METRE.)
);
#1046=(
NAMED_UNIT(*)
PLANE_ANGLE_UNIT()
SI_UNIT($,.RADIAN.)
);
#1047=(
NAMED_UNIT(*)
SI_UNIT($,.STERADIAN.)
SOLID_ANGLE_UNIT()
);
#1048=SHAPE_DEFINITION_REPRESENTATION(#1049,#1050);
#1049=PRODUCT_DEFINITION_SHAPE('',$,#1052);
#1050=SHAPE_REPRESENTATION('',(#628),#1042);
#1051=PRODUCT_DEFINITION_CONTEXT('part definition',#1056,'design');
#1052=PRODUCT_DEFINITION('board-cell-template',
'board-cell-template v16',#1053,#1051);
#1053=PRODUCT_DEFINITION_FORMATION('',$,#1058);
#1054=PRODUCT_RELATED_PRODUCT_CATEGORY('board-cell-template v16',
'board-cell-template v16',(#1058));
#1055=APPLICATION_PROTOCOL_DEFINITION('international standard',
'automotive_design',2009,#1056);
#1056=APPLICATION_CONTEXT(
'Core Data for Automotive Mechanical Design Process');
#1057=PRODUCT_CONTEXT('part definition',#1056,'mechanical');
#1058=PRODUCT('board-cell-template','board-cell-template v16',$,(#1057));
#1059=PRESENTATION_STYLE_ASSIGNMENT((#1060));
#1060=SURFACE_STYLE_USAGE(.BOTH.,#1061);
#1061=SURFACE_SIDE_STYLE('',(#1062));
#1062=SURFACE_STYLE_FILL_AREA(#1063);
#1063=FILL_AREA_STYLE('Steel - Satin',(#1064));
#1064=FILL_AREA_STYLE_COLOUR('Steel - Satin',#1065);
#1065=COLOUR_RGB('Steel - Satin',0.627450980392157,0.627450980392157,0.627450980392157);
ENDSEC;
END-ISO-10303-21;
