ISO-10303-21;
HEADER;
/* Generated by software containing ST-Developer
 * from STEP Tools, Inc. (www.steptools.com) 
 */

FILE_DESCRIPTION(
/* description */ (''),
/* implementation_level */ '2;1');

FILE_NAME(
/* name */ 'cell-template.step',
/* time_stamp */ '2026-08-04T14:55:58+08:00',
/* author */ (''),
/* organization */ (''),
/* preprocessor_version */ 'ST-DEVELOPER v20.1',
/* originating_system */ 'Autodesk Translation Framework v15.8.0.0',
/* authorisation */ '');

FILE_SCHEMA (('AUTOMOTIVE_DESIGN { 1 0 10303 214 3 1 1 }'));
ENDSEC;

DATA;
#10=MECHANICAL_DESIGN_GEOMETRIC_PRESENTATION_REPRESENTATION('',(#13),#1323);
#11=SHAPE_REPRESENTATION_RELATIONSHIP('SRR','None',#1330,#12);
#12=ADVANCED_BREP_SHAPE_REPRESENTATION('',(#14),#1322);
#13=STYLED_ITEM('',(#1339),#14);
#14=MANIFOLD_SOLID_BREP('Body1',#767);
#15=FACE_BOUND('',#115,.T.);
#16=FACE_BOUND('',#118,.T.);
#17=FACE_BOUND('',#121,.T.);
#18=FACE_BOUND('',#124,.T.);
#19=FACE_BOUND('',#130,.T.);
#20=FACE_BOUND('',#132,.T.);
#21=PLANE('',#787);
#22=PLANE('',#800);
#23=PLANE('',#813);
#24=PLANE('',#826);
#25=PLANE('',#833);
#26=PLANE('',#834);
#27=PLANE('',#835);
#28=PLANE('',#836);
#29=PLANE('',#837);
#30=PLANE('',#838);
#31=PLANE('',#839);
#32=PLANE('',#840);
#33=PLANE('',#844);
#34=PLANE('',#848);
#35=PLANE('',#852);
#36=PLANE('',#856);
#37=PLANE('',#857);
#38=PLANE('',#858);
#39=PLANE('',#859);
#40=PLANE('',#860);
#41=PLANE('',#861);
#42=PLANE('',#862);
#43=FACE_OUTER_BOUND('',#85,.T.);
#44=FACE_OUTER_BOUND('',#86,.T.);
#45=FACE_OUTER_BOUND('',#87,.T.);
#46=FACE_OUTER_BOUND('',#88,.T.);
#47=FACE_OUTER_BOUND('',#89,.T.);
#48=FACE_OUTER_BOUND('',#90,.T.);
#49=FACE_OUTER_BOUND('',#91,.T.);
#50=FACE_OUTER_BOUND('',#92,.T.);
#51=FACE_OUTER_BOUND('',#93,.T.);
#52=FACE_OUTER_BOUND('',#94,.T.);
#53=FACE_OUTER_BOUND('',#95,.T.);
#54=FACE_OUTER_BOUND('',#96,.T.);
#55=FACE_OUTER_BOUND('',#97,.T.);
#56=FACE_OUTER_BOUND('',#98,.T.);
#57=FACE_OUTER_BOUND('',#99,.T.);
#58=FACE_OUTER_BOUND('',#100,.T.);
#59=FACE_OUTER_BOUND('',#101,.T.);
#60=FACE_OUTER_BOUND('',#102,.T.);
#61=FACE_OUTER_BOUND('',#103,.T.);
#62=FACE_OUTER_BOUND('',#104,.T.);
#63=FACE_OUTER_BOUND('',#105,.T.);
#64=FACE_OUTER_BOUND('',#106,.T.);
#65=FACE_OUTER_BOUND('',#107,.T.);
#66=FACE_OUTER_BOUND('',#108,.T.);
#67=FACE_OUTER_BOUND('',#109,.T.);
#68=FACE_OUTER_BOUND('',#110,.T.);
#69=FACE_OUTER_BOUND('',#111,.T.);
#70=FACE_OUTER_BOUND('',#112,.T.);
#71=FACE_OUTER_BOUND('',#113,.T.);
#72=FACE_OUTER_BOUND('',#114,.T.);
#73=FACE_OUTER_BOUND('',#116,.T.);
#74=FACE_OUTER_BOUND('',#117,.T.);
#75=FACE_OUTER_BOUND('',#119,.T.);
#76=FACE_OUTER_BOUND('',#120,.T.);
#77=FACE_OUTER_BOUND('',#122,.T.);
#78=FACE_OUTER_BOUND('',#123,.T.);
#79=FACE_OUTER_BOUND('',#125,.T.);
#80=FACE_OUTER_BOUND('',#126,.T.);
#81=FACE_OUTER_BOUND('',#127,.T.);
#82=FACE_OUTER_BOUND('',#128,.T.);
#83=FACE_OUTER_BOUND('',#129,.T.);
#84=FACE_OUTER_BOUND('',#131,.T.);
#85=EDGE_LOOP('',(#489,#490,#491,#492));
#86=EDGE_LOOP('',(#493,#494,#495,#496));
#87=EDGE_LOOP('',(#497,#498,#499,#500,#501,#502));
#88=EDGE_LOOP('',(#503,#504,#505,#506));
#89=EDGE_LOOP('',(#507,#508,#509,#510));
#90=EDGE_LOOP('',(#511,#512,#513,#514));
#91=EDGE_LOOP('',(#515,#516,#517,#518));
#92=EDGE_LOOP('',(#519,#520,#521,#522,#523,#524));
#93=EDGE_LOOP('',(#525,#526,#527,#528));
#94=EDGE_LOOP('',(#529,#530,#531,#532));
#95=EDGE_LOOP('',(#533,#534,#535,#536));
#96=EDGE_LOOP('',(#537,#538,#539,#540));
#97=EDGE_LOOP('',(#541,#542,#543,#544,#545,#546));
#98=EDGE_LOOP('',(#547,#548,#549,#550));
#99=EDGE_LOOP('',(#551,#552,#553,#554));
#100=EDGE_LOOP('',(#555,#556,#557,#558));
#101=EDGE_LOOP('',(#559,#560,#561,#562));
#102=EDGE_LOOP('',(#563,#564,#565,#566,#567,#568));
#103=EDGE_LOOP('',(#569,#570,#571,#572));
#104=EDGE_LOOP('',(#573,#574,#575,#576));
#105=EDGE_LOOP('',(#577,#578,#579,#580,#581,#582));
#106=EDGE_LOOP('',(#583,#584,#585,#586));
#107=EDGE_LOOP('',(#587,#588,#589,#590,#591,#592));
#108=EDGE_LOOP('',(#593,#594,#595,#596));
#109=EDGE_LOOP('',(#597,#598,#599,#600,#601,#602));
#110=EDGE_LOOP('',(#603,#604,#605,#606));
#111=EDGE_LOOP('',(#607,#608,#609,#610,#611,#612));
#112=EDGE_LOOP('',(#613,#614,#615,#616));
#113=EDGE_LOOP('',(#617,#618,#619,#620));
#114=EDGE_LOOP('',(#621,#622,#623,#624));
#115=EDGE_LOOP('',(#625,#626,#627,#628));
#116=EDGE_LOOP('',(#629,#630,#631,#632));
#117=EDGE_LOOP('',(#633,#634,#635,#636));
#118=EDGE_LOOP('',(#637,#638,#639,#640));
#119=EDGE_LOOP('',(#641,#642,#643,#644));
#120=EDGE_LOOP('',(#645,#646,#647,#648));
#121=EDGE_LOOP('',(#649,#650,#651,#652));
#122=EDGE_LOOP('',(#653,#654,#655,#656));
#123=EDGE_LOOP('',(#657,#658,#659,#660));
#124=EDGE_LOOP('',(#661,#662,#663,#664));
#125=EDGE_LOOP('',(#665,#666,#667,#668));
#126=EDGE_LOOP('',(#669,#670,#671,#672));
#127=EDGE_LOOP('',(#673,#674,#675,#676));
#128=EDGE_LOOP('',(#677,#678,#679,#680));
#129=EDGE_LOOP('',(#681,#682,#683,#684));
#130=EDGE_LOOP('',(#685,#686,#687,#688,#689,#690,#691,#692));
#131=EDGE_LOOP('',(#693,#694,#695,#696));
#132=EDGE_LOOP('',(#697,#698,#699,#700,#701,#702,#703,#704));
#133=LINE('',#1103,#201);
#134=LINE('',#1106,#202);
#135=LINE('',#1111,#203);
#136=LINE('',#1115,#204);
#137=LINE('',#1120,#205);
#138=LINE('',#1125,#206);
#139=LINE('',#1126,#207);
#140=LINE('',#1130,#208);
#141=LINE('',#1136,#209);
#142=LINE('',#1139,#210);
#143=LINE('',#1144,#211);
#144=LINE('',#1148,#212);
#145=LINE('',#1153,#213);
#146=LINE('',#1156,#214);
#147=LINE('',#1159,#215);
#148=LINE('',#1163,#216);
#149=LINE('',#1169,#217);
#150=LINE('',#1172,#218);
#151=LINE('',#1177,#219);
#152=LINE('',#1181,#220);
#153=LINE('',#1186,#221);
#154=LINE('',#1191,#222);
#155=LINE('',#1192,#223);
#156=LINE('',#1196,#224);
#157=LINE('',#1202,#225);
#158=LINE('',#1205,#226);
#159=LINE('',#1210,#227);
#160=LINE('',#1214,#228);
#161=LINE('',#1219,#229);
#162=LINE('',#1224,#230);
#163=LINE('',#1225,#231);
#164=LINE('',#1229,#232);
#165=LINE('',#1231,#233);
#166=LINE('',#1232,#234);
#167=LINE('',#1235,#235);
#168=LINE('',#1236,#236);
#169=LINE('',#1239,#237);
#170=LINE('',#1240,#238);
#171=LINE('',#1243,#239);
#172=LINE('',#1244,#240);
#173=LINE('',#1251,#241);
#174=LINE('',#1254,#242);
#175=LINE('',#1257,#243);
#176=LINE('',#1259,#244);
#177=LINE('',#1260,#245);
#178=LINE('',#1265,#246);
#179=LINE('',#1269,#247);
#180=LINE('',#1271,#248);
#181=LINE('',#1272,#249);
#182=LINE('',#1277,#250);
#183=LINE('',#1281,#251);
#184=LINE('',#1283,#252);
#185=LINE('',#1284,#253);
#186=LINE('',#1289,#254);
#187=LINE('',#1292,#255);
#188=LINE('',#1293,#256);
#189=LINE('',#1297,#257);
#190=LINE('',#1299,#258);
#191=LINE('',#1301,#259);
#192=LINE('',#1302,#260);
#193=LINE('',#1305,#261);
#194=LINE('',#1307,#262);
#195=LINE('',#1308,#263);
#196=LINE('',#1311,#264);
#197=LINE('',#1313,#265);
#198=LINE('',#1314,#266);
#199=LINE('',#1316,#267);
#200=LINE('',#1317,#268);
#201=VECTOR('',#869,10.);
#202=VECTOR('',#872,10.);
#203=VECTOR('',#877,10.);
#204=VECTOR('',#882,10.);
#205=VECTOR('',#887,10.);
#206=VECTOR('',#892,10.);
#207=VECTOR('',#893,10.);
#208=VECTOR('',#898,10.);
#209=VECTOR('',#903,10.);
#210=VECTOR('',#906,10.);
#211=VECTOR('',#911,10.);
#212=VECTOR('',#916,10.);
#213=VECTOR('',#921,10.);
#214=VECTOR('',#924,10.);
#215=VECTOR('',#927,10.);
#216=VECTOR('',#932,10.);
#217=VECTOR('',#937,2.5);
#218=VECTOR('',#940,2.5);
#219=VECTOR('',#945,10.);
#220=VECTOR('',#950,10.);
#221=VECTOR('',#955,10.);
#222=VECTOR('',#960,2.5);
#223=VECTOR('',#961,2.5);
#224=VECTOR('',#966,10.);
#225=VECTOR('',#971,2.5);
#226=VECTOR('',#974,2.5);
#227=VECTOR('',#979,10.);
#228=VECTOR('',#984,10.);
#229=VECTOR('',#989,10.);
#230=VECTOR('',#994,2.5);
#231=VECTOR('',#995,2.5);
#232=VECTOR('',#1000,10.);
#233=VECTOR('',#1003,10.);
#234=VECTOR('',#1004,10.);
#235=VECTOR('',#1009,10.);
#236=VECTOR('',#1010,10.);
#237=VECTOR('',#1015,10.);
#238=VECTOR('',#1016,10.);
#239=VECTOR('',#1021,10.);
#240=VECTOR('',#1022,10.);
#241=VECTOR('',#1029,10.);
#242=VECTOR('',#1032,10.);
#243=VECTOR('',#1035,10.);
#244=VECTOR('',#1036,10.);
#245=VECTOR('',#1037,10.);
#246=VECTOR('',#1042,10.);
#247=VECTOR('',#1047,10.);
#248=VECTOR('',#1048,10.);
#249=VECTOR('',#1049,10.);
#250=VECTOR('',#1054,10.);
#251=VECTOR('',#1059,10.);
#252=VECTOR('',#1060,10.);
#253=VECTOR('',#1061,10.);
#254=VECTOR('',#1066,10.);
#255=VECTOR('',#1071,10.);
#256=VECTOR('',#1072,10.);
#257=VECTOR('',#1075,10.);
#258=VECTOR('',#1076,10.);
#259=VECTOR('',#1077,10.);
#260=VECTOR('',#1078,10.);
#261=VECTOR('',#1081,10.);
#262=VECTOR('',#1082,10.);
#263=VECTOR('',#1083,10.);
#264=VECTOR('',#1086,10.);
#265=VECTOR('',#1087,10.);
#266=VECTOR('',#1088,10.);
#267=VECTOR('',#1091,10.);
#268=VECTOR('',#1092,10.);
#269=CIRCLE('',#782,1.5);
#270=CIRCLE('',#783,1.5);
#271=CIRCLE('',#785,1.);
#272=CIRCLE('',#786,1.);
#273=CIRCLE('',#788,1.5);
#274=CIRCLE('',#789,1.);
#275=CIRCLE('',#791,1.5);
#276=CIRCLE('',#793,1.);
#277=CIRCLE('',#795,1.5);
#278=CIRCLE('',#796,1.5);
#279=CIRCLE('',#798,1.);
#280=CIRCLE('',#799,1.);
#281=CIRCLE('',#801,1.5);
#282=CIRCLE('',#802,1.);
#283=CIRCLE('',#804,1.5);
#284=CIRCLE('',#806,1.);
#285=CIRCLE('',#808,2.5);
#286=CIRCLE('',#809,2.5);
#287=CIRCLE('',#811,1.);
#288=CIRCLE('',#812,1.);
#289=CIRCLE('',#814,2.5);
#290=CIRCLE('',#815,1.);
#291=CIRCLE('',#817,2.5);
#292=CIRCLE('',#819,1.);
#293=CIRCLE('',#821,2.5);
#294=CIRCLE('',#822,2.5);
#295=CIRCLE('',#824,1.);
#296=CIRCLE('',#825,1.);
#297=CIRCLE('',#827,2.5);
#298=CIRCLE('',#828,1.);
#299=CIRCLE('',#830,2.5);
#300=CIRCLE('',#832,1.);
#301=CIRCLE('',#842,2.5);
#302=CIRCLE('',#843,2.5);
#303=CIRCLE('',#846,2.5);
#304=CIRCLE('',#847,2.5);
#305=CIRCLE('',#850,2.5);
#306=CIRCLE('',#851,2.5);
#307=CIRCLE('',#854,2.5);
#308=CIRCLE('',#855,2.5);
#309=VERTEX_POINT('',#1099);
#310=VERTEX_POINT('',#1100);
#311=VERTEX_POINT('',#1102);
#312=VERTEX_POINT('',#1104);
#313=VERTEX_POINT('',#1108);
#314=VERTEX_POINT('',#1110);
#315=VERTEX_POINT('',#1114);
#316=VERTEX_POINT('',#1116);
#317=VERTEX_POINT('',#1118);
#318=VERTEX_POINT('',#1122);
#319=VERTEX_POINT('',#1123);
#320=VERTEX_POINT('',#1128);
#321=VERTEX_POINT('',#1132);
#322=VERTEX_POINT('',#1133);
#323=VERTEX_POINT('',#1135);
#324=VERTEX_POINT('',#1137);
#325=VERTEX_POINT('',#1141);
#326=VERTEX_POINT('',#1143);
#327=VERTEX_POINT('',#1147);
#328=VERTEX_POINT('',#1149);
#329=VERTEX_POINT('',#1151);
#330=VERTEX_POINT('',#1155);
#331=VERTEX_POINT('',#1157);
#332=VERTEX_POINT('',#1161);
#333=VERTEX_POINT('',#1165);
#334=VERTEX_POINT('',#1166);
#335=VERTEX_POINT('',#1168);
#336=VERTEX_POINT('',#1170);
#337=VERTEX_POINT('',#1174);
#338=VERTEX_POINT('',#1176);
#339=VERTEX_POINT('',#1180);
#340=VERTEX_POINT('',#1182);
#341=VERTEX_POINT('',#1184);
#342=VERTEX_POINT('',#1188);
#343=VERTEX_POINT('',#1189);
#344=VERTEX_POINT('',#1194);
#345=VERTEX_POINT('',#1198);
#346=VERTEX_POINT('',#1199);
#347=VERTEX_POINT('',#1201);
#348=VERTEX_POINT('',#1203);
#349=VERTEX_POINT('',#1207);
#350=VERTEX_POINT('',#1209);
#351=VERTEX_POINT('',#1213);
#352=VERTEX_POINT('',#1215);
#353=VERTEX_POINT('',#1217);
#354=VERTEX_POINT('',#1221);
#355=VERTEX_POINT('',#1222);
#356=VERTEX_POINT('',#1227);
#357=VERTEX_POINT('',#1247);
#358=VERTEX_POINT('',#1248);
#359=VERTEX_POINT('',#1250);
#360=VERTEX_POINT('',#1252);
#361=VERTEX_POINT('',#1256);
#362=VERTEX_POINT('',#1258);
#363=VERTEX_POINT('',#1262);
#364=VERTEX_POINT('',#1264);
#365=VERTEX_POINT('',#1268);
#366=VERTEX_POINT('',#1270);
#367=VERTEX_POINT('',#1274);
#368=VERTEX_POINT('',#1276);
#369=VERTEX_POINT('',#1280);
#370=VERTEX_POINT('',#1282);
#371=VERTEX_POINT('',#1286);
#372=VERTEX_POINT('',#1288);
#373=VERTEX_POINT('',#1295);
#374=VERTEX_POINT('',#1296);
#375=VERTEX_POINT('',#1298);
#376=VERTEX_POINT('',#1300);
#377=VERTEX_POINT('',#1304);
#378=VERTEX_POINT('',#1306);
#379=VERTEX_POINT('',#1310);
#380=VERTEX_POINT('',#1312);
#381=EDGE_CURVE('',#309,#310,#269,.T.);
#382=EDGE_CURVE('',#310,#311,#133,.T.);
#383=EDGE_CURVE('',#311,#312,#270,.T.);
#384=EDGE_CURVE('',#312,#309,#134,.T.);
#385=EDGE_CURVE('',#310,#313,#271,.T.);
#386=EDGE_CURVE('',#313,#314,#135,.T.);
#387=EDGE_CURVE('',#314,#311,#272,.T.);
#388=EDGE_CURVE('',#309,#315,#136,.T.);
#389=EDGE_CURVE('',#316,#315,#273,.T.);
#390=EDGE_CURVE('',#317,#316,#274,.T.);
#391=EDGE_CURVE('',#313,#317,#137,.T.);
#392=EDGE_CURVE('',#318,#319,#275,.T.);
#393=EDGE_CURVE('',#319,#316,#138,.T.);
#394=EDGE_CURVE('',#315,#318,#139,.T.);
#395=EDGE_CURVE('',#319,#320,#276,.T.);
#396=EDGE_CURVE('',#320,#317,#140,.T.);
#397=EDGE_CURVE('',#321,#322,#277,.T.);
#398=EDGE_CURVE('',#322,#323,#141,.T.);
#399=EDGE_CURVE('',#323,#324,#278,.T.);
#400=EDGE_CURVE('',#324,#321,#142,.T.);
#401=EDGE_CURVE('',#324,#325,#279,.T.);
#402=EDGE_CURVE('',#325,#326,#143,.T.);
#403=EDGE_CURVE('',#326,#321,#280,.T.);
#404=EDGE_CURVE('',#327,#323,#144,.T.);
#405=EDGE_CURVE('',#328,#327,#281,.T.);
#406=EDGE_CURVE('',#329,#328,#282,.T.);
#407=EDGE_CURVE('',#325,#329,#145,.T.);
#408=EDGE_CURVE('',#327,#330,#146,.T.);
#409=EDGE_CURVE('',#330,#331,#283,.T.);
#410=EDGE_CURVE('',#331,#328,#147,.T.);
#411=EDGE_CURVE('',#331,#332,#284,.T.);
#412=EDGE_CURVE('',#332,#329,#148,.T.);
#413=EDGE_CURVE('',#333,#334,#285,.T.);
#414=EDGE_CURVE('',#334,#335,#149,.T.);
#415=EDGE_CURVE('',#335,#336,#286,.T.);
#416=EDGE_CURVE('',#336,#333,#150,.T.);
#417=EDGE_CURVE('',#334,#337,#287,.T.);
#418=EDGE_CURVE('',#337,#338,#151,.T.);
#419=EDGE_CURVE('',#338,#335,#288,.T.);
#420=EDGE_CURVE('',#333,#339,#152,.T.);
#421=EDGE_CURVE('',#340,#339,#289,.T.);
#422=EDGE_CURVE('',#341,#340,#290,.T.);
#423=EDGE_CURVE('',#337,#341,#153,.T.);
#424=EDGE_CURVE('',#342,#343,#291,.T.);
#425=EDGE_CURVE('',#343,#340,#154,.T.);
#426=EDGE_CURVE('',#339,#342,#155,.T.);
#427=EDGE_CURVE('',#343,#344,#292,.T.);
#428=EDGE_CURVE('',#344,#341,#156,.T.);
#429=EDGE_CURVE('',#345,#346,#293,.T.);
#430=EDGE_CURVE('',#346,#347,#157,.T.);
#431=EDGE_CURVE('',#347,#348,#294,.T.);
#432=EDGE_CURVE('',#348,#345,#158,.T.);
#433=EDGE_CURVE('',#346,#349,#295,.T.);
#434=EDGE_CURVE('',#349,#350,#159,.T.);
#435=EDGE_CURVE('',#350,#347,#296,.T.);
#436=EDGE_CURVE('',#351,#345,#160,.T.);
#437=EDGE_CURVE('',#352,#351,#297,.T.);
#438=EDGE_CURVE('',#353,#352,#298,.T.);
#439=EDGE_CURVE('',#349,#353,#161,.T.);
#440=EDGE_CURVE('',#354,#355,#299,.T.);
#441=EDGE_CURVE('',#355,#352,#162,.T.);
#442=EDGE_CURVE('',#351,#354,#163,.T.);
#443=EDGE_CURVE('',#355,#356,#300,.T.);
#444=EDGE_CURVE('',#356,#353,#164,.T.);
#445=EDGE_CURVE('',#344,#338,#165,.T.);
#446=EDGE_CURVE('',#342,#336,#166,.T.);
#447=EDGE_CURVE('',#356,#350,#167,.T.);
#448=EDGE_CURVE('',#348,#354,#168,.T.);
#449=EDGE_CURVE('',#320,#314,#169,.T.);
#450=EDGE_CURVE('',#318,#312,#170,.T.);
#451=EDGE_CURVE('',#332,#326,#171,.T.);
#452=EDGE_CURVE('',#322,#330,#172,.T.);
#453=EDGE_CURVE('',#357,#358,#301,.T.);
#454=EDGE_CURVE('',#358,#359,#173,.T.);
#455=EDGE_CURVE('',#359,#360,#302,.T.);
#456=EDGE_CURVE('',#360,#357,#174,.T.);
#457=EDGE_CURVE('',#358,#361,#175,.T.);
#458=EDGE_CURVE('',#362,#361,#176,.T.);
#459=EDGE_CURVE('',#359,#362,#177,.T.);
#460=EDGE_CURVE('',#361,#363,#303,.T.);
#461=EDGE_CURVE('',#363,#364,#178,.T.);
#462=EDGE_CURVE('',#364,#362,#304,.T.);
#463=EDGE_CURVE('',#363,#365,#179,.T.);
#464=EDGE_CURVE('',#366,#365,#180,.T.);
#465=EDGE_CURVE('',#364,#366,#181,.T.);
#466=EDGE_CURVE('',#365,#367,#305,.T.);
#467=EDGE_CURVE('',#367,#368,#182,.T.);
#468=EDGE_CURVE('',#368,#366,#306,.T.);
#469=EDGE_CURVE('',#367,#369,#183,.T.);
#470=EDGE_CURVE('',#370,#369,#184,.T.);
#471=EDGE_CURVE('',#368,#370,#185,.T.);
#472=EDGE_CURVE('',#369,#371,#307,.T.);
#473=EDGE_CURVE('',#371,#372,#186,.T.);
#474=EDGE_CURVE('',#372,#370,#308,.T.);
#475=EDGE_CURVE('',#372,#360,#187,.T.);
#476=EDGE_CURVE('',#371,#357,#188,.T.);
#477=EDGE_CURVE('',#373,#374,#189,.T.);
#478=EDGE_CURVE('',#373,#375,#190,.T.);
#479=EDGE_CURVE('',#376,#375,#191,.T.);
#480=EDGE_CURVE('',#374,#376,#192,.T.);
#481=EDGE_CURVE('',#374,#377,#193,.T.);
#482=EDGE_CURVE('',#378,#376,#194,.T.);
#483=EDGE_CURVE('',#377,#378,#195,.T.);
#484=EDGE_CURVE('',#377,#379,#196,.T.);
#485=EDGE_CURVE('',#380,#378,#197,.T.);
#486=EDGE_CURVE('',#379,#380,#198,.T.);
#487=EDGE_CURVE('',#379,#373,#199,.T.);
#488=EDGE_CURVE('',#375,#380,#200,.T.);
#489=ORIENTED_EDGE('',*,*,#381,.T.);
#490=ORIENTED_EDGE('',*,*,#382,.T.);
#491=ORIENTED_EDGE('',*,*,#383,.T.);
#492=ORIENTED_EDGE('',*,*,#384,.T.);
#493=ORIENTED_EDGE('',*,*,#382,.F.);
#494=ORIENTED_EDGE('',*,*,#385,.T.);
#495=ORIENTED_EDGE('',*,*,#386,.T.);
#496=ORIENTED_EDGE('',*,*,#387,.T.);
#497=ORIENTED_EDGE('',*,*,#381,.F.);
#498=ORIENTED_EDGE('',*,*,#388,.T.);
#499=ORIENTED_EDGE('',*,*,#389,.F.);
#500=ORIENTED_EDGE('',*,*,#390,.F.);
#501=ORIENTED_EDGE('',*,*,#391,.F.);
#502=ORIENTED_EDGE('',*,*,#385,.F.);
#503=ORIENTED_EDGE('',*,*,#392,.T.);
#504=ORIENTED_EDGE('',*,*,#393,.T.);
#505=ORIENTED_EDGE('',*,*,#389,.T.);
#506=ORIENTED_EDGE('',*,*,#394,.T.);
#507=ORIENTED_EDGE('',*,*,#393,.F.);
#508=ORIENTED_EDGE('',*,*,#395,.T.);
#509=ORIENTED_EDGE('',*,*,#396,.T.);
#510=ORIENTED_EDGE('',*,*,#390,.T.);
#511=ORIENTED_EDGE('',*,*,#397,.T.);
#512=ORIENTED_EDGE('',*,*,#398,.T.);
#513=ORIENTED_EDGE('',*,*,#399,.T.);
#514=ORIENTED_EDGE('',*,*,#400,.T.);
#515=ORIENTED_EDGE('',*,*,#400,.F.);
#516=ORIENTED_EDGE('',*,*,#401,.T.);
#517=ORIENTED_EDGE('',*,*,#402,.T.);
#518=ORIENTED_EDGE('',*,*,#403,.T.);
#519=ORIENTED_EDGE('',*,*,#399,.F.);
#520=ORIENTED_EDGE('',*,*,#404,.F.);
#521=ORIENTED_EDGE('',*,*,#405,.F.);
#522=ORIENTED_EDGE('',*,*,#406,.F.);
#523=ORIENTED_EDGE('',*,*,#407,.F.);
#524=ORIENTED_EDGE('',*,*,#401,.F.);
#525=ORIENTED_EDGE('',*,*,#405,.T.);
#526=ORIENTED_EDGE('',*,*,#408,.T.);
#527=ORIENTED_EDGE('',*,*,#409,.T.);
#528=ORIENTED_EDGE('',*,*,#410,.T.);
#529=ORIENTED_EDGE('',*,*,#410,.F.);
#530=ORIENTED_EDGE('',*,*,#411,.T.);
#531=ORIENTED_EDGE('',*,*,#412,.T.);
#532=ORIENTED_EDGE('',*,*,#406,.T.);
#533=ORIENTED_EDGE('',*,*,#413,.T.);
#534=ORIENTED_EDGE('',*,*,#414,.T.);
#535=ORIENTED_EDGE('',*,*,#415,.T.);
#536=ORIENTED_EDGE('',*,*,#416,.T.);
#537=ORIENTED_EDGE('',*,*,#414,.F.);
#538=ORIENTED_EDGE('',*,*,#417,.T.);
#539=ORIENTED_EDGE('',*,*,#418,.T.);
#540=ORIENTED_EDGE('',*,*,#419,.T.);
#541=ORIENTED_EDGE('',*,*,#413,.F.);
#542=ORIENTED_EDGE('',*,*,#420,.T.);
#543=ORIENTED_EDGE('',*,*,#421,.F.);
#544=ORIENTED_EDGE('',*,*,#422,.F.);
#545=ORIENTED_EDGE('',*,*,#423,.F.);
#546=ORIENTED_EDGE('',*,*,#417,.F.);
#547=ORIENTED_EDGE('',*,*,#424,.T.);
#548=ORIENTED_EDGE('',*,*,#425,.T.);
#549=ORIENTED_EDGE('',*,*,#421,.T.);
#550=ORIENTED_EDGE('',*,*,#426,.T.);
#551=ORIENTED_EDGE('',*,*,#425,.F.);
#552=ORIENTED_EDGE('',*,*,#427,.T.);
#553=ORIENTED_EDGE('',*,*,#428,.T.);
#554=ORIENTED_EDGE('',*,*,#422,.T.);
#555=ORIENTED_EDGE('',*,*,#429,.T.);
#556=ORIENTED_EDGE('',*,*,#430,.T.);
#557=ORIENTED_EDGE('',*,*,#431,.T.);
#558=ORIENTED_EDGE('',*,*,#432,.T.);
#559=ORIENTED_EDGE('',*,*,#430,.F.);
#560=ORIENTED_EDGE('',*,*,#433,.T.);
#561=ORIENTED_EDGE('',*,*,#434,.T.);
#562=ORIENTED_EDGE('',*,*,#435,.T.);
#563=ORIENTED_EDGE('',*,*,#429,.F.);
#564=ORIENTED_EDGE('',*,*,#436,.F.);
#565=ORIENTED_EDGE('',*,*,#437,.F.);
#566=ORIENTED_EDGE('',*,*,#438,.F.);
#567=ORIENTED_EDGE('',*,*,#439,.F.);
#568=ORIENTED_EDGE('',*,*,#433,.F.);
#569=ORIENTED_EDGE('',*,*,#440,.T.);
#570=ORIENTED_EDGE('',*,*,#441,.T.);
#571=ORIENTED_EDGE('',*,*,#437,.T.);
#572=ORIENTED_EDGE('',*,*,#442,.T.);
#573=ORIENTED_EDGE('',*,*,#441,.F.);
#574=ORIENTED_EDGE('',*,*,#443,.T.);
#575=ORIENTED_EDGE('',*,*,#444,.T.);
#576=ORIENTED_EDGE('',*,*,#438,.T.);
#577=ORIENTED_EDGE('',*,*,#415,.F.);
#578=ORIENTED_EDGE('',*,*,#419,.F.);
#579=ORIENTED_EDGE('',*,*,#445,.F.);
#580=ORIENTED_EDGE('',*,*,#427,.F.);
#581=ORIENTED_EDGE('',*,*,#424,.F.);
#582=ORIENTED_EDGE('',*,*,#446,.T.);
#583=ORIENTED_EDGE('',*,*,#416,.F.);
#584=ORIENTED_EDGE('',*,*,#446,.F.);
#585=ORIENTED_EDGE('',*,*,#426,.F.);
#586=ORIENTED_EDGE('',*,*,#420,.F.);
#587=ORIENTED_EDGE('',*,*,#431,.F.);
#588=ORIENTED_EDGE('',*,*,#435,.F.);
#589=ORIENTED_EDGE('',*,*,#447,.F.);
#590=ORIENTED_EDGE('',*,*,#443,.F.);
#591=ORIENTED_EDGE('',*,*,#440,.F.);
#592=ORIENTED_EDGE('',*,*,#448,.F.);
#593=ORIENTED_EDGE('',*,*,#432,.F.);
#594=ORIENTED_EDGE('',*,*,#448,.T.);
#595=ORIENTED_EDGE('',*,*,#442,.F.);
#596=ORIENTED_EDGE('',*,*,#436,.T.);
#597=ORIENTED_EDGE('',*,*,#383,.F.);
#598=ORIENTED_EDGE('',*,*,#387,.F.);
#599=ORIENTED_EDGE('',*,*,#449,.F.);
#600=ORIENTED_EDGE('',*,*,#395,.F.);
#601=ORIENTED_EDGE('',*,*,#392,.F.);
#602=ORIENTED_EDGE('',*,*,#450,.T.);
#603=ORIENTED_EDGE('',*,*,#384,.F.);
#604=ORIENTED_EDGE('',*,*,#450,.F.);
#605=ORIENTED_EDGE('',*,*,#394,.F.);
#606=ORIENTED_EDGE('',*,*,#388,.F.);
#607=ORIENTED_EDGE('',*,*,#397,.F.);
#608=ORIENTED_EDGE('',*,*,#403,.F.);
#609=ORIENTED_EDGE('',*,*,#451,.F.);
#610=ORIENTED_EDGE('',*,*,#411,.F.);
#611=ORIENTED_EDGE('',*,*,#409,.F.);
#612=ORIENTED_EDGE('',*,*,#452,.F.);
#613=ORIENTED_EDGE('',*,*,#398,.F.);
#614=ORIENTED_EDGE('',*,*,#452,.T.);
#615=ORIENTED_EDGE('',*,*,#408,.F.);
#616=ORIENTED_EDGE('',*,*,#404,.T.);
#617=ORIENTED_EDGE('',*,*,#453,.T.);
#618=ORIENTED_EDGE('',*,*,#454,.T.);
#619=ORIENTED_EDGE('',*,*,#455,.T.);
#620=ORIENTED_EDGE('',*,*,#456,.T.);
#621=ORIENTED_EDGE('',*,*,#454,.F.);
#622=ORIENTED_EDGE('',*,*,#457,.T.);
#623=ORIENTED_EDGE('',*,*,#458,.F.);
#624=ORIENTED_EDGE('',*,*,#459,.F.);
#625=ORIENTED_EDGE('',*,*,#449,.T.);
#626=ORIENTED_EDGE('',*,*,#386,.F.);
#627=ORIENTED_EDGE('',*,*,#391,.T.);
#628=ORIENTED_EDGE('',*,*,#396,.F.);
#629=ORIENTED_EDGE('',*,*,#460,.T.);
#630=ORIENTED_EDGE('',*,*,#461,.T.);
#631=ORIENTED_EDGE('',*,*,#462,.T.);
#632=ORIENTED_EDGE('',*,*,#458,.T.);
#633=ORIENTED_EDGE('',*,*,#461,.F.);
#634=ORIENTED_EDGE('',*,*,#463,.T.);
#635=ORIENTED_EDGE('',*,*,#464,.F.);
#636=ORIENTED_EDGE('',*,*,#465,.F.);
#637=ORIENTED_EDGE('',*,*,#423,.T.);
#638=ORIENTED_EDGE('',*,*,#428,.F.);
#639=ORIENTED_EDGE('',*,*,#445,.T.);
#640=ORIENTED_EDGE('',*,*,#418,.F.);
#641=ORIENTED_EDGE('',*,*,#466,.T.);
#642=ORIENTED_EDGE('',*,*,#467,.T.);
#643=ORIENTED_EDGE('',*,*,#468,.T.);
#644=ORIENTED_EDGE('',*,*,#464,.T.);
#645=ORIENTED_EDGE('',*,*,#467,.F.);
#646=ORIENTED_EDGE('',*,*,#469,.T.);
#647=ORIENTED_EDGE('',*,*,#470,.F.);
#648=ORIENTED_EDGE('',*,*,#471,.F.);
#649=ORIENTED_EDGE('',*,*,#451,.T.);
#650=ORIENTED_EDGE('',*,*,#402,.F.);
#651=ORIENTED_EDGE('',*,*,#407,.T.);
#652=ORIENTED_EDGE('',*,*,#412,.F.);
#653=ORIENTED_EDGE('',*,*,#472,.T.);
#654=ORIENTED_EDGE('',*,*,#473,.T.);
#655=ORIENTED_EDGE('',*,*,#474,.T.);
#656=ORIENTED_EDGE('',*,*,#470,.T.);
#657=ORIENTED_EDGE('',*,*,#456,.F.);
#658=ORIENTED_EDGE('',*,*,#475,.F.);
#659=ORIENTED_EDGE('',*,*,#473,.F.);
#660=ORIENTED_EDGE('',*,*,#476,.T.);
#661=ORIENTED_EDGE('',*,*,#439,.T.);
#662=ORIENTED_EDGE('',*,*,#444,.F.);
#663=ORIENTED_EDGE('',*,*,#447,.T.);
#664=ORIENTED_EDGE('',*,*,#434,.F.);
#665=ORIENTED_EDGE('',*,*,#477,.F.);
#666=ORIENTED_EDGE('',*,*,#478,.T.);
#667=ORIENTED_EDGE('',*,*,#479,.F.);
#668=ORIENTED_EDGE('',*,*,#480,.F.);
#669=ORIENTED_EDGE('',*,*,#481,.F.);
#670=ORIENTED_EDGE('',*,*,#480,.T.);
#671=ORIENTED_EDGE('',*,*,#482,.F.);
#672=ORIENTED_EDGE('',*,*,#483,.F.);
#673=ORIENTED_EDGE('',*,*,#484,.F.);
#674=ORIENTED_EDGE('',*,*,#483,.T.);
#675=ORIENTED_EDGE('',*,*,#485,.F.);
#676=ORIENTED_EDGE('',*,*,#486,.F.);
#677=ORIENTED_EDGE('',*,*,#487,.F.);
#678=ORIENTED_EDGE('',*,*,#486,.T.);
#679=ORIENTED_EDGE('',*,*,#488,.F.);
#680=ORIENTED_EDGE('',*,*,#478,.F.);
#681=ORIENTED_EDGE('',*,*,#488,.T.);
#682=ORIENTED_EDGE('',*,*,#485,.T.);
#683=ORIENTED_EDGE('',*,*,#482,.T.);
#684=ORIENTED_EDGE('',*,*,#479,.T.);
#685=ORIENTED_EDGE('',*,*,#475,.T.);
#686=ORIENTED_EDGE('',*,*,#455,.F.);
#687=ORIENTED_EDGE('',*,*,#459,.T.);
#688=ORIENTED_EDGE('',*,*,#462,.F.);
#689=ORIENTED_EDGE('',*,*,#465,.T.);
#690=ORIENTED_EDGE('',*,*,#468,.F.);
#691=ORIENTED_EDGE('',*,*,#471,.T.);
#692=ORIENTED_EDGE('',*,*,#474,.F.);
#693=ORIENTED_EDGE('',*,*,#487,.T.);
#694=ORIENTED_EDGE('',*,*,#477,.T.);
#695=ORIENTED_EDGE('',*,*,#481,.T.);
#696=ORIENTED_EDGE('',*,*,#484,.T.);
#697=ORIENTED_EDGE('',*,*,#472,.F.);
#698=ORIENTED_EDGE('',*,*,#469,.F.);
#699=ORIENTED_EDGE('',*,*,#466,.F.);
#700=ORIENTED_EDGE('',*,*,#463,.F.);
#701=ORIENTED_EDGE('',*,*,#460,.F.);
#702=ORIENTED_EDGE('',*,*,#457,.F.);
#703=ORIENTED_EDGE('',*,*,#453,.F.);
#704=ORIENTED_EDGE('',*,*,#476,.F.);
#705=CYLINDRICAL_SURFACE('',#781,1.5);
#706=CYLINDRICAL_SURFACE('',#784,1.);
#707=CYLINDRICAL_SURFACE('',#790,1.5);
#708=CYLINDRICAL_SURFACE('',#792,1.);
#709=CYLINDRICAL_SURFACE('',#794,1.5);
#710=CYLINDRICAL_SURFACE('',#797,1.);
#711=CYLINDRICAL_SURFACE('',#803,1.5);
#712=CYLINDRICAL_SURFACE('',#805,1.);
#713=CYLINDRICAL_SURFACE('',#807,2.5);
#714=CYLINDRICAL_SURFACE('',#810,1.);
#715=CYLINDRICAL_SURFACE('',#816,2.5);
#716=CYLINDRICAL_SURFACE('',#818,1.);
#717=CYLINDRICAL_SURFACE('',#820,2.5);
#718=CYLINDRICAL_SURFACE('',#823,1.);
#719=CYLINDRICAL_SURFACE('',#829,2.5);
#720=CYLINDRICAL_SURFACE('',#831,1.);
#721=CYLINDRICAL_SURFACE('',#841,2.5);
#722=CYLINDRICAL_SURFACE('',#845,2.5);
#723=CYLINDRICAL_SURFACE('',#849,2.5);
#724=CYLINDRICAL_SURFACE('',#853,2.5);
#725=ADVANCED_FACE('',(#43),#705,.T.);
#726=ADVANCED_FACE('',(#44),#706,.F.);
#727=ADVANCED_FACE('',(#45),#21,.F.);
#728=ADVANCED_FACE('',(#46),#707,.T.);
#729=ADVANCED_FACE('',(#47),#708,.F.);
#730=ADVANCED_FACE('',(#48),#709,.T.);
#731=ADVANCED_FACE('',(#49),#710,.F.);
#732=ADVANCED_FACE('',(#50),#22,.T.);
#733=ADVANCED_FACE('',(#51),#711,.T.);
#734=ADVANCED_FACE('',(#52),#712,.F.);
#735=ADVANCED_FACE('',(#53),#713,.T.);
#736=ADVANCED_FACE('',(#54),#714,.F.);
#737=ADVANCED_FACE('',(#55),#23,.F.);
#738=ADVANCED_FACE('',(#56),#715,.T.);
#739=ADVANCED_FACE('',(#57),#716,.F.);
#740=ADVANCED_FACE('',(#58),#717,.T.);
#741=ADVANCED_FACE('',(#59),#718,.F.);
#742=ADVANCED_FACE('',(#60),#24,.T.);
#743=ADVANCED_FACE('',(#61),#719,.T.);
#744=ADVANCED_FACE('',(#62),#720,.F.);
#745=ADVANCED_FACE('',(#63),#25,.F.);
#746=ADVANCED_FACE('',(#64),#26,.F.);
#747=ADVANCED_FACE('',(#65),#27,.T.);
#748=ADVANCED_FACE('',(#66),#28,.T.);
#749=ADVANCED_FACE('',(#67),#29,.F.);
#750=ADVANCED_FACE('',(#68),#30,.F.);
#751=ADVANCED_FACE('',(#69),#31,.T.);
#752=ADVANCED_FACE('',(#70),#32,.T.);
#753=ADVANCED_FACE('',(#71),#721,.F.);
#754=ADVANCED_FACE('',(#72,#15),#33,.T.);
#755=ADVANCED_FACE('',(#73),#722,.F.);
#756=ADVANCED_FACE('',(#74,#16),#34,.T.);
#757=ADVANCED_FACE('',(#75),#723,.F.);
#758=ADVANCED_FACE('',(#76,#17),#35,.T.);
#759=ADVANCED_FACE('',(#77),#724,.F.);
#760=ADVANCED_FACE('',(#78,#18),#36,.T.);
#761=ADVANCED_FACE('',(#79),#37,.T.);
#762=ADVANCED_FACE('',(#80),#38,.T.);
#763=ADVANCED_FACE('',(#81),#39,.T.);
#764=ADVANCED_FACE('',(#82),#40,.T.);
#765=ADVANCED_FACE('',(#83,#19),#41,.T.);
#766=ADVANCED_FACE('',(#84,#20),#42,.F.);
#767=CLOSED_SHELL('',(#725,#726,#727,#728,#729,#730,#731,#732,#733,#734,
#735,#736,#737,#738,#739,#740,#741,#742,#743,#744,#745,#746,#747,#748,#749,
#750,#751,#752,#753,#754,#755,#756,#757,#758,#759,#760,#761,#762,#763,#764,
#765,#766));
#768=DERIVED_UNIT_ELEMENT(#770,1.);
#769=DERIVED_UNIT_ELEMENT(#1325,-3.);
#770=(
MASS_UNIT()
NAMED_UNIT(*)
SI_UNIT(.KILO.,.GRAM.)
);
#771=DERIVED_UNIT((#768,#769));
#772=MEASURE_REPRESENTATION_ITEM('density measure',
POSITIVE_RATIO_MEASURE(7850.),#771);
#773=PROPERTY_DEFINITION_REPRESENTATION(#778,#775);
#774=PROPERTY_DEFINITION_REPRESENTATION(#779,#776);
#775=REPRESENTATION('material name',(#777),#1322);
#776=REPRESENTATION('density',(#772),#1322);
#777=DESCRIPTIVE_REPRESENTATION_ITEM('Steel','Steel');
#778=PROPERTY_DEFINITION('material property','material name',#1332);
#779=PROPERTY_DEFINITION('material property','density of part',#1332);
#780=AXIS2_PLACEMENT_3D('',#1097,#863,#864);
#781=AXIS2_PLACEMENT_3D('',#1098,#865,#866);
#782=AXIS2_PLACEMENT_3D('',#1101,#867,#868);
#783=AXIS2_PLACEMENT_3D('',#1105,#870,#871);
#784=AXIS2_PLACEMENT_3D('',#1107,#873,#874);
#785=AXIS2_PLACEMENT_3D('',#1109,#875,#876);
#786=AXIS2_PLACEMENT_3D('',#1112,#878,#879);
#787=AXIS2_PLACEMENT_3D('',#1113,#880,#881);
#788=AXIS2_PLACEMENT_3D('',#1117,#883,#884);
#789=AXIS2_PLACEMENT_3D('',#1119,#885,#886);
#790=AXIS2_PLACEMENT_3D('',#1121,#888,#889);
#791=AXIS2_PLACEMENT_3D('',#1124,#890,#891);
#792=AXIS2_PLACEMENT_3D('',#1127,#894,#895);
#793=AXIS2_PLACEMENT_3D('',#1129,#896,#897);
#794=AXIS2_PLACEMENT_3D('',#1131,#899,#900);
#795=AXIS2_PLACEMENT_3D('',#1134,#901,#902);
#796=AXIS2_PLACEMENT_3D('',#1138,#904,#905);
#797=AXIS2_PLACEMENT_3D('',#1140,#907,#908);
#798=AXIS2_PLACEMENT_3D('',#1142,#909,#910);
#799=AXIS2_PLACEMENT_3D('',#1145,#912,#913);
#800=AXIS2_PLACEMENT_3D('',#1146,#914,#915);
#801=AXIS2_PLACEMENT_3D('',#1150,#917,#918);
#802=AXIS2_PLACEMENT_3D('',#1152,#919,#920);
#803=AXIS2_PLACEMENT_3D('',#1154,#922,#923);
#804=AXIS2_PLACEMENT_3D('',#1158,#925,#926);
#805=AXIS2_PLACEMENT_3D('',#1160,#928,#929);
#806=AXIS2_PLACEMENT_3D('',#1162,#930,#931);
#807=AXIS2_PLACEMENT_3D('',#1164,#933,#934);
#808=AXIS2_PLACEMENT_3D('',#1167,#935,#936);
#809=AXIS2_PLACEMENT_3D('',#1171,#938,#939);
#810=AXIS2_PLACEMENT_3D('',#1173,#941,#942);
#811=AXIS2_PLACEMENT_3D('',#1175,#943,#944);
#812=AXIS2_PLACEMENT_3D('',#1178,#946,#947);
#813=AXIS2_PLACEMENT_3D('',#1179,#948,#949);
#814=AXIS2_PLACEMENT_3D('',#1183,#951,#952);
#815=AXIS2_PLACEMENT_3D('',#1185,#953,#954);
#816=AXIS2_PLACEMENT_3D('',#1187,#956,#957);
#817=AXIS2_PLACEMENT_3D('',#1190,#958,#959);
#818=AXIS2_PLACEMENT_3D('',#1193,#962,#963);
#819=AXIS2_PLACEMENT_3D('',#1195,#964,#965);
#820=AXIS2_PLACEMENT_3D('',#1197,#967,#968);
#821=AXIS2_PLACEMENT_3D('',#1200,#969,#970);
#822=AXIS2_PLACEMENT_3D('',#1204,#972,#973);
#823=AXIS2_PLACEMENT_3D('',#1206,#975,#976);
#824=AXIS2_PLACEMENT_3D('',#1208,#977,#978);
#825=AXIS2_PLACEMENT_3D('',#1211,#980,#981);
#826=AXIS2_PLACEMENT_3D('',#1212,#982,#983);
#827=AXIS2_PLACEMENT_3D('',#1216,#985,#986);
#828=AXIS2_PLACEMENT_3D('',#1218,#987,#988);
#829=AXIS2_PLACEMENT_3D('',#1220,#990,#991);
#830=AXIS2_PLACEMENT_3D('',#1223,#992,#993);
#831=AXIS2_PLACEMENT_3D('',#1226,#996,#997);
#832=AXIS2_PLACEMENT_3D('',#1228,#998,#999);
#833=AXIS2_PLACEMENT_3D('',#1230,#1001,#1002);
#834=AXIS2_PLACEMENT_3D('',#1233,#1005,#1006);
#835=AXIS2_PLACEMENT_3D('',#1234,#1007,#1008);
#836=AXIS2_PLACEMENT_3D('',#1237,#1011,#1012);
#837=AXIS2_PLACEMENT_3D('',#1238,#1013,#1014);
#838=AXIS2_PLACEMENT_3D('',#1241,#1017,#1018);
#839=AXIS2_PLACEMENT_3D('',#1242,#1019,#1020);
#840=AXIS2_PLACEMENT_3D('',#1245,#1023,#1024);
#841=AXIS2_PLACEMENT_3D('',#1246,#1025,#1026);
#842=AXIS2_PLACEMENT_3D('',#1249,#1027,#1028);
#843=AXIS2_PLACEMENT_3D('',#1253,#1030,#1031);
#844=AXIS2_PLACEMENT_3D('',#1255,#1033,#1034);
#845=AXIS2_PLACEMENT_3D('',#1261,#1038,#1039);
#846=AXIS2_PLACEMENT_3D('',#1263,#1040,#1041);
#847=AXIS2_PLACEMENT_3D('',#1266,#1043,#1044);
#848=AXIS2_PLACEMENT_3D('',#1267,#1045,#1046);
#849=AXIS2_PLACEMENT_3D('',#1273,#1050,#1051);
#850=AXIS2_PLACEMENT_3D('',#1275,#1052,#1053);
#851=AXIS2_PLACEMENT_3D('',#1278,#1055,#1056);
#852=AXIS2_PLACEMENT_3D('',#1279,#1057,#1058);
#853=AXIS2_PLACEMENT_3D('',#1285,#1062,#1063);
#854=AXIS2_PLACEMENT_3D('',#1287,#1064,#1065);
#855=AXIS2_PLACEMENT_3D('',#1290,#1067,#1068);
#856=AXIS2_PLACEMENT_3D('',#1291,#1069,#1070);
#857=AXIS2_PLACEMENT_3D('',#1294,#1073,#1074);
#858=AXIS2_PLACEMENT_3D('',#1303,#1079,#1080);
#859=AXIS2_PLACEMENT_3D('',#1309,#1084,#1085);
#860=AXIS2_PLACEMENT_3D('',#1315,#1089,#1090);
#861=AXIS2_PLACEMENT_3D('',#1318,#1093,#1094);
#862=AXIS2_PLACEMENT_3D('',#1319,#1095,#1096);
#863=DIRECTION('axis',(0.,0.,1.));
#864=DIRECTION('refdir',(1.,0.,0.));
#865=DIRECTION('center_axis',(0.,0.,-1.));
#866=DIRECTION('ref_axis',(-0.894427190999898,-0.447213595499993,0.));
#867=DIRECTION('center_axis',(0.,0.,1.));
#868=DIRECTION('ref_axis',(-0.894427190999898,-0.447213595499993,0.));
#869=DIRECTION('',(0.,0.,1.));
#870=DIRECTION('center_axis',(0.,0.,-1.));
#871=DIRECTION('ref_axis',(-0.894427190999898,-0.447213595499993,0.));
#872=DIRECTION('',(0.,0.,-1.));
#873=DIRECTION('center_axis',(0.,0.,-1.));
#874=DIRECTION('ref_axis',(0.707106781186548,0.707106781186547,0.));
#875=DIRECTION('center_axis',(0.,0.,-1.));
#876=DIRECTION('ref_axis',(0.707106781186548,0.707106781186547,0.));
#877=DIRECTION('',(0.,0.,1.));
#878=DIRECTION('center_axis',(0.,0.,1.));
#879=DIRECTION('ref_axis',(0.707106781186548,0.707106781186547,0.));
#880=DIRECTION('center_axis',(0.,0.,1.));
#881=DIRECTION('ref_axis',(0.,1.,0.));
#882=DIRECTION('',(0.,1.,0.));
#883=DIRECTION('center_axis',(0.,0.,1.));
#884=DIRECTION('ref_axis',(-0.894427190999898,0.447213595499993,0.));
#885=DIRECTION('center_axis',(0.,0.,-1.));
#886=DIRECTION('ref_axis',(0.707106781186548,-0.707106781186548,0.));
#887=DIRECTION('',(0.,1.,0.));
#888=DIRECTION('center_axis',(0.,0.,1.));
#889=DIRECTION('ref_axis',(-0.894427190999898,0.447213595499993,0.));
#890=DIRECTION('center_axis',(0.,0.,-1.));
#891=DIRECTION('ref_axis',(-0.894427190999898,0.447213595499993,0.));
#892=DIRECTION('',(0.,0.,-1.));
#893=DIRECTION('',(0.,0.,1.));
#894=DIRECTION('center_axis',(0.,0.,1.));
#895=DIRECTION('ref_axis',(0.707106781186548,-0.707106781186548,0.));
#896=DIRECTION('center_axis',(0.,0.,1.));
#897=DIRECTION('ref_axis',(0.707106781186548,-0.707106781186548,0.));
#898=DIRECTION('',(0.,0.,-1.));
#899=DIRECTION('center_axis',(0.,0.,1.));
#900=DIRECTION('ref_axis',(0.894427190999916,0.447213595499958,0.));
#901=DIRECTION('center_axis',(0.,0.,-1.));
#902=DIRECTION('ref_axis',(0.894427190999916,0.447213595499958,0.));
#903=DIRECTION('',(0.,0.,-1.));
#904=DIRECTION('center_axis',(0.,0.,1.));
#905=DIRECTION('ref_axis',(0.894427190999916,0.447213595499958,0.));
#906=DIRECTION('',(0.,0.,1.));
#907=DIRECTION('center_axis',(0.,0.,-1.));
#908=DIRECTION('ref_axis',(-0.707106781186548,-0.707106781186548,0.));
#909=DIRECTION('center_axis',(0.,0.,-1.));
#910=DIRECTION('ref_axis',(-0.707106781186548,-0.707106781186548,0.));
#911=DIRECTION('',(0.,0.,1.));
#912=DIRECTION('center_axis',(0.,0.,1.));
#913=DIRECTION('ref_axis',(-0.707106781186548,-0.707106781186548,0.));
#914=DIRECTION('center_axis',(0.,0.,-1.));
#915=DIRECTION('ref_axis',(0.,1.,0.));
#916=DIRECTION('',(0.,1.,0.));
#917=DIRECTION('center_axis',(0.,0.,1.));
#918=DIRECTION('ref_axis',(0.894427190999916,-0.447213595499958,0.));
#919=DIRECTION('center_axis',(0.,0.,-1.));
#920=DIRECTION('ref_axis',(-0.707106781186548,0.707106781186548,0.));
#921=DIRECTION('',(0.,-1.,0.));
#922=DIRECTION('center_axis',(0.,0.,-1.));
#923=DIRECTION('ref_axis',(0.894427190999916,-0.447213595499958,0.));
#924=DIRECTION('',(0.,0.,1.));
#925=DIRECTION('center_axis',(0.,0.,-1.));
#926=DIRECTION('ref_axis',(0.894427190999916,-0.447213595499958,0.));
#927=DIRECTION('',(0.,0.,-1.));
#928=DIRECTION('center_axis',(0.,0.,1.));
#929=DIRECTION('ref_axis',(-0.707106781186548,0.707106781186548,0.));
#930=DIRECTION('center_axis',(0.,0.,1.));
#931=DIRECTION('ref_axis',(-0.707106781186548,0.707106781186548,0.));
#932=DIRECTION('',(0.,0.,-1.));
#933=DIRECTION('center_axis',(0.,0.,1.));
#934=DIRECTION('ref_axis',(0.,-1.,0.));
#935=DIRECTION('center_axis',(0.,0.,1.));
#936=DIRECTION('ref_axis',(0.,-1.,0.));
#937=DIRECTION('',(0.,0.,1.));
#938=DIRECTION('center_axis',(0.,0.,-1.));
#939=DIRECTION('ref_axis',(0.,-1.,0.));
#940=DIRECTION('',(0.,0.,-1.));
#941=DIRECTION('center_axis',(0.,0.,-1.));
#942=DIRECTION('ref_axis',(0.707106781186548,-0.707106781186547,0.));
#943=DIRECTION('center_axis',(0.,0.,-1.));
#944=DIRECTION('ref_axis',(0.707106781186548,-0.707106781186547,0.));
#945=DIRECTION('',(0.,0.,1.));
#946=DIRECTION('center_axis',(0.,0.,1.));
#947=DIRECTION('ref_axis',(0.707106781186548,-0.707106781186547,0.));
#948=DIRECTION('center_axis',(0.,0.,1.));
#949=DIRECTION('ref_axis',(1.,0.,0.));
#950=DIRECTION('',(1.,0.,0.));
#951=DIRECTION('center_axis',(0.,0.,1.));
#952=DIRECTION('ref_axis',(0.,-1.,0.));
#953=DIRECTION('center_axis',(0.,0.,-1.));
#954=DIRECTION('ref_axis',(-0.707106781186548,-0.707106781186547,0.));
#955=DIRECTION('',(1.,-6.53072367426563E-17,0.));
#956=DIRECTION('center_axis',(0.,0.,-1.));
#957=DIRECTION('ref_axis',(0.,-1.,0.));
#958=DIRECTION('center_axis',(0.,0.,-1.));
#959=DIRECTION('ref_axis',(0.,-1.,0.));
#960=DIRECTION('',(0.,0.,-1.));
#961=DIRECTION('',(0.,0.,1.));
#962=DIRECTION('center_axis',(0.,0.,1.));
#963=DIRECTION('ref_axis',(-0.707106781186548,-0.707106781186547,0.));
#964=DIRECTION('center_axis',(0.,0.,1.));
#965=DIRECTION('ref_axis',(-0.707106781186548,-0.707106781186547,0.));
#966=DIRECTION('',(0.,0.,-1.));
#967=DIRECTION('center_axis',(0.,0.,1.));
#968=DIRECTION('ref_axis',(0.,1.,0.));
#969=DIRECTION('center_axis',(0.,0.,1.));
#970=DIRECTION('ref_axis',(0.,1.,0.));
#971=DIRECTION('',(0.,0.,1.));
#972=DIRECTION('center_axis',(0.,0.,-1.));
#973=DIRECTION('ref_axis',(0.,1.,0.));
#974=DIRECTION('',(0.,0.,-1.));
#975=DIRECTION('center_axis',(0.,0.,-1.));
#976=DIRECTION('ref_axis',(-0.707106781186547,0.707106781186548,0.));
#977=DIRECTION('center_axis',(0.,0.,-1.));
#978=DIRECTION('ref_axis',(-0.707106781186547,0.707106781186548,0.));
#979=DIRECTION('',(0.,0.,1.));
#980=DIRECTION('center_axis',(0.,0.,1.));
#981=DIRECTION('ref_axis',(-0.707106781186547,0.707106781186548,0.));
#982=DIRECTION('center_axis',(0.,0.,-1.));
#983=DIRECTION('ref_axis',(1.,0.,0.));
#984=DIRECTION('',(1.,0.,0.));
#985=DIRECTION('center_axis',(0.,0.,1.));
#986=DIRECTION('ref_axis',(0.,1.,0.));
#987=DIRECTION('center_axis',(0.,0.,-1.));
#988=DIRECTION('ref_axis',(0.707106781186547,0.707106781186548,0.));
#989=DIRECTION('',(-1.,-6.53072367426563E-17,0.));
#990=DIRECTION('center_axis',(0.,0.,-1.));
#991=DIRECTION('ref_axis',(0.,1.,0.));
#992=DIRECTION('center_axis',(0.,0.,-1.));
#993=DIRECTION('ref_axis',(0.,1.,0.));
#994=DIRECTION('',(0.,0.,-1.));
#995=DIRECTION('',(0.,0.,1.));
#996=DIRECTION('center_axis',(0.,0.,1.));
#997=DIRECTION('ref_axis',(0.707106781186547,0.707106781186548,0.));
#998=DIRECTION('center_axis',(0.,0.,1.));
#999=DIRECTION('ref_axis',(0.707106781186547,0.707106781186548,0.));
#1000=DIRECTION('',(0.,0.,-1.));
#1001=DIRECTION('center_axis',(0.,0.,-1.));
#1002=DIRECTION('ref_axis',(-1.,0.,0.));
#1003=DIRECTION('',(-1.,6.53072367426563E-17,0.));
#1004=DIRECTION('',(-1.,0.,0.));
#1005=DIRECTION('center_axis',(0.,-1.,0.));
#1006=DIRECTION('ref_axis',(0.,0.,-1.));
#1007=DIRECTION('center_axis',(0.,0.,1.));
#1008=DIRECTION('ref_axis',(-1.,0.,0.));
#1009=DIRECTION('',(1.,6.53072367426563E-17,0.));
#1010=DIRECTION('',(-1.,0.,0.));
#1011=DIRECTION('center_axis',(0.,-1.,0.));
#1012=DIRECTION('ref_axis',(0.,0.,-1.));
#1013=DIRECTION('center_axis',(0.,0.,-1.));
#1014=DIRECTION('ref_axis',(0.,-1.,0.));
#1015=DIRECTION('',(0.,-1.,0.));
#1016=DIRECTION('',(0.,-1.,0.));
#1017=DIRECTION('center_axis',(1.,0.,0.));
#1018=DIRECTION('ref_axis',(0.,0.,-1.));
#1019=DIRECTION('center_axis',(0.,0.,1.));
#1020=DIRECTION('ref_axis',(0.,-1.,0.));
#1021=DIRECTION('',(0.,1.,0.));
#1022=DIRECTION('',(0.,-1.,0.));
#1023=DIRECTION('center_axis',(1.,0.,0.));
#1024=DIRECTION('ref_axis',(0.,0.,-1.));
#1025=DIRECTION('center_axis',(0.,0.,1.));
#1026=DIRECTION('ref_axis',(0.707106781186547,0.707106781186547,0.));
#1027=DIRECTION('center_axis',(0.,0.,-1.));
#1028=DIRECTION('ref_axis',(0.707106781186547,0.707106781186547,0.));
#1029=DIRECTION('',(0.,0.,1.));
#1030=DIRECTION('center_axis',(0.,0.,1.));
#1031=DIRECTION('ref_axis',(0.707106781186547,0.707106781186547,0.));
#1032=DIRECTION('',(0.,0.,-1.));
#1033=DIRECTION('center_axis',(-1.,0.,0.));
#1034=DIRECTION('ref_axis',(0.,-1.,0.));
#1035=DIRECTION('',(0.,-1.,0.));
#1036=DIRECTION('',(0.,0.,-1.));
#1037=DIRECTION('',(0.,-1.,0.));
#1038=DIRECTION('center_axis',(0.,0.,1.));
#1039=DIRECTION('ref_axis',(0.707106781186547,-0.707106781186547,0.));
#1040=DIRECTION('center_axis',(0.,0.,-1.));
#1041=DIRECTION('ref_axis',(0.707106781186547,-0.707106781186547,0.));
#1042=DIRECTION('',(0.,0.,1.));
#1043=DIRECTION('center_axis',(0.,0.,1.));
#1044=DIRECTION('ref_axis',(0.707106781186547,-0.707106781186547,0.));
#1045=DIRECTION('center_axis',(6.53072367426563E-17,1.,0.));
#1046=DIRECTION('ref_axis',(-1.,6.53072367426563E-17,0.));
#1047=DIRECTION('',(-1.,6.53072367426563E-17,0.));
#1048=DIRECTION('',(0.,0.,-1.));
#1049=DIRECTION('',(-1.,6.53072367426563E-17,0.));
#1050=DIRECTION('center_axis',(0.,0.,1.));
#1051=DIRECTION('ref_axis',(-0.707106781186547,-0.707106781186547,0.));
#1052=DIRECTION('center_axis',(0.,0.,-1.));
#1053=DIRECTION('ref_axis',(-0.707106781186547,-0.707106781186547,0.));
#1054=DIRECTION('',(0.,0.,1.));
#1055=DIRECTION('center_axis',(0.,0.,1.));
#1056=DIRECTION('ref_axis',(-0.707106781186547,-0.707106781186547,0.));
#1057=DIRECTION('center_axis',(1.,0.,0.));
#1058=DIRECTION('ref_axis',(0.,1.,0.));
#1059=DIRECTION('',(0.,1.,0.));
#1060=DIRECTION('',(0.,0.,-1.));
#1061=DIRECTION('',(0.,1.,0.));
#1062=DIRECTION('center_axis',(0.,0.,1.));
#1063=DIRECTION('ref_axis',(-0.707106781186547,0.707106781186547,0.));
#1064=DIRECTION('center_axis',(0.,0.,-1.));
#1065=DIRECTION('ref_axis',(-0.707106781186547,0.707106781186547,0.));
#1066=DIRECTION('',(0.,0.,1.));
#1067=DIRECTION('center_axis',(0.,0.,1.));
#1068=DIRECTION('ref_axis',(-0.707106781186547,0.707106781186547,0.));
#1069=DIRECTION('center_axis',(6.53072367426563E-17,-1.,0.));
#1070=DIRECTION('ref_axis',(1.,6.53072367426563E-17,0.));
#1071=DIRECTION('',(1.,6.53072367426563E-17,0.));
#1072=DIRECTION('',(1.,6.53072367426563E-17,0.));
#1073=DIRECTION('center_axis',(1.,0.,0.));
#1074=DIRECTION('ref_axis',(0.,1.,0.));
#1075=DIRECTION('',(0.,-1.,0.));
#1076=DIRECTION('',(0.,0.,1.));
#1077=DIRECTION('',(0.,1.,0.));
#1078=DIRECTION('',(0.,0.,1.));
#1079=DIRECTION('center_axis',(0.,-1.,0.));
#1080=DIRECTION('ref_axis',(1.,0.,0.));
#1081=DIRECTION('',(-1.,0.,0.));
#1082=DIRECTION('',(1.,0.,0.));
#1083=DIRECTION('',(0.,0.,1.));
#1084=DIRECTION('center_axis',(-1.,0.,0.));
#1085=DIRECTION('ref_axis',(0.,-1.,0.));
#1086=DIRECTION('',(0.,1.,0.));
#1087=DIRECTION('',(0.,-1.,0.));
#1088=DIRECTION('',(0.,0.,1.));
#1089=DIRECTION('center_axis',(0.,1.,0.));
#1090=DIRECTION('ref_axis',(-1.,0.,0.));
#1091=DIRECTION('',(1.,0.,0.));
#1092=DIRECTION('',(-1.,0.,0.));
#1093=DIRECTION('center_axis',(0.,0.,1.));
#1094=DIRECTION('ref_axis',(1.,0.,0.));
#1095=DIRECTION('center_axis',(0.,0.,1.));
#1096=DIRECTION('ref_axis',(1.,0.,0.));
#1097=CARTESIAN_POINT('',(0.,0.,0.));
#1098=CARTESIAN_POINT('Origin',(8.99999999999992,-1.99999999999988,1.76634289158851));
#1099=CARTESIAN_POINT('',(7.49999999999992,-1.99999999999988,2.53268578317702));
#1100=CARTESIAN_POINT('',(8.10000000000002,-3.19999999999995,2.53268578317702));
#1101=CARTESIAN_POINT('Origin',(8.99999999999992,-1.99999999999988,2.53268578317702));
#1102=CARTESIAN_POINT('',(8.10000000000002,-3.19999999999995,3.53268578317702));
#1103=CARTESIAN_POINT('',(8.10000000000002,-3.19999999999995,1.76634289158851));
#1104=CARTESIAN_POINT('',(7.49999999999992,-1.99999999999988,3.53268578317702));
#1105=CARTESIAN_POINT('Origin',(8.99999999999992,-1.99999999999988,3.53268578317702));
#1106=CARTESIAN_POINT('',(7.49999999999992,-1.99999999999988,1.76634289158851));
#1107=CARTESIAN_POINT('Origin',(7.50000000000008,-4.,1.76634289158851));
#1108=CARTESIAN_POINT('',(8.50000000000008,-4.,2.53268578317702));
#1109=CARTESIAN_POINT('Origin',(7.50000000000008,-4.,2.53268578317702));
#1110=CARTESIAN_POINT('',(8.50000000000008,-4.,3.53268578317702));
#1111=CARTESIAN_POINT('',(8.50000000000008,-4.,1.76634289158851));
#1112=CARTESIAN_POINT('Origin',(7.50000000000008,-4.,3.53268578317702));
#1113=CARTESIAN_POINT('Origin',(8.49999999999992,-3.,2.53268578317702));
#1114=CARTESIAN_POINT('',(7.49999999999992,1.99999999999988,2.53268578317702));
#1115=CARTESIAN_POINT('',(7.49999999999992,-3.,2.53268578317702));
#1116=CARTESIAN_POINT('',(8.10000000000002,3.19999999999995,2.53268578317702));
#1117=CARTESIAN_POINT('Origin',(8.99999999999992,1.99999999999988,2.53268578317702));
#1118=CARTESIAN_POINT('',(8.50000000000008,4.,2.53268578317702));
#1119=CARTESIAN_POINT('Origin',(7.50000000000008,4.,2.53268578317702));
#1120=CARTESIAN_POINT('',(8.50000000000008,2.75000000000002,2.53268578317702));
#1121=CARTESIAN_POINT('Origin',(8.99999999999992,1.99999999999988,1.26634289158851));
#1122=CARTESIAN_POINT('',(7.49999999999992,1.99999999999988,3.53268578317702));
#1123=CARTESIAN_POINT('',(8.10000000000002,3.19999999999995,3.53268578317702));
#1124=CARTESIAN_POINT('Origin',(8.99999999999992,1.99999999999988,3.53268578317702));
#1125=CARTESIAN_POINT('',(8.10000000000002,3.19999999999995,1.26634289158851));
#1126=CARTESIAN_POINT('',(7.49999999999992,1.99999999999988,1.26634289158851));
#1127=CARTESIAN_POINT('Origin',(7.50000000000008,4.,1.26634289158851));
#1128=CARTESIAN_POINT('',(8.50000000000008,4.,3.53268578317702));
#1129=CARTESIAN_POINT('Origin',(7.50000000000008,4.,3.53268578317702));
#1130=CARTESIAN_POINT('',(8.50000000000008,4.,1.26634289158851));
#1131=CARTESIAN_POINT('Origin',(-8.99999999999992,2.,1.26634289158851));
#1132=CARTESIAN_POINT('',(-8.09999999999992,3.2,3.53268578317702));
#1133=CARTESIAN_POINT('',(-7.49999999999992,2.,3.53268578317702));
#1134=CARTESIAN_POINT('Origin',(-8.99999999999992,2.,3.53268578317702));
#1135=CARTESIAN_POINT('',(-7.49999999999992,2.,2.53268578317702));
#1136=CARTESIAN_POINT('',(-7.49999999999992,2.,1.26634289158851));
#1137=CARTESIAN_POINT('',(-8.09999999999992,3.2,2.53268578317702));
#1138=CARTESIAN_POINT('Origin',(-8.99999999999992,2.,2.53268578317702));
#1139=CARTESIAN_POINT('',(-8.09999999999992,3.2,1.26634289158851));
#1140=CARTESIAN_POINT('Origin',(-7.49999999999992,4.,1.26634289158851));
#1141=CARTESIAN_POINT('',(-8.49999999999992,4.,2.53268578317702));
#1142=CARTESIAN_POINT('Origin',(-7.49999999999992,4.,2.53268578317702));
#1143=CARTESIAN_POINT('',(-8.49999999999992,4.,3.53268578317702));
#1144=CARTESIAN_POINT('',(-8.49999999999992,4.,1.26634289158851));
#1145=CARTESIAN_POINT('Origin',(-7.49999999999992,4.,3.53268578317702));
#1146=CARTESIAN_POINT('Origin',(-8.49999999999992,-3.,2.53268578317702));
#1147=CARTESIAN_POINT('',(-7.49999999999992,-2.,2.53268578317702));
#1148=CARTESIAN_POINT('',(-7.49999999999992,-3.,2.53268578317702));
#1149=CARTESIAN_POINT('',(-8.09999999999992,-3.2,2.53268578317702));
#1150=CARTESIAN_POINT('Origin',(-8.99999999999992,-2.,2.53268578317702));
#1151=CARTESIAN_POINT('',(-8.49999999999992,-4.,2.53268578317702));
#1152=CARTESIAN_POINT('Origin',(-7.49999999999992,-4.,2.53268578317702));
#1153=CARTESIAN_POINT('',(-8.49999999999992,-5.74999999999998,2.53268578317702));
#1154=CARTESIAN_POINT('Origin',(-8.99999999999992,-2.,1.76634289158851));
#1155=CARTESIAN_POINT('',(-7.49999999999992,-2.,3.53268578317702));
#1156=CARTESIAN_POINT('',(-7.49999999999992,-2.,1.76634289158851));
#1157=CARTESIAN_POINT('',(-8.09999999999992,-3.2,3.53268578317702));
#1158=CARTESIAN_POINT('Origin',(-8.99999999999992,-2.,3.53268578317702));
#1159=CARTESIAN_POINT('',(-8.09999999999992,-3.2,1.76634289158851));
#1160=CARTESIAN_POINT('Origin',(-7.49999999999992,-4.,1.76634289158851));
#1161=CARTESIAN_POINT('',(-8.49999999999992,-4.,3.53268578317702));
#1162=CARTESIAN_POINT('Origin',(-7.49999999999992,-4.,3.53268578317702));
#1163=CARTESIAN_POINT('',(-8.49999999999992,-4.,1.76634289158851));
#1164=CARTESIAN_POINT('Origin',(-0.837722339831662,-9.00000000000005,1.75000001862645));
#1165=CARTESIAN_POINT('',(-0.837722339831662,-6.50000000000005,2.5000000372529));
#1166=CARTESIAN_POINT('',(-3.09649209709476,-7.92857142857141,2.5000000372529));
#1167=CARTESIAN_POINT('Origin',(-0.837722339831662,-9.00000000000005,2.5000000372529));
#1168=CARTESIAN_POINT('',(-3.09649209709476,-7.92857142857141,3.5000000372529));
#1169=CARTESIAN_POINT('',(-3.09649209709476,-7.92857142857141,1.75000001862645));
#1170=CARTESIAN_POINT('',(-0.837722339831662,-6.50000000000005,3.5000000372529));
#1171=CARTESIAN_POINT('Origin',(-0.837722339831662,-9.00000000000005,3.5000000372529));
#1172=CARTESIAN_POINT('',(-0.837722339831662,-6.50000000000005,1.75000001862645));
#1173=CARTESIAN_POINT('Origin',(-4.,-7.49999999999996,1.75000001862645));
#1174=CARTESIAN_POINT('',(-4.,-8.49999999999996,2.5000000372529));
#1175=CARTESIAN_POINT('Origin',(-4.,-7.49999999999996,2.5000000372529));
#1176=CARTESIAN_POINT('',(-4.,-8.49999999999996,3.5000000372529));
#1177=CARTESIAN_POINT('',(-4.,-8.49999999999996,1.75000001862645));
#1178=CARTESIAN_POINT('Origin',(-4.,-7.49999999999996,3.5000000372529));
#1179=CARTESIAN_POINT('Origin',(-3.,-8.50000000000005,2.5000000372529));
#1180=CARTESIAN_POINT('',(0.837722339831662,-6.50000000000005,2.5000000372529));
#1181=CARTESIAN_POINT('',(-3.,-6.50000000000005,2.5000000372529));
#1182=CARTESIAN_POINT('',(3.09649209709476,-7.92857142857141,2.5000000372529));
#1183=CARTESIAN_POINT('Origin',(0.837722339831662,-9.00000000000005,2.5000000372529));
#1184=CARTESIAN_POINT('',(4.,-8.49999999999996,2.5000000372529));
#1185=CARTESIAN_POINT('Origin',(4.,-7.49999999999996,2.5000000372529));
#1186=CARTESIAN_POINT('',(2.75000000000004,-8.49999999999996,2.5000000372529));
#1187=CARTESIAN_POINT('Origin',(0.837722339831662,-9.00000000000005,1.25000001862645));
#1188=CARTESIAN_POINT('',(0.837722339831662,-6.50000000000005,3.5000000372529));
#1189=CARTESIAN_POINT('',(3.09649209709476,-7.92857142857141,3.5000000372529));
#1190=CARTESIAN_POINT('Origin',(0.837722339831662,-9.00000000000005,3.5000000372529));
#1191=CARTESIAN_POINT('',(3.09649209709476,-7.92857142857141,1.25000001862645));
#1192=CARTESIAN_POINT('',(0.837722339831663,-6.50000000000005,1.25000001862645));
#1193=CARTESIAN_POINT('Origin',(4.,-7.49999999999996,1.25000001862645));
#1194=CARTESIAN_POINT('',(4.,-8.49999999999996,3.5000000372529));
#1195=CARTESIAN_POINT('Origin',(4.,-7.49999999999996,3.5000000372529));
#1196=CARTESIAN_POINT('',(4.,-8.49999999999996,1.25000001862645));
#1197=CARTESIAN_POINT('Origin',(0.837722339831621,9.00000000000005,1.25000001862645));
#1198=CARTESIAN_POINT('',(0.837722339831621,6.50000000000005,2.5000000372529));
#1199=CARTESIAN_POINT('',(3.09649209709475,7.92857142857147,2.5000000372529));
#1200=CARTESIAN_POINT('Origin',(0.837722339831621,9.00000000000005,2.5000000372529));
#1201=CARTESIAN_POINT('',(3.09649209709475,7.92857142857147,3.5000000372529));
#1202=CARTESIAN_POINT('',(3.09649209709475,7.92857142857147,1.25000001862645));
#1203=CARTESIAN_POINT('',(0.837722339831621,6.50000000000005,3.5000000372529));
#1204=CARTESIAN_POINT('Origin',(0.837722339831621,9.00000000000005,3.5000000372529));
#1205=CARTESIAN_POINT('',(0.837722339831621,6.50000000000005,1.25000001862645));
#1206=CARTESIAN_POINT('Origin',(4.,7.50000000000004,1.25000001862645));
#1207=CARTESIAN_POINT('',(4.,8.50000000000005,2.5000000372529));
#1208=CARTESIAN_POINT('Origin',(4.,7.50000000000004,2.5000000372529));
#1209=CARTESIAN_POINT('',(4.,8.50000000000005,3.5000000372529));
#1210=CARTESIAN_POINT('',(4.,8.50000000000005,1.25000001862645));
#1211=CARTESIAN_POINT('Origin',(4.,7.50000000000004,3.5000000372529));
#1212=CARTESIAN_POINT('Origin',(-3.,8.50000000000005,2.5000000372529));
#1213=CARTESIAN_POINT('',(-0.837722339831622,6.50000000000005,2.5000000372529));
#1214=CARTESIAN_POINT('',(-3.,6.50000000000005,2.5000000372529));
#1215=CARTESIAN_POINT('',(-3.09649209709475,7.92857142857147,2.5000000372529));
#1216=CARTESIAN_POINT('Origin',(-0.837722339831621,9.00000000000005,2.5000000372529));
#1217=CARTESIAN_POINT('',(-4.,8.50000000000004,2.5000000372529));
#1218=CARTESIAN_POINT('Origin',(-4.,7.50000000000004,2.5000000372529));
#1219=CARTESIAN_POINT('',(-5.74999999999996,8.50000000000004,2.5000000372529));
#1220=CARTESIAN_POINT('Origin',(-0.837722339831621,9.00000000000005,1.75000001862645));
#1221=CARTESIAN_POINT('',(-0.837722339831622,6.50000000000005,3.5000000372529));
#1222=CARTESIAN_POINT('',(-3.09649209709475,7.92857142857147,3.5000000372529));
#1223=CARTESIAN_POINT('Origin',(-0.837722339831621,9.00000000000005,3.5000000372529));
#1224=CARTESIAN_POINT('',(-3.09649209709475,7.92857142857147,1.75000001862645));
#1225=CARTESIAN_POINT('',(-0.837722339831622,6.50000000000005,1.75000001862645));
#1226=CARTESIAN_POINT('Origin',(-4.,7.50000000000004,1.75000001862645));
#1227=CARTESIAN_POINT('',(-4.,8.50000000000004,3.5000000372529));
#1228=CARTESIAN_POINT('Origin',(-4.,7.50000000000004,3.5000000372529));
#1229=CARTESIAN_POINT('',(-4.,8.50000000000004,1.75000001862645));
#1230=CARTESIAN_POINT('Origin',(3.,-8.50000000000005,3.5000000372529));
#1231=CARTESIAN_POINT('',(5.75000000000004,-8.49999999999996,3.5000000372529));
#1232=CARTESIAN_POINT('',(-3.,-6.50000000000005,3.5000000372529));
#1233=CARTESIAN_POINT('Origin',(0.,-6.50000000000005,3.0000000372529));
#1234=CARTESIAN_POINT('Origin',(3.,8.50000000000005,3.5000000372529));
#1235=CARTESIAN_POINT('',(-2.74999999999996,8.50000000000004,3.5000000372529));
#1236=CARTESIAN_POINT('',(-3.,6.50000000000005,3.5000000372529));
#1237=CARTESIAN_POINT('Origin',(0.,6.50000000000005,3.0000000372529));
#1238=CARTESIAN_POINT('Origin',(8.49999999999992,3.,3.53268578317702));
#1239=CARTESIAN_POINT('',(8.50000000000008,5.75000000000002,3.53268578317702));
#1240=CARTESIAN_POINT('',(7.49999999999992,-3.,3.53268578317702));
#1241=CARTESIAN_POINT('Origin',(7.49999999999992,0.,3.03268578317702));
#1242=CARTESIAN_POINT('Origin',(-8.49999999999992,3.,3.53268578317702));
#1243=CARTESIAN_POINT('',(-8.49999999999992,-2.74999999999998,3.53268578317702));
#1244=CARTESIAN_POINT('',(-7.49999999999992,-3.,3.53268578317702));
#1245=CARTESIAN_POINT('Origin',(-7.49999999999992,0.,3.03268578317702));
#1246=CARTESIAN_POINT('Origin',(6.00000000000008,6.00000000000005,0.));
#1247=CARTESIAN_POINT('',(6.00000000000008,8.50000000000005,0.));
#1248=CARTESIAN_POINT('',(8.50000000000008,6.00000000000005,0.));
#1249=CARTESIAN_POINT('Origin',(6.00000000000008,6.00000000000005,0.));
#1250=CARTESIAN_POINT('',(8.50000000000008,6.00000000000005,5.));
#1251=CARTESIAN_POINT('',(8.50000000000008,6.00000000000005,0.));
#1252=CARTESIAN_POINT('',(6.00000000000008,8.50000000000005,5.));
#1253=CARTESIAN_POINT('Origin',(6.00000000000008,6.00000000000005,5.));
#1254=CARTESIAN_POINT('',(6.00000000000008,8.50000000000005,0.));
#1255=CARTESIAN_POINT('Origin',(8.50000000000008,8.50000000000005,0.));
#1256=CARTESIAN_POINT('',(8.50000000000008,-5.99999999999996,0.));
#1257=CARTESIAN_POINT('',(8.50000000000008,8.50000000000005,0.));
#1258=CARTESIAN_POINT('',(8.50000000000008,-5.99999999999996,5.));
#1259=CARTESIAN_POINT('',(8.50000000000008,-5.99999999999996,0.));
#1260=CARTESIAN_POINT('',(8.50000000000008,8.50000000000005,5.));
#1261=CARTESIAN_POINT('Origin',(6.00000000000008,-5.99999999999996,0.));
#1262=CARTESIAN_POINT('',(6.00000000000008,-8.49999999999996,0.));
#1263=CARTESIAN_POINT('Origin',(6.00000000000008,-5.99999999999996,0.));
#1264=CARTESIAN_POINT('',(6.00000000000008,-8.49999999999996,5.));
#1265=CARTESIAN_POINT('',(6.00000000000008,-8.49999999999996,0.));
#1266=CARTESIAN_POINT('Origin',(6.00000000000008,-5.99999999999996,5.));
#1267=CARTESIAN_POINT('Origin',(8.50000000000008,-8.49999999999996,0.));
#1268=CARTESIAN_POINT('',(-5.99999999999992,-8.49999999999996,0.));
#1269=CARTESIAN_POINT('',(8.50000000000008,-8.49999999999996,0.));
#1270=CARTESIAN_POINT('',(-5.99999999999992,-8.49999999999996,5.));
#1271=CARTESIAN_POINT('',(-5.99999999999992,-8.49999999999996,0.));
#1272=CARTESIAN_POINT('',(8.50000000000008,-8.49999999999996,5.));
#1273=CARTESIAN_POINT('Origin',(-5.99999999999992,-5.99999999999996,0.));
#1274=CARTESIAN_POINT('',(-8.49999999999992,-5.99999999999996,0.));
#1275=CARTESIAN_POINT('Origin',(-5.99999999999992,-5.99999999999996,0.));
#1276=CARTESIAN_POINT('',(-8.49999999999992,-5.99999999999996,5.));
#1277=CARTESIAN_POINT('',(-8.49999999999992,-5.99999999999996,0.));
#1278=CARTESIAN_POINT('Origin',(-5.99999999999992,-5.99999999999996,5.));
#1279=CARTESIAN_POINT('Origin',(-8.49999999999992,-8.49999999999996,0.));
#1280=CARTESIAN_POINT('',(-8.49999999999992,6.00000000000004,0.));
#1281=CARTESIAN_POINT('',(-8.49999999999992,-8.49999999999996,0.));
#1282=CARTESIAN_POINT('',(-8.49999999999992,6.00000000000004,5.));
#1283=CARTESIAN_POINT('',(-8.49999999999992,6.00000000000004,0.));
#1284=CARTESIAN_POINT('',(-8.49999999999992,-8.49999999999996,5.));
#1285=CARTESIAN_POINT('Origin',(-5.99999999999992,6.00000000000004,0.));
#1286=CARTESIAN_POINT('',(-5.99999999999992,8.50000000000004,0.));
#1287=CARTESIAN_POINT('Origin',(-5.99999999999992,6.00000000000004,0.));
#1288=CARTESIAN_POINT('',(-5.99999999999992,8.50000000000004,5.));
#1289=CARTESIAN_POINT('',(-5.99999999999992,8.50000000000004,0.));
#1290=CARTESIAN_POINT('Origin',(-5.99999999999992,6.00000000000004,5.));
#1291=CARTESIAN_POINT('Origin',(-8.49999999999992,8.50000000000004,0.));
#1292=CARTESIAN_POINT('',(-8.49999999999992,8.50000000000004,5.));
#1293=CARTESIAN_POINT('',(-8.49999999999992,8.50000000000004,0.));
#1294=CARTESIAN_POINT('Origin',(10.,-10.,0.));
#1295=CARTESIAN_POINT('',(10.,10.,0.));
#1296=CARTESIAN_POINT('',(10.,-10.,0.));
#1297=CARTESIAN_POINT('',(10.,10.,0.));
#1298=CARTESIAN_POINT('',(10.,10.,5.));
#1299=CARTESIAN_POINT('',(10.,10.,0.));
#1300=CARTESIAN_POINT('',(10.,-10.,5.));
#1301=CARTESIAN_POINT('',(10.,10.,5.));
#1302=CARTESIAN_POINT('',(10.,-10.,0.));
#1303=CARTESIAN_POINT('Origin',(-10.,-10.,0.));
#1304=CARTESIAN_POINT('',(-10.,-10.,0.));
#1305=CARTESIAN_POINT('',(10.,-10.,0.));
#1306=CARTESIAN_POINT('',(-10.,-10.,5.));
#1307=CARTESIAN_POINT('',(10.,-10.,5.));
#1308=CARTESIAN_POINT('',(-10.,-10.,0.));
#1309=CARTESIAN_POINT('Origin',(-10.,10.,0.));
#1310=CARTESIAN_POINT('',(-10.,10.,0.));
#1311=CARTESIAN_POINT('',(-10.,-10.,0.));
#1312=CARTESIAN_POINT('',(-10.,10.,5.));
#1313=CARTESIAN_POINT('',(-10.,-10.,5.));
#1314=CARTESIAN_POINT('',(-10.,10.,0.));
#1315=CARTESIAN_POINT('Origin',(10.,10.,0.));
#1316=CARTESIAN_POINT('',(-10.,10.,0.));
#1317=CARTESIAN_POINT('',(-10.,10.,5.));
#1318=CARTESIAN_POINT('Origin',(0.,0.,5.));
#1319=CARTESIAN_POINT('Origin',(0.,0.,0.));
#1320=UNCERTAINTY_MEASURE_WITH_UNIT(LENGTH_MEASURE(0.01),#1324,
'DISTANCE_ACCURACY_VALUE',
'Maximum model space distance between geometric entities at asserted c
onnectivities');
#1321=UNCERTAINTY_MEASURE_WITH_UNIT(LENGTH_MEASURE(0.01),#1324,
'DISTANCE_ACCURACY_VALUE',
'Maximum model space distance between geometric entities at asserted c
onnectivities');
#1322=(
GEOMETRIC_REPRESENTATION_CONTEXT(3)
GLOBAL_UNCERTAINTY_ASSIGNED_CONTEXT((#1320))
GLOBAL_UNIT_ASSIGNED_CONTEXT((#1324,#1326,#1327))
REPRESENTATION_CONTEXT('','3D')
);
#1323=(
GEOMETRIC_REPRESENTATION_CONTEXT(3)
GLOBAL_UNCERTAINTY_ASSIGNED_CONTEXT((#1321))
GLOBAL_UNIT_ASSIGNED_CONTEXT((#1324,#1326,#1327))
REPRESENTATION_CONTEXT('','3D')
);
#1324=(
LENGTH_UNIT()
NAMED_UNIT(*)
SI_UNIT(.MILLI.,.METRE.)
);
#1325=(
LENGTH_UNIT()
NAMED_UNIT(*)
SI_UNIT($,.METRE.)
);
#1326=(
NAMED_UNIT(*)
PLANE_ANGLE_UNIT()
SI_UNIT($,.RADIAN.)
);
#1327=(
NAMED_UNIT(*)
SI_UNIT($,.STERADIAN.)
SOLID_ANGLE_UNIT()
);
#1328=SHAPE_DEFINITION_REPRESENTATION(#1329,#1330);
#1329=PRODUCT_DEFINITION_SHAPE('',$,#1332);
#1330=SHAPE_REPRESENTATION('',(#780),#1322);
#1331=PRODUCT_DEFINITION_CONTEXT('part definition',#1336,'design');
#1332=PRODUCT_DEFINITION('border-block','border-block v4',#1333,#1331);
#1333=PRODUCT_DEFINITION_FORMATION('',$,#1338);
#1334=PRODUCT_RELATED_PRODUCT_CATEGORY('border-block v4',
'border-block v4',(#1338));
#1335=APPLICATION_PROTOCOL_DEFINITION('international standard',
'automotive_design',2009,#1336);
#1336=APPLICATION_CONTEXT(
'Core Data for Automotive Mechanical Design Process');
#1337=PRODUCT_CONTEXT('part definition',#1336,'mechanical');
#1338=PRODUCT('border-block','border-block v4',$,(#1337));
#1339=PRESENTATION_STYLE_ASSIGNMENT((#1340));
#1340=SURFACE_STYLE_USAGE(.BOTH.,#1341);
#1341=SURFACE_SIDE_STYLE('',(#1342));
#1342=SURFACE_STYLE_FILL_AREA(#1343);
#1343=FILL_AREA_STYLE('Steel - Satin',(#1344));
#1344=FILL_AREA_STYLE_COLOUR('Steel - Satin',#1345);
#1345=COLOUR_RGB('Steel - Satin',0.627450980392157,0.627450980392157,0.627450980392157);
ENDSEC;
END-ISO-10303-21;
