ISO-10303-21;
HEADER;
/* Generated by software containing ST-Developer
 * from STEP Tools, Inc. (www.steptools.com) 
 */

FILE_DESCRIPTION(
/* description */ (''),
/* implementation_level */ '2;1');

FILE_NAME(
/* name */ 'openConnect_slot_negative_lock.step',
/* time_stamp */ '2026-02-12T16:07:35+08:00',
/* author */ (''),
/* organization */ (''),
/* preprocessor_version */ 'ST-DEVELOPER v20.1',
/* originating_system */ 'Autodesk Translation Framework v14.24.0.0',
/* authorisation */ '');

FILE_SCHEMA (('AUTOMOTIVE_DESIGN { 1 0 10303 214 3 1 1 }'));
ENDSEC;

DATA;
#10=MECHANICAL_DESIGN_GEOMETRIC_PRESENTATION_REPRESENTATION('',(#21),#1211);
#11=ITEM_DEFINED_TRANSFORMATION($,$,#740,#790);
#12=ITEM_DEFINED_TRANSFORMATION($,$,#789,#791);
#13=(
REPRESENTATION_RELATIONSHIP($,$,#1225,#1224)
REPRESENTATION_RELATIONSHIP_WITH_TRANSFORMATION(#11)
SHAPE_REPRESENTATION_RELATIONSHIP()
);
#14=(
REPRESENTATION_RELATIONSHIP($,$,#1226,#1224)
REPRESENTATION_RELATIONSHIP_WITH_TRANSFORMATION(#12)
SHAPE_REPRESENTATION_RELATIONSHIP()
);
#15=CONTEXT_DEPENDENT_SHAPE_REPRESENTATION(#13,#1222);
#16=CONTEXT_DEPENDENT_SHAPE_REPRESENTATION(#14,#1223);
#17=NEXT_ASSEMBLY_USAGE_OCCURRENCE('connector_negative:1',
'connector_negative:1','connector_negative:1',#1228,#1229,
'connector_negative:1');
#18=NEXT_ASSEMBLY_USAGE_OCCURRENCE('slot:1','slot:1','slot:1',#1228,#1230,
'slot:1');
#19=SHAPE_REPRESENTATION_RELATIONSHIP('SRR','None',#1225,#20);
#20=ADVANCED_BREP_SHAPE_REPRESENTATION('',(#22),#1209);
#21=STYLED_ITEM('',(#1243),#22);
#22=MANIFOLD_SOLID_BREP('negative_lock',#715);
#23=CYLINDRICAL_SURFACE('',#754,0.8);
#24=CYLINDRICAL_SURFACE('',#761,0.8);
#25=CYLINDRICAL_SURFACE('',#763,0.6);
#26=CYLINDRICAL_SURFACE('',#765,0.6);
#27=PLANE('',#743);
#28=PLANE('',#746);
#29=PLANE('',#749);
#30=PLANE('',#752);
#31=PLANE('',#753);
#32=PLANE('',#756);
#33=PLANE('',#757);
#34=PLANE('',#762);
#35=PLANE('',#764);
#36=PLANE('',#766);
#37=PLANE('',#767);
#38=PLANE('',#768);
#39=PLANE('',#769);
#40=PLANE('',#770);
#41=PLANE('',#771);
#42=PLANE('',#772);
#43=PLANE('',#773);
#44=PLANE('',#774);
#45=PLANE('',#775);
#46=PLANE('',#776);
#47=PLANE('',#777);
#48=PLANE('',#778);
#49=PLANE('',#779);
#50=PLANE('',#780);
#51=PLANE('',#781);
#52=PLANE('',#782);
#53=PLANE('',#783);
#54=PLANE('',#784);
#55=PLANE('',#785);
#56=PLANE('',#786);
#57=PLANE('',#787);
#58=PLANE('',#788);
#59=FACE_OUTER_BOUND('',#99,.T.);
#60=FACE_OUTER_BOUND('',#100,.T.);
#61=FACE_OUTER_BOUND('',#101,.T.);
#62=FACE_OUTER_BOUND('',#102,.T.);
#63=FACE_OUTER_BOUND('',#103,.T.);
#64=FACE_OUTER_BOUND('',#104,.T.);
#65=FACE_OUTER_BOUND('',#105,.T.);
#66=FACE_OUTER_BOUND('',#106,.T.);
#67=FACE_OUTER_BOUND('',#107,.T.);
#68=FACE_OUTER_BOUND('',#108,.T.);
#69=FACE_OUTER_BOUND('',#109,.T.);
#70=FACE_OUTER_BOUND('',#110,.T.);
#71=FACE_OUTER_BOUND('',#111,.T.);
#72=FACE_OUTER_BOUND('',#112,.T.);
#73=FACE_OUTER_BOUND('',#113,.T.);
#74=FACE_OUTER_BOUND('',#114,.T.);
#75=FACE_OUTER_BOUND('',#115,.T.);
#76=FACE_OUTER_BOUND('',#116,.T.);
#77=FACE_OUTER_BOUND('',#117,.T.);
#78=FACE_OUTER_BOUND('',#118,.T.);
#79=FACE_OUTER_BOUND('',#119,.T.);
#80=FACE_OUTER_BOUND('',#120,.T.);
#81=FACE_OUTER_BOUND('',#121,.T.);
#82=FACE_OUTER_BOUND('',#122,.T.);
#83=FACE_OUTER_BOUND('',#123,.T.);
#84=FACE_OUTER_BOUND('',#124,.T.);
#85=FACE_OUTER_BOUND('',#125,.T.);
#86=FACE_OUTER_BOUND('',#126,.T.);
#87=FACE_OUTER_BOUND('',#127,.T.);
#88=FACE_OUTER_BOUND('',#128,.T.);
#89=FACE_OUTER_BOUND('',#129,.T.);
#90=FACE_OUTER_BOUND('',#130,.T.);
#91=FACE_OUTER_BOUND('',#131,.T.);
#92=FACE_OUTER_BOUND('',#132,.T.);
#93=FACE_OUTER_BOUND('',#133,.T.);
#94=FACE_OUTER_BOUND('',#134,.T.);
#95=FACE_OUTER_BOUND('',#135,.T.);
#96=FACE_OUTER_BOUND('',#136,.T.);
#97=FACE_OUTER_BOUND('',#137,.T.);
#98=FACE_OUTER_BOUND('',#138,.T.);
#99=EDGE_LOOP('',(#477,#478,#479));
#100=EDGE_LOOP('',(#480,#481,#482,#483));
#101=EDGE_LOOP('',(#484,#485,#486,#487));
#102=EDGE_LOOP('',(#488,#489,#490,#491));
#103=EDGE_LOOP('',(#492,#493,#494,#495));
#104=EDGE_LOOP('',(#496,#497,#498,#499));
#105=EDGE_LOOP('',(#500,#501,#502));
#106=EDGE_LOOP('',(#503,#504,#505,#506,#507,#508));
#107=EDGE_LOOP('',(#509,#510,#511,#512,#513,#514,#515));
#108=EDGE_LOOP('',(#516,#517,#518,#519));
#109=EDGE_LOOP('',(#520,#521,#522,#523));
#110=EDGE_LOOP('',(#524,#525,#526,#527,#528,#529,#530,#531,#532,#533,#534,
#535,#536,#537,#538,#539));
#111=EDGE_LOOP('',(#540,#541,#542,#543));
#112=EDGE_LOOP('',(#544,#545,#546,#547));
#113=EDGE_LOOP('',(#548,#549,#550,#551));
#114=EDGE_LOOP('',(#552,#553,#554,#555));
#115=EDGE_LOOP('',(#556,#557,#558,#559));
#116=EDGE_LOOP('',(#560,#561,#562,#563));
#117=EDGE_LOOP('',(#564,#565,#566,#567));
#118=EDGE_LOOP('',(#568,#569,#570,#571,#572,#573,#574));
#119=EDGE_LOOP('',(#575,#576,#577,#578,#579,#580,#581,#582));
#120=EDGE_LOOP('',(#583,#584,#585,#586));
#121=EDGE_LOOP('',(#587,#588,#589,#590));
#122=EDGE_LOOP('',(#591,#592,#593,#594,#595));
#123=EDGE_LOOP('',(#596,#597,#598,#599,#600,#601,#602,#603));
#124=EDGE_LOOP('',(#604,#605,#606,#607));
#125=EDGE_LOOP('',(#608,#609,#610,#611));
#126=EDGE_LOOP('',(#612,#613,#614,#615,#616));
#127=EDGE_LOOP('',(#617,#618,#619,#620));
#128=EDGE_LOOP('',(#621,#622,#623,#624));
#129=EDGE_LOOP('',(#625,#626,#627,#628,#629,#630));
#130=EDGE_LOOP('',(#631,#632,#633,#634,#635,#636));
#131=EDGE_LOOP('',(#637,#638,#639,#640,#641,#642));
#132=EDGE_LOOP('',(#643,#644,#645,#646));
#133=EDGE_LOOP('',(#647,#648,#649,#650));
#134=EDGE_LOOP('',(#651,#652,#653,#654));
#135=EDGE_LOOP('',(#655,#656,#657,#658));
#136=EDGE_LOOP('',(#659,#660,#661,#662));
#137=EDGE_LOOP('',(#663,#664,#665,#666));
#138=EDGE_LOOP('',(#667,#668,#669,#670));
#139=LINE('',#996,#224);
#140=LINE('',#999,#225);
#141=LINE('',#1001,#226);
#142=LINE('',#1002,#227);
#143=LINE('',#1013,#228);
#144=LINE('',#1016,#229);
#145=LINE('',#1018,#230);
#146=LINE('',#1019,#231);
#147=LINE('',#1030,#232);
#148=LINE('',#1033,#233);
#149=LINE('',#1035,#234);
#150=LINE('',#1036,#235);
#151=LINE('',#1048,#236);
#152=LINE('',#1050,#237);
#153=LINE('',#1051,#238);
#154=LINE('',#1054,#239);
#155=LINE('',#1056,#240);
#156=LINE('',#1058,#241);
#157=LINE('',#1059,#242);
#158=LINE('',#1062,#243);
#159=LINE('',#1065,#244);
#160=LINE('',#1068,#245);
#161=LINE('',#1069,#246);
#162=LINE('',#1072,#247);
#163=LINE('',#1074,#248);
#164=LINE('',#1076,#249);
#165=LINE('',#1078,#250);
#166=LINE('',#1080,#251);
#167=LINE('',#1082,#252);
#168=LINE('',#1084,#253);
#169=LINE('',#1086,#254);
#170=LINE('',#1088,#255);
#171=LINE('',#1092,#256);
#172=LINE('',#1096,#257);
#173=LINE('',#1099,#258);
#174=LINE('',#1100,#259);
#175=LINE('',#1102,#260);
#176=LINE('',#1104,#261);
#177=LINE('',#1106,#262);
#178=LINE('',#1109,#263);
#179=LINE('',#1111,#264);
#180=LINE('',#1114,#265);
#181=LINE('',#1116,#266);
#182=LINE('',#1118,#267);
#183=LINE('',#1119,#268);
#184=LINE('',#1122,#269);
#185=LINE('',#1124,#270);
#186=LINE('',#1126,#271);
#187=LINE('',#1128,#272);
#188=LINE('',#1130,#273);
#189=LINE('',#1132,#274);
#190=LINE('',#1133,#275);
#191=LINE('',#1137,#276);
#192=LINE('',#1138,#277);
#193=LINE('',#1139,#278);
#194=LINE('',#1143,#279);
#195=LINE('',#1144,#280);
#196=LINE('',#1145,#281);
#197=LINE('',#1148,#282);
#198=LINE('',#1150,#283);
#199=LINE('',#1152,#284);
#200=LINE('',#1153,#285);
#201=LINE('',#1156,#286);
#202=LINE('',#1158,#287);
#203=LINE('',#1159,#288);
#204=LINE('',#1160,#289);
#205=LINE('',#1163,#290);
#206=LINE('',#1164,#291);
#207=LINE('',#1166,#292);
#208=LINE('',#1169,#293);
#209=LINE('',#1170,#294);
#210=LINE('',#1172,#295);
#211=LINE('',#1174,#296);
#212=LINE('',#1177,#297);
#213=LINE('',#1178,#298);
#214=LINE('',#1181,#299);
#215=LINE('',#1182,#300);
#216=LINE('',#1185,#301);
#217=LINE('',#1187,#302);
#218=LINE('',#1188,#303);
#219=LINE('',#1190,#304);
#220=LINE('',#1192,#305);
#221=LINE('',#1194,#306);
#222=LINE('',#1195,#307);
#223=LINE('',#1199,#308);
#224=VECTOR('',#800,10.);
#225=VECTOR('',#803,10.);
#226=VECTOR('',#804,10.);
#227=VECTOR('',#805,10.);
#228=VECTOR('',#810,10.);
#229=VECTOR('',#813,10.);
#230=VECTOR('',#814,10.);
#231=VECTOR('',#815,10.);
#232=VECTOR('',#820,10.);
#233=VECTOR('',#823,10.);
#234=VECTOR('',#824,10.);
#235=VECTOR('',#825,10.);
#236=VECTOR('',#832,10.);
#237=VECTOR('',#833,10.);
#238=VECTOR('',#834,10.);
#239=VECTOR('',#837,10.);
#240=VECTOR('',#838,10.);
#241=VECTOR('',#839,10.);
#242=VECTOR('',#840,10.);
#243=VECTOR('',#843,10.);
#244=VECTOR('',#846,10.);
#245=VECTOR('',#849,10.);
#246=VECTOR('',#850,10.);
#247=VECTOR('',#853,10.);
#248=VECTOR('',#854,10.);
#249=VECTOR('',#855,10.);
#250=VECTOR('',#856,10.);
#251=VECTOR('',#857,10.);
#252=VECTOR('',#858,10.);
#253=VECTOR('',#859,10.);
#254=VECTOR('',#860,10.);
#255=VECTOR('',#861,10.);
#256=VECTOR('',#864,10.);
#257=VECTOR('',#867,10.);
#258=VECTOR('',#872,10.);
#259=VECTOR('',#873,10.);
#260=VECTOR('',#876,10.);
#261=VECTOR('',#879,10.);
#262=VECTOR('',#882,10.);
#263=VECTOR('',#887,10.);
#264=VECTOR('',#890,10.);
#265=VECTOR('',#893,10.);
#266=VECTOR('',#894,10.);
#267=VECTOR('',#895,10.);
#268=VECTOR('',#896,10.);
#269=VECTOR('',#899,10.);
#270=VECTOR('',#900,10.);
#271=VECTOR('',#901,10.);
#272=VECTOR('',#902,10.);
#273=VECTOR('',#903,10.);
#274=VECTOR('',#904,10.);
#275=VECTOR('',#905,10.);
#276=VECTOR('',#908,10.);
#277=VECTOR('',#909,10.);
#278=VECTOR('',#910,10.);
#279=VECTOR('',#913,10.);
#280=VECTOR('',#914,10.);
#281=VECTOR('',#915,10.);
#282=VECTOR('',#918,10.);
#283=VECTOR('',#919,10.);
#284=VECTOR('',#920,10.);
#285=VECTOR('',#921,10.);
#286=VECTOR('',#924,10.);
#287=VECTOR('',#925,10.);
#288=VECTOR('',#926,10.);
#289=VECTOR('',#927,10.);
#290=VECTOR('',#930,10.);
#291=VECTOR('',#931,10.);
#292=VECTOR('',#934,10.);
#293=VECTOR('',#937,10.);
#294=VECTOR('',#938,10.);
#295=VECTOR('',#941,10.);
#296=VECTOR('',#944,10.);
#297=VECTOR('',#947,10.);
#298=VECTOR('',#948,10.);
#299=VECTOR('',#951,10.);
#300=VECTOR('',#952,10.);
#301=VECTOR('',#955,10.);
#302=VECTOR('',#956,10.);
#303=VECTOR('',#957,10.);
#304=VECTOR('',#960,10.);
#305=VECTOR('',#963,10.);
#306=VECTOR('',#966,10.);
#307=VECTOR('',#967,10.);
#308=VECTOR('',#974,10.);
#309=CIRCLE('',#742,0.8);
#310=CIRCLE('',#745,0.6);
#311=CIRCLE('',#748,0.6);
#312=CIRCLE('',#751,0.8);
#313=CIRCLE('',#755,0.8);
#314=CIRCLE('',#758,0.8);
#315=CIRCLE('',#759,0.6);
#316=CIRCLE('',#760,0.6);
#317=ELLIPSE('',#741,2.56176045807651,0.8);
#318=ELLIPSE('',#744,1.92132034355738,0.6);
#319=ELLIPSE('',#747,1.92132034355738,0.6);
#320=ELLIPSE('',#750,2.56176045807651,0.8);
#321=VERTEX_POINT('',#991);
#322=VERTEX_POINT('',#992);
#323=VERTEX_POINT('',#994);
#324=VERTEX_POINT('',#998);
#325=VERTEX_POINT('',#1000);
#326=VERTEX_POINT('',#1009);
#327=VERTEX_POINT('',#1011);
#328=VERTEX_POINT('',#1015);
#329=VERTEX_POINT('',#1017);
#330=VERTEX_POINT('',#1026);
#331=VERTEX_POINT('',#1028);
#332=VERTEX_POINT('',#1032);
#333=VERTEX_POINT('',#1034);
#334=VERTEX_POINT('',#1043);
#335=VERTEX_POINT('',#1047);
#336=VERTEX_POINT('',#1049);
#337=VERTEX_POINT('',#1053);
#338=VERTEX_POINT('',#1055);
#339=VERTEX_POINT('',#1057);
#340=VERTEX_POINT('',#1061);
#341=VERTEX_POINT('',#1063);
#342=VERTEX_POINT('',#1067);
#343=VERTEX_POINT('',#1071);
#344=VERTEX_POINT('',#1073);
#345=VERTEX_POINT('',#1075);
#346=VERTEX_POINT('',#1077);
#347=VERTEX_POINT('',#1079);
#348=VERTEX_POINT('',#1081);
#349=VERTEX_POINT('',#1083);
#350=VERTEX_POINT('',#1085);
#351=VERTEX_POINT('',#1087);
#352=VERTEX_POINT('',#1089);
#353=VERTEX_POINT('',#1091);
#354=VERTEX_POINT('',#1093);
#355=VERTEX_POINT('',#1095);
#356=VERTEX_POINT('',#1113);
#357=VERTEX_POINT('',#1115);
#358=VERTEX_POINT('',#1117);
#359=VERTEX_POINT('',#1121);
#360=VERTEX_POINT('',#1123);
#361=VERTEX_POINT('',#1125);
#362=VERTEX_POINT('',#1127);
#363=VERTEX_POINT('',#1129);
#364=VERTEX_POINT('',#1131);
#365=VERTEX_POINT('',#1135);
#366=VERTEX_POINT('',#1136);
#367=VERTEX_POINT('',#1141);
#368=VERTEX_POINT('',#1142);
#369=VERTEX_POINT('',#1147);
#370=VERTEX_POINT('',#1149);
#371=VERTEX_POINT('',#1151);
#372=VERTEX_POINT('',#1155);
#373=VERTEX_POINT('',#1157);
#374=VERTEX_POINT('',#1162);
#375=VERTEX_POINT('',#1168);
#376=VERTEX_POINT('',#1176);
#377=VERTEX_POINT('',#1180);
#378=VERTEX_POINT('',#1184);
#379=VERTEX_POINT('',#1186);
#380=EDGE_CURVE('',#321,#322,#317,.T.);
#381=EDGE_CURVE('',#321,#323,#309,.T.);
#382=EDGE_CURVE('',#323,#322,#139,.T.);
#383=EDGE_CURVE('',#322,#324,#140,.T.);
#384=EDGE_CURVE('',#325,#323,#141,.T.);
#385=EDGE_CURVE('',#325,#324,#142,.T.);
#386=EDGE_CURVE('',#324,#326,#318,.T.);
#387=EDGE_CURVE('',#325,#327,#310,.T.);
#388=EDGE_CURVE('',#327,#326,#143,.T.);
#389=EDGE_CURVE('',#328,#327,#144,.T.);
#390=EDGE_CURVE('',#328,#329,#145,.T.);
#391=EDGE_CURVE('',#329,#326,#146,.T.);
#392=EDGE_CURVE('',#329,#330,#319,.T.);
#393=EDGE_CURVE('',#328,#331,#311,.T.);
#394=EDGE_CURVE('',#331,#330,#147,.T.);
#395=EDGE_CURVE('',#330,#332,#148,.T.);
#396=EDGE_CURVE('',#333,#331,#149,.T.);
#397=EDGE_CURVE('',#333,#332,#150,.T.);
#398=EDGE_CURVE('',#332,#334,#320,.T.);
#399=EDGE_CURVE('',#334,#333,#312,.F.);
#400=EDGE_CURVE('',#334,#335,#151,.T.);
#401=EDGE_CURVE('',#336,#335,#152,.T.);
#402=EDGE_CURVE('',#336,#329,#153,.T.);
#403=EDGE_CURVE('',#326,#337,#154,.T.);
#404=EDGE_CURVE('',#337,#338,#155,.T.);
#405=EDGE_CURVE('',#339,#338,#156,.T.);
#406=EDGE_CURVE('',#339,#321,#157,.T.);
#407=EDGE_CURVE('',#321,#340,#158,.T.);
#408=EDGE_CURVE('',#340,#341,#313,.T.);
#409=EDGE_CURVE('',#341,#323,#159,.T.);
#410=EDGE_CURVE('',#342,#341,#160,.T.);
#411=EDGE_CURVE('',#325,#342,#161,.T.);
#412=EDGE_CURVE('',#343,#340,#162,.T.);
#413=EDGE_CURVE('',#344,#343,#163,.T.);
#414=EDGE_CURVE('',#344,#345,#164,.F.);
#415=EDGE_CURVE('',#345,#346,#165,.F.);
#416=EDGE_CURVE('',#346,#347,#166,.T.);
#417=EDGE_CURVE('',#348,#347,#167,.T.);
#418=EDGE_CURVE('',#349,#348,#168,.T.);
#419=EDGE_CURVE('',#350,#349,#169,.T.);
#420=EDGE_CURVE('',#351,#350,#170,.T.);
#421=EDGE_CURVE('',#352,#351,#314,.T.);
#422=EDGE_CURVE('',#352,#353,#171,.T.);
#423=EDGE_CURVE('',#354,#353,#315,.T.);
#424=EDGE_CURVE('',#354,#355,#172,.T.);
#425=EDGE_CURVE('',#342,#355,#316,.T.);
#426=EDGE_CURVE('',#351,#334,#173,.T.);
#427=EDGE_CURVE('',#333,#352,#174,.T.);
#428=EDGE_CURVE('',#353,#331,#175,.T.);
#429=EDGE_CURVE('',#355,#327,#176,.T.);
#430=EDGE_CURVE('',#328,#354,#177,.T.);
#431=EDGE_CURVE('',#335,#350,#178,.T.);
#432=EDGE_CURVE('',#343,#339,#179,.F.);
#433=EDGE_CURVE('',#356,#336,#180,.T.);
#434=EDGE_CURVE('',#357,#356,#181,.T.);
#435=EDGE_CURVE('',#357,#358,#182,.T.);
#436=EDGE_CURVE('',#358,#337,#183,.T.);
#437=EDGE_CURVE('',#357,#359,#184,.T.);
#438=EDGE_CURVE('',#359,#360,#185,.T.);
#439=EDGE_CURVE('',#361,#360,#186,.T.);
#440=EDGE_CURVE('',#362,#361,#187,.T.);
#441=EDGE_CURVE('',#363,#362,#188,.T.);
#442=EDGE_CURVE('',#364,#363,#189,.T.);
#443=EDGE_CURVE('',#358,#364,#190,.T.);
#444=EDGE_CURVE('',#365,#366,#191,.T.);
#445=EDGE_CURVE('',#364,#365,#192,.T.);
#446=EDGE_CURVE('',#363,#366,#193,.T.);
#447=EDGE_CURVE('',#367,#368,#194,.T.);
#448=EDGE_CURVE('',#362,#367,#195,.T.);
#449=EDGE_CURVE('',#361,#368,#196,.T.);
#450=EDGE_CURVE('',#369,#367,#197,.T.);
#451=EDGE_CURVE('',#370,#368,#198,.T.);
#452=EDGE_CURVE('',#371,#370,#199,.T.);
#453=EDGE_CURVE('',#371,#369,#200,.T.);
#454=EDGE_CURVE('',#372,#360,#201,.T.);
#455=EDGE_CURVE('',#373,#372,#202,.T.);
#456=EDGE_CURVE('',#348,#373,#203,.T.);
#457=EDGE_CURVE('',#347,#370,#204,.T.);
#458=EDGE_CURVE('',#356,#374,#205,.T.);
#459=EDGE_CURVE('',#374,#359,#206,.T.);
#460=EDGE_CURVE('',#374,#372,#207,.T.);
#461=EDGE_CURVE('',#335,#375,#208,.T.);
#462=EDGE_CURVE('',#375,#374,#209,.T.);
#463=EDGE_CURVE('',#349,#375,#210,.T.);
#464=EDGE_CURVE('',#346,#371,#211,.T.);
#465=EDGE_CURVE('',#376,#369,#212,.T.);
#466=EDGE_CURVE('',#366,#376,#213,.T.);
#467=EDGE_CURVE('',#338,#377,#214,.T.);
#468=EDGE_CURVE('',#377,#365,#215,.T.);
#469=EDGE_CURVE('',#378,#376,#216,.T.);
#470=EDGE_CURVE('',#378,#379,#217,.T.);
#471=EDGE_CURVE('',#379,#377,#218,.T.);
#472=EDGE_CURVE('',#371,#378,#219,.T.);
#473=EDGE_CURVE('',#379,#339,#220,.T.);
#474=EDGE_CURVE('',#344,#379,#221,.T.);
#475=EDGE_CURVE('',#345,#378,#222,.F.);
#476=EDGE_CURVE('',#375,#373,#223,.T.);
#477=ORIENTED_EDGE('',*,*,#380,.F.);
#478=ORIENTED_EDGE('',*,*,#381,.T.);
#479=ORIENTED_EDGE('',*,*,#382,.T.);
#480=ORIENTED_EDGE('',*,*,#383,.F.);
#481=ORIENTED_EDGE('',*,*,#382,.F.);
#482=ORIENTED_EDGE('',*,*,#384,.F.);
#483=ORIENTED_EDGE('',*,*,#385,.T.);
#484=ORIENTED_EDGE('',*,*,#386,.F.);
#485=ORIENTED_EDGE('',*,*,#385,.F.);
#486=ORIENTED_EDGE('',*,*,#387,.T.);
#487=ORIENTED_EDGE('',*,*,#388,.T.);
#488=ORIENTED_EDGE('',*,*,#389,.F.);
#489=ORIENTED_EDGE('',*,*,#390,.T.);
#490=ORIENTED_EDGE('',*,*,#391,.T.);
#491=ORIENTED_EDGE('',*,*,#388,.F.);
#492=ORIENTED_EDGE('',*,*,#392,.F.);
#493=ORIENTED_EDGE('',*,*,#390,.F.);
#494=ORIENTED_EDGE('',*,*,#393,.T.);
#495=ORIENTED_EDGE('',*,*,#394,.T.);
#496=ORIENTED_EDGE('',*,*,#395,.F.);
#497=ORIENTED_EDGE('',*,*,#394,.F.);
#498=ORIENTED_EDGE('',*,*,#396,.F.);
#499=ORIENTED_EDGE('',*,*,#397,.T.);
#500=ORIENTED_EDGE('',*,*,#398,.F.);
#501=ORIENTED_EDGE('',*,*,#397,.F.);
#502=ORIENTED_EDGE('',*,*,#399,.F.);
#503=ORIENTED_EDGE('',*,*,#398,.T.);
#504=ORIENTED_EDGE('',*,*,#400,.T.);
#505=ORIENTED_EDGE('',*,*,#401,.F.);
#506=ORIENTED_EDGE('',*,*,#402,.T.);
#507=ORIENTED_EDGE('',*,*,#392,.T.);
#508=ORIENTED_EDGE('',*,*,#395,.T.);
#509=ORIENTED_EDGE('',*,*,#380,.T.);
#510=ORIENTED_EDGE('',*,*,#383,.T.);
#511=ORIENTED_EDGE('',*,*,#386,.T.);
#512=ORIENTED_EDGE('',*,*,#403,.T.);
#513=ORIENTED_EDGE('',*,*,#404,.T.);
#514=ORIENTED_EDGE('',*,*,#405,.F.);
#515=ORIENTED_EDGE('',*,*,#406,.T.);
#516=ORIENTED_EDGE('',*,*,#381,.F.);
#517=ORIENTED_EDGE('',*,*,#407,.T.);
#518=ORIENTED_EDGE('',*,*,#408,.T.);
#519=ORIENTED_EDGE('',*,*,#409,.T.);
#520=ORIENTED_EDGE('',*,*,#409,.F.);
#521=ORIENTED_EDGE('',*,*,#410,.F.);
#522=ORIENTED_EDGE('',*,*,#411,.F.);
#523=ORIENTED_EDGE('',*,*,#384,.T.);
#524=ORIENTED_EDGE('',*,*,#408,.F.);
#525=ORIENTED_EDGE('',*,*,#412,.F.);
#526=ORIENTED_EDGE('',*,*,#413,.F.);
#527=ORIENTED_EDGE('',*,*,#414,.T.);
#528=ORIENTED_EDGE('',*,*,#415,.T.);
#529=ORIENTED_EDGE('',*,*,#416,.T.);
#530=ORIENTED_EDGE('',*,*,#417,.F.);
#531=ORIENTED_EDGE('',*,*,#418,.F.);
#532=ORIENTED_EDGE('',*,*,#419,.F.);
#533=ORIENTED_EDGE('',*,*,#420,.F.);
#534=ORIENTED_EDGE('',*,*,#421,.F.);
#535=ORIENTED_EDGE('',*,*,#422,.T.);
#536=ORIENTED_EDGE('',*,*,#423,.F.);
#537=ORIENTED_EDGE('',*,*,#424,.T.);
#538=ORIENTED_EDGE('',*,*,#425,.F.);
#539=ORIENTED_EDGE('',*,*,#410,.T.);
#540=ORIENTED_EDGE('',*,*,#421,.T.);
#541=ORIENTED_EDGE('',*,*,#426,.T.);
#542=ORIENTED_EDGE('',*,*,#399,.T.);
#543=ORIENTED_EDGE('',*,*,#427,.T.);
#544=ORIENTED_EDGE('',*,*,#427,.F.);
#545=ORIENTED_EDGE('',*,*,#396,.T.);
#546=ORIENTED_EDGE('',*,*,#428,.F.);
#547=ORIENTED_EDGE('',*,*,#422,.F.);
#548=ORIENTED_EDGE('',*,*,#387,.F.);
#549=ORIENTED_EDGE('',*,*,#411,.T.);
#550=ORIENTED_EDGE('',*,*,#425,.T.);
#551=ORIENTED_EDGE('',*,*,#429,.T.);
#552=ORIENTED_EDGE('',*,*,#429,.F.);
#553=ORIENTED_EDGE('',*,*,#424,.F.);
#554=ORIENTED_EDGE('',*,*,#430,.F.);
#555=ORIENTED_EDGE('',*,*,#389,.T.);
#556=ORIENTED_EDGE('',*,*,#393,.F.);
#557=ORIENTED_EDGE('',*,*,#430,.T.);
#558=ORIENTED_EDGE('',*,*,#423,.T.);
#559=ORIENTED_EDGE('',*,*,#428,.T.);
#560=ORIENTED_EDGE('',*,*,#426,.F.);
#561=ORIENTED_EDGE('',*,*,#420,.T.);
#562=ORIENTED_EDGE('',*,*,#431,.F.);
#563=ORIENTED_EDGE('',*,*,#400,.F.);
#564=ORIENTED_EDGE('',*,*,#407,.F.);
#565=ORIENTED_EDGE('',*,*,#406,.F.);
#566=ORIENTED_EDGE('',*,*,#432,.F.);
#567=ORIENTED_EDGE('',*,*,#412,.T.);
#568=ORIENTED_EDGE('',*,*,#402,.F.);
#569=ORIENTED_EDGE('',*,*,#433,.F.);
#570=ORIENTED_EDGE('',*,*,#434,.F.);
#571=ORIENTED_EDGE('',*,*,#435,.T.);
#572=ORIENTED_EDGE('',*,*,#436,.T.);
#573=ORIENTED_EDGE('',*,*,#403,.F.);
#574=ORIENTED_EDGE('',*,*,#391,.F.);
#575=ORIENTED_EDGE('',*,*,#437,.T.);
#576=ORIENTED_EDGE('',*,*,#438,.T.);
#577=ORIENTED_EDGE('',*,*,#439,.F.);
#578=ORIENTED_EDGE('',*,*,#440,.F.);
#579=ORIENTED_EDGE('',*,*,#441,.F.);
#580=ORIENTED_EDGE('',*,*,#442,.F.);
#581=ORIENTED_EDGE('',*,*,#443,.F.);
#582=ORIENTED_EDGE('',*,*,#435,.F.);
#583=ORIENTED_EDGE('',*,*,#444,.F.);
#584=ORIENTED_EDGE('',*,*,#445,.F.);
#585=ORIENTED_EDGE('',*,*,#442,.T.);
#586=ORIENTED_EDGE('',*,*,#446,.T.);
#587=ORIENTED_EDGE('',*,*,#447,.F.);
#588=ORIENTED_EDGE('',*,*,#448,.F.);
#589=ORIENTED_EDGE('',*,*,#440,.T.);
#590=ORIENTED_EDGE('',*,*,#449,.T.);
#591=ORIENTED_EDGE('',*,*,#450,.T.);
#592=ORIENTED_EDGE('',*,*,#447,.T.);
#593=ORIENTED_EDGE('',*,*,#451,.F.);
#594=ORIENTED_EDGE('',*,*,#452,.F.);
#595=ORIENTED_EDGE('',*,*,#453,.T.);
#596=ORIENTED_EDGE('',*,*,#439,.T.);
#597=ORIENTED_EDGE('',*,*,#454,.F.);
#598=ORIENTED_EDGE('',*,*,#455,.F.);
#599=ORIENTED_EDGE('',*,*,#456,.F.);
#600=ORIENTED_EDGE('',*,*,#417,.T.);
#601=ORIENTED_EDGE('',*,*,#457,.T.);
#602=ORIENTED_EDGE('',*,*,#451,.T.);
#603=ORIENTED_EDGE('',*,*,#449,.F.);
#604=ORIENTED_EDGE('',*,*,#434,.T.);
#605=ORIENTED_EDGE('',*,*,#458,.T.);
#606=ORIENTED_EDGE('',*,*,#459,.T.);
#607=ORIENTED_EDGE('',*,*,#437,.F.);
#608=ORIENTED_EDGE('',*,*,#460,.T.);
#609=ORIENTED_EDGE('',*,*,#454,.T.);
#610=ORIENTED_EDGE('',*,*,#438,.F.);
#611=ORIENTED_EDGE('',*,*,#459,.F.);
#612=ORIENTED_EDGE('',*,*,#433,.T.);
#613=ORIENTED_EDGE('',*,*,#401,.T.);
#614=ORIENTED_EDGE('',*,*,#461,.T.);
#615=ORIENTED_EDGE('',*,*,#462,.T.);
#616=ORIENTED_EDGE('',*,*,#458,.F.);
#617=ORIENTED_EDGE('',*,*,#431,.T.);
#618=ORIENTED_EDGE('',*,*,#419,.T.);
#619=ORIENTED_EDGE('',*,*,#463,.T.);
#620=ORIENTED_EDGE('',*,*,#461,.F.);
#621=ORIENTED_EDGE('',*,*,#416,.F.);
#622=ORIENTED_EDGE('',*,*,#464,.T.);
#623=ORIENTED_EDGE('',*,*,#452,.T.);
#624=ORIENTED_EDGE('',*,*,#457,.F.);
#625=ORIENTED_EDGE('',*,*,#465,.F.);
#626=ORIENTED_EDGE('',*,*,#466,.F.);
#627=ORIENTED_EDGE('',*,*,#446,.F.);
#628=ORIENTED_EDGE('',*,*,#441,.T.);
#629=ORIENTED_EDGE('',*,*,#448,.T.);
#630=ORIENTED_EDGE('',*,*,#450,.F.);
#631=ORIENTED_EDGE('',*,*,#467,.F.);
#632=ORIENTED_EDGE('',*,*,#404,.F.);
#633=ORIENTED_EDGE('',*,*,#436,.F.);
#634=ORIENTED_EDGE('',*,*,#443,.T.);
#635=ORIENTED_EDGE('',*,*,#445,.T.);
#636=ORIENTED_EDGE('',*,*,#468,.F.);
#637=ORIENTED_EDGE('',*,*,#466,.T.);
#638=ORIENTED_EDGE('',*,*,#469,.F.);
#639=ORIENTED_EDGE('',*,*,#470,.T.);
#640=ORIENTED_EDGE('',*,*,#471,.T.);
#641=ORIENTED_EDGE('',*,*,#468,.T.);
#642=ORIENTED_EDGE('',*,*,#444,.T.);
#643=ORIENTED_EDGE('',*,*,#472,.T.);
#644=ORIENTED_EDGE('',*,*,#469,.T.);
#645=ORIENTED_EDGE('',*,*,#465,.T.);
#646=ORIENTED_EDGE('',*,*,#453,.F.);
#647=ORIENTED_EDGE('',*,*,#473,.T.);
#648=ORIENTED_EDGE('',*,*,#405,.T.);
#649=ORIENTED_EDGE('',*,*,#467,.T.);
#650=ORIENTED_EDGE('',*,*,#471,.F.);
#651=ORIENTED_EDGE('',*,*,#414,.F.);
#652=ORIENTED_EDGE('',*,*,#474,.T.);
#653=ORIENTED_EDGE('',*,*,#470,.F.);
#654=ORIENTED_EDGE('',*,*,#475,.F.);
#655=ORIENTED_EDGE('',*,*,#415,.F.);
#656=ORIENTED_EDGE('',*,*,#475,.T.);
#657=ORIENTED_EDGE('',*,*,#472,.F.);
#658=ORIENTED_EDGE('',*,*,#464,.F.);
#659=ORIENTED_EDGE('',*,*,#413,.T.);
#660=ORIENTED_EDGE('',*,*,#432,.T.);
#661=ORIENTED_EDGE('',*,*,#473,.F.);
#662=ORIENTED_EDGE('',*,*,#474,.F.);
#663=ORIENTED_EDGE('',*,*,#476,.T.);
#664=ORIENTED_EDGE('',*,*,#455,.T.);
#665=ORIENTED_EDGE('',*,*,#460,.F.);
#666=ORIENTED_EDGE('',*,*,#462,.F.);
#667=ORIENTED_EDGE('',*,*,#418,.T.);
#668=ORIENTED_EDGE('',*,*,#456,.T.);
#669=ORIENTED_EDGE('',*,*,#476,.F.);
#670=ORIENTED_EDGE('',*,*,#463,.F.);
#671=(
BOUNDED_SURFACE()
B_SPLINE_SURFACE(1,2,((#985,#986,#987),(#988,#989,#990)),.UNSPECIFIED.,
 .F.,.F.,.F.)
B_SPLINE_SURFACE_WITH_KNOTS((2,2),(3,3),(-0.487514231434991,0.414851636678579),
(1.57079632679541,2.35619449019233),.UNSPECIFIED.)
GEOMETRIC_REPRESENTATION_ITEM()
RATIONAL_B_SPLINE_SURFACE(((1.,0.923879532511389,1.),(1.,0.923879532511389,
1.)))
REPRESENTATION_ITEM('')
SURFACE()
);
#672=(
BOUNDED_SURFACE()
B_SPLINE_SURFACE(1,2,((#1003,#1004,#1005),(#1006,#1007,#1008)),
 .UNSPECIFIED.,.F.,.F.,.F.)
B_SPLINE_SURFACE_WITH_KNOTS((2,2),(3,3),(0.344724618972635,3.08086978513968),
(-1.57079632679443,-0.785398163397468),.UNSPECIFIED.)
GEOMETRIC_REPRESENTATION_ITEM()
RATIONAL_B_SPLINE_SURFACE(((1.,0.92387953251138,1.),(1.,0.92387953251138,
1.)))
REPRESENTATION_ITEM('')
SURFACE()
);
#673=(
BOUNDED_SURFACE()
B_SPLINE_SURFACE(1,2,((#1020,#1021,#1022),(#1023,#1024,#1025)),
 .UNSPECIFIED.,.F.,.F.,.F.)
B_SPLINE_SURFACE_WITH_KNOTS((2,2),(3,3),(0.344724618972636,3.08086978513989),
(-2.35619449019253,-1.57079632679443),.UNSPECIFIED.)
GEOMETRIC_REPRESENTATION_ITEM()
RATIONAL_B_SPLINE_SURFACE(((1.,0.923879532511161,1.),(1.,0.923879532511161,
1.)))
REPRESENTATION_ITEM('')
SURFACE()
);
#674=(
BOUNDED_SURFACE()
B_SPLINE_SURFACE(1,2,((#1037,#1038,#1039),(#1040,#1041,#1042)),
 .UNSPECIFIED.,.F.,.F.,.F.)
B_SPLINE_SURFACE_WITH_KNOTS((2,2),(3,3),(-0.487514231435384,0.414851636680434),
(0.785398163397259,1.57079632679541),.UNSPECIFIED.)
GEOMETRIC_REPRESENTATION_ITEM()
RATIONAL_B_SPLINE_SURFACE(((1.,0.923879532511152,1.),(1.,0.923879532511152,
1.)))
REPRESENTATION_ITEM('')
SURFACE()
);
#675=ADVANCED_FACE('',(#59),#671,.F.);
#676=ADVANCED_FACE('',(#60),#27,.F.);
#677=ADVANCED_FACE('',(#61),#672,.T.);
#678=ADVANCED_FACE('',(#62),#28,.F.);
#679=ADVANCED_FACE('',(#63),#673,.T.);
#680=ADVANCED_FACE('',(#64),#29,.F.);
#681=ADVANCED_FACE('',(#65),#674,.F.);
#682=ADVANCED_FACE('',(#66),#30,.F.);
#683=ADVANCED_FACE('',(#67),#31,.F.);
#684=ADVANCED_FACE('',(#68),#23,.T.);
#685=ADVANCED_FACE('',(#69),#32,.F.);
#686=ADVANCED_FACE('',(#70),#33,.F.);
#687=ADVANCED_FACE('',(#71),#24,.T.);
#688=ADVANCED_FACE('',(#72),#34,.F.);
#689=ADVANCED_FACE('',(#73),#25,.F.);
#690=ADVANCED_FACE('',(#74),#35,.F.);
#691=ADVANCED_FACE('',(#75),#26,.F.);
#692=ADVANCED_FACE('',(#76),#36,.T.);
#693=ADVANCED_FACE('',(#77),#37,.T.);
#694=ADVANCED_FACE('',(#78),#38,.T.);
#695=ADVANCED_FACE('',(#79),#39,.T.);
#696=ADVANCED_FACE('',(#80),#40,.T.);
#697=ADVANCED_FACE('',(#81),#41,.T.);
#698=ADVANCED_FACE('',(#82),#42,.F.);
#699=ADVANCED_FACE('',(#83),#43,.T.);
#700=ADVANCED_FACE('',(#84),#44,.T.);
#701=ADVANCED_FACE('',(#85),#45,.T.);
#702=ADVANCED_FACE('',(#86),#46,.T.);
#703=ADVANCED_FACE('',(#87),#47,.T.);
#704=ADVANCED_FACE('',(#88),#48,.T.);
#705=ADVANCED_FACE('',(#89),#49,.T.);
#706=ADVANCED_FACE('',(#90),#50,.T.);
#707=ADVANCED_FACE('',(#91),#51,.F.);
#708=ADVANCED_FACE('',(#92),#52,.F.);
#709=ADVANCED_FACE('',(#93),#53,.F.);
#710=ADVANCED_FACE('',(#94),#54,.T.);
#711=ADVANCED_FACE('',(#95),#55,.T.);
#712=ADVANCED_FACE('',(#96),#56,.T.);
#713=ADVANCED_FACE('',(#97),#57,.T.);
#714=ADVANCED_FACE('',(#98),#58,.T.);
#715=CLOSED_SHELL('',(#675,#676,#677,#678,#679,#680,#681,#682,#683,#684,
#685,#686,#687,#688,#689,#690,#691,#692,#693,#694,#695,#696,#697,#698,#699,
#700,#701,#702,#703,#704,#705,#706,#707,#708,#709,#710,#711,#712,#713,#714));
#716=DERIVED_UNIT_ELEMENT(#720,1.);
#717=DERIVED_UNIT_ELEMENT(#1213,-3.);
#718=DERIVED_UNIT_ELEMENT(#720,1.);
#719=DERIVED_UNIT_ELEMENT(#1213,-3.);
#720=(
MASS_UNIT()
NAMED_UNIT(*)
SI_UNIT(.KILO.,.GRAM.)
);
#721=DERIVED_UNIT((#716,#717));
#722=DERIVED_UNIT((#718,#719));
#723=MEASURE_REPRESENTATION_ITEM('density measure',
POSITIVE_RATIO_MEASURE(7850.),#721);
#724=MEASURE_REPRESENTATION_ITEM('density measure',
POSITIVE_RATIO_MEASURE(7850.),#722);
#725=PROPERTY_DEFINITION_REPRESENTATION(#735,#729);
#726=PROPERTY_DEFINITION_REPRESENTATION(#736,#730);
#727=PROPERTY_DEFINITION_REPRESENTATION(#737,#731);
#728=PROPERTY_DEFINITION_REPRESENTATION(#738,#732);
#729=REPRESENTATION('material name',(#733),#1209);
#730=REPRESENTATION('density',(#723),#1209);
#731=REPRESENTATION('material name',(#734),#1210);
#732=REPRESENTATION('density',(#724),#1210);
#733=DESCRIPTIVE_REPRESENTATION_ITEM('Steel','Steel');
#734=DESCRIPTIVE_REPRESENTATION_ITEM('Steel','Steel');
#735=PROPERTY_DEFINITION('material property','material name',#1229);
#736=PROPERTY_DEFINITION('material property','density of part',#1229);
#737=PROPERTY_DEFINITION('material property','material name',#1230);
#738=PROPERTY_DEFINITION('material property','density of part',#1230);
#739=AXIS2_PLACEMENT_3D('',#983,#792,#793);
#740=AXIS2_PLACEMENT_3D('',#984,#794,#795);
#741=AXIS2_PLACEMENT_3D('',#993,#796,#797);
#742=AXIS2_PLACEMENT_3D('',#995,#798,#799);
#743=AXIS2_PLACEMENT_3D('',#997,#801,#802);
#744=AXIS2_PLACEMENT_3D('',#1010,#806,#807);
#745=AXIS2_PLACEMENT_3D('',#1012,#808,#809);
#746=AXIS2_PLACEMENT_3D('',#1014,#811,#812);
#747=AXIS2_PLACEMENT_3D('',#1027,#816,#817);
#748=AXIS2_PLACEMENT_3D('',#1029,#818,#819);
#749=AXIS2_PLACEMENT_3D('',#1031,#821,#822);
#750=AXIS2_PLACEMENT_3D('',#1044,#826,#827);
#751=AXIS2_PLACEMENT_3D('',#1045,#828,#829);
#752=AXIS2_PLACEMENT_3D('',#1046,#830,#831);
#753=AXIS2_PLACEMENT_3D('',#1052,#835,#836);
#754=AXIS2_PLACEMENT_3D('',#1060,#841,#842);
#755=AXIS2_PLACEMENT_3D('',#1064,#844,#845);
#756=AXIS2_PLACEMENT_3D('',#1066,#847,#848);
#757=AXIS2_PLACEMENT_3D('',#1070,#851,#852);
#758=AXIS2_PLACEMENT_3D('',#1090,#862,#863);
#759=AXIS2_PLACEMENT_3D('',#1094,#865,#866);
#760=AXIS2_PLACEMENT_3D('',#1097,#868,#869);
#761=AXIS2_PLACEMENT_3D('',#1098,#870,#871);
#762=AXIS2_PLACEMENT_3D('',#1101,#874,#875);
#763=AXIS2_PLACEMENT_3D('',#1103,#877,#878);
#764=AXIS2_PLACEMENT_3D('',#1105,#880,#881);
#765=AXIS2_PLACEMENT_3D('',#1107,#883,#884);
#766=AXIS2_PLACEMENT_3D('',#1108,#885,#886);
#767=AXIS2_PLACEMENT_3D('',#1110,#888,#889);
#768=AXIS2_PLACEMENT_3D('',#1112,#891,#892);
#769=AXIS2_PLACEMENT_3D('',#1120,#897,#898);
#770=AXIS2_PLACEMENT_3D('',#1134,#906,#907);
#771=AXIS2_PLACEMENT_3D('',#1140,#911,#912);
#772=AXIS2_PLACEMENT_3D('',#1146,#916,#917);
#773=AXIS2_PLACEMENT_3D('',#1154,#922,#923);
#774=AXIS2_PLACEMENT_3D('',#1161,#928,#929);
#775=AXIS2_PLACEMENT_3D('',#1165,#932,#933);
#776=AXIS2_PLACEMENT_3D('',#1167,#935,#936);
#777=AXIS2_PLACEMENT_3D('',#1171,#939,#940);
#778=AXIS2_PLACEMENT_3D('',#1173,#942,#943);
#779=AXIS2_PLACEMENT_3D('',#1175,#945,#946);
#780=AXIS2_PLACEMENT_3D('',#1179,#949,#950);
#781=AXIS2_PLACEMENT_3D('',#1183,#953,#954);
#782=AXIS2_PLACEMENT_3D('',#1189,#958,#959);
#783=AXIS2_PLACEMENT_3D('',#1191,#961,#962);
#784=AXIS2_PLACEMENT_3D('',#1193,#964,#965);
#785=AXIS2_PLACEMENT_3D('',#1196,#968,#969);
#786=AXIS2_PLACEMENT_3D('',#1197,#970,#971);
#787=AXIS2_PLACEMENT_3D('',#1198,#972,#973);
#788=AXIS2_PLACEMENT_3D('',#1200,#975,#976);
#789=AXIS2_PLACEMENT_3D('',#1201,#977,#978);
#790=AXIS2_PLACEMENT_3D('',#1202,#979,#980);
#791=AXIS2_PLACEMENT_3D('',#1203,#981,#982);
#792=DIRECTION('axis',(0.,0.,1.));
#793=DIRECTION('refdir',(1.,0.,0.));
#794=DIRECTION('axis',(0.,0.,1.));
#795=DIRECTION('refdir',(1.,0.,0.));
#796=DIRECTION('center_axis',(-0.707106781186568,-2.064909475966E-13,0.707106781186527));
#797=DIRECTION('ref_axis',(-0.707106781186527,1.59359101905021E-13,-0.707106781186568));
#798=DIRECTION('center_axis',(0.,0.,1.));
#799=DIRECTION('ref_axis',(-0.923879532511278,-0.382683432365112,0.));
#800=DIRECTION('',(0.487514231434989,-1.09879743477542E-13,0.873115040615126));
#801=DIRECTION('center_axis',(0.657700039575453,0.657700039575131,-0.36723468774793));
#802=DIRECTION('ref_axis',(-0.707106781186374,0.707106781186721,0.));
#803=DIRECTION('',(0.674960518707967,-0.298088235881608,0.674960518707919));
#804=DIRECTION('',(-0.707106781186374,0.707106781186721,0.));
#805=DIRECTION('',(0.487514231434989,-1.09879743477542E-13,0.873115040615126));
#806=DIRECTION('center_axis',(0.707106781186568,2.064909475966E-13,-0.707106781186527));
#807=DIRECTION('ref_axis',(-0.707106781186527,1.59277782303008E-13,-0.707106781186568));
#808=DIRECTION('center_axis',(0.,0.,-1.));
#809=DIRECTION('ref_axis',(0.923879532511287,0.382683432365089,0.));
#810=DIRECTION('',(0.487514231434989,-1.09879743477542E-13,0.873115040615126));
#811=DIRECTION('center_axis',(0.873115040615125,2.11641945303508E-13,-0.487514231434989));
#812=DIRECTION('ref_axis',(-2.42398693709826E-13,1.,0.));
#813=DIRECTION('',(-2.42398693709826E-13,1.,0.));
#814=DIRECTION('',(0.487514231434989,-1.09879743477542E-13,0.873115040615126));
#815=DIRECTION('',(1.63405914607592E-13,1.,4.55428213205993E-13));
#816=DIRECTION('center_axis',(0.707106781186568,2.064909475966E-13,-0.707106781186527));
#817=DIRECTION('ref_axis',(-0.707106781186527,1.59379593308985E-13,-0.707106781186568));
#818=DIRECTION('center_axis',(0.,0.,-1.));
#819=DIRECTION('ref_axis',(0.923879532511294,-0.382683432365073,0.));
#820=DIRECTION('',(0.487514231434989,-1.09879743477542E-13,0.873115040615126));
#821=DIRECTION('center_axis',(0.657700039575157,-0.657700039575427,-0.36723468774793));
#822=DIRECTION('ref_axis',(0.707106781186693,0.707106781186402,0.));
#823=DIRECTION('',(-0.674960518707995,-0.298088235881085,-0.674960518708122));
#824=DIRECTION('',(0.707106781186693,0.707106781186402,0.));
#825=DIRECTION('',(0.487514231434989,-1.09879743477542E-13,0.873115040615126));
#826=DIRECTION('center_axis',(-0.707106781186568,-2.064909475966E-13,0.707106781186527));
#827=DIRECTION('ref_axis',(-0.707106781186527,1.59369426301473E-13,-0.707106781186568));
#828=DIRECTION('center_axis',(0.,0.,1.));
#829=DIRECTION('ref_axis',(-0.923879532511303,0.38268343236505,0.));
#830=DIRECTION('center_axis',(0.707106781186568,2.064909475966E-13,-0.707106781186527));
#831=DIRECTION('ref_axis',(-0.707106781186527,0.,-0.707106781186568));
#832=DIRECTION('',(2.92022298598375E-13,-1.,-3.56997693116641E-29));
#833=DIRECTION('',(-0.40824829046373,-0.816496580927728,-0.408248290463992));
#834=DIRECTION('',(1.63405914607592E-13,1.,4.55428213205993E-13));
#835=DIRECTION('center_axis',(0.707106781186568,2.064909475966E-13,-0.707106781186527));
#836=DIRECTION('ref_axis',(-0.707106781186527,0.,-0.707106781186568));
#837=DIRECTION('',(1.63405914607592E-13,1.,4.55428213205993E-13));
#838=DIRECTION('',(0.577350269189251,0.577350269190172,0.577350269189454));
#839=DIRECTION('',(0.678598344545818,-0.281084637715061,0.678598344545776));
#840=DIRECTION('',(2.92022298598375E-13,-1.,-3.56997693116641E-29));
#841=DIRECTION('center_axis',(0.,0.,1.));
#842=DIRECTION('ref_axis',(-0.923879532511278,-0.382683432365112,0.));
#843=DIRECTION('',(0.,0.,-1.));
#844=DIRECTION('center_axis',(0.,0.,1.));
#845=DIRECTION('ref_axis',(-0.923879532511278,-0.382683432365112,0.));
#846=DIRECTION('',(0.,0.,1.));
#847=DIRECTION('center_axis',(0.707106781186721,0.707106781186374,0.));
#848=DIRECTION('ref_axis',(-0.707106781186374,0.707106781186721,0.));
#849=DIRECTION('',(-0.707106781186374,0.707106781186721,0.));
#850=DIRECTION('',(0.,0.,-1.));
#851=DIRECTION('center_axis',(0.,0.,1.));
#852=DIRECTION('ref_axis',(1.,0.,0.));
#853=DIRECTION('',(2.92022298598375E-13,-1.,0.));
#854=DIRECTION('',(-0.707106781186547,-0.707106781186548,0.));
#855=DIRECTION('',(-1.,0.,0.));
#856=DIRECTION('',(-0.707106781186548,0.707106781186547,0.));
#857=DIRECTION('',(9.73879846162418E-17,-1.,0.));
#858=DIRECTION('',(1.,0.,0.));
#859=DIRECTION('',(2.03351182095442E-13,-1.,0.));
#860=DIRECTION('',(-0.707106781186545,-0.70710678118655,0.));
#861=DIRECTION('',(2.92022298598375E-13,-1.,0.));
#862=DIRECTION('center_axis',(0.,0.,1.));
#863=DIRECTION('ref_axis',(-0.923879532511303,0.38268343236505,0.));
#864=DIRECTION('',(0.707106781186693,0.707106781186402,0.));
#865=DIRECTION('center_axis',(0.,0.,-1.));
#866=DIRECTION('ref_axis',(0.923879532511294,-0.382683432365073,0.));
#867=DIRECTION('',(-2.42398693709826E-13,1.,0.));
#868=DIRECTION('center_axis',(0.,0.,-1.));
#869=DIRECTION('ref_axis',(0.923879532511287,0.382683432365089,0.));
#870=DIRECTION('center_axis',(0.,0.,-1.));
#871=DIRECTION('ref_axis',(-0.923879532511303,0.38268343236505,0.));
#872=DIRECTION('',(0.,0.,1.));
#873=DIRECTION('',(0.,0.,-1.));
#874=DIRECTION('center_axis',(0.707106781186402,-0.707106781186693,0.));
#875=DIRECTION('ref_axis',(0.707106781186693,0.707106781186402,0.));
#876=DIRECTION('',(0.,0.,1.));
#877=DIRECTION('center_axis',(0.,0.,1.));
#878=DIRECTION('ref_axis',(0.923879532511287,0.382683432365089,0.));
#879=DIRECTION('',(0.,0.,1.));
#880=DIRECTION('center_axis',(1.,2.42398693709826E-13,0.));
#881=DIRECTION('ref_axis',(-2.42398693709826E-13,1.,0.));
#882=DIRECTION('',(0.,0.,-1.));
#883=DIRECTION('center_axis',(0.,0.,1.));
#884=DIRECTION('ref_axis',(0.923879532511294,-0.382683432365073,0.));
#885=DIRECTION('center_axis',(-1.,-2.92022298598375E-13,0.));
#886=DIRECTION('ref_axis',(2.92022298598375E-13,-1.,0.));
#887=DIRECTION('',(-3.95611344356523E-33,-3.95611344356526E-33,-1.));
#888=DIRECTION('center_axis',(-1.,-2.92022298598375E-13,0.));
#889=DIRECTION('ref_axis',(2.92022298598375E-13,-1.,0.));
#890=DIRECTION('',(0.,0.,-1.));
#891=DIRECTION('center_axis',(-1.,1.63405914607592E-13,0.));
#892=DIRECTION('ref_axis',(1.63405914607592E-13,1.,0.));
#893=DIRECTION('',(-1.15545430305028E-13,-0.707106781186607,-0.707106781186488));
#894=DIRECTION('',(0.,0.,-1.));
#895=DIRECTION('',(1.63405914607592E-13,1.,0.));
#896=DIRECTION('',(0.,0.,-1.));
#897=DIRECTION('center_axis',(0.,0.,1.));
#898=DIRECTION('ref_axis',(1.,0.,0.));
#899=DIRECTION('',(-0.707106781186545,-0.70710678118655,0.));
#900=DIRECTION('',(2.03351182095442E-13,-1.,0.));
#901=DIRECTION('',(-1.,0.,0.));
#902=DIRECTION('',(-6.4100262683954E-17,-1.,0.));
#903=DIRECTION('',(0.707106781186274,-0.707106781186821,0.));
#904=DIRECTION('',(1.,0.,0.));
#905=DIRECTION('',(0.707106781185991,0.707106781187104,0.));
#906=DIRECTION('center_axis',(0.,1.,0.));
#907=DIRECTION('ref_axis',(1.,0.,0.));
#908=DIRECTION('',(1.,0.,0.));
#909=DIRECTION('',(0.,0.,-1.));
#910=DIRECTION('',(0.,0.,-1.));
#911=DIRECTION('center_axis',(1.,-6.4100262683954E-17,0.));
#912=DIRECTION('ref_axis',(-6.4100262683954E-17,-1.,0.));
#913=DIRECTION('',(-6.4100262683954E-17,-1.,2.60293648609595E-13));
#914=DIRECTION('',(0.,0.,-1.));
#915=DIRECTION('',(0.,0.,-1.));
#916=DIRECTION('center_axis',(-0.707106781185414,-1.84010078301508E-13,
-0.707106781187681));
#917=DIRECTION('ref_axis',(-0.707106781187681,0.,0.707106781185414));
#918=DIRECTION('',(0.577350269190144,-0.57735026919059,-0.577350269188143));
#919=DIRECTION('',(-0.70710678118768,-4.6179189961362E-17,0.707106781185415));
#920=DIRECTION('',(9.73879846162418E-17,-1.,0.));
#921=DIRECTION('',(-0.678598344547125,-0.281084637713723,0.678598344545023));
#922=DIRECTION('center_axis',(0.,-1.,0.));
#923=DIRECTION('ref_axis',(1.,0.,0.));
#924=DIRECTION('',(0.,0.,1.));
#925=DIRECTION('',(-0.707106781186547,-7.00934133340972E-17,0.707106781186548));
#926=DIRECTION('',(0.,0.,1.));
#927=DIRECTION('',(-2.99485040533326E-15,-1.95585404429942E-31,1.));
#928=DIRECTION('center_axis',(-0.70710678118655,0.707106781186545,0.));
#929=DIRECTION('ref_axis',(-0.707106781186545,-0.70710678118655,0.));
#930=DIRECTION('',(-0.707106781186545,-0.70710678118655,0.));
#931=DIRECTION('',(0.,0.,1.));
#932=DIRECTION('center_axis',(-1.,-2.03351182095442E-13,0.));
#933=DIRECTION('ref_axis',(2.03351182095442E-13,-1.,0.));
#934=DIRECTION('',(2.03351182095442E-13,-1.,0.));
#935=DIRECTION('center_axis',(-0.577350269189628,0.577350269189623,-0.577350269189627));
#936=DIRECTION('ref_axis',(-0.707106781186545,-0.70710678118655,0.));
#937=DIRECTION('',(-0.707106781186545,-0.70710678118655,0.));
#938=DIRECTION('',(-0.707106781186547,-7.00934133340972E-17,0.707106781186548));
#939=DIRECTION('center_axis',(-0.70710678118655,0.707106781186545,0.));
#940=DIRECTION('ref_axis',(-0.707106781186545,-0.70710678118655,0.));
#941=DIRECTION('',(0.,0.,1.));
#942=DIRECTION('center_axis',(1.,2.60229548347745E-13,0.));
#943=DIRECTION('ref_axis',(-2.60229548347745E-13,1.,0.));
#944=DIRECTION('',(0.,0.,1.));
#945=DIRECTION('center_axis',(0.70710678118682,0.707106781186275,0.));
#946=DIRECTION('ref_axis',(-0.707106781186275,0.70710678118682,0.));
#947=DIRECTION('',(0.707106781186275,-0.70710678118682,3.86085735590069E-13));
#948=DIRECTION('',(0.577350269189323,-0.577350269189777,0.577350269189777));
#949=DIRECTION('center_axis',(-0.707106781187104,0.707106781185991,0.));
#950=DIRECTION('ref_axis',(-0.707106781185991,-0.707106781187104,0.));
#951=DIRECTION('',(0.707106781185991,0.707106781187104,-7.86145294062838E-13));
#952=DIRECTION('',(0.57735026918902,0.577350269189929,-0.577350269189929));
#953=DIRECTION('center_axis',(0.,-0.707106781186547,-0.707106781186548));
#954=DIRECTION('ref_axis',(-1.,0.,0.));
#955=DIRECTION('',(-0.281084637716059,-0.678598344545591,0.67859834454559));
#956=DIRECTION('',(-1.,0.,0.));
#957=DIRECTION('',(0.281084637715108,-0.678598344545788,0.678598344545787));
#958=DIRECTION('center_axis',(-0.499999999999649,-0.49999999999965,-0.707106781187043));
#959=DIRECTION('ref_axis',(-0.816496580928108,0.,0.577350269189086));
#960=DIRECTION('',(-0.707106781186548,0.707106781186547,2.35513868802401E-16));
#961=DIRECTION('center_axis',(0.499999999999919,-0.499999999999919,-0.707106781186663));
#962=DIRECTION('ref_axis',(-0.816496580927815,0.,-0.5773502691895));
#963=DIRECTION('',(-0.707106781186547,-0.707106781186548,7.8504622934176E-17));
#964=DIRECTION('center_axis',(0.,1.,0.));
#965=DIRECTION('ref_axis',(-1.,0.,0.));
#966=DIRECTION('',(0.,0.,1.));
#967=DIRECTION('',(0.,0.,-1.));
#968=DIRECTION('center_axis',(0.707106781186547,0.707106781186548,0.));
#969=DIRECTION('ref_axis',(-0.707106781186548,0.707106781186547,0.));
#970=DIRECTION('center_axis',(-0.707106781186548,0.707106781186547,0.));
#971=DIRECTION('ref_axis',(-0.707106781186547,-0.707106781186548,0.));
#972=DIRECTION('center_axis',(-0.707106781186548,-1.43790999821988E-13,
-0.707106781186547));
#973=DIRECTION('ref_axis',(2.03351182095442E-13,-1.,0.));
#974=DIRECTION('',(2.03351182095442E-13,-1.,0.));
#975=DIRECTION('center_axis',(-1.,-2.03351182095442E-13,0.));
#976=DIRECTION('ref_axis',(2.03351182095442E-13,-1.,0.));
#977=DIRECTION('axis',(0.,0.,1.));
#978=DIRECTION('refdir',(1.,0.,0.));
#979=DIRECTION('',(0.,0.,1.));
#980=DIRECTION('',(1.,0.,0.));
#981=DIRECTION('',(0.,0.,1.));
#982=DIRECTION('',(1.,0.,0.));
#983=CARTESIAN_POINT('',(0.,0.,0.));
#984=CARTESIAN_POINT('',(0.,0.,0.));
#985=CARTESIAN_POINT('Ctrl Pts',(-8.59999999999952,3.23137084989924,0.741421356237308));
#986=CARTESIAN_POINT('Ctrl Pts',(-8.59999999999953,2.90000000000081,0.741421356237271));
#987=CARTESIAN_POINT('Ctrl Pts',(-8.42137499949009,2.66568542494997,0.641683949609719));
#988=CARTESIAN_POINT('Ctrl Pts',(-8.24806703786628,3.23137084989916,1.37171672550745));
#989=CARTESIAN_POINT('Ctrl Pts',(-8.24806703786629,2.90000000000073,1.37171672550742));
#990=CARTESIAN_POINT('Ctrl Pts',(-8.06944203735684,2.66568542494989,1.27197931887987));
#991=CARTESIAN_POINT('',(-8.59999999999952,3.23137084989883,0.741421356237308));
#992=CARTESIAN_POINT('',(-8.06944203735686,2.66568542494989,1.27197931887984));
#993=CARTESIAN_POINT('Origin',(-6.78856180831812,3.23137084989883,2.55285954791882));
#994=CARTESIAN_POINT('',(-8.3656854249489,2.66568542494996,0.74142135623731));
#995=CARTESIAN_POINT('Origin',(-7.79999999999952,3.23137084989906,0.74142135623731));
#996=CARTESIAN_POINT('',(-8.3656854249489,2.66568542494996,0.74142135623731));
#997=CARTESIAN_POINT('Origin',(-8.17573593128702,2.47573593128799,0.74142135623731));
#998=CARTESIAN_POINT('',(-7.63933982821985,2.47573593128787,1.70208152801681));
#999=CARTESIAN_POINT('',(-7.98457984760059,2.62820705438399,1.3568415086361));
#1000=CARTESIAN_POINT('',(-8.17573593128702,2.47573593128799,0.74142135623731));
#1001=CARTESIAN_POINT('',(-8.59999999999942,2.9000000000006,0.74142135623731));
#1002=CARTESIAN_POINT('',(-8.17573593128702,2.47573593128799,0.74142135623731));
#1003=CARTESIAN_POINT('Ctrl Pts',(-8.04176718090494,2.05147186257604,0.666618301266618));
#1004=CARTESIAN_POINT('Ctrl Pts',(-8.04176718090493,2.29999999999987,0.666618301266643));
#1005=CARTESIAN_POINT('Ctrl Pts',(-8.17573593128702,2.47573593128799,0.74142135623731));
#1006=CARTESIAN_POINT('Ctrl Pts',(-7.24142135623785,2.05147186257586,2.09999999999871));
#1007=CARTESIAN_POINT('Ctrl Pts',(-7.24142135623784,2.29999999999969,2.09999999999874));
#1008=CARTESIAN_POINT('Ctrl Pts',(-7.37539010661993,2.47573593128781,2.1748030549694));
#1009=CARTESIAN_POINT('',(-7.24142135623787,2.05147186257614,2.09999999999867));
#1010=CARTESIAN_POINT('Origin',(-8.5999999999989,2.05147186257617,0.74142135623758));
#1011=CARTESIAN_POINT('',(-7.99999999999905,2.05147186257631,0.74142135623731));
#1012=CARTESIAN_POINT('Origin',(-8.59999999999905,2.05147186257617,0.74142135623731));
#1013=CARTESIAN_POINT('',(-7.99999999999905,2.05147186257631,0.74142135623731));
#1014=CARTESIAN_POINT('Origin',(-7.99999999999888,1.34852813742402,0.74142135623731));
#1015=CARTESIAN_POINT('',(-7.99999999999888,1.34852813742402,0.74142135623731));
#1016=CARTESIAN_POINT('',(-7.99999999999911,2.3,0.74142135623731));
#1017=CARTESIAN_POINT('',(-7.2414213562377,1.34852813742384,2.09999999999867));
#1018=CARTESIAN_POINT('',(-7.99999999999888,1.34852813742402,0.74142135623731));
#1019=CARTESIAN_POINT('',(-7.24142135623818,-0.721434615608026,2.09999999999757));
#1020=CARTESIAN_POINT('Ctrl Pts',(-8.17573593128711,0.924264068711766,0.741421356237348));
#1021=CARTESIAN_POINT('Ctrl Pts',(-8.04176718090478,1.0999999999998,0.666618301266594));
#1022=CARTESIAN_POINT('Ctrl Pts',(-8.04176718090477,1.34852813742374,0.666618301266618));
#1023=CARTESIAN_POINT('Ctrl Pts',(-7.37539010661996,0.924264068711586,2.17480305496955));
#1024=CARTESIAN_POINT('Ctrl Pts',(-7.24142135623763,1.09999999999962,2.09999999999879));
#1025=CARTESIAN_POINT('Ctrl Pts',(-7.24142135623762,1.34852813742356,2.09999999999882));
#1026=CARTESIAN_POINT('',(-7.63933982822047,0.924264068711734,1.70208152801575));
#1027=CARTESIAN_POINT('Origin',(-8.59999999999877,1.34852813742387,0.741421356237504));
#1028=CARTESIAN_POINT('',(-8.17573593128704,0.924264068711855,0.74142135623731));
#1029=CARTESIAN_POINT('Origin',(-8.59999999999888,1.34852813742387,0.74142135623731));
#1030=CARTESIAN_POINT('',(-8.17573593128704,0.924264068711855,0.74142135623731));
#1031=CARTESIAN_POINT('Origin',(-8.36568542494775,0.734314575051227,0.74142135623731));
#1032=CARTESIAN_POINT('',(-8.06944203735497,0.73431457505116,1.27197931888116));
#1033=CARTESIAN_POINT('',(-8.73102885089937,0.442132676013364,0.610392505336639));
#1034=CARTESIAN_POINT('',(-8.36568542494775,0.734314575051227,0.74142135623731));
#1035=CARTESIAN_POINT('',(-7.99999999999882,1.1,0.74142135623731));
#1036=CARTESIAN_POINT('',(-8.36568542494775,0.734314575051227,0.74142135623731));
#1037=CARTESIAN_POINT('Ctrl Pts',(-8.421374999489,0.734314575051358,0.641683949609395));
#1038=CARTESIAN_POINT('Ctrl Pts',(-8.59999999999877,0.500000000000653,0.74142135623707));
#1039=CARTESIAN_POINT('Ctrl Pts',(-8.59999999999878,0.168629150102053,0.741421356237034));
#1040=CARTESIAN_POINT('Ctrl Pts',(-8.06944203735488,0.734314575051279,1.27197931888111));
#1041=CARTESIAN_POINT('Ctrl Pts',(-8.24806703786465,0.500000000000574,1.37171672550879));
#1042=CARTESIAN_POINT('Ctrl Pts',(-8.24806703786466,0.168629150101974,1.37171672550875));
#1043=CARTESIAN_POINT('',(-8.59999999999863,0.16862915010164,0.741421356237308));
#1044=CARTESIAN_POINT('Origin',(-6.78856180831723,0.168629150101645,2.55285954791881));
#1045=CARTESIAN_POINT('Origin',(-7.79999999999863,0.168629150101873,0.74142135623731));
#1046=CARTESIAN_POINT('Origin',(-8.57071067811674,-1.70000000000002,0.770710678118653));
#1047=CARTESIAN_POINT('',(-8.59999999999805,-2.32720779386227,0.741421356237308));
#1048=CARTESIAN_POINT('',(-8.59999999999904,1.59999999999997,0.741421356237308));
#1049=CARTESIAN_POINT('',(-7.241421356238,0.389949493658568,2.09999999999808));
#1050=CARTESIAN_POINT('',(-7.10878186557578,0.655228474983107,2.23263949066039));
#1051=CARTESIAN_POINT('',(-7.24142135623818,-0.721434615608026,2.09999999999757));
#1052=CARTESIAN_POINT('Origin',(-8.57071067811674,-1.70000000000002,0.770710678118653));
#1053=CARTESIAN_POINT('',(-7.24142135623736,4.32010101267187,2.09999999999987));
#1054=CARTESIAN_POINT('',(-7.24142135623818,-0.721434615608026,2.09999999999757));
#1055=CARTESIAN_POINT('',(-7.19999999999902,4.36152236891153,2.14142135623911));
#1056=CARTESIAN_POINT('',(-8.58786796564265,2.97365440326443,0.753553390594107));
#1057=CARTESIAN_POINT('',(-8.60000000000002,4.9414213562373,0.741421356237313));
#1058=CARTESIAN_POINT('',(-7.93567014786334,4.66624692159274,1.40575120837395));
#1059=CARTESIAN_POINT('',(-8.59999999999904,1.59999999999997,0.741421356237308));
#1060=CARTESIAN_POINT('Origin',(-7.79999999999952,3.23137084989906,0.05));
#1061=CARTESIAN_POINT('',(-8.59999999999952,3.23137084989883,0.));
#1062=CARTESIAN_POINT('',(-8.59999999999952,3.23137084989883,0.05));
#1063=CARTESIAN_POINT('',(-8.3656854249489,2.66568542494996,0.));
#1064=CARTESIAN_POINT('Origin',(-7.79999999999952,3.23137084989906,0.));
#1065=CARTESIAN_POINT('',(-8.3656854249489,2.66568542494996,0.05));
#1066=CARTESIAN_POINT('Origin',(-7.99999999999911,2.3,0.));
#1067=CARTESIAN_POINT('',(-8.17573593128702,2.47573593128799,0.));
#1068=CARTESIAN_POINT('',(-4.22499999999983,-1.47500000000113,0.));
#1069=CARTESIAN_POINT('',(-8.17573593128702,2.47573593128799,0.));
#1070=CARTESIAN_POINT('Origin',(-2.19999999999915,-7.,0.));
#1071=CARTESIAN_POINT('',(-8.60000000000002,4.94142135623729,0.));
#1072=CARTESIAN_POINT('',(-8.59999999999982,4.24999999999873,0.));
#1073=CARTESIAN_POINT('',(-4.54142135623732,9.,0.));
#1074=CARTESIAN_POINT('',(-4.77071067811845,8.77071067811887,0.));
#1075=CARTESIAN_POINT('',(4.5414213562373,9.,0.));
#1076=CARTESIAN_POINT('',(2.25000000000042,9.,0.));
#1077=CARTESIAN_POINT('',(8.59999999999999,4.94142135623732,0.));
#1078=CARTESIAN_POINT('',(6.77071067811886,6.77071067811844,0.));
#1079=CARTESIAN_POINT('',(8.60000000000175,-13.2,0.));
#1080=CARTESIAN_POINT('',(8.60000000000174,-1.8,0.));
#1081=CARTESIAN_POINT('',(-11.5999999999985,-13.2,0.));
#1082=CARTESIAN_POINT('',(-11.5999999999985,-13.2,0.));
#1083=CARTESIAN_POINT('',(-11.6000000000001,-5.32720779386431,0.));
#1084=CARTESIAN_POINT('',(-11.6000000000001,-5.32720779386431,0.));
#1085=CARTESIAN_POINT('',(-8.59999999999805,-2.32720779386227,0.));
#1086=CARTESIAN_POINT('',(-7.07279220613579,-0.799999999999999,0.));
#1087=CARTESIAN_POINT('',(-8.59999999999862,0.16862915010164,0.));
#1088=CARTESIAN_POINT('',(-8.59999999999982,4.24999999999873,0.));
#1089=CARTESIAN_POINT('',(-8.36568542494775,0.734314575051227,0.));
#1090=CARTESIAN_POINT('Origin',(-7.79999999999863,0.168629150101873,0.));
#1091=CARTESIAN_POINT('',(-8.17573593128704,0.924264068711855,0.));
#1092=CARTESIAN_POINT('',(-8.87499999999826,0.225000000000923,0.));
#1093=CARTESIAN_POINT('',(-7.99999999999888,1.34852813742402,0.));
#1094=CARTESIAN_POINT('Origin',(-8.59999999999888,1.34852813742387,0.));
#1095=CARTESIAN_POINT('',(-7.99999999999905,2.05147186257631,0.));
#1096=CARTESIAN_POINT('',(-7.99999999999784,-2.9500000000007,0.));
#1097=CARTESIAN_POINT('Origin',(-8.59999999999905,2.05147186257617,0.));
#1098=CARTESIAN_POINT('Origin',(-7.79999999999863,0.168629150101873,0.05));
#1099=CARTESIAN_POINT('',(-8.59999999999863,0.16862915010164,0.05));
#1100=CARTESIAN_POINT('',(-8.36568542494775,0.734314575051227,0.05));
#1101=CARTESIAN_POINT('Origin',(-8.59999999999873,0.500000000000343,0.));
#1102=CARTESIAN_POINT('',(-8.17573593128704,0.924264068711854,0.));
#1103=CARTESIAN_POINT('Origin',(-8.59999999999905,2.05147186257617,0.));
#1104=CARTESIAN_POINT('',(-7.99999999999905,2.05147186257631,0.));
#1105=CARTESIAN_POINT('Origin',(-7.99999999999882,1.1,0.));
#1106=CARTESIAN_POINT('',(-7.99999999999888,1.34852813742402,0.));
#1107=CARTESIAN_POINT('Origin',(-8.59999999999888,1.34852813742387,0.));
#1108=CARTESIAN_POINT('Origin',(-8.60000000000001,4.89999999999997,0.1));
#1109=CARTESIAN_POINT('',(-8.59999999999805,-2.32720779386227,0.370710678118654));
#1110=CARTESIAN_POINT('Origin',(-8.60000000000001,4.89999999999997,0.1));
#1111=CARTESIAN_POINT('',(-8.60000000000002,4.94142135623729,0.1));
#1112=CARTESIAN_POINT('Origin',(-7.24142135623802,0.257130768784517,2.7));
#1113=CARTESIAN_POINT('',(-7.24142135623799,0.431370849897807,2.14142135623731));
#1114=CARTESIAN_POINT('',(-7.24142135623792,0.869612778085991,2.57966328442542));
#1115=CARTESIAN_POINT('',(-7.24142135623799,0.431370849897806,2.7));
#1116=CARTESIAN_POINT('',(-7.24142135623799,0.431370849897807,2.42071067811866));
#1117=CARTESIAN_POINT('',(-7.24142135623736,4.32010101267187,2.7));
#1118=CARTESIAN_POINT('',(-7.24142135623802,0.257130768784517,2.7));
#1119=CARTESIAN_POINT('',(-7.24142135623736,4.32010101267187,2.7));
#1120=CARTESIAN_POINT('Origin',(-2.20000000000126,-7.7,2.7));
#1121=CARTESIAN_POINT('',(-13.0000000000001,-5.32720779386431,2.7));
#1122=CARTESIAN_POINT('',(-8.47279220613579,-0.799999999999999,2.7));
#1123=CARTESIAN_POINT('',(-12.9999999999985,-13.2,2.7));
#1124=CARTESIAN_POINT('',(-13.0000000000001,-5.32720779386431,2.7));
#1125=CARTESIAN_POINT('',(7.44142135623588,-13.2,2.7));
#1126=CARTESIAN_POINT('',(7.44142135623588,-13.2,2.7));
#1127=CARTESIAN_POINT('',(7.44142135623588,4.12010101267611,2.7));
#1128=CARTESIAN_POINT('',(7.44142135623588,4.12010101267611,2.7));
#1129=CARTESIAN_POINT('',(3.72010101267755,7.84142135623731,2.7));
#1130=CARTESIAN_POINT('',(7.20000000000009,4.36152236891209,2.7));
#1131=CARTESIAN_POINT('',(-3.72010101267746,7.84142135623731,2.7));
#1132=CARTESIAN_POINT('',(-3.72010101267746,7.84142135623731,2.7));
#1133=CARTESIAN_POINT('',(-3.96152236891439,7.6,2.7));
#1134=CARTESIAN_POINT('Origin',(-3.72010101267746,7.84142135623731,2.7));
#1135=CARTESIAN_POINT('',(-3.72010101267746,7.84142135623731,1.9));
#1136=CARTESIAN_POINT('',(3.72010101267755,7.84142135623731,1.9));
#1137=CARTESIAN_POINT('',(-4.11005050633873,7.84142135623731,1.9));
#1138=CARTESIAN_POINT('',(-3.72010101267746,7.84142135623731,2.7));
#1139=CARTESIAN_POINT('',(3.72010101267755,7.84142135623731,2.7));
#1140=CARTESIAN_POINT('Origin',(7.44142135623588,4.12010101267611,2.7));
#1141=CARTESIAN_POINT('',(7.44142135623588,4.12010101267611,1.89999999999525));
#1142=CARTESIAN_POINT('',(7.44142135623588,-13.2,1.89999999999976));
#1143=CARTESIAN_POINT('',(7.44142135623588,-0.789949493661895,1.89999999999653));
#1144=CARTESIAN_POINT('',(7.44142135623588,4.12010101267611,2.7));
#1145=CARTESIAN_POINT('',(7.44142135623588,-13.2,2.7));
#1146=CARTESIAN_POINT('Origin',(8.57071067811854,-5.69999999999998,0.770710678118768));
#1147=CARTESIAN_POINT('',(7.19999999999899,4.36152236891474,2.14142135623517));
#1148=CARTESIAN_POINT('',(9.24072751356661,2.32079485534399,0.100693842670763));
#1149=CARTESIAN_POINT('',(8.60000000000174,-13.2,0.741421356237401));
#1150=CARTESIAN_POINT('',(8.60000000000174,-13.2,0.741421356237401));
#1151=CARTESIAN_POINT('',(8.6,4.94142135623729,0.741421356237376));
#1152=CARTESIAN_POINT('',(8.60000000000174,-1.8,0.741421356237401));
#1153=CARTESIAN_POINT('',(8.02561964152112,4.70350522179595,1.3158017147145));
#1154=CARTESIAN_POINT('Origin',(-11.5999999999985,-13.2,0.));
#1155=CARTESIAN_POINT('',(-12.9999999999985,-13.2,2.14142135623731));
#1156=CARTESIAN_POINT('',(-12.9999999999985,-13.2,2.14142135623731));
#1157=CARTESIAN_POINT('',(-11.5999999999985,-13.2,0.74142135623731));
#1158=CARTESIAN_POINT('',(-11.5999999999985,-13.2,0.74142135623731));
#1159=CARTESIAN_POINT('',(-11.5999999999985,-13.2,0.));
#1160=CARTESIAN_POINT('',(8.60000000000174,-13.2,0.741421356237401));
#1161=CARTESIAN_POINT('Origin',(-4.4727922061358,3.20000000000002,2.14142135623731));
#1162=CARTESIAN_POINT('',(-13.0000000000001,-5.32720779386431,2.14142135623731));
#1163=CARTESIAN_POINT('',(-8.47279220613579,-0.799999999999999,2.14142135623731));
#1164=CARTESIAN_POINT('',(-13.0000000000001,-5.32720779386431,2.14142135623731));
#1165=CARTESIAN_POINT('Origin',(-13.0000000000001,-5.32720779386431,2.14142135623731));
#1166=CARTESIAN_POINT('',(-13.0000000000001,-5.32720779386431,2.14142135623731));
#1167=CARTESIAN_POINT('Origin',(-3.0727922061358,3.20000000000002,0.74142135623731));
#1168=CARTESIAN_POINT('',(-11.6000000000001,-5.32720779386431,0.74142135623731));
#1169=CARTESIAN_POINT('',(-7.07279220613579,-0.799999999999999,0.74142135623731));
#1170=CARTESIAN_POINT('',(-11.6000000000001,-5.32720779386431,0.74142135623731));
#1171=CARTESIAN_POINT('Origin',(-3.0727922061358,3.20000000000002,0.));
#1172=CARTESIAN_POINT('',(-11.6000000000001,-5.32720779386431,0.));
#1173=CARTESIAN_POINT('Origin',(8.60000000000172,-12.3,0.1));
#1174=CARTESIAN_POINT('',(8.59999999999999,4.94142135623732,0.1));
#1175=CARTESIAN_POINT('Origin',(7.17071067811875,4.39081169079345,2.1));
#1176=CARTESIAN_POINT('',(3.96152236891364,7.60000000000043,2.14142135623645));
#1177=CARTESIAN_POINT('',(5.37573593128774,6.18578643762585,2.14142135623637));
#1178=CARTESIAN_POINT('',(2.10698773660568,9.45453463231045,0.286886723926857));
#1179=CARTESIAN_POINT('Origin',(-3.99081169079574,7.5707106781186,2.1));
#1180=CARTESIAN_POINT('',(-3.96152236891437,7.60000000000001,2.1414213562373));
#1181=CARTESIAN_POINT('',(-5.78578643762427,5.77573593128725,2.14142135623931));
#1182=CARTESIAN_POINT('',(-3.68746152201622,7.8740608468986,1.86736050933871));
#1183=CARTESIAN_POINT('Origin',(-4.50000000000001,8.97071067811866,0.770710678118655));
#1184=CARTESIAN_POINT('',(4.54142135623733,8.99999999999999,0.74142135623733));
#1185=CARTESIAN_POINT('',(4.1714366333191,8.10677786406415,1.63464349217316));
#1186=CARTESIAN_POINT('',(-4.54142135623732,9.,0.741421356237314));
#1187=CARTESIAN_POINT('',(-7.7715611723761E-15,9.,0.74142135623731));
#1188=CARTESIAN_POINT('',(-4.3035052217964,8.42561964152597,1.31580171471134));
#1189=CARTESIAN_POINT('Origin',(4.54999999999996,8.94999999999997,0.770710678118704));
#1190=CARTESIAN_POINT('',(6.57071067811865,6.97071067811865,0.741421356237351));
#1191=CARTESIAN_POINT('Origin',(-8.55,4.94999999999999,0.770710678118666));
#1192=CARTESIAN_POINT('',(-6.57071067811866,6.97071067811865,0.741421356237319));
#1193=CARTESIAN_POINT('Origin',(4.49999999999999,9.,0.1));
#1194=CARTESIAN_POINT('',(-4.54142135623732,9.,0.1));
#1195=CARTESIAN_POINT('',(4.5414213562373,9.,0.1));
#1196=CARTESIAN_POINT('Origin',(8.57071067811865,4.97071067811865,0.1));
#1197=CARTESIAN_POINT('Origin',(-4.57071067811866,8.97071067811866,0.1));
#1198=CARTESIAN_POINT('Origin',(-11.6000000000001,-5.32720779386431,0.74142135623731));
#1199=CARTESIAN_POINT('',(-11.6000000000001,-5.32720779386431,0.74142135623731));
#1200=CARTESIAN_POINT('Origin',(-11.6000000000001,-5.32720779386431,0.));
#1201=CARTESIAN_POINT('',(0.,0.,0.));
#1202=CARTESIAN_POINT('',(0.,0.,0.));
#1203=CARTESIAN_POINT('',(0.,0.,0.));
#1204=UNCERTAINTY_MEASURE_WITH_UNIT(LENGTH_MEASURE(0.01),#1212,
'DISTANCE_ACCURACY_VALUE',
'Maximum model space distance between geometric entities at asserted c
onnectivities');
#1205=UNCERTAINTY_MEASURE_WITH_UNIT(LENGTH_MEASURE(0.01),#1212,
'DISTANCE_ACCURACY_VALUE',
'Maximum model space distance between geometric entities at asserted c
onnectivities');
#1206=UNCERTAINTY_MEASURE_WITH_UNIT(LENGTH_MEASURE(0.01),#1212,
'DISTANCE_ACCURACY_VALUE',
'Maximum model space distance between geometric entities at asserted c
onnectivities');
#1207=UNCERTAINTY_MEASURE_WITH_UNIT(LENGTH_MEASURE(0.01),#1212,
'DISTANCE_ACCURACY_VALUE',
'Maximum model space distance between geometric entities at asserted c
onnectivities');
#1208=(
GEOMETRIC_REPRESENTATION_CONTEXT(3)
GLOBAL_UNCERTAINTY_ASSIGNED_CONTEXT((#1204))
GLOBAL_UNIT_ASSIGNED_CONTEXT((#1212,#1214,#1215))
REPRESENTATION_CONTEXT('','3D')
);
#1209=(
GEOMETRIC_REPRESENTATION_CONTEXT(3)
GLOBAL_UNCERTAINTY_ASSIGNED_CONTEXT((#1205))
GLOBAL_UNIT_ASSIGNED_CONTEXT((#1212,#1214,#1215))
REPRESENTATION_CONTEXT('','3D')
);
#1210=(
GEOMETRIC_REPRESENTATION_CONTEXT(3)
GLOBAL_UNCERTAINTY_ASSIGNED_CONTEXT((#1206))
GLOBAL_UNIT_ASSIGNED_CONTEXT((#1212,#1214,#1215))
REPRESENTATION_CONTEXT('','3D')
);
#1211=(
GEOMETRIC_REPRESENTATION_CONTEXT(3)
GLOBAL_UNCERTAINTY_ASSIGNED_CONTEXT((#1207))
GLOBAL_UNIT_ASSIGNED_CONTEXT((#1212,#1214,#1215))
REPRESENTATION_CONTEXT('','3D')
);
#1212=(
LENGTH_UNIT()
NAMED_UNIT(*)
SI_UNIT(.MILLI.,.METRE.)
);
#1213=(
LENGTH_UNIT()
NAMED_UNIT(*)
SI_UNIT($,.METRE.)
);
#1214=(
NAMED_UNIT(*)
PLANE_ANGLE_UNIT()
SI_UNIT($,.RADIAN.)
);
#1215=(
NAMED_UNIT(*)
SI_UNIT($,.STERADIAN.)
SOLID_ANGLE_UNIT()
);
#1216=SHAPE_DEFINITION_REPRESENTATION(#1219,#1224);
#1217=SHAPE_DEFINITION_REPRESENTATION(#1220,#1225);
#1218=SHAPE_DEFINITION_REPRESENTATION(#1221,#1226);
#1219=PRODUCT_DEFINITION_SHAPE('',$,#1228);
#1220=PRODUCT_DEFINITION_SHAPE('',$,#1229);
#1221=PRODUCT_DEFINITION_SHAPE('',$,#1230);
#1222=PRODUCT_DEFINITION_SHAPE($,$,#17);
#1223=PRODUCT_DEFINITION_SHAPE($,$,#18);
#1224=SHAPE_REPRESENTATION('',(#739,#790,#791),#1208);
#1225=SHAPE_REPRESENTATION('',(#740),#1209);
#1226=SHAPE_REPRESENTATION('',(#789),#1210);
#1227=PRODUCT_DEFINITION_CONTEXT('part definition',#1238,'design');
#1228=PRODUCT_DEFINITION('openConnect beta','openConnect beta v46',#1231,
#1227);
#1229=PRODUCT_DEFINITION('connector_negative','connector_negative',#1232,
#1227);
#1230=PRODUCT_DEFINITION('slot','slot',#1233,#1227);
#1231=PRODUCT_DEFINITION_FORMATION('',$,#1240);
#1232=PRODUCT_DEFINITION_FORMATION('',$,#1241);
#1233=PRODUCT_DEFINITION_FORMATION('',$,#1242);
#1234=PRODUCT_RELATED_PRODUCT_CATEGORY('openConnect beta v46',
'openConnect beta v46',(#1240));
#1235=PRODUCT_RELATED_PRODUCT_CATEGORY('connector_negative',
'connector_negative',(#1241));
#1236=PRODUCT_RELATED_PRODUCT_CATEGORY('slot','slot',(#1242));
#1237=APPLICATION_PROTOCOL_DEFINITION('international standard',
'automotive_design',2009,#1238);
#1238=APPLICATION_CONTEXT(
'Core Data for Automotive Mechanical Design Process');
#1239=PRODUCT_CONTEXT('part definition',#1238,'mechanical');
#1240=PRODUCT('openConnect beta','openConnect beta v46',$,(#1239));
#1241=PRODUCT('connector_negative','connector_negative',$,(#1239));
#1242=PRODUCT('slot','slot',$,(#1239));
#1243=PRESENTATION_STYLE_ASSIGNMENT((#1245));
#1244=PRESENTATION_STYLE_ASSIGNMENT((#1246));
#1245=SURFACE_STYLE_USAGE(.BOTH.,#1247);
#1246=SURFACE_STYLE_USAGE(.BOTH.,#1248);
#1247=SURFACE_SIDE_STYLE('',(#1249));
#1248=SURFACE_SIDE_STYLE('',(#1250));
#1249=SURFACE_STYLE_FILL_AREA(#1251);
#1250=SURFACE_STYLE_FILL_AREA(#1252);
#1251=FILL_AREA_STYLE('Steel - Satin',(#1253));
#1252=FILL_AREA_STYLE('Nylon 12 (with Formlabs Fuse 1 3D Printer)',(#1254));
#1253=FILL_AREA_STYLE_COLOUR('Steel - Satin',#1255);
#1254=FILL_AREA_STYLE_COLOUR(
'Nylon 12 (with Formlabs Fuse 1 3D Printer)',#1256);
#1255=COLOUR_RGB('Steel - Satin',0.627450980392157,0.627450980392157,0.627450980392157);
#1256=COLOUR_RGB('Nylon 12 (with Formlabs Fuse 1 3D Printer)',0.247058823529412,
0.247058823529412,0.247058823529412);
ENDSEC;
END-ISO-10303-21;
