ISO-10303-21;
HEADER;
/* Generated by software containing ST-Developer
 * from STEP Tools, Inc. (www.steptools.com)
 */

FILE_DESCRIPTION(
/* description */ (''),
/* implementation_level */ '2;1');

FILE_NAME(
/* name */ 'openConnect_head.step',
/* time_stamp */ '2026-02-12T16:08:21+08:00',
/* author */ (''),
/* organization */ (''),
/* preprocessor_version */ 'ST-DEVELOPER v20.1',
/* originating_system */ 'Autodesk Translation Framework v14.24.0.0',
/* authorisation */ '');

FILE_SCHEMA (('AUTOMOTIVE_DESIGN { 1 0 10303 214 3 1 1 }'));
ENDSEC;

DATA;
#10=MECHANICAL_DESIGN_GEOMETRIC_PRESENTATION_REPRESENTATION('',(#17),#1410);
#11=ITEM_DEFINED_TRANSFORMATION($,$,#836,#902);
#12=(
REPRESENTATION_RELATIONSHIP($,$,#1420,#1419)
REPRESENTATION_RELATIONSHIP_WITH_TRANSFORMATION(#11)
SHAPE_REPRESENTATION_RELATIONSHIP()
);
#13=CONTEXT_DEPENDENT_SHAPE_REPRESENTATION(#12,#1418);
#14=NEXT_ASSEMBLY_USAGE_OCCURRENCE('openconnect_connector:1',
'openconnect_connector:1','openconnect_connector:1',#1422,#1423,
'openconnect_connector:1');
#15=SHAPE_REPRESENTATION_RELATIONSHIP('SRR','None',#1420,#16);
#16=ADVANCED_BREP_SHAPE_REPRESENTATION('',(#18),#1409);
#17=STYLED_ITEM('',(#1434),#18);
#18=MANIFOLD_SOLID_BREP('head',#834);
#19=CYLINDRICAL_SURFACE('',#861,0.8);
#20=CYLINDRICAL_SURFACE('',#872,0.8);
#21=CYLINDRICAL_SURFACE('',#874,0.8);
#22=CYLINDRICAL_SURFACE('',#876,0.8);
#23=CYLINDRICAL_SURFACE('',#878,0.6);
#24=CYLINDRICAL_SURFACE('',#880,0.6);
#25=CYLINDRICAL_SURFACE('',#882,0.6);
#26=CYLINDRICAL_SURFACE('',#883,0.6);
#27=PLANE('',#839);
#28=PLANE('',#842);
#29=PLANE('',#845);
#30=PLANE('',#848);
#31=PLANE('',#853);
#32=PLANE('',#858);
#33=PLANE('',#859);
#34=PLANE('',#860);
#35=PLANE('',#863);
#36=PLANE('',#864);
#37=PLANE('',#873);
#38=PLANE('',#875);
#39=PLANE('',#877);
#40=PLANE('',#879);
#41=PLANE('',#881);
#42=PLANE('',#884);
#43=PLANE('',#885);
#44=PLANE('',#886);
#45=PLANE('',#887);
#46=PLANE('',#888);
#47=PLANE('',#889);
#48=PLANE('',#890);
#49=PLANE('',#891);
#50=PLANE('',#892);
#51=PLANE('',#893);
#52=PLANE('',#894);
#53=PLANE('',#895);
#54=PLANE('',#896);
#55=PLANE('',#897);
#56=PLANE('',#898);
#57=PLANE('',#899);
#58=PLANE('',#900);
#59=PLANE('',#901);
#60=FACE_OUTER_BOUND('',#109,.T.);
#61=FACE_OUTER_BOUND('',#110,.T.);
#62=FACE_OUTER_BOUND('',#111,.T.);
#63=FACE_OUTER_BOUND('',#112,.T.);
#64=FACE_OUTER_BOUND('',#113,.T.);
#65=FACE_OUTER_BOUND('',#114,.T.);
#66=FACE_OUTER_BOUND('',#115,.T.);
#67=FACE_OUTER_BOUND('',#116,.T.);
#68=FACE_OUTER_BOUND('',#117,.T.);
#69=FACE_OUTER_BOUND('',#118,.T.);
#70=FACE_OUTER_BOUND('',#119,.T.);
#71=FACE_OUTER_BOUND('',#120,.T.);
#72=FACE_OUTER_BOUND('',#121,.T.);
#73=FACE_OUTER_BOUND('',#122,.T.);
#74=FACE_OUTER_BOUND('',#123,.T.);
#75=FACE_OUTER_BOUND('',#124,.T.);
#76=FACE_OUTER_BOUND('',#125,.T.);
#77=FACE_OUTER_BOUND('',#126,.T.);
#78=FACE_OUTER_BOUND('',#127,.T.);
#79=FACE_OUTER_BOUND('',#128,.T.);
#80=FACE_OUTER_BOUND('',#129,.T.);
#81=FACE_OUTER_BOUND('',#130,.T.);
#82=FACE_OUTER_BOUND('',#131,.T.);
#83=FACE_OUTER_BOUND('',#132,.T.);
#84=FACE_OUTER_BOUND('',#133,.T.);
#85=FACE_OUTER_BOUND('',#134,.T.);
#86=FACE_OUTER_BOUND('',#135,.T.);
#87=FACE_OUTER_BOUND('',#136,.T.);
#88=FACE_OUTER_BOUND('',#137,.T.);
#89=FACE_OUTER_BOUND('',#138,.T.);
#90=FACE_OUTER_BOUND('',#139,.T.);
#91=FACE_OUTER_BOUND('',#140,.T.);
#92=FACE_OUTER_BOUND('',#141,.T.);
#93=FACE_OUTER_BOUND('',#142,.T.);
#94=FACE_OUTER_BOUND('',#143,.T.);
#95=FACE_OUTER_BOUND('',#144,.T.);
#96=FACE_OUTER_BOUND('',#145,.T.);
#97=FACE_OUTER_BOUND('',#146,.T.);
#98=FACE_OUTER_BOUND('',#147,.T.);
#99=FACE_OUTER_BOUND('',#148,.T.);
#100=FACE_OUTER_BOUND('',#149,.T.);
#101=FACE_OUTER_BOUND('',#150,.T.);
#102=FACE_OUTER_BOUND('',#151,.T.);
#103=FACE_OUTER_BOUND('',#152,.T.);
#104=FACE_OUTER_BOUND('',#153,.T.);
#105=FACE_OUTER_BOUND('',#154,.T.);
#106=FACE_OUTER_BOUND('',#155,.T.);
#107=FACE_OUTER_BOUND('',#156,.T.);
#108=FACE_OUTER_BOUND('',#157,.T.);
#109=EDGE_LOOP('',(#547,#548,#549));
#110=EDGE_LOOP('',(#550,#551,#552,#553));
#111=EDGE_LOOP('',(#554,#555,#556,#557));
#112=EDGE_LOOP('',(#558,#559,#560,#561));
#113=EDGE_LOOP('',(#562,#563,#564,#565));
#114=EDGE_LOOP('',(#566,#567,#568,#569));
#115=EDGE_LOOP('',(#570,#571,#572));
#116=EDGE_LOOP('',(#573,#574,#575,#576));
#117=EDGE_LOOP('',(#577,#578,#579,#580));
#118=EDGE_LOOP('',(#581,#582,#583,#584));
#119=EDGE_LOOP('',(#585,#586,#587,#588));
#120=EDGE_LOOP('',(#589,#590,#591));
#121=EDGE_LOOP('',(#592,#593,#594));
#122=EDGE_LOOP('',(#595,#596,#597,#598));
#123=EDGE_LOOP('',(#599,#600,#601,#602,#603,#604));
#124=EDGE_LOOP('',(#605,#606,#607,#608,#609,#610));
#125=EDGE_LOOP('',(#611,#612,#613,#614));
#126=EDGE_LOOP('',(#615,#616,#617,#618));
#127=EDGE_LOOP('',(#619,#620,#621,#622,#623,#624,#625,#626,#627,#628,#629,
#630,#631,#632,#633,#634,#635,#636,#637,#638,#639,#640));
#128=EDGE_LOOP('',(#641,#642,#643,#644));
#129=EDGE_LOOP('',(#645,#646,#647,#648));
#130=EDGE_LOOP('',(#649,#650,#651,#652));
#131=EDGE_LOOP('',(#653,#654,#655,#656));
#132=EDGE_LOOP('',(#657,#658,#659,#660));
#133=EDGE_LOOP('',(#661,#662,#663,#664));
#134=EDGE_LOOP('',(#665,#666,#667,#668));
#135=EDGE_LOOP('',(#669,#670,#671,#672));
#136=EDGE_LOOP('',(#673,#674,#675,#676));
#137=EDGE_LOOP('',(#677,#678,#679,#680));
#138=EDGE_LOOP('',(#681,#682,#683,#684));
#139=EDGE_LOOP('',(#685,#686,#687,#688));
#140=EDGE_LOOP('',(#689,#690,#691,#692));
#141=EDGE_LOOP('',(#693,#694,#695,#696));
#142=EDGE_LOOP('',(#697,#698,#699,#700));
#143=EDGE_LOOP('',(#701,#702,#703,#704));
#144=EDGE_LOOP('',(#705,#706,#707,#708));
#145=EDGE_LOOP('',(#709,#710,#711,#712));
#146=EDGE_LOOP('',(#713,#714,#715,#716,#717,#718));
#147=EDGE_LOOP('',(#719,#720,#721,#722));
#148=EDGE_LOOP('',(#723,#724,#725,#726));
#149=EDGE_LOOP('',(#727,#728,#729,#730,#731,#732));
#150=EDGE_LOOP('',(#733,#734,#735,#736));
#151=EDGE_LOOP('',(#737,#738,#739,#740));
#152=EDGE_LOOP('',(#741,#742,#743,#744,#745,#746,#747,#748,#749,#750,#751,
#752));
#153=EDGE_LOOP('',(#753,#754,#755,#756));
#154=EDGE_LOOP('',(#757,#758,#759,#760));
#155=EDGE_LOOP('',(#761,#762,#763,#764));
#156=EDGE_LOOP('',(#765,#766,#767,#768,#769,#770,#771,#772));
#157=EDGE_LOOP('',(#773,#774,#775,#776));
#158=LINE('',#1143,#249);
#159=LINE('',#1146,#250);
#160=LINE('',#1148,#251);
#161=LINE('',#1149,#252);
#162=LINE('',#1160,#253);
#163=LINE('',#1163,#254);
#164=LINE('',#1165,#255);
#165=LINE('',#1166,#256);
#166=LINE('',#1177,#257);
#167=LINE('',#1180,#258);
#168=LINE('',#1182,#259);
#169=LINE('',#1183,#260);
#170=LINE('',#1196,#261);
#171=LINE('',#1198,#262);
#172=LINE('',#1200,#263);
#173=LINE('',#1201,#264);
#174=LINE('',#1212,#265);
#175=LINE('',#1223,#266);
#176=LINE('',#1226,#267);
#177=LINE('',#1229,#268);
#178=LINE('',#1231,#269);
#179=LINE('',#1232,#270);
#180=LINE('',#1252,#271);
#181=LINE('',#1253,#272);
#182=LINE('',#1256,#273);
#183=LINE('',#1258,#274);
#184=LINE('',#1259,#275);
#185=LINE('',#1262,#276);
#186=LINE('',#1264,#277);
#187=LINE('',#1265,#278);
#188=LINE('',#1270,#279);
#189=LINE('',#1271,#280);
#190=LINE('',#1274,#281);
#191=LINE('',#1275,#282);
#192=LINE('',#1278,#283);
#193=LINE('',#1282,#284);
#194=LINE('',#1286,#285);
#195=LINE('',#1290,#286);
#196=LINE('',#1292,#287);
#197=LINE('',#1294,#288);
#198=LINE('',#1298,#289);
#199=LINE('',#1302,#290);
#200=LINE('',#1306,#291);
#201=LINE('',#1310,#292);
#202=LINE('',#1312,#293);
#203=LINE('',#1314,#294);
#204=LINE('',#1315,#295);
#205=LINE('',#1317,#296);
#206=LINE('',#1318,#297);
#207=LINE('',#1320,#298);
#208=LINE('',#1322,#299);
#209=LINE('',#1323,#300);
#210=LINE('',#1325,#301);
#211=LINE('',#1327,#302);
#212=LINE('',#1328,#303);
#213=LINE('',#1330,#304);
#214=LINE('',#1332,#305);
#215=LINE('',#1334,#306);
#216=LINE('',#1336,#307);
#217=LINE('',#1337,#308);
#218=LINE('',#1341,#309);
#219=LINE('',#1342,#310);
#220=LINE('',#1347,#311);
#221=LINE('',#1348,#312);
#222=LINE('',#1351,#313);
#223=LINE('',#1352,#314);
#224=LINE('',#1356,#315);
#225=LINE('',#1358,#316);
#226=LINE('',#1360,#317);
#227=LINE('',#1361,#318);
#228=LINE('',#1363,#319);
#229=LINE('',#1365,#320);
#230=LINE('',#1366,#321);
#231=LINE('',#1369,#322);
#232=LINE('',#1370,#323);
#233=LINE('',#1374,#324);
#234=LINE('',#1376,#325);
#235=LINE('',#1378,#326);
#236=LINE('',#1379,#327);
#237=LINE('',#1381,#328);
#238=LINE('',#1382,#329);
#239=LINE('',#1384,#330);
#240=LINE('',#1388,#331);
#241=LINE('',#1389,#332);
#242=LINE('',#1390,#333);
#243=LINE('',#1392,#334);
#244=LINE('',#1394,#335);
#245=LINE('',#1395,#336);
#246=LINE('',#1397,#337);
#247=LINE('',#1399,#338);
#248=LINE('',#1400,#339);
#249=VECTOR('',#911,10.);
#250=VECTOR('',#914,10.);
#251=VECTOR('',#915,10.);
#252=VECTOR('',#916,10.);
#253=VECTOR('',#921,10.);
#254=VECTOR('',#924,10.);
#255=VECTOR('',#925,10.);
#256=VECTOR('',#926,10.);
#257=VECTOR('',#931,10.);
#258=VECTOR('',#934,10.);
#259=VECTOR('',#935,10.);
#260=VECTOR('',#936,10.);
#261=VECTOR('',#943,10.);
#262=VECTOR('',#944,10.);
#263=VECTOR('',#945,10.);
#264=VECTOR('',#946,10.);
#265=VECTOR('',#951,10.);
#266=VECTOR('',#954,10.);
#267=VECTOR('',#957,10.);
#268=VECTOR('',#960,10.);
#269=VECTOR('',#961,10.);
#270=VECTOR('',#962,10.);
#271=VECTOR('',#973,10.);
#272=VECTOR('',#974,10.);
#273=VECTOR('',#977,10.);
#274=VECTOR('',#978,10.);
#275=VECTOR('',#979,10.);
#276=VECTOR('',#982,10.);
#277=VECTOR('',#983,10.);
#278=VECTOR('',#984,10.);
#279=VECTOR('',#989,10.);
#280=VECTOR('',#990,10.);
#281=VECTOR('',#993,10.);
#282=VECTOR('',#994,10.);
#283=VECTOR('',#997,10.);
#284=VECTOR('',#1000,10.);
#285=VECTOR('',#1003,10.);
#286=VECTOR('',#1006,10.);
#287=VECTOR('',#1007,10.);
#288=VECTOR('',#1008,10.);
#289=VECTOR('',#1011,10.);
#290=VECTOR('',#1014,10.);
#291=VECTOR('',#1017,10.);
#292=VECTOR('',#1020,10.);
#293=VECTOR('',#1021,10.);
#294=VECTOR('',#1022,10.);
#295=VECTOR('',#1023,10.);
#296=VECTOR('',#1026,10.);
#297=VECTOR('',#1027,10.);
#298=VECTOR('',#1030,10.);
#299=VECTOR('',#1033,10.);
#300=VECTOR('',#1034,10.);
#301=VECTOR('',#1037,10.);
#302=VECTOR('',#1040,10.);
#303=VECTOR('',#1041,10.);
#304=VECTOR('',#1044,10.);
#305=VECTOR('',#1047,10.);
#306=VECTOR('',#1050,10.);
#307=VECTOR('',#1053,10.);
#308=VECTOR('',#1054,10.);
#309=VECTOR('',#1061,10.);
#310=VECTOR('',#1062,10.);
#311=VECTOR('',#1069,10.);
#312=VECTOR('',#1070,10.);
#313=VECTOR('',#1073,10.);
#314=VECTOR('',#1074,10.);
#315=VECTOR('',#1077,10.);
#316=VECTOR('',#1078,10.);
#317=VECTOR('',#1079,10.);
#318=VECTOR('',#1080,10.);
#319=VECTOR('',#1083,10.);
#320=VECTOR('',#1084,10.);
#321=VECTOR('',#1085,10.);
#322=VECTOR('',#1088,10.);
#323=VECTOR('',#1089,10.);
#324=VECTOR('',#1092,10.);
#325=VECTOR('',#1093,10.);
#326=VECTOR('',#1094,10.);
#327=VECTOR('',#1095,10.);
#328=VECTOR('',#1098,10.);
#329=VECTOR('',#1099,10.);
#330=VECTOR('',#1102,10.);
#331=VECTOR('',#1105,10.);
#332=VECTOR('',#1106,10.);
#333=VECTOR('',#1107,10.);
#334=VECTOR('',#1110,10.);
#335=VECTOR('',#1113,10.);
#336=VECTOR('',#1114,10.);
#337=VECTOR('',#1117,10.);
#338=VECTOR('',#1120,10.);
#339=VECTOR('',#1121,10.);
#340=CIRCLE('',#838,0.8);
#341=CIRCLE('',#841,0.6);
#342=CIRCLE('',#844,0.6);
#343=CIRCLE('',#847,0.8);
#344=CIRCLE('',#850,0.6);
#345=CIRCLE('',#852,0.6);
#346=CIRCLE('',#855,0.8);
#347=CIRCLE('',#857,0.8);
#348=CIRCLE('',#862,0.8);
#349=CIRCLE('',#865,0.6);
#350=CIRCLE('',#866,0.6);
#351=CIRCLE('',#867,0.8);
#352=CIRCLE('',#868,0.8);
#353=CIRCLE('',#869,0.6);
#354=CIRCLE('',#870,0.6);
#355=CIRCLE('',#871,0.8);
#356=ELLIPSE('',#837,2.56176045807651,0.8);
#357=ELLIPSE('',#840,1.92132034355738,0.6);
#358=ELLIPSE('',#843,1.92132034355738,0.6);
#359=ELLIPSE('',#846,2.56176045807651,0.8);
#360=ELLIPSE('',#849,1.97989898731127,0.6);
#361=ELLIPSE('',#851,1.97989898731127,0.6);
#362=ELLIPSE('',#854,2.63986531641502,0.8);
#363=ELLIPSE('',#856,2.63986531641502,0.8);
#364=VERTEX_POINT('',#1138);
#365=VERTEX_POINT('',#1139);
#366=VERTEX_POINT('',#1141);
#367=VERTEX_POINT('',#1145);
#368=VERTEX_POINT('',#1147);
#369=VERTEX_POINT('',#1156);
#370=VERTEX_POINT('',#1158);
#371=VERTEX_POINT('',#1162);
#372=VERTEX_POINT('',#1164);
#373=VERTEX_POINT('',#1173);
#374=VERTEX_POINT('',#1175);
#375=VERTEX_POINT('',#1179);
#376=VERTEX_POINT('',#1181);
#377=VERTEX_POINT('',#1190);
#378=VERTEX_POINT('',#1194);
#379=VERTEX_POINT('',#1195);
#380=VERTEX_POINT('',#1197);
#381=VERTEX_POINT('',#1199);
#382=VERTEX_POINT('',#1208);
#383=VERTEX_POINT('',#1210);
#384=VERTEX_POINT('',#1219);
#385=VERTEX_POINT('',#1220);
#386=VERTEX_POINT('',#1222);
#387=VERTEX_POINT('',#1224);
#388=VERTEX_POINT('',#1228);
#389=VERTEX_POINT('',#1230);
#390=VERTEX_POINT('',#1239);
#391=VERTEX_POINT('',#1248);
#392=VERTEX_POINT('',#1255);
#393=VERTEX_POINT('',#1257);
#394=VERTEX_POINT('',#1261);
#395=VERTEX_POINT('',#1263);
#396=VERTEX_POINT('',#1267);
#397=VERTEX_POINT('',#1268);
#398=VERTEX_POINT('',#1273);
#399=VERTEX_POINT('',#1277);
#400=VERTEX_POINT('',#1279);
#401=VERTEX_POINT('',#1281);
#402=VERTEX_POINT('',#1283);
#403=VERTEX_POINT('',#1285);
#404=VERTEX_POINT('',#1287);
#405=VERTEX_POINT('',#1289);
#406=VERTEX_POINT('',#1291);
#407=VERTEX_POINT('',#1293);
#408=VERTEX_POINT('',#1295);
#409=VERTEX_POINT('',#1297);
#410=VERTEX_POINT('',#1299);
#411=VERTEX_POINT('',#1301);
#412=VERTEX_POINT('',#1303);
#413=VERTEX_POINT('',#1305);
#414=VERTEX_POINT('',#1307);
#415=VERTEX_POINT('',#1309);
#416=VERTEX_POINT('',#1311);
#417=VERTEX_POINT('',#1313);
#418=VERTEX_POINT('',#1346);
#419=VERTEX_POINT('',#1350);
#420=VERTEX_POINT('',#1354);
#421=VERTEX_POINT('',#1355);
#422=VERTEX_POINT('',#1357);
#423=VERTEX_POINT('',#1359);
#424=VERTEX_POINT('',#1364);
#425=VERTEX_POINT('',#1368);
#426=VERTEX_POINT('',#1372);
#427=VERTEX_POINT('',#1373);
#428=VERTEX_POINT('',#1375);
#429=VERTEX_POINT('',#1377);
#430=VERTEX_POINT('',#1386);
#431=VERTEX_POINT('',#1387);
#432=EDGE_CURVE('',#364,#365,#356,.T.);
#433=EDGE_CURVE('',#364,#366,#340,.T.);
#434=EDGE_CURVE('',#366,#365,#158,.T.);
#435=EDGE_CURVE('',#365,#367,#159,.T.);
#436=EDGE_CURVE('',#368,#366,#160,.T.);
#437=EDGE_CURVE('',#368,#367,#161,.T.);
#438=EDGE_CURVE('',#367,#369,#357,.T.);
#439=EDGE_CURVE('',#368,#370,#341,.T.);
#440=EDGE_CURVE('',#370,#369,#162,.T.);
#441=EDGE_CURVE('',#371,#370,#163,.T.);
#442=EDGE_CURVE('',#371,#372,#164,.T.);
#443=EDGE_CURVE('',#369,#372,#165,.T.);
#444=EDGE_CURVE('',#372,#373,#358,.T.);
#445=EDGE_CURVE('',#371,#374,#342,.T.);
#446=EDGE_CURVE('',#374,#373,#166,.T.);
#447=EDGE_CURVE('',#373,#375,#167,.T.);
#448=EDGE_CURVE('',#376,#374,#168,.T.);
#449=EDGE_CURVE('',#376,#375,#169,.T.);
#450=EDGE_CURVE('',#375,#377,#359,.T.);
#451=EDGE_CURVE('',#377,#376,#343,.F.);
#452=EDGE_CURVE('',#378,#379,#170,.T.);
#453=EDGE_CURVE('',#380,#378,#171,.T.);
#454=EDGE_CURVE('',#381,#380,#172,.T.);
#455=EDGE_CURVE('',#381,#379,#173,.T.);
#456=EDGE_CURVE('',#379,#382,#360,.T.);
#457=EDGE_CURVE('',#381,#383,#344,.T.);
#458=EDGE_CURVE('',#383,#382,#174,.T.);
#459=EDGE_CURVE('',#384,#385,#361,.T.);
#460=EDGE_CURVE('',#386,#384,#175,.T.);
#461=EDGE_CURVE('',#386,#387,#345,.T.);
#462=EDGE_CURVE('',#387,#385,#176,.T.);
#463=EDGE_CURVE('',#385,#388,#177,.T.);
#464=EDGE_CURVE('',#389,#387,#178,.T.);
#465=EDGE_CURVE('',#389,#388,#179,.T.);
#466=EDGE_CURVE('',#388,#390,#362,.T.);
#467=EDGE_CURVE('',#390,#389,#346,.F.);
#468=EDGE_CURVE('',#391,#378,#363,.T.);
#469=EDGE_CURVE('',#391,#380,#347,.T.);
#470=EDGE_CURVE('',#386,#383,#180,.T.);
#471=EDGE_CURVE('',#384,#382,#181,.T.);
#472=EDGE_CURVE('',#390,#392,#182,.T.);
#473=EDGE_CURVE('',#392,#393,#183,.T.);
#474=EDGE_CURVE('',#393,#384,#184,.T.);
#475=EDGE_CURVE('',#382,#394,#185,.T.);
#476=EDGE_CURVE('',#395,#394,#186,.T.);
#477=EDGE_CURVE('',#395,#391,#187,.T.);
#478=EDGE_CURVE('',#396,#397,#348,.T.);
#479=EDGE_CURVE('',#397,#390,#188,.T.);
#480=EDGE_CURVE('',#389,#396,#189,.T.);
#481=EDGE_CURVE('',#398,#397,#190,.T.);
#482=EDGE_CURVE('',#398,#392,#191,.T.);
#483=EDGE_CURVE('',#396,#399,#192,.T.);
#484=EDGE_CURVE('',#400,#399,#349,.T.);
#485=EDGE_CURVE('',#400,#401,#193,.T.);
#486=EDGE_CURVE('',#402,#401,#350,.T.);
#487=EDGE_CURVE('',#402,#403,#194,.T.);
#488=EDGE_CURVE('',#404,#403,#351,.T.);
#489=EDGE_CURVE('',#404,#405,#195,.T.);
#490=EDGE_CURVE('',#406,#405,#196,.T.);
#491=EDGE_CURVE('',#407,#406,#197,.T.);
#492=EDGE_CURVE('',#408,#407,#352,.T.);
#493=EDGE_CURVE('',#408,#409,#198,.T.);
#494=EDGE_CURVE('',#410,#409,#353,.T.);
#495=EDGE_CURVE('',#410,#411,#199,.T.);
#496=EDGE_CURVE('',#412,#411,#354,.T.);
#497=EDGE_CURVE('',#412,#413,#200,.T.);
#498=EDGE_CURVE('',#414,#413,#355,.T.);
#499=EDGE_CURVE('',#415,#414,#201,.T.);
#500=EDGE_CURVE('',#416,#415,#202,.T.);
#501=EDGE_CURVE('',#416,#417,#203,.T.);
#502=EDGE_CURVE('',#417,#398,#204,.T.);
#503=EDGE_CURVE('',#364,#414,#205,.T.);
#504=EDGE_CURVE('',#413,#366,#206,.T.);
#505=EDGE_CURVE('',#368,#412,#207,.T.);
#506=EDGE_CURVE('',#407,#377,#208,.T.);
#507=EDGE_CURVE('',#376,#408,#209,.T.);
#508=EDGE_CURVE('',#409,#374,#210,.T.);
#509=EDGE_CURVE('',#391,#404,#211,.T.);
#510=EDGE_CURVE('',#403,#380,#212,.T.);
#511=EDGE_CURVE('',#405,#395,#213,.T.);
#512=EDGE_CURVE('',#411,#370,#214,.T.);
#513=EDGE_CURVE('',#371,#410,#215,.T.);
#514=EDGE_CURVE('',#386,#400,#216,.T.);
#515=EDGE_CURVE('',#399,#387,#217,.T.);
#516=EDGE_CURVE('',#381,#402,#218,.T.);
#517=EDGE_CURVE('',#401,#383,#219,.T.);
#518=EDGE_CURVE('',#406,#418,#220,.T.);
#519=EDGE_CURVE('',#377,#418,#221,.T.);
#520=EDGE_CURVE('',#419,#364,#222,.T.);
#521=EDGE_CURVE('',#415,#419,#223,.T.);
#522=EDGE_CURVE('',#420,#421,#224,.T.);
#523=EDGE_CURVE('',#420,#422,#225,.T.);
#524=EDGE_CURVE('',#423,#422,#226,.T.);
#525=EDGE_CURVE('',#421,#423,#227,.T.);
#526=EDGE_CURVE('',#421,#393,#228,.T.);
#527=EDGE_CURVE('',#424,#423,#229,.T.);
#528=EDGE_CURVE('',#393,#424,#230,.T.);
#529=EDGE_CURVE('',#425,#424,#231,.T.);
#530=EDGE_CURVE('',#394,#425,#232,.T.);
#531=EDGE_CURVE('',#426,#427,#233,.T.);
#532=EDGE_CURVE('',#426,#428,#234,.T.);
#533=EDGE_CURVE('',#429,#428,#235,.T.);
#534=EDGE_CURVE('',#427,#429,#236,.T.);
#535=EDGE_CURVE('',#427,#420,#237,.T.);
#536=EDGE_CURVE('',#422,#429,#238,.T.);
#537=EDGE_CURVE('',#428,#425,#239,.T.);
#538=EDGE_CURVE('',#430,#431,#240,.T.);
#539=EDGE_CURVE('',#431,#420,#241,.T.);
#540=EDGE_CURVE('',#430,#421,#242,.T.);
#541=EDGE_CURVE('',#392,#430,#243,.T.);
#542=EDGE_CURVE('',#418,#426,#244,.T.);
#543=EDGE_CURVE('',#419,#427,#245,.T.);
#544=EDGE_CURVE('',#431,#419,#246,.T.);
#545=EDGE_CURVE('',#416,#431,#247,.T.);
#546=EDGE_CURVE('',#417,#430,#248,.T.);
#547=ORIENTED_EDGE('',*,*,#432,.F.);
#548=ORIENTED_EDGE('',*,*,#433,.T.);
#549=ORIENTED_EDGE('',*,*,#434,.T.);
#550=ORIENTED_EDGE('',*,*,#435,.F.);
#551=ORIENTED_EDGE('',*,*,#434,.F.);
#552=ORIENTED_EDGE('',*,*,#436,.F.);
#553=ORIENTED_EDGE('',*,*,#437,.T.);
#554=ORIENTED_EDGE('',*,*,#438,.F.);
#555=ORIENTED_EDGE('',*,*,#437,.F.);
#556=ORIENTED_EDGE('',*,*,#439,.T.);
#557=ORIENTED_EDGE('',*,*,#440,.T.);
#558=ORIENTED_EDGE('',*,*,#441,.F.);
#559=ORIENTED_EDGE('',*,*,#442,.T.);
#560=ORIENTED_EDGE('',*,*,#443,.F.);
#561=ORIENTED_EDGE('',*,*,#440,.F.);
#562=ORIENTED_EDGE('',*,*,#444,.F.);
#563=ORIENTED_EDGE('',*,*,#442,.F.);
#564=ORIENTED_EDGE('',*,*,#445,.T.);
#565=ORIENTED_EDGE('',*,*,#446,.T.);
#566=ORIENTED_EDGE('',*,*,#447,.F.);
#567=ORIENTED_EDGE('',*,*,#446,.F.);
#568=ORIENTED_EDGE('',*,*,#448,.F.);
#569=ORIENTED_EDGE('',*,*,#449,.T.);
#570=ORIENTED_EDGE('',*,*,#450,.F.);
#571=ORIENTED_EDGE('',*,*,#449,.F.);
#572=ORIENTED_EDGE('',*,*,#451,.F.);
#573=ORIENTED_EDGE('',*,*,#452,.F.);
#574=ORIENTED_EDGE('',*,*,#453,.F.);
#575=ORIENTED_EDGE('',*,*,#454,.F.);
#576=ORIENTED_EDGE('',*,*,#455,.T.);
#577=ORIENTED_EDGE('',*,*,#456,.F.);
#578=ORIENTED_EDGE('',*,*,#455,.F.);
#579=ORIENTED_EDGE('',*,*,#457,.T.);
#580=ORIENTED_EDGE('',*,*,#458,.T.);
#581=ORIENTED_EDGE('',*,*,#459,.F.);
#582=ORIENTED_EDGE('',*,*,#460,.F.);
#583=ORIENTED_EDGE('',*,*,#461,.T.);
#584=ORIENTED_EDGE('',*,*,#462,.T.);
#585=ORIENTED_EDGE('',*,*,#463,.F.);
#586=ORIENTED_EDGE('',*,*,#462,.F.);
#587=ORIENTED_EDGE('',*,*,#464,.F.);
#588=ORIENTED_EDGE('',*,*,#465,.T.);
#589=ORIENTED_EDGE('',*,*,#466,.F.);
#590=ORIENTED_EDGE('',*,*,#465,.F.);
#591=ORIENTED_EDGE('',*,*,#467,.F.);
#592=ORIENTED_EDGE('',*,*,#468,.F.);
#593=ORIENTED_EDGE('',*,*,#469,.T.);
#594=ORIENTED_EDGE('',*,*,#453,.T.);
#595=ORIENTED_EDGE('',*,*,#470,.F.);
#596=ORIENTED_EDGE('',*,*,#460,.T.);
#597=ORIENTED_EDGE('',*,*,#471,.T.);
#598=ORIENTED_EDGE('',*,*,#458,.F.);
#599=ORIENTED_EDGE('',*,*,#466,.T.);
#600=ORIENTED_EDGE('',*,*,#472,.T.);
#601=ORIENTED_EDGE('',*,*,#473,.T.);
#602=ORIENTED_EDGE('',*,*,#474,.T.);
#603=ORIENTED_EDGE('',*,*,#459,.T.);
#604=ORIENTED_EDGE('',*,*,#463,.T.);
#605=ORIENTED_EDGE('',*,*,#468,.T.);
#606=ORIENTED_EDGE('',*,*,#452,.T.);
#607=ORIENTED_EDGE('',*,*,#456,.T.);
#608=ORIENTED_EDGE('',*,*,#475,.T.);
#609=ORIENTED_EDGE('',*,*,#476,.F.);
#610=ORIENTED_EDGE('',*,*,#477,.T.);
#611=ORIENTED_EDGE('',*,*,#478,.T.);
#612=ORIENTED_EDGE('',*,*,#479,.T.);
#613=ORIENTED_EDGE('',*,*,#467,.T.);
#614=ORIENTED_EDGE('',*,*,#480,.T.);
#615=ORIENTED_EDGE('',*,*,#479,.F.);
#616=ORIENTED_EDGE('',*,*,#481,.F.);
#617=ORIENTED_EDGE('',*,*,#482,.T.);
#618=ORIENTED_EDGE('',*,*,#472,.F.);
#619=ORIENTED_EDGE('',*,*,#478,.F.);
#620=ORIENTED_EDGE('',*,*,#483,.T.);
#621=ORIENTED_EDGE('',*,*,#484,.F.);
#622=ORIENTED_EDGE('',*,*,#485,.T.);
#623=ORIENTED_EDGE('',*,*,#486,.F.);
#624=ORIENTED_EDGE('',*,*,#487,.T.);
#625=ORIENTED_EDGE('',*,*,#488,.F.);
#626=ORIENTED_EDGE('',*,*,#489,.T.);
#627=ORIENTED_EDGE('',*,*,#490,.F.);
#628=ORIENTED_EDGE('',*,*,#491,.F.);
#629=ORIENTED_EDGE('',*,*,#492,.F.);
#630=ORIENTED_EDGE('',*,*,#493,.T.);
#631=ORIENTED_EDGE('',*,*,#494,.F.);
#632=ORIENTED_EDGE('',*,*,#495,.T.);
#633=ORIENTED_EDGE('',*,*,#496,.F.);
#634=ORIENTED_EDGE('',*,*,#497,.T.);
#635=ORIENTED_EDGE('',*,*,#498,.F.);
#636=ORIENTED_EDGE('',*,*,#499,.F.);
#637=ORIENTED_EDGE('',*,*,#500,.F.);
#638=ORIENTED_EDGE('',*,*,#501,.T.);
#639=ORIENTED_EDGE('',*,*,#502,.T.);
#640=ORIENTED_EDGE('',*,*,#481,.T.);
#641=ORIENTED_EDGE('',*,*,#433,.F.);
#642=ORIENTED_EDGE('',*,*,#503,.T.);
#643=ORIENTED_EDGE('',*,*,#498,.T.);
#644=ORIENTED_EDGE('',*,*,#504,.T.);
#645=ORIENTED_EDGE('',*,*,#504,.F.);
#646=ORIENTED_EDGE('',*,*,#497,.F.);
#647=ORIENTED_EDGE('',*,*,#505,.F.);
#648=ORIENTED_EDGE('',*,*,#436,.T.);
#649=ORIENTED_EDGE('',*,*,#492,.T.);
#650=ORIENTED_EDGE('',*,*,#506,.T.);
#651=ORIENTED_EDGE('',*,*,#451,.T.);
#652=ORIENTED_EDGE('',*,*,#507,.T.);
#653=ORIENTED_EDGE('',*,*,#507,.F.);
#654=ORIENTED_EDGE('',*,*,#448,.T.);
#655=ORIENTED_EDGE('',*,*,#508,.F.);
#656=ORIENTED_EDGE('',*,*,#493,.F.);
#657=ORIENTED_EDGE('',*,*,#469,.F.);
#658=ORIENTED_EDGE('',*,*,#509,.T.);
#659=ORIENTED_EDGE('',*,*,#488,.T.);
#660=ORIENTED_EDGE('',*,*,#510,.T.);
#661=ORIENTED_EDGE('',*,*,#509,.F.);
#662=ORIENTED_EDGE('',*,*,#477,.F.);
#663=ORIENTED_EDGE('',*,*,#511,.F.);
#664=ORIENTED_EDGE('',*,*,#489,.F.);
#665=ORIENTED_EDGE('',*,*,#439,.F.);
#666=ORIENTED_EDGE('',*,*,#505,.T.);
#667=ORIENTED_EDGE('',*,*,#496,.T.);
#668=ORIENTED_EDGE('',*,*,#512,.T.);
#669=ORIENTED_EDGE('',*,*,#512,.F.);
#670=ORIENTED_EDGE('',*,*,#495,.F.);
#671=ORIENTED_EDGE('',*,*,#513,.F.);
#672=ORIENTED_EDGE('',*,*,#441,.T.);
#673=ORIENTED_EDGE('',*,*,#461,.F.);
#674=ORIENTED_EDGE('',*,*,#514,.T.);
#675=ORIENTED_EDGE('',*,*,#484,.T.);
#676=ORIENTED_EDGE('',*,*,#515,.T.);
#677=ORIENTED_EDGE('',*,*,#480,.F.);
#678=ORIENTED_EDGE('',*,*,#464,.T.);
#679=ORIENTED_EDGE('',*,*,#515,.F.);
#680=ORIENTED_EDGE('',*,*,#483,.F.);
#681=ORIENTED_EDGE('',*,*,#445,.F.);
#682=ORIENTED_EDGE('',*,*,#513,.T.);
#683=ORIENTED_EDGE('',*,*,#494,.T.);
#684=ORIENTED_EDGE('',*,*,#508,.T.);
#685=ORIENTED_EDGE('',*,*,#457,.F.);
#686=ORIENTED_EDGE('',*,*,#516,.T.);
#687=ORIENTED_EDGE('',*,*,#486,.T.);
#688=ORIENTED_EDGE('',*,*,#517,.T.);
#689=ORIENTED_EDGE('',*,*,#514,.F.);
#690=ORIENTED_EDGE('',*,*,#470,.T.);
#691=ORIENTED_EDGE('',*,*,#517,.F.);
#692=ORIENTED_EDGE('',*,*,#485,.F.);
#693=ORIENTED_EDGE('',*,*,#510,.F.);
#694=ORIENTED_EDGE('',*,*,#487,.F.);
#695=ORIENTED_EDGE('',*,*,#516,.F.);
#696=ORIENTED_EDGE('',*,*,#454,.T.);
#697=ORIENTED_EDGE('',*,*,#506,.F.);
#698=ORIENTED_EDGE('',*,*,#491,.T.);
#699=ORIENTED_EDGE('',*,*,#518,.T.);
#700=ORIENTED_EDGE('',*,*,#519,.F.);
#701=ORIENTED_EDGE('',*,*,#503,.F.);
#702=ORIENTED_EDGE('',*,*,#520,.F.);
#703=ORIENTED_EDGE('',*,*,#521,.F.);
#704=ORIENTED_EDGE('',*,*,#499,.T.);
#705=ORIENTED_EDGE('',*,*,#522,.F.);
#706=ORIENTED_EDGE('',*,*,#523,.T.);
#707=ORIENTED_EDGE('',*,*,#524,.F.);
#708=ORIENTED_EDGE('',*,*,#525,.F.);
#709=ORIENTED_EDGE('',*,*,#526,.F.);
#710=ORIENTED_EDGE('',*,*,#525,.T.);
#711=ORIENTED_EDGE('',*,*,#527,.F.);
#712=ORIENTED_EDGE('',*,*,#528,.F.);
#713=ORIENTED_EDGE('',*,*,#474,.F.);
#714=ORIENTED_EDGE('',*,*,#528,.T.);
#715=ORIENTED_EDGE('',*,*,#529,.F.);
#716=ORIENTED_EDGE('',*,*,#530,.F.);
#717=ORIENTED_EDGE('',*,*,#475,.F.);
#718=ORIENTED_EDGE('',*,*,#471,.F.);
#719=ORIENTED_EDGE('',*,*,#531,.F.);
#720=ORIENTED_EDGE('',*,*,#532,.T.);
#721=ORIENTED_EDGE('',*,*,#533,.F.);
#722=ORIENTED_EDGE('',*,*,#534,.F.);
#723=ORIENTED_EDGE('',*,*,#535,.F.);
#724=ORIENTED_EDGE('',*,*,#534,.T.);
#725=ORIENTED_EDGE('',*,*,#536,.F.);
#726=ORIENTED_EDGE('',*,*,#523,.F.);
#727=ORIENTED_EDGE('',*,*,#536,.T.);
#728=ORIENTED_EDGE('',*,*,#533,.T.);
#729=ORIENTED_EDGE('',*,*,#537,.T.);
#730=ORIENTED_EDGE('',*,*,#529,.T.);
#731=ORIENTED_EDGE('',*,*,#527,.T.);
#732=ORIENTED_EDGE('',*,*,#524,.T.);
#733=ORIENTED_EDGE('',*,*,#538,.T.);
#734=ORIENTED_EDGE('',*,*,#539,.T.);
#735=ORIENTED_EDGE('',*,*,#522,.T.);
#736=ORIENTED_EDGE('',*,*,#540,.F.);
#737=ORIENTED_EDGE('',*,*,#541,.T.);
#738=ORIENTED_EDGE('',*,*,#540,.T.);
#739=ORIENTED_EDGE('',*,*,#526,.T.);
#740=ORIENTED_EDGE('',*,*,#473,.F.);
#741=ORIENTED_EDGE('',*,*,#450,.T.);
#742=ORIENTED_EDGE('',*,*,#519,.T.);
#743=ORIENTED_EDGE('',*,*,#542,.T.);
#744=ORIENTED_EDGE('',*,*,#531,.T.);
#745=ORIENTED_EDGE('',*,*,#543,.F.);
#746=ORIENTED_EDGE('',*,*,#520,.T.);
#747=ORIENTED_EDGE('',*,*,#432,.T.);
#748=ORIENTED_EDGE('',*,*,#435,.T.);
#749=ORIENTED_EDGE('',*,*,#438,.T.);
#750=ORIENTED_EDGE('',*,*,#443,.T.);
#751=ORIENTED_EDGE('',*,*,#444,.T.);
#752=ORIENTED_EDGE('',*,*,#447,.T.);
#753=ORIENTED_EDGE('',*,*,#544,.T.);
#754=ORIENTED_EDGE('',*,*,#543,.T.);
#755=ORIENTED_EDGE('',*,*,#535,.T.);
#756=ORIENTED_EDGE('',*,*,#539,.F.);
#757=ORIENTED_EDGE('',*,*,#501,.F.);
#758=ORIENTED_EDGE('',*,*,#545,.T.);
#759=ORIENTED_EDGE('',*,*,#538,.F.);
#760=ORIENTED_EDGE('',*,*,#546,.F.);
#761=ORIENTED_EDGE('',*,*,#502,.F.);
#762=ORIENTED_EDGE('',*,*,#546,.T.);
#763=ORIENTED_EDGE('',*,*,#541,.F.);
#764=ORIENTED_EDGE('',*,*,#482,.F.);
#765=ORIENTED_EDGE('',*,*,#490,.T.);
#766=ORIENTED_EDGE('',*,*,#511,.T.);
#767=ORIENTED_EDGE('',*,*,#476,.T.);
#768=ORIENTED_EDGE('',*,*,#530,.T.);
#769=ORIENTED_EDGE('',*,*,#537,.F.);
#770=ORIENTED_EDGE('',*,*,#532,.F.);
#771=ORIENTED_EDGE('',*,*,#542,.F.);
#772=ORIENTED_EDGE('',*,*,#518,.F.);
#773=ORIENTED_EDGE('',*,*,#500,.T.);
#774=ORIENTED_EDGE('',*,*,#521,.T.);
#775=ORIENTED_EDGE('',*,*,#544,.F.);
#776=ORIENTED_EDGE('',*,*,#545,.F.);
#777=(
BOUNDED_SURFACE()
B_SPLINE_SURFACE(1,2,((#1132,#1133,#1134),(#1135,#1136,#1137)),
 .UNSPECIFIED.,.F.,.F.,.F.)
B_SPLINE_SURFACE_WITH_KNOTS((2,2),(3,3),(-0.48751423143499,0.414851636680769),
(1.57079632679541,2.35619449019333),.UNSPECIFIED.)
GEOMETRIC_REPRESENTATION_ITEM()
RATIONAL_B_SPLINE_SURFACE(((1.,0.923879532511197,1.),(1.,0.923879532511197,
1.)))
REPRESENTATION_ITEM('')
SURFACE()
);
#778=(
BOUNDED_SURFACE()
B_SPLINE_SURFACE(1,2,((#1150,#1151,#1152),(#1153,#1154,#1155)),
 .UNSPECIFIED.,.F.,.F.,.F.)
B_SPLINE_SURFACE_WITH_KNOTS((2,2),(3,3),(0.344724618972288,3.08086978513961),
(-1.57079632679466,-0.785398163396462),.UNSPECIFIED.)
GEOMETRIC_REPRESENTATION_ITEM()
RATIONAL_B_SPLINE_SURFACE(((1.,0.923879532511143,1.),(1.,0.923879532511143,
1.)))
REPRESENTATION_ITEM('')
SURFACE()
);
#779=(
BOUNDED_SURFACE()
B_SPLINE_SURFACE(1,2,((#1167,#1168,#1169),(#1170,#1171,#1172)),
 .UNSPECIFIED.,.F.,.F.,.F.)
B_SPLINE_SURFACE_WITH_KNOTS((2,2),(3,3),(0.344724618972632,3.08086978513961),
(-2.35619449019254,-1.57079632679466),.UNSPECIFIED.)
GEOMETRIC_REPRESENTATION_ITEM()
RATIONAL_B_SPLINE_SURFACE(((1.,0.923879532511203,1.),(1.,0.923879532511203,
1.)))
REPRESENTATION_ITEM('')
SURFACE()
);
#780=(
BOUNDED_SURFACE()
B_SPLINE_SURFACE(1,2,((#1184,#1185,#1186),(#1187,#1188,#1189)),
 .UNSPECIFIED.,.F.,.F.,.F.)
B_SPLINE_SURFACE_WITH_KNOTS((2,2),(3,3),(-0.487514231435376,0.414851636680459),
(0.785398163397252,1.57079632679541),.UNSPECIFIED.)
GEOMETRIC_REPRESENTATION_ITEM()
RATIONAL_B_SPLINE_SURFACE(((1.,0.92387953251115,1.),(1.,0.92387953251115,
1.)))
REPRESENTATION_ITEM('')
SURFACE()
);
#781=(
BOUNDED_SURFACE()
B_SPLINE_SURFACE(1,2,((#1202,#1203,#1204),(#1205,#1206,#1207)),
 .UNSPECIFIED.,.F.,.F.,.F.)
B_SPLINE_SURFACE_WITH_KNOTS((2,2),(3,3),(0.35082320772269,3.18355818778991),
(-1.57079632679466,-0.785398163396938),.UNSPECIFIED.)
GEOMETRIC_REPRESENTATION_ITEM()
RATIONAL_B_SPLINE_SURFACE(((1.,0.923879532511234,1.),(1.,0.923879532511234,
1.)))
REPRESENTATION_ITEM('')
SURFACE()
);
#782=(
BOUNDED_SURFACE()
B_SPLINE_SURFACE(1,2,((#1213,#1214,#1215),(#1216,#1217,#1218)),
 .UNSPECIFIED.,.F.,.F.,.F.)
B_SPLINE_SURFACE_WITH_KNOTS((2,2),(3,3),(0.35082320772269,3.18355818778991),
(-2.35619449019307,-1.57079632679466),.UNSPECIFIED.)
GEOMETRIC_REPRESENTATION_ITEM()
RATIONAL_B_SPLINE_SURFACE(((1.,0.923879532511103,1.),(1.,0.923879532511103,
1.)))
REPRESENTATION_ITEM('')
SURFACE()
);
#783=(
BOUNDED_SURFACE()
B_SPLINE_SURFACE(1,2,((#1233,#1234,#1235),(#1236,#1237,#1238)),
 .UNSPECIFIED.,.F.,.F.,.F.)
B_SPLINE_SURFACE_WITH_KNOTS((2,2),(3,3),(-0.496138938357315,0.436303666541251),
(0.785398163396728,1.57079632679541),.UNSPECIFIED.)
GEOMETRIC_REPRESENTATION_ITEM()
RATIONAL_B_SPLINE_SURFACE(((1.,0.923879532511051,1.),(1.,0.923879532511051,
1.)))
REPRESENTATION_ITEM('')
SURFACE()
);
#784=(
BOUNDED_SURFACE()
B_SPLINE_SURFACE(1,2,((#1242,#1243,#1244),(#1245,#1246,#1247)),
 .UNSPECIFIED.,.F.,.F.,.F.)
B_SPLINE_SURFACE_WITH_KNOTS((2,2),(3,3),(-0.496138938356915,0.436303666539357),
(1.57079632679541,2.35619449019286),.UNSPECIFIED.)
GEOMETRIC_REPRESENTATION_ITEM()
RATIONAL_B_SPLINE_SURFACE(((1.,0.923879532511287,1.),(1.,0.923879532511287,
1.)))
REPRESENTATION_ITEM('')
SURFACE()
);
#785=ADVANCED_FACE('',(#60),#777,.F.);
#786=ADVANCED_FACE('',(#61),#27,.F.);
#787=ADVANCED_FACE('',(#62),#778,.T.);
#788=ADVANCED_FACE('',(#63),#28,.F.);
#789=ADVANCED_FACE('',(#64),#779,.T.);
#790=ADVANCED_FACE('',(#65),#29,.F.);
#791=ADVANCED_FACE('',(#66),#780,.F.);
#792=ADVANCED_FACE('',(#67),#30,.F.);
#793=ADVANCED_FACE('',(#68),#781,.T.);
#794=ADVANCED_FACE('',(#69),#782,.T.);
#795=ADVANCED_FACE('',(#70),#31,.F.);
#796=ADVANCED_FACE('',(#71),#783,.F.);
#797=ADVANCED_FACE('',(#72),#784,.F.);
#798=ADVANCED_FACE('',(#73),#32,.F.);
#799=ADVANCED_FACE('',(#74),#33,.F.);
#800=ADVANCED_FACE('',(#75),#34,.F.);
#801=ADVANCED_FACE('',(#76),#19,.T.);
#802=ADVANCED_FACE('',(#77),#35,.T.);
#803=ADVANCED_FACE('',(#78),#36,.F.);
#804=ADVANCED_FACE('',(#79),#20,.T.);
#805=ADVANCED_FACE('',(#80),#37,.F.);
#806=ADVANCED_FACE('',(#81),#21,.T.);
#807=ADVANCED_FACE('',(#82),#38,.F.);
#808=ADVANCED_FACE('',(#83),#22,.T.);
#809=ADVANCED_FACE('',(#84),#39,.T.);
#810=ADVANCED_FACE('',(#85),#23,.F.);
#811=ADVANCED_FACE('',(#86),#40,.F.);
#812=ADVANCED_FACE('',(#87),#24,.F.);
#813=ADVANCED_FACE('',(#88),#41,.F.);
#814=ADVANCED_FACE('',(#89),#25,.F.);
#815=ADVANCED_FACE('',(#90),#26,.F.);
#816=ADVANCED_FACE('',(#91),#42,.F.);
#817=ADVANCED_FACE('',(#92),#43,.F.);
#818=ADVANCED_FACE('',(#93),#44,.T.);
#819=ADVANCED_FACE('',(#94),#45,.T.);
#820=ADVANCED_FACE('',(#95),#46,.T.);
#821=ADVANCED_FACE('',(#96),#47,.T.);
#822=ADVANCED_FACE('',(#97),#48,.T.);
#823=ADVANCED_FACE('',(#98),#49,.T.);
#824=ADVANCED_FACE('',(#99),#50,.T.);
#825=ADVANCED_FACE('',(#100),#51,.T.);
#826=ADVANCED_FACE('',(#101),#52,.F.);
#827=ADVANCED_FACE('',(#102),#53,.F.);
#828=ADVANCED_FACE('',(#103),#54,.F.);
#829=ADVANCED_FACE('',(#104),#55,.F.);
#830=ADVANCED_FACE('',(#105),#56,.T.);
#831=ADVANCED_FACE('',(#106),#57,.T.);
#832=ADVANCED_FACE('',(#107),#58,.T.);
#833=ADVANCED_FACE('',(#108),#59,.T.);
#834=CLOSED_SHELL('',(#785,#786,#787,#788,#789,#790,#791,#792,#793,#794,
#795,#796,#797,#798,#799,#800,#801,#802,#803,#804,#805,#806,#807,#808,#809,
#810,#811,#812,#813,#814,#815,#816,#817,#818,#819,#820,#821,#822,#823,#824,
#825,#826,#827,#828,#829,#830,#831,#832,#833));
#835=AXIS2_PLACEMENT_3D('',#1130,#903,#904);
#836=AXIS2_PLACEMENT_3D('',#1131,#905,#906);
#837=AXIS2_PLACEMENT_3D('',#1140,#907,#908);
#838=AXIS2_PLACEMENT_3D('',#1142,#909,#910);
#839=AXIS2_PLACEMENT_3D('',#1144,#912,#913);
#840=AXIS2_PLACEMENT_3D('',#1157,#917,#918);
#841=AXIS2_PLACEMENT_3D('',#1159,#919,#920);
#842=AXIS2_PLACEMENT_3D('',#1161,#922,#923);
#843=AXIS2_PLACEMENT_3D('',#1174,#927,#928);
#844=AXIS2_PLACEMENT_3D('',#1176,#929,#930);
#845=AXIS2_PLACEMENT_3D('',#1178,#932,#933);
#846=AXIS2_PLACEMENT_3D('',#1191,#937,#938);
#847=AXIS2_PLACEMENT_3D('',#1192,#939,#940);
#848=AXIS2_PLACEMENT_3D('',#1193,#941,#942);
#849=AXIS2_PLACEMENT_3D('',#1209,#947,#948);
#850=AXIS2_PLACEMENT_3D('',#1211,#949,#950);
#851=AXIS2_PLACEMENT_3D('',#1221,#952,#953);
#852=AXIS2_PLACEMENT_3D('',#1225,#955,#956);
#853=AXIS2_PLACEMENT_3D('',#1227,#958,#959);
#854=AXIS2_PLACEMENT_3D('',#1240,#963,#964);
#855=AXIS2_PLACEMENT_3D('',#1241,#965,#966);
#856=AXIS2_PLACEMENT_3D('',#1249,#967,#968);
#857=AXIS2_PLACEMENT_3D('',#1250,#969,#970);
#858=AXIS2_PLACEMENT_3D('',#1251,#971,#972);
#859=AXIS2_PLACEMENT_3D('',#1254,#975,#976);
#860=AXIS2_PLACEMENT_3D('',#1260,#980,#981);
#861=AXIS2_PLACEMENT_3D('',#1266,#985,#986);
#862=AXIS2_PLACEMENT_3D('',#1269,#987,#988);
#863=AXIS2_PLACEMENT_3D('',#1272,#991,#992);
#864=AXIS2_PLACEMENT_3D('',#1276,#995,#996);
#865=AXIS2_PLACEMENT_3D('',#1280,#998,#999);
#866=AXIS2_PLACEMENT_3D('',#1284,#1001,#1002);
#867=AXIS2_PLACEMENT_3D('',#1288,#1004,#1005);
#868=AXIS2_PLACEMENT_3D('',#1296,#1009,#1010);
#869=AXIS2_PLACEMENT_3D('',#1300,#1012,#1013);
#870=AXIS2_PLACEMENT_3D('',#1304,#1015,#1016);
#871=AXIS2_PLACEMENT_3D('',#1308,#1018,#1019);
#872=AXIS2_PLACEMENT_3D('',#1316,#1024,#1025);
#873=AXIS2_PLACEMENT_3D('',#1319,#1028,#1029);
#874=AXIS2_PLACEMENT_3D('',#1321,#1031,#1032);
#875=AXIS2_PLACEMENT_3D('',#1324,#1035,#1036);
#876=AXIS2_PLACEMENT_3D('',#1326,#1038,#1039);
#877=AXIS2_PLACEMENT_3D('',#1329,#1042,#1043);
#878=AXIS2_PLACEMENT_3D('',#1331,#1045,#1046);
#879=AXIS2_PLACEMENT_3D('',#1333,#1048,#1049);
#880=AXIS2_PLACEMENT_3D('',#1335,#1051,#1052);
#881=AXIS2_PLACEMENT_3D('',#1338,#1055,#1056);
#882=AXIS2_PLACEMENT_3D('',#1339,#1057,#1058);
#883=AXIS2_PLACEMENT_3D('',#1340,#1059,#1060);
#884=AXIS2_PLACEMENT_3D('',#1343,#1063,#1064);
#885=AXIS2_PLACEMENT_3D('',#1344,#1065,#1066);
#886=AXIS2_PLACEMENT_3D('',#1345,#1067,#1068);
#887=AXIS2_PLACEMENT_3D('',#1349,#1071,#1072);
#888=AXIS2_PLACEMENT_3D('',#1353,#1075,#1076);
#889=AXIS2_PLACEMENT_3D('',#1362,#1081,#1082);
#890=AXIS2_PLACEMENT_3D('',#1367,#1086,#1087);
#891=AXIS2_PLACEMENT_3D('',#1371,#1090,#1091);
#892=AXIS2_PLACEMENT_3D('',#1380,#1096,#1097);
#893=AXIS2_PLACEMENT_3D('',#1383,#1100,#1101);
#894=AXIS2_PLACEMENT_3D('',#1385,#1103,#1104);
#895=AXIS2_PLACEMENT_3D('',#1391,#1108,#1109);
#896=AXIS2_PLACEMENT_3D('',#1393,#1111,#1112);
#897=AXIS2_PLACEMENT_3D('',#1396,#1115,#1116);
#898=AXIS2_PLACEMENT_3D('',#1398,#1118,#1119);
#899=AXIS2_PLACEMENT_3D('',#1401,#1122,#1123);
#900=AXIS2_PLACEMENT_3D('',#1402,#1124,#1125);
#901=AXIS2_PLACEMENT_3D('',#1403,#1126,#1127);
#902=AXIS2_PLACEMENT_3D('',#1404,#1128,#1129);
#903=DIRECTION('axis',(0.,0.,1.));
#904=DIRECTION('refdir',(1.,0.,0.));
#905=DIRECTION('axis',(0.,0.,1.));
#906=DIRECTION('refdir',(1.,0.,0.));
#907=DIRECTION('center_axis',(-0.707106781186568,-2.064909475966E-13,0.707106781186527));
#908=DIRECTION('ref_axis',(-0.707106781186527,1.59414811366601E-13,-0.707106781186568));
#909=DIRECTION('center_axis',(0.,0.,1.));
#910=DIRECTION('ref_axis',(-0.923879532511085,-0.382683432365576,0.));
#911=DIRECTION('',(0.487514231434989,-1.09879743477542E-13,0.873115040615126));
#912=DIRECTION('center_axis',(0.657700039574881,0.657700039575881,-0.36723468774761));
#913=DIRECTION('ref_axis',(-0.707106781187085,0.70710678118601,0.));
#914=DIRECTION('',(0.674960518708087,-0.298088235881062,0.67496051870804));
#915=DIRECTION('',(-0.707106781187085,0.70710678118601,0.));
#916=DIRECTION('',(0.487514231434989,-1.09879743477542E-13,0.873115040615126));
#917=DIRECTION('center_axis',(0.707106781186568,2.064909475966E-13,-0.707106781186527));
#918=DIRECTION('ref_axis',(-0.707106781186527,1.59334452556306E-13,-0.707106781186568));
#919=DIRECTION('center_axis',(0.,0.,-1.));
#920=DIRECTION('ref_axis',(0.923879532511139,0.382683432365447,0.));
#921=DIRECTION('',(0.487514231434989,-1.09879743477542E-13,0.873115040615126));
#922=DIRECTION('center_axis',(0.873115040615125,1.2116905265468E-14,-0.487514231434989));
#923=DIRECTION('ref_axis',(-1.38777878078145E-14,1.,0.));
#924=DIRECTION('',(-1.38777878078145E-14,1.,0.));
#925=DIRECTION('',(0.487514231434989,-1.09879743477542E-13,0.873115040615126));
#926=DIRECTION('',(-3.37779688467326E-13,-1.,-6.29801987065738E-13));
#927=DIRECTION('center_axis',(0.707106781186568,2.064909475966E-13,-0.707106781186527));
#928=DIRECTION('ref_axis',(-0.707106781186527,1.59410968199728E-13,-0.707106781186568));
#929=DIRECTION('center_axis',(0.,0.,-1.));
#930=DIRECTION('ref_axis',(0.923879532511249,-0.382683432365182,0.));
#931=DIRECTION('',(0.487514231434989,-1.09879743477542E-13,0.873115040615126));
#932=DIRECTION('center_axis',(0.657700039575152,-0.657700039575433,-0.367234687747927));
#933=DIRECTION('ref_axis',(0.707106781186698,0.707106781186397,0.));
#934=DIRECTION('',(-0.674960518707996,-0.298088235881081,-0.674960518708123));
#935=DIRECTION('',(0.707106781186698,0.707106781186397,0.));
#936=DIRECTION('',(0.487514231434989,-1.09879743477542E-13,0.873115040615126));
#937=DIRECTION('center_axis',(-0.707106781186568,-2.064909475966E-13,0.707106781186527));
#938=DIRECTION('ref_axis',(-0.707106781186527,1.59382633073079E-13,-0.707106781186568));
#939=DIRECTION('center_axis',(0.,0.,1.));
#940=DIRECTION('ref_axis',(-0.923879532511302,0.382683432365053,0.));
#941=DIRECTION('center_axis',(-0.655610068107042,-0.655610068107384,-0.374634324632583));
#942=DIRECTION('ref_axis',(0.707106781186732,-0.707106781186363,0.));
#943=DIRECTION('',(-0.676715542332768,0.290020946715188,0.676715542330523));
#944=DIRECTION('',(-0.496138938356915,1.23935596374782E-13,0.868243142124413));
#945=DIRECTION('',(0.707106781186732,-0.707106781186363,0.));
#946=DIRECTION('',(-0.496138938356915,1.23935596374782E-13,0.868243142124413));
#947=DIRECTION('center_axis',(-0.707106781185414,-1.84010078301508E-13,
-0.707106781187681));
#948=DIRECTION('ref_axis',(0.707106781187681,-1.76635401602182E-13,-0.707106781185414));
#949=DIRECTION('center_axis',(0.,0.,-1.));
#950=DIRECTION('ref_axis',(-0.923879532511239,-0.382683432365204,0.));
#951=DIRECTION('',(-0.496138938356915,1.23935596374782E-13,0.868243142124413));
#952=DIRECTION('center_axis',(-0.707106781185414,-1.84010078301508E-13,
-0.707106781187681));
#953=DIRECTION('ref_axis',(0.707106781187681,-1.76580674821771E-13,-0.707106781185414));
#954=DIRECTION('',(-0.496138938356915,1.23935596374782E-13,0.868243142124413));
#955=DIRECTION('center_axis',(0.,0.,-1.));
#956=DIRECTION('ref_axis',(-0.923879532511139,0.382683432365446,0.));
#957=DIRECTION('',(-0.496138938356915,1.23935596374782E-13,0.868243142124413));
#958=DIRECTION('center_axis',(-0.655610068106714,0.655610068107711,-0.374634324632583));
#959=DIRECTION('ref_axis',(-0.707106781187085,-0.70710678118601,0.));
#960=DIRECTION('',(0.676715542332811,0.290020946714637,-0.676715542330717));
#961=DIRECTION('',(-0.707106781187085,-0.70710678118601,0.));
#962=DIRECTION('',(-0.496138938356915,1.23935596374782E-13,0.868243142124413));
#963=DIRECTION('center_axis',(0.707106781185414,1.84010078301508E-13,0.707106781187681));
#964=DIRECTION('ref_axis',(0.707106781187681,-1.7669626155626E-13,-0.707106781185414));
#965=DIRECTION('center_axis',(0.,0.,1.));
#966=DIRECTION('ref_axis',(0.923879532511191,-0.382683432365321,0.));
#967=DIRECTION('center_axis',(0.707106781185414,1.84010078301508E-13,0.707106781187681));
#968=DIRECTION('ref_axis',(0.707106781187681,-1.767910898568E-13,-0.707106781185414));
#969=DIRECTION('center_axis',(0.,0.,1.));
#970=DIRECTION('ref_axis',(0.923879532511187,0.38268343236533,0.));
#971=DIRECTION('center_axis',(-0.868243142124413,1.04427215463937E-14,-0.496138938356915));
#972=DIRECTION('ref_axis',(-1.20274161001059E-14,-1.,0.));
#973=DIRECTION('',(-1.20274161001059E-14,-1.,0.));
#974=DIRECTION('',(-4.71744658604876E-13,-1.,0.));
#975=DIRECTION('center_axis',(-0.707106781185414,-1.84010078301508E-13,
-0.707106781187681));
#976=DIRECTION('ref_axis',(-0.707106781187681,0.,0.707106781185414));
#977=DIRECTION('',(-2.60229548347745E-13,1.,0.));
#978=DIRECTION('',(-0.678598344545566,-0.281084637716097,0.6785983445456));
#979=DIRECTION('',(-4.71744658604876E-13,-1.,0.));
#980=DIRECTION('center_axis',(-0.707106781185414,-1.84010078301508E-13,
-0.707106781187681));
#981=DIRECTION('ref_axis',(-0.707106781187681,0.,0.707106781185414));
#982=DIRECTION('',(-4.71744658604876E-13,-1.,0.));
#983=DIRECTION('',(-0.707106781187681,-2.80373653335939E-16,0.707106781185414));
#984=DIRECTION('',(-2.60229548347745E-13,1.,0.));
#985=DIRECTION('center_axis',(0.,0.,-1.));
#986=DIRECTION('ref_axis',(0.923879532511191,-0.382683432365321,0.));
#987=DIRECTION('center_axis',(0.,0.,1.));
#988=DIRECTION('ref_axis',(0.923879532511191,-0.382683432365321,0.));
#989=DIRECTION('',(0.,0.,1.));
#990=DIRECTION('',(0.,0.,-1.));
#991=DIRECTION('center_axis',(1.,2.60229548347745E-13,0.));
#992=DIRECTION('ref_axis',(-2.60229548347745E-13,1.,0.));
#993=DIRECTION('',(2.60229548347745E-13,-1.,0.));
#994=DIRECTION('',(0.,0.,1.));
#995=DIRECTION('center_axis',(0.,0.,1.));
#996=DIRECTION('ref_axis',(1.,0.,0.));
#997=DIRECTION('',(-0.707106781187085,-0.70710678118601,0.));
#998=DIRECTION('center_axis',(0.,0.,-1.));
#999=DIRECTION('ref_axis',(-0.923879532511139,0.382683432365446,0.));
#1000=DIRECTION('',(-1.20274161001059E-14,-1.,0.));
#1001=DIRECTION('center_axis',(0.,0.,-1.));
#1002=DIRECTION('ref_axis',(-0.923879532511239,-0.382683432365204,0.));
#1003=DIRECTION('',(0.707106781186732,-0.707106781186363,0.));
#1004=DIRECTION('center_axis',(0.,0.,1.));
#1005=DIRECTION('ref_axis',(0.923879532511187,0.38268343236533,0.));
#1006=DIRECTION('',(2.60229548347745E-13,-1.,0.));
#1007=DIRECTION('',(1.,6.5307236742657E-17,0.));
#1008=DIRECTION('',(2.92022298598375E-13,-1.,0.));
#1009=DIRECTION('center_axis',(0.,0.,1.));
#1010=DIRECTION('ref_axis',(-0.923879532511302,0.382683432365053,0.));
#1011=DIRECTION('',(0.707106781186698,0.707106781186397,0.));
#1012=DIRECTION('center_axis',(0.,0.,-1.));
#1013=DIRECTION('ref_axis',(0.923879532511249,-0.382683432365182,0.));
#1014=DIRECTION('',(-1.38777878078145E-14,1.,0.));
#1015=DIRECTION('center_axis',(0.,0.,-1.));
#1016=DIRECTION('ref_axis',(0.923879532511139,0.382683432365447,0.));
#1017=DIRECTION('',(-0.707106781187085,0.70710678118601,0.));
#1018=DIRECTION('center_axis',(0.,0.,1.));
#1019=DIRECTION('ref_axis',(-0.923879532511085,-0.382683432365576,0.));
#1020=DIRECTION('',(2.92022298598375E-13,-1.,0.));
#1021=DIRECTION('',(-0.707106781186547,-0.707106781186548,0.));
#1022=DIRECTION('',(1.,0.,0.));
#1023=DIRECTION('',(0.707106781186548,-0.707106781186547,0.));
#1024=DIRECTION('center_axis',(0.,0.,1.));
#1025=DIRECTION('ref_axis',(-0.923879532511085,-0.382683432365576,0.));
#1026=DIRECTION('',(0.,0.,-1.));
#1027=DIRECTION('',(0.,0.,1.));
#1028=DIRECTION('center_axis',(0.70710678118601,0.707106781187085,0.));
#1029=DIRECTION('ref_axis',(-0.707106781187085,0.70710678118601,0.));
#1030=DIRECTION('',(0.,0.,-1.));
#1031=DIRECTION('center_axis',(0.,0.,-1.));
#1032=DIRECTION('ref_axis',(-0.923879532511302,0.382683432365053,0.));
#1033=DIRECTION('',(0.,0.,1.));
#1034=DIRECTION('',(0.,0.,-1.));
#1035=DIRECTION('center_axis',(0.707106781186397,-0.707106781186698,0.));
#1036=DIRECTION('ref_axis',(0.707106781186698,0.707106781186397,0.));
#1037=DIRECTION('',(0.,0.,1.));
#1038=DIRECTION('center_axis',(0.,0.,1.));
#1039=DIRECTION('ref_axis',(0.923879532511187,0.38268343236533,0.));
#1040=DIRECTION('',(0.,0.,-1.));
#1041=DIRECTION('',(0.,0.,1.));
#1042=DIRECTION('center_axis',(1.,2.60229548347745E-13,0.));
#1043=DIRECTION('ref_axis',(-2.60229548347745E-13,1.,0.));
#1044=DIRECTION('',(0.,0.,1.));
#1045=DIRECTION('center_axis',(0.,0.,1.));
#1046=DIRECTION('ref_axis',(0.923879532511139,0.382683432365447,0.));
#1047=DIRECTION('',(0.,0.,1.));
#1048=DIRECTION('center_axis',(1.,1.38777878078145E-14,0.));
#1049=DIRECTION('ref_axis',(-1.38777878078145E-14,1.,0.));
#1050=DIRECTION('',(0.,0.,-1.));
#1051=DIRECTION('center_axis',(0.,0.,1.));
#1052=DIRECTION('ref_axis',(-0.923879532511139,0.382683432365446,0.));
#1053=DIRECTION('',(0.,0.,-1.));
#1054=DIRECTION('',(0.,0.,1.));
#1055=DIRECTION('center_axis',(-0.70710678118601,0.707106781187085,0.));
#1056=DIRECTION('ref_axis',(-0.707106781187085,-0.70710678118601,0.));
#1057=DIRECTION('center_axis',(0.,0.,1.));
#1058=DIRECTION('ref_axis',(0.923879532511249,-0.382683432365182,0.));
#1059=DIRECTION('center_axis',(0.,0.,1.));
#1060=DIRECTION('ref_axis',(-0.923879532511239,-0.382683432365204,0.));
#1061=DIRECTION('',(0.,0.,-1.));
#1062=DIRECTION('',(0.,0.,1.));
#1063=DIRECTION('center_axis',(-1.,1.20274161001059E-14,0.));
#1064=DIRECTION('ref_axis',(-1.20274161001059E-14,-1.,0.));
#1065=DIRECTION('center_axis',(-0.707106781186363,-0.707106781186732,0.));
#1066=DIRECTION('ref_axis',(0.707106781186732,-0.707106781186363,0.));
#1067=DIRECTION('center_axis',(-1.,-2.92022298598375E-13,0.));
#1068=DIRECTION('ref_axis',(2.92022298598375E-13,-1.,0.));
#1069=DIRECTION('',(0.,0.,1.));
#1070=DIRECTION('',(2.92022298598375E-13,-1.,0.));
#1071=DIRECTION('center_axis',(-1.,-2.92022298598375E-13,0.));
#1072=DIRECTION('ref_axis',(2.92022298598375E-13,-1.,0.));
#1073=DIRECTION('',(2.92022298598375E-13,-1.,0.));
#1074=DIRECTION('',(0.,0.,1.));
#1075=DIRECTION('center_axis',(0.,1.,0.));
#1076=DIRECTION('ref_axis',(-1.,0.,0.));
#1077=DIRECTION('',(1.,0.,0.));
#1078=DIRECTION('',(0.,0.,1.));
#1079=DIRECTION('',(-1.,0.,0.));
#1080=DIRECTION('',(0.,0.,1.));
#1081=DIRECTION('center_axis',(0.70710678118682,0.707106781186275,0.));
#1082=DIRECTION('ref_axis',(-0.707106781186275,0.70710678118682,0.));
#1083=DIRECTION('',(0.707106781186275,-0.70710678118682,0.));
#1084=DIRECTION('',(-0.707106781186275,0.70710678118682,0.));
#1085=DIRECTION('',(0.,0.,1.));
#1086=DIRECTION('center_axis',(1.,-4.71744658604876E-13,0.));
#1087=DIRECTION('ref_axis',(4.71744658604876E-13,1.,0.));
#1088=DIRECTION('',(4.71744658604876E-13,1.,0.));
#1089=DIRECTION('',(0.,0.,1.));
#1090=DIRECTION('center_axis',(-1.,4.42606403695157E-13,0.));
#1091=DIRECTION('ref_axis',(-4.42606403695157E-13,-1.,0.));
#1092=DIRECTION('',(4.42606403695157E-13,1.,0.));
#1093=DIRECTION('',(0.,0.,1.));
#1094=DIRECTION('',(-4.42606403695157E-13,-1.,0.));
#1095=DIRECTION('',(0.,0.,1.));
#1096=DIRECTION('center_axis',(-0.707106781187104,0.707106781185991,0.));
#1097=DIRECTION('ref_axis',(-0.707106781185991,-0.707106781187104,0.));
#1098=DIRECTION('',(0.707106781185991,0.707106781187104,0.));
#1099=DIRECTION('',(-0.707106781185991,-0.707106781187104,0.));
#1100=DIRECTION('center_axis',(0.,0.,1.));
#1101=DIRECTION('ref_axis',(1.,0.,0.));
#1102=DIRECTION('',(1.,0.,0.));
#1103=DIRECTION('center_axis',(0.,-0.707106781186547,-0.707106781186548));
#1104=DIRECTION('ref_axis',(-1.,0.,0.));
#1105=DIRECTION('',(-1.,0.,0.));
#1106=DIRECTION('',(0.281084637715108,-0.678598344545788,0.678598344545787));
#1107=DIRECTION('',(-0.281084637714962,-0.678598344545818,0.678598344545818));
#1108=DIRECTION('center_axis',(-0.499999999999649,-0.49999999999965,-0.707106781187043));
#1109=DIRECTION('ref_axis',(-0.816496580928108,0.,0.577350269189086));
#1110=DIRECTION('',(-0.707106781186548,0.707106781186547,0.));
#1111=DIRECTION('center_axis',(0.707106781186568,2.064909475966E-13,-0.707106781186527));
#1112=DIRECTION('ref_axis',(-0.707106781186527,0.,-0.707106781186568));
#1113=DIRECTION('',(0.70710678118541,2.8037365333684E-16,0.707106781187685));
#1114=DIRECTION('',(0.678598344545356,-0.281084637717292,0.678598344545314));
#1115=DIRECTION('center_axis',(0.499999999999919,-0.499999999999919,-0.707106781186663));
#1116=DIRECTION('ref_axis',(-0.816496580927815,0.,-0.5773502691895));
#1117=DIRECTION('',(-0.707106781186547,-0.707106781186548,0.));
#1118=DIRECTION('center_axis',(0.,1.,0.));
#1119=DIRECTION('ref_axis',(-1.,0.,0.));
#1120=DIRECTION('',(0.,0.,1.));
#1121=DIRECTION('',(0.,0.,1.));
#1122=DIRECTION('center_axis',(0.707106781186547,0.707106781186548,0.));
#1123=DIRECTION('ref_axis',(-0.707106781186548,0.707106781186547,0.));
#1124=DIRECTION('center_axis',(6.5307236742657E-17,-1.,0.));
#1125=DIRECTION('ref_axis',(1.,6.5307236742657E-17,0.));
#1126=DIRECTION('center_axis',(-0.707106781186548,0.707106781186547,0.));
#1127=DIRECTION('ref_axis',(-0.707106781186547,-0.707106781186548,0.));
#1128=DIRECTION('',(0.,0.,1.));
#1129=DIRECTION('',(1.,0.,0.));
#1130=CARTESIAN_POINT('',(0.,0.,0.));
#1131=CARTESIAN_POINT('',(0.,0.,0.));
#1132=CARTESIAN_POINT('Ctrl Pts',(-8.49999999999952,3.23137084989831,0.599999999999999));
#1133=CARTESIAN_POINT('Ctrl Pts',(-8.49999999999953,2.89999999999941,0.599999999999962));
#1134=CARTESIAN_POINT('Ctrl Pts',(-8.32137499948965,2.66568542494848,0.500262593372168));
#1135=CARTESIAN_POINT('Ctrl Pts',(-8.14806703786543,3.23137084989823,1.23029536927167));
#1136=CARTESIAN_POINT('Ctrl Pts',(-8.14806703786543,2.89999999999933,1.23029536927164));
#1137=CARTESIAN_POINT('Ctrl Pts',(-7.96944203735556,2.6656854249484,1.13055796264384));
#1138=CARTESIAN_POINT('',(-8.49999999999952,3.2313708498979,0.6));
#1139=CARTESIAN_POINT('',(-7.96944203735557,2.6656854249484,1.13055796264381));
#1140=CARTESIAN_POINT('Origin',(-6.68856180831812,3.23137084989791,2.41143819168151));
#1141=CARTESIAN_POINT('',(-8.26568542494833,2.66568542494847,0.6));
#1142=CARTESIAN_POINT('Origin',(-7.69999999999952,3.23137084989813,0.6));
#1143=CARTESIAN_POINT('',(-8.26568542494833,2.66568542494847,0.6));
#1144=CARTESIAN_POINT('Origin',(-8.0757359312877,2.47573593128812,0.6));
#1145=CARTESIAN_POINT('',(-7.53933982822138,2.475735931288,1.56066017177798));
#1146=CARTESIAN_POINT('',(-7.89792323381632,2.63410000122592,1.20207676618306));
#1147=CARTESIAN_POINT('',(-8.0757359312877,2.47573593128812,0.6));
#1148=CARTESIAN_POINT('',(-8.49999999999942,2.8999999999992,0.6));
#1149=CARTESIAN_POINT('',(-8.0757359312877,2.47573593128812,0.6));
#1150=CARTESIAN_POINT('Ctrl Pts',(-7.9417671809053,2.05147186257575,0.525196945029127));
#1151=CARTESIAN_POINT('Ctrl Pts',(-7.94176718090526,2.29999999999994,0.525196945029139));
#1152=CARTESIAN_POINT('Ctrl Pts',(-8.0757359312877,2.47573593128812,0.6));
#1153=CARTESIAN_POINT('Ctrl Pts',(-7.14142135623812,2.05147186257557,1.95857864376136));
#1154=CARTESIAN_POINT('Ctrl Pts',(-7.14142135623809,2.29999999999976,1.95857864376138));
#1155=CARTESIAN_POINT('Ctrl Pts',(-7.27539010662053,2.47573593128794,2.03338169873224));
#1156=CARTESIAN_POINT('',(-7.14142135623812,2.05147186257571,1.95857864376136));
#1157=CARTESIAN_POINT('Origin',(-8.49999999999947,2.05147186257587,0.59999999999971));
#1158=CARTESIAN_POINT('',(-7.8999999999993,2.05147186257588,0.6));
#1159=CARTESIAN_POINT('Origin',(-8.4999999999993,2.05147186257587,0.6));
#1160=CARTESIAN_POINT('',(-7.8999999999993,2.05147186257588,0.6));
#1161=CARTESIAN_POINT('Origin',(-7.89999999999929,1.34852813742394,0.6));
#1162=CARTESIAN_POINT('',(-7.89999999999929,1.34852813742394,0.6));
#1163=CARTESIAN_POINT('',(-7.89999999999931,2.3,0.6));
#1164=CARTESIAN_POINT('',(-7.14142135623811,1.34852813742377,1.95857864376136));
#1165=CARTESIAN_POINT('',(-7.89999999999929,1.34852813742394,0.6));
#1166=CARTESIAN_POINT('',(-7.14142135623917,-0.175735931289243,1.95857864375944));
#1167=CARTESIAN_POINT('Ctrl Pts',(-8.07573593128752,0.924264068711823,0.600000000000038));
#1168=CARTESIAN_POINT('Ctrl Pts',(-7.94176718090522,1.09999999999987,0.525196945029295));
#1169=CARTESIAN_POINT('Ctrl Pts',(-7.94176718090518,1.3485281374238,0.525196945029307));
#1170=CARTESIAN_POINT('Ctrl Pts',(-7.27539010662045,0.924264068711643,2.03338169873209));
#1171=CARTESIAN_POINT('Ctrl Pts',(-7.14142135623815,1.09999999999969,1.95857864376135));
#1172=CARTESIAN_POINT('Ctrl Pts',(-7.14142135623811,1.34852813742362,1.95857864376136));
#1173=CARTESIAN_POINT('',(-7.5393398282214,0.924264068711791,1.5606601717775));
#1174=CARTESIAN_POINT('Origin',(-8.4999999999997,1.34852813742393,0.599999999999271));
#1175=CARTESIAN_POINT('',(-8.07573593128745,0.924264068711912,0.6));
#1176=CARTESIAN_POINT('Origin',(-8.49999999999929,1.34852813742393,0.6));
#1177=CARTESIAN_POINT('',(-8.07573593128745,0.924264068711912,0.6));
#1178=CARTESIAN_POINT('Origin',(-8.26568542494774,0.734314575051705,0.6));
#1179=CARTESIAN_POINT('',(-7.96944203735495,0.734314575051639,1.13055796264387));
#1180=CARTESIAN_POINT('',(-8.64437223711389,0.436239729171586,0.455627762884807));
#1181=CARTESIAN_POINT('',(-8.26568542494774,0.734314575051706,0.6));
#1182=CARTESIAN_POINT('',(-7.89999999999929,1.1,0.6));
#1183=CARTESIAN_POINT('',(-8.26568542494774,0.734314575051706,0.6));
#1184=CARTESIAN_POINT('Ctrl Pts',(-8.32137499948899,0.734314575051836,0.500262593372089));
#1185=CARTESIAN_POINT('Ctrl Pts',(-8.49999999999877,0.500000000001131,0.599999999999766));
#1186=CARTESIAN_POINT('Ctrl Pts',(-8.49999999999878,0.168629150102527,0.599999999999729));
#1187=CARTESIAN_POINT('Ctrl Pts',(-7.96944203735486,0.734314575051757,1.13055796264382));
#1188=CARTESIAN_POINT('Ctrl Pts',(-8.14806703786464,0.500000000001051,1.23029536927149));
#1189=CARTESIAN_POINT('Ctrl Pts',(-8.14806703786465,0.168629150102448,1.23029536927146));
#1190=CARTESIAN_POINT('',(-8.49999999999863,0.168629150102114,0.6));
#1191=CARTESIAN_POINT('Origin',(-6.68856180831722,0.168629150102119,2.41143819168151));
#1192=CARTESIAN_POINT('Origin',(-7.69999999999862,0.168629150102347,0.6));
#1193=CARTESIAN_POINT('Origin',(8.07573593128748,0.924264068711904,0.6));
#1194=CARTESIAN_POINT('',(7.95326599155148,0.734314575049237,1.14673400844785));
#1195=CARTESIAN_POINT('',(7.51005050634001,0.924264068712046,1.58994949365785));
#1196=CARTESIAN_POINT('',(7.92944633266128,0.744523000287934,1.17055366733797));
#1197=CARTESIAN_POINT('',(8.26568542495032,0.734314575049159,0.6));
#1198=CARTESIAN_POINT('',(8.26568542495032,0.734314575049159,0.6));
#1199=CARTESIAN_POINT('',(8.07573593128748,0.924264068711904,0.6));
#1200=CARTESIAN_POINT('',(7.89999999999929,1.1,0.6));
#1201=CARTESIAN_POINT('',(8.07573593128748,0.924264068711904,0.6));
#1202=CARTESIAN_POINT('Ctrl Pts',(7.94325807539335,1.34852813742408,0.524298368060422));
#1203=CARTESIAN_POINT('Ctrl Pts',(7.94325807539331,1.10000000000006,0.524298368060434));
#1204=CARTESIAN_POINT('Ctrl Pts',(8.07573593128748,0.924264068711904,0.6));
#1205=CARTESIAN_POINT('Ctrl Pts',(7.09999999999912,1.34852813742429,2.));
#1206=CARTESIAN_POINT('Ctrl Pts',(7.09999999999908,1.10000000000027,2.00000000000001));
#1207=CARTESIAN_POINT('Ctrl Pts',(7.23247785589325,0.924264068712115,2.07570163193958));
#1208=CARTESIAN_POINT('',(7.09999999999912,1.34852813742415,2.));
#1209=CARTESIAN_POINT('Origin',(8.49999999999712,1.34852813742394,0.600000000003801));
#1210=CARTESIAN_POINT('',(7.89999999999929,1.34852813742395,0.6));
#1211=CARTESIAN_POINT('Origin',(8.49999999999929,1.34852813742394,0.6));
#1212=CARTESIAN_POINT('',(7.89999999999929,1.34852813742395,0.6));
#1213=CARTESIAN_POINT('Ctrl Pts',(8.07573593128776,2.47573593128821,0.600000000000038));
#1214=CARTESIAN_POINT('Ctrl Pts',(7.9432580753934,2.30000000000013,0.524298368060409));
#1215=CARTESIAN_POINT('Ctrl Pts',(7.94325807539336,2.05147186257601,0.524298368060421));
#1216=CARTESIAN_POINT('Ctrl Pts',(7.23247785589353,2.47573593128842,2.07570163193962));
#1217=CARTESIAN_POINT('Ctrl Pts',(7.09999999999917,2.30000000000034,1.99999999999999));
#1218=CARTESIAN_POINT('Ctrl Pts',(7.09999999999913,2.05147186257622,2.));
#1219=CARTESIAN_POINT('',(7.09999999999913,2.05147186257608,2.));
#1220=CARTESIAN_POINT('',(7.51005050634106,2.47573593128826,1.58994949365639));
#1221=CARTESIAN_POINT('Origin',(8.49999999999738,2.05147186257587,0.600000000003357));
#1222=CARTESIAN_POINT('',(7.8999999999993,2.05147186257588,0.6));
#1223=CARTESIAN_POINT('',(7.8999999999993,2.05147186257588,0.6));
#1224=CARTESIAN_POINT('',(8.0757359312877,2.47573593128812,0.6));
#1225=CARTESIAN_POINT('Origin',(8.4999999999993,2.05147186257587,0.6));
#1226=CARTESIAN_POINT('',(8.0757359312877,2.47573593128812,0.6));
#1227=CARTESIAN_POINT('Origin',(8.26568542494924,2.66568542494938,0.6));
#1228=CARTESIAN_POINT('',(7.95326599154964,2.66568542494946,1.14673400844919));
#1229=CARTESIAN_POINT('',(8.61961672778801,2.95126431190933,0.480383272212876));
#1230=CARTESIAN_POINT('',(8.26568542494924,2.66568542494938,0.6));
#1231=CARTESIAN_POINT('',(8.49999999999942,2.8999999999992,0.6));
#1232=CARTESIAN_POINT('',(8.26568542494924,2.66568542494938,0.6));
#1233=CARTESIAN_POINT('Ctrl Pts',(8.32336285880805,2.66568542494924,0.499064490746899));
#1234=CARTESIAN_POINT('Ctrl Pts',(8.50000000000057,2.9,0.599999999999758));
#1235=CARTESIAN_POINT('Ctrl Pts',(8.50000000000059,3.23137084989885,0.599999999999722));
#1236=CARTESIAN_POINT('Ctrl Pts',(7.95326599154954,2.66568542494934,1.14673400844914));
#1237=CARTESIAN_POINT('Ctrl Pts',(8.12990313274207,2.90000000000009,1.247669517702));
#1238=CARTESIAN_POINT('Ctrl Pts',(8.12990313274209,3.23137084989894,1.24766951770196));
#1239=CARTESIAN_POINT('',(8.50000000000043,3.23137084989926,0.6));
#1240=CARTESIAN_POINT('Origin',(6.63333333334121,3.23137084989931,2.46666666665324));
#1241=CARTESIAN_POINT('Origin',(7.70000000000043,3.23137084989905,0.6));
#1242=CARTESIAN_POINT('Ctrl Pts',(8.50000000000123,0.168629150099574,0.599999999999999));
#1243=CARTESIAN_POINT('Ctrl Pts',(8.50000000000125,0.499999999998255,0.599999999999963));
#1244=CARTESIAN_POINT('Ctrl Pts',(8.32336285880906,0.734314575049145,0.499064490747228));
#1245=CARTESIAN_POINT('Ctrl Pts',(8.12990313274364,0.168629150099666,1.24766951770065));
#1246=CARTESIAN_POINT('Ctrl Pts',(8.12990313274366,0.499999999998347,1.24766951770061));
#1247=CARTESIAN_POINT('Ctrl Pts',(7.95326599155147,0.734314575049238,1.14673400844788));
#1248=CARTESIAN_POINT('',(8.50000000000123,0.168629150099982,0.6));
#1249=CARTESIAN_POINT('Origin',(6.633333333342,0.16862915010004,2.46666666665324));
#1250=CARTESIAN_POINT('Origin',(7.70000000000123,0.168629150099774,0.6));
#1251=CARTESIAN_POINT('Origin',(7.8999999999993,2.05147186257588,0.6));
#1252=CARTESIAN_POINT('',(7.89999999999931,2.3,0.6));
#1253=CARTESIAN_POINT('',(7.10000000000007,4.32010101267482,2.));
#1254=CARTESIAN_POINT('Origin',(8.5,4.9,0.6));
#1255=CARTESIAN_POINT('',(8.5,4.9,0.6));
#1256=CARTESIAN_POINT('',(8.5,4.9,0.6));
#1257=CARTESIAN_POINT('',(7.10000000000007,4.32010101267482,2.));
#1258=CARTESIAN_POINT('',(8.5,4.9,0.6));
#1259=CARTESIAN_POINT('',(7.10000000000007,4.32010101267482,2.));
#1260=CARTESIAN_POINT('Origin',(8.5,4.9,0.6));
#1261=CARTESIAN_POINT('',(7.09999999999723,-1.7,2.));
#1262=CARTESIAN_POINT('',(7.10000000000007,4.32010101267482,2.));
#1263=CARTESIAN_POINT('',(8.50000000000172,-1.7,0.6));
#1264=CARTESIAN_POINT('',(8.50000000000172,-1.7,0.6));
#1265=CARTESIAN_POINT('',(8.5,4.9,0.6));
#1266=CARTESIAN_POINT('Origin',(7.70000000000043,3.23137084989905,0.));
#1267=CARTESIAN_POINT('',(8.26568542494924,2.66568542494938,0.));
#1268=CARTESIAN_POINT('',(8.50000000000043,3.23137084989926,0.));
#1269=CARTESIAN_POINT('Origin',(7.70000000000043,3.23137084989905,0.));
#1270=CARTESIAN_POINT('',(8.50000000000043,3.23137084989926,0.));
#1271=CARTESIAN_POINT('',(8.26568542494924,2.66568542494938,0.));
#1272=CARTESIAN_POINT('Origin',(8.50000000000172,-1.7,0.));
#1273=CARTESIAN_POINT('',(8.5,4.9,0.));
#1274=CARTESIAN_POINT('',(8.5,4.9,0.));
#1275=CARTESIAN_POINT('',(8.5,4.9,0.));
#1276=CARTESIAN_POINT('Origin',(8.54871728961371E-13,3.6,0.));
#1277=CARTESIAN_POINT('',(8.0757359312877,2.47573593128812,0.));
#1278=CARTESIAN_POINT('',(6.54999999999675,0.949999999999494,0.));
#1279=CARTESIAN_POINT('',(7.8999999999993,2.05147186257588,0.));
#1280=CARTESIAN_POINT('Origin',(8.4999999999993,2.05147186257587,0.));
#1281=CARTESIAN_POINT('',(7.89999999999929,1.34852813742395,0.));
#1282=CARTESIAN_POINT('',(7.89999999999931,2.94999999999995,0.));
#1283=CARTESIAN_POINT('',(8.07573593128748,0.924264068711904,0.));
#1284=CARTESIAN_POINT('Origin',(8.49999999999929,1.34852813742394,0.));
#1285=CARTESIAN_POINT('',(8.26568542495032,0.734314575049159,0.));
#1286=CARTESIAN_POINT('',(5.29999999999865,3.69999999999928,0.));
#1287=CARTESIAN_POINT('',(8.50000000000123,0.168629150099982,0.));
#1288=CARTESIAN_POINT('Origin',(7.70000000000123,0.168629150099774,0.));
#1289=CARTESIAN_POINT('',(8.50000000000172,-1.7,0.));
#1290=CARTESIAN_POINT('',(8.5,4.9,0.));
#1291=CARTESIAN_POINT('',(-8.49999999999808,-1.7,0.));
#1292=CARTESIAN_POINT('',(-8.49999999999808,-1.7,0.));
#1293=CARTESIAN_POINT('',(-8.49999999999863,0.168629150102114,0.));
#1294=CARTESIAN_POINT('',(-8.50000000000001,4.9,0.));
#1295=CARTESIAN_POINT('',(-8.26568542494774,0.734314575051705,0.));
#1296=CARTESIAN_POINT('Origin',(-7.69999999999862,0.168629150102347,0.));
#1297=CARTESIAN_POINT('',(-8.07573593128745,0.924264068711911,0.));
#1298=CARTESIAN_POINT('',(-5.59999999999813,3.40000000000018,0.));
#1299=CARTESIAN_POINT('',(-7.89999999999929,1.34852813742394,0.));
#1300=CARTESIAN_POINT('Origin',(-8.49999999999929,1.34852813742393,0.));
#1301=CARTESIAN_POINT('',(-7.8999999999993,2.05147186257588,0.));
#1302=CARTESIAN_POINT('',(-7.89999999999931,2.34999999999995,0.));
#1303=CARTESIAN_POINT('',(-8.0757359312877,2.47573593128812,0.));
#1304=CARTESIAN_POINT('Origin',(-8.4999999999993,2.05147186257587,0.));
#1305=CARTESIAN_POINT('',(-8.26568542494833,2.66568542494847,0.));
#1306=CARTESIAN_POINT('',(-6.24999999999627,0.649999999999465,0.));
#1307=CARTESIAN_POINT('',(-8.49999999999952,3.2313708498979,0.));
#1308=CARTESIAN_POINT('Origin',(-7.69999999999952,3.23137084989813,0.));
#1309=CARTESIAN_POINT('',(-8.50000000000001,4.9,0.));
#1310=CARTESIAN_POINT('',(-8.50000000000001,4.9,0.));
#1311=CARTESIAN_POINT('',(-4.50000000000001,8.9,0.));
#1312=CARTESIAN_POINT('',(-4.50000000000001,8.9,0.));
#1313=CARTESIAN_POINT('',(4.49999999999999,8.9,0.));
#1314=CARTESIAN_POINT('',(-4.50000000000001,8.9,0.));
#1315=CARTESIAN_POINT('',(4.49999999999999,8.9,0.));
#1316=CARTESIAN_POINT('Origin',(-7.69999999999952,3.23137084989813,0.));
#1317=CARTESIAN_POINT('',(-8.49999999999952,3.2313708498979,0.));
#1318=CARTESIAN_POINT('',(-8.26568542494833,2.66568542494847,0.));
#1319=CARTESIAN_POINT('Origin',(-7.89999999999931,2.3,0.));
#1320=CARTESIAN_POINT('',(-8.0757359312877,2.47573593128812,0.));
#1321=CARTESIAN_POINT('Origin',(-7.69999999999862,0.168629150102347,0.));
#1322=CARTESIAN_POINT('',(-8.49999999999863,0.168629150102114,0.));
#1323=CARTESIAN_POINT('',(-8.26568542494774,0.734314575051706,0.));
#1324=CARTESIAN_POINT('Origin',(-8.49999999999872,0.500000000000825,0.));
#1325=CARTESIAN_POINT('',(-8.07573593128745,0.924264068711912,0.));
#1326=CARTESIAN_POINT('Origin',(7.70000000000123,0.168629150099774,0.));
#1327=CARTESIAN_POINT('',(8.50000000000123,0.168629150099982,0.));
#1328=CARTESIAN_POINT('',(8.26568542495032,0.734314575049159,0.));
#1329=CARTESIAN_POINT('Origin',(8.50000000000172,-1.7,0.));
#1330=CARTESIAN_POINT('',(8.50000000000172,-1.7,0.));
#1331=CARTESIAN_POINT('Origin',(-8.4999999999993,2.05147186257587,0.));
#1332=CARTESIAN_POINT('',(-7.8999999999993,2.05147186257588,0.));
#1333=CARTESIAN_POINT('Origin',(-7.89999999999929,1.1,0.));
#1334=CARTESIAN_POINT('',(-7.89999999999929,1.34852813742394,0.));
#1335=CARTESIAN_POINT('Origin',(8.4999999999993,2.05147186257587,0.));
#1336=CARTESIAN_POINT('',(7.8999999999993,2.05147186257588,0.));
#1337=CARTESIAN_POINT('',(8.0757359312877,2.47573593128812,0.));
#1338=CARTESIAN_POINT('Origin',(8.49999999999942,2.8999999999992,0.));
#1339=CARTESIAN_POINT('Origin',(-8.49999999999929,1.34852813742393,0.));
#1340=CARTESIAN_POINT('Origin',(8.49999999999929,1.34852813742394,0.));
#1341=CARTESIAN_POINT('',(8.07573593128748,0.924264068711904,0.));
#1342=CARTESIAN_POINT('',(7.89999999999929,1.34852813742395,0.));
#1343=CARTESIAN_POINT('Origin',(7.89999999999931,2.3,0.));
#1344=CARTESIAN_POINT('Origin',(7.89999999999929,1.1,0.));
#1345=CARTESIAN_POINT('Origin',(-8.50000000000001,4.9,0.));
#1346=CARTESIAN_POINT('',(-8.49999999999808,-1.7,0.6));
#1347=CARTESIAN_POINT('',(-8.49999999999808,-1.7,0.));
#1348=CARTESIAN_POINT('',(-8.50000000000001,4.9,0.6));
#1349=CARTESIAN_POINT('Origin',(-8.50000000000001,4.9,0.));
#1350=CARTESIAN_POINT('',(-8.50000000000001,4.9,0.6));
#1351=CARTESIAN_POINT('',(-8.50000000000001,4.9,0.6));
#1352=CARTESIAN_POINT('',(-8.50000000000001,4.9,0.));
#1353=CARTESIAN_POINT('Origin',(3.92010101267734,7.5,2.));
#1354=CARTESIAN_POINT('',(-3.92010101267703,7.5,2.));
#1355=CARTESIAN_POINT('',(3.92010101267734,7.5,2.));
#1356=CARTESIAN_POINT('',(-3.92010101267703,7.5,2.));
#1357=CARTESIAN_POINT('',(-3.92010101267703,7.5,2.6));
#1358=CARTESIAN_POINT('',(-3.92010101267703,7.5,2.));
#1359=CARTESIAN_POINT('',(3.92010101267734,7.5,2.6));
#1360=CARTESIAN_POINT('',(-3.92010101267703,7.5,2.6));
#1361=CARTESIAN_POINT('',(3.92010101267734,7.5,2.));
#1362=CARTESIAN_POINT('Origin',(7.10000000000007,4.32010101267482,2.));
#1363=CARTESIAN_POINT('',(3.92010101267734,7.5,2.));
#1364=CARTESIAN_POINT('',(7.10000000000007,4.32010101267482,2.6));
#1365=CARTESIAN_POINT('',(3.92010101267734,7.5,2.6));
#1366=CARTESIAN_POINT('',(7.10000000000007,4.32010101267482,2.));
#1367=CARTESIAN_POINT('Origin',(7.09999999999723,-1.7,2.));
#1368=CARTESIAN_POINT('',(7.09999999999723,-1.7,2.6));
#1369=CARTESIAN_POINT('',(7.10000000000007,4.32010101267482,2.6));
#1370=CARTESIAN_POINT('',(7.09999999999723,-1.7,2.));
#1371=CARTESIAN_POINT('Origin',(-7.09999999999992,4.32010101267211,2.));
#1372=CARTESIAN_POINT('',(-7.10000000000259,-1.7,2.));
#1373=CARTESIAN_POINT('',(-7.09999999999992,4.32010101267211,2.));
#1374=CARTESIAN_POINT('',(-7.09999999999992,4.32010101267211,2.));
#1375=CARTESIAN_POINT('',(-7.10000000000259,-1.7,2.6));
#1376=CARTESIAN_POINT('',(-7.10000000000259,-1.7,2.));
#1377=CARTESIAN_POINT('',(-7.09999999999992,4.32010101267211,2.6));
#1378=CARTESIAN_POINT('',(-7.09999999999992,4.32010101267211,2.6));
#1379=CARTESIAN_POINT('',(-7.09999999999992,4.32010101267211,2.));
#1380=CARTESIAN_POINT('Origin',(-3.92010101267703,7.5,2.));
#1381=CARTESIAN_POINT('',(-3.92010101267703,7.5,2.));
#1382=CARTESIAN_POINT('',(-3.92010101267703,7.5,2.6));
#1383=CARTESIAN_POINT('Origin',(-1.2578826869003E-12,2.9,2.6));
#1384=CARTESIAN_POINT('',(-7.10000000000259,-1.7,2.6));
#1385=CARTESIAN_POINT('Origin',(-4.50000000000001,8.9,0.6));
#1386=CARTESIAN_POINT('',(4.49999999999999,8.9,0.6));
#1387=CARTESIAN_POINT('',(-4.50000000000001,8.9,0.6));
#1388=CARTESIAN_POINT('',(-4.50000000000001,8.9,0.6));
#1389=CARTESIAN_POINT('',(-4.50000000000001,8.9,0.6));
#1390=CARTESIAN_POINT('',(4.49999999999999,8.9,0.6));
#1391=CARTESIAN_POINT('Origin',(4.49999999999999,8.9,0.6));
#1392=CARTESIAN_POINT('',(4.49999999999999,8.9,0.6));
#1393=CARTESIAN_POINT('Origin',(-8.49999999999808,-1.7,0.6));
#1394=CARTESIAN_POINT('',(-8.49999999999808,-1.7,0.6));
#1395=CARTESIAN_POINT('',(-8.50000000000001,4.9,0.6));
#1396=CARTESIAN_POINT('Origin',(-8.50000000000001,4.9,0.6));
#1397=CARTESIAN_POINT('',(-4.50000000000001,8.9,0.6));
#1398=CARTESIAN_POINT('Origin',(4.49999999999999,8.9,0.));
#1399=CARTESIAN_POINT('',(-4.50000000000001,8.9,0.));
#1400=CARTESIAN_POINT('',(4.49999999999999,8.9,0.));
#1401=CARTESIAN_POINT('Origin',(8.5,4.9,0.));
#1402=CARTESIAN_POINT('Origin',(-8.49999999999808,-1.7,0.));
#1403=CARTESIAN_POINT('Origin',(-4.50000000000001,8.9,0.));
#1404=CARTESIAN_POINT('',(0.,0.,0.));
#1405=UNCERTAINTY_MEASURE_WITH_UNIT(LENGTH_MEASURE(0.01),#1411,
'DISTANCE_ACCURACY_VALUE',
'Maximum model space distance between geometric entities at asserted c
onnectivities');
#1406=UNCERTAINTY_MEASURE_WITH_UNIT(LENGTH_MEASURE(0.01),#1411,
'DISTANCE_ACCURACY_VALUE',
'Maximum model space distance between geometric entities at asserted c
onnectivities');
#1407=UNCERTAINTY_MEASURE_WITH_UNIT(LENGTH_MEASURE(0.01),#1411,
'DISTANCE_ACCURACY_VALUE',
'Maximum model space distance between geometric entities at asserted c
onnectivities');
#1408=(
GEOMETRIC_REPRESENTATION_CONTEXT(3)
GLOBAL_UNCERTAINTY_ASSIGNED_CONTEXT((#1405))
GLOBAL_UNIT_ASSIGNED_CONTEXT((#1411,#1412,#1413))
REPRESENTATION_CONTEXT('','3D')
);
#1409=(
GEOMETRIC_REPRESENTATION_CONTEXT(3)
GLOBAL_UNCERTAINTY_ASSIGNED_CONTEXT((#1406))
GLOBAL_UNIT_ASSIGNED_CONTEXT((#1411,#1412,#1413))
REPRESENTATION_CONTEXT('','3D')
);
#1410=(
GEOMETRIC_REPRESENTATION_CONTEXT(3)
GLOBAL_UNCERTAINTY_ASSIGNED_CONTEXT((#1407))
GLOBAL_UNIT_ASSIGNED_CONTEXT((#1411,#1412,#1413))
REPRESENTATION_CONTEXT('','3D')
);
#1411=(
LENGTH_UNIT()
NAMED_UNIT(*)
SI_UNIT(.MILLI.,.METRE.)
);
#1412=(
NAMED_UNIT(*)
PLANE_ANGLE_UNIT()
SI_UNIT($,.RADIAN.)
);
#1413=(
NAMED_UNIT(*)
SI_UNIT($,.STERADIAN.)
SOLID_ANGLE_UNIT()
);
#1414=SHAPE_DEFINITION_REPRESENTATION(#1416,#1419);
#1415=SHAPE_DEFINITION_REPRESENTATION(#1417,#1420);
#1416=PRODUCT_DEFINITION_SHAPE('',$,#1422);
#1417=PRODUCT_DEFINITION_SHAPE('',$,#1423);
#1418=PRODUCT_DEFINITION_SHAPE($,$,#14);
#1419=SHAPE_REPRESENTATION('',(#835,#902),#1408);
#1420=SHAPE_REPRESENTATION('',(#836),#1409);
#1421=PRODUCT_DEFINITION_CONTEXT('part definition',#1429,'design');
#1422=PRODUCT_DEFINITION('openConnect beta','openConnect beta v46',#1424,
#1421);
#1423=PRODUCT_DEFINITION('openconnect_connector',
'openconnect_connector',#1425,#1421);
#1424=PRODUCT_DEFINITION_FORMATION('',$,#1431);
#1425=PRODUCT_DEFINITION_FORMATION('',$,#1432);
#1426=PRODUCT_RELATED_PRODUCT_CATEGORY('openConnect beta v46',
'openConnect beta v46',(#1431));
#1427=PRODUCT_RELATED_PRODUCT_CATEGORY('openconnect_connector',
'openconnect_connector',(#1432));
#1428=APPLICATION_PROTOCOL_DEFINITION('international standard',
'automotive_design',2009,#1429);
#1429=APPLICATION_CONTEXT(
'Core Data for Automotive Mechanical Design Process');
#1430=PRODUCT_CONTEXT('part definition',#1429,'mechanical');
#1431=PRODUCT('openConnect beta','openConnect beta v46',$,(#1430));
#1432=PRODUCT('openconnect_connector','openconnect_connector',$,(#1430));
#1433=PRESENTATION_STYLE_ASSIGNMENT((#1435));
#1434=PRESENTATION_STYLE_ASSIGNMENT((#1436));
#1435=SURFACE_STYLE_USAGE(.BOTH.,#1437);
#1436=SURFACE_STYLE_USAGE(.BOTH.,#1438);
#1437=SURFACE_SIDE_STYLE('',(#1439));
#1438=SURFACE_SIDE_STYLE('',(#1440));
#1439=SURFACE_STYLE_FILL_AREA(#1441);
#1440=SURFACE_STYLE_FILL_AREA(#1442);
#1441=FILL_AREA_STYLE('Steel - Satin',(#1443));
#1442=FILL_AREA_STYLE('Nylon 12 (with Formlabs Fuse 1 3D Printer)',(#1444));
#1443=FILL_AREA_STYLE_COLOUR('Steel - Satin',#1445);
#1444=FILL_AREA_STYLE_COLOUR(
'Nylon 12 (with Formlabs Fuse 1 3D Printer)',#1446);
#1445=COLOUR_RGB('Steel - Satin',0.627450980392157,0.627450980392157,0.627450980392157);
#1446=COLOUR_RGB('Nylon 12 (with Formlabs Fuse 1 3D Printer)',0.247058823529412,
0.247058823529412,0.247058823529412);
ENDSEC;
END-ISO-10303-21;
