ISO-10303-21;
HEADER;
/* Generated by software containing ST-Developer
 * from STEP Tools, Inc. (www.steptools.com) 
 */

FILE_DESCRIPTION(
/* description */ (''),
/* implementation_level */ '2;1');

FILE_NAME(
/* name */ 'hsw-cell.step',
/* time_stamp */ '2026-08-06T06:41:26+08:00',
/* author */ (''),
/* organization */ (''),
/* preprocessor_version */ 'ST-DEVELOPER v20.1',
/* originating_system */ 'Autodesk Translation Framework v15.8.0.0',
/* authorisation */ '');

FILE_SCHEMA (('AUTOMOTIVE_DESIGN { 1 0 10303 214 3 1 1 }'));
ENDSEC;

DATA;
#10=MECHANICAL_DESIGN_GEOMETRIC_PRESENTATION_REPRESENTATION('',(#13),#883);
#11=SHAPE_REPRESENTATION_RELATIONSHIP('SRR','None',#890,#12);
#12=ADVANCED_BREP_SHAPE_REPRESENTATION('',(#14),#882);
#13=STYLED_ITEM('',(#899),#14);
#14=MANIFOLD_SOLID_BREP('Body1',#549);
#15=FACE_BOUND('',#66,.T.);
#16=FACE_BOUND('',#82,.T.);
#17=FACE_OUTER_BOUND('',#49,.T.);
#18=FACE_OUTER_BOUND('',#50,.T.);
#19=FACE_OUTER_BOUND('',#51,.T.);
#20=FACE_OUTER_BOUND('',#52,.T.);
#21=FACE_OUTER_BOUND('',#53,.T.);
#22=FACE_OUTER_BOUND('',#54,.T.);
#23=FACE_OUTER_BOUND('',#55,.T.);
#24=FACE_OUTER_BOUND('',#56,.T.);
#25=FACE_OUTER_BOUND('',#57,.T.);
#26=FACE_OUTER_BOUND('',#58,.T.);
#27=FACE_OUTER_BOUND('',#59,.T.);
#28=FACE_OUTER_BOUND('',#60,.T.);
#29=FACE_OUTER_BOUND('',#61,.T.);
#30=FACE_OUTER_BOUND('',#62,.T.);
#31=FACE_OUTER_BOUND('',#63,.T.);
#32=FACE_OUTER_BOUND('',#64,.T.);
#33=FACE_OUTER_BOUND('',#65,.T.);
#34=FACE_OUTER_BOUND('',#67,.T.);
#35=FACE_OUTER_BOUND('',#68,.T.);
#36=FACE_OUTER_BOUND('',#69,.T.);
#37=FACE_OUTER_BOUND('',#70,.T.);
#38=FACE_OUTER_BOUND('',#71,.T.);
#39=FACE_OUTER_BOUND('',#72,.T.);
#40=FACE_OUTER_BOUND('',#73,.T.);
#41=FACE_OUTER_BOUND('',#74,.T.);
#42=FACE_OUTER_BOUND('',#75,.T.);
#43=FACE_OUTER_BOUND('',#76,.T.);
#44=FACE_OUTER_BOUND('',#77,.T.);
#45=FACE_OUTER_BOUND('',#78,.T.);
#46=FACE_OUTER_BOUND('',#79,.T.);
#47=FACE_OUTER_BOUND('',#80,.T.);
#48=FACE_OUTER_BOUND('',#81,.T.);
#49=EDGE_LOOP('',(#341,#342,#343,#344));
#50=EDGE_LOOP('',(#345,#346,#347,#348));
#51=EDGE_LOOP('',(#349,#350,#351,#352));
#52=EDGE_LOOP('',(#353,#354,#355,#356));
#53=EDGE_LOOP('',(#357,#358,#359,#360));
#54=EDGE_LOOP('',(#361,#362,#363,#364));
#55=EDGE_LOOP('',(#365,#366,#367,#368));
#56=EDGE_LOOP('',(#369,#370,#371,#372));
#57=EDGE_LOOP('',(#373,#374,#375,#376));
#58=EDGE_LOOP('',(#377,#378,#379,#380));
#59=EDGE_LOOP('',(#381,#382,#383,#384));
#60=EDGE_LOOP('',(#385,#386,#387,#388));
#61=EDGE_LOOP('',(#389,#390,#391,#392));
#62=EDGE_LOOP('',(#393,#394,#395,#396));
#63=EDGE_LOOP('',(#397,#398,#399,#400));
#64=EDGE_LOOP('',(#401,#402,#403,#404));
#65=EDGE_LOOP('',(#405,#406,#407,#408,#409,#410));
#66=EDGE_LOOP('',(#411,#412,#413,#414,#415,#416));
#67=EDGE_LOOP('',(#417,#418,#419,#420));
#68=EDGE_LOOP('',(#421,#422,#423,#424));
#69=EDGE_LOOP('',(#425,#426,#427,#428));
#70=EDGE_LOOP('',(#429,#430,#431,#432));
#71=EDGE_LOOP('',(#433,#434,#435,#436));
#72=EDGE_LOOP('',(#437,#438,#439,#440));
#73=EDGE_LOOP('',(#441,#442,#443,#444));
#74=EDGE_LOOP('',(#445,#446,#447,#448));
#75=EDGE_LOOP('',(#449,#450,#451,#452));
#76=EDGE_LOOP('',(#453,#454,#455,#456));
#77=EDGE_LOOP('',(#457,#458,#459,#460));
#78=EDGE_LOOP('',(#461,#462,#463,#464));
#79=EDGE_LOOP('',(#465,#466,#467,#468));
#80=EDGE_LOOP('',(#469,#470,#471,#472));
#81=EDGE_LOOP('',(#473,#474,#475,#476,#477,#478));
#82=EDGE_LOOP('',(#479,#480,#481,#482,#483,#484));
#83=LINE('',#737,#155);
#84=LINE('',#739,#156);
#85=LINE('',#741,#157);
#86=LINE('',#742,#158);
#87=LINE('',#745,#159);
#88=LINE('',#747,#160);
#89=LINE('',#748,#161);
#90=LINE('',#751,#162);
#91=LINE('',#753,#163);
#92=LINE('',#754,#164);
#93=LINE('',#757,#165);
#94=LINE('',#759,#166);
#95=LINE('',#760,#167);
#96=LINE('',#763,#168);
#97=LINE('',#765,#169);
#98=LINE('',#766,#170);
#99=LINE('',#768,#171);
#100=LINE('',#769,#172);
#101=LINE('',#772,#173);
#102=LINE('',#774,#174);
#103=LINE('',#775,#175);
#104=LINE('',#778,#176);
#105=LINE('',#779,#177);
#106=LINE('',#782,#178);
#107=LINE('',#783,#179);
#108=LINE('',#787,#180);
#109=LINE('',#789,#181);
#110=LINE('',#790,#182);
#111=LINE('',#791,#183);
#112=LINE('',#794,#184);
#113=LINE('',#796,#185);
#114=LINE('',#797,#186);
#115=LINE('',#800,#187);
#116=LINE('',#801,#188);
#117=LINE('',#802,#189);
#118=LINE('',#805,#190);
#119=LINE('',#806,#191);
#120=LINE('',#809,#192);
#121=LINE('',#810,#193);
#122=LINE('',#812,#194);
#123=LINE('',#814,#195);
#124=LINE('',#818,#196);
#125=LINE('',#820,#197);
#126=LINE('',#822,#198);
#127=LINE('',#824,#199);
#128=LINE('',#826,#200);
#129=LINE('',#827,#201);
#130=LINE('',#831,#202);
#131=LINE('',#832,#203);
#132=LINE('',#833,#204);
#133=LINE('',#836,#205);
#134=LINE('',#837,#206);
#135=LINE('',#840,#207);
#136=LINE('',#841,#208);
#137=LINE('',#844,#209);
#138=LINE('',#845,#210);
#139=LINE('',#848,#211);
#140=LINE('',#849,#212);
#141=LINE('',#851,#213);
#142=LINE('',#853,#214);
#143=LINE('',#858,#215);
#144=LINE('',#859,#216);
#145=LINE('',#860,#217);
#146=LINE('',#863,#218);
#147=LINE('',#864,#219);
#148=LINE('',#867,#220);
#149=LINE('',#868,#221);
#150=LINE('',#871,#222);
#151=LINE('',#872,#223);
#152=LINE('',#875,#224);
#153=LINE('',#876,#225);
#154=LINE('',#878,#226);
#155=VECTOR('',#599,10.);
#156=VECTOR('',#600,10.);
#157=VECTOR('',#601,10.);
#158=VECTOR('',#602,10.);
#159=VECTOR('',#605,10.);
#160=VECTOR('',#606,10.);
#161=VECTOR('',#607,10.);
#162=VECTOR('',#610,10.);
#163=VECTOR('',#611,10.);
#164=VECTOR('',#612,10.);
#165=VECTOR('',#615,10.);
#166=VECTOR('',#616,10.);
#167=VECTOR('',#617,10.);
#168=VECTOR('',#620,10.);
#169=VECTOR('',#621,10.);
#170=VECTOR('',#622,10.);
#171=VECTOR('',#625,10.);
#172=VECTOR('',#626,10.);
#173=VECTOR('',#629,10.);
#174=VECTOR('',#630,10.);
#175=VECTOR('',#631,10.);
#176=VECTOR('',#634,10.);
#177=VECTOR('',#635,10.);
#178=VECTOR('',#638,10.);
#179=VECTOR('',#639,10.);
#180=VECTOR('',#642,10.);
#181=VECTOR('',#643,10.);
#182=VECTOR('',#644,10.);
#183=VECTOR('',#645,10.);
#184=VECTOR('',#648,10.);
#185=VECTOR('',#649,10.);
#186=VECTOR('',#650,10.);
#187=VECTOR('',#653,10.);
#188=VECTOR('',#654,10.);
#189=VECTOR('',#655,10.);
#190=VECTOR('',#658,10.);
#191=VECTOR('',#659,10.);
#192=VECTOR('',#662,10.);
#193=VECTOR('',#663,10.);
#194=VECTOR('',#666,10.);
#195=VECTOR('',#669,10.);
#196=VECTOR('',#672,10.);
#197=VECTOR('',#673,10.);
#198=VECTOR('',#674,10.);
#199=VECTOR('',#675,10.);
#200=VECTOR('',#676,10.);
#201=VECTOR('',#677,10.);
#202=VECTOR('',#680,10.);
#203=VECTOR('',#681,10.);
#204=VECTOR('',#682,10.);
#205=VECTOR('',#685,10.);
#206=VECTOR('',#686,10.);
#207=VECTOR('',#689,10.);
#208=VECTOR('',#690,10.);
#209=VECTOR('',#693,10.);
#210=VECTOR('',#694,10.);
#211=VECTOR('',#697,10.);
#212=VECTOR('',#698,10.);
#213=VECTOR('',#701,10.);
#214=VECTOR('',#704,10.);
#215=VECTOR('',#709,10.);
#216=VECTOR('',#710,10.);
#217=VECTOR('',#711,10.);
#218=VECTOR('',#714,10.);
#219=VECTOR('',#715,10.);
#220=VECTOR('',#718,10.);
#221=VECTOR('',#719,10.);
#222=VECTOR('',#722,10.);
#223=VECTOR('',#723,10.);
#224=VECTOR('',#726,10.);
#225=VECTOR('',#727,10.);
#226=VECTOR('',#730,10.);
#227=VERTEX_POINT('',#735);
#228=VERTEX_POINT('',#736);
#229=VERTEX_POINT('',#738);
#230=VERTEX_POINT('',#740);
#231=VERTEX_POINT('',#744);
#232=VERTEX_POINT('',#746);
#233=VERTEX_POINT('',#750);
#234=VERTEX_POINT('',#752);
#235=VERTEX_POINT('',#756);
#236=VERTEX_POINT('',#758);
#237=VERTEX_POINT('',#762);
#238=VERTEX_POINT('',#764);
#239=VERTEX_POINT('',#771);
#240=VERTEX_POINT('',#773);
#241=VERTEX_POINT('',#777);
#242=VERTEX_POINT('',#781);
#243=VERTEX_POINT('',#785);
#244=VERTEX_POINT('',#786);
#245=VERTEX_POINT('',#788);
#246=VERTEX_POINT('',#793);
#247=VERTEX_POINT('',#795);
#248=VERTEX_POINT('',#799);
#249=VERTEX_POINT('',#804);
#250=VERTEX_POINT('',#808);
#251=VERTEX_POINT('',#816);
#252=VERTEX_POINT('',#817);
#253=VERTEX_POINT('',#819);
#254=VERTEX_POINT('',#821);
#255=VERTEX_POINT('',#823);
#256=VERTEX_POINT('',#825);
#257=VERTEX_POINT('',#829);
#258=VERTEX_POINT('',#830);
#259=VERTEX_POINT('',#835);
#260=VERTEX_POINT('',#839);
#261=VERTEX_POINT('',#843);
#262=VERTEX_POINT('',#847);
#263=VERTEX_POINT('',#856);
#264=VERTEX_POINT('',#857);
#265=VERTEX_POINT('',#862);
#266=VERTEX_POINT('',#866);
#267=VERTEX_POINT('',#870);
#268=VERTEX_POINT('',#874);
#269=EDGE_CURVE('',#227,#228,#83,.T.);
#270=EDGE_CURVE('',#227,#229,#84,.T.);
#271=EDGE_CURVE('',#229,#230,#85,.T.);
#272=EDGE_CURVE('',#228,#230,#86,.T.);
#273=EDGE_CURVE('',#231,#227,#87,.T.);
#274=EDGE_CURVE('',#231,#232,#88,.T.);
#275=EDGE_CURVE('',#232,#229,#89,.T.);
#276=EDGE_CURVE('',#233,#231,#90,.T.);
#277=EDGE_CURVE('',#233,#234,#91,.T.);
#278=EDGE_CURVE('',#234,#232,#92,.T.);
#279=EDGE_CURVE('',#235,#233,#93,.T.);
#280=EDGE_CURVE('',#235,#236,#94,.T.);
#281=EDGE_CURVE('',#236,#234,#95,.T.);
#282=EDGE_CURVE('',#237,#235,#96,.T.);
#283=EDGE_CURVE('',#237,#238,#97,.T.);
#284=EDGE_CURVE('',#238,#236,#98,.T.);
#285=EDGE_CURVE('',#228,#237,#99,.T.);
#286=EDGE_CURVE('',#230,#238,#100,.T.);
#287=EDGE_CURVE('',#238,#239,#101,.T.);
#288=EDGE_CURVE('',#240,#239,#102,.T.);
#289=EDGE_CURVE('',#236,#240,#103,.T.);
#290=EDGE_CURVE('',#230,#241,#104,.T.);
#291=EDGE_CURVE('',#239,#241,#105,.T.);
#292=EDGE_CURVE('',#229,#242,#106,.T.);
#293=EDGE_CURVE('',#241,#242,#107,.T.);
#294=EDGE_CURVE('',#243,#244,#108,.T.);
#295=EDGE_CURVE('',#244,#245,#109,.T.);
#296=EDGE_CURVE('',#245,#240,#110,.T.);
#297=EDGE_CURVE('',#243,#240,#111,.T.);
#298=EDGE_CURVE('',#244,#246,#112,.T.);
#299=EDGE_CURVE('',#246,#247,#113,.T.);
#300=EDGE_CURVE('',#247,#245,#114,.T.);
#301=EDGE_CURVE('',#246,#248,#115,.T.);
#302=EDGE_CURVE('',#248,#242,#116,.T.);
#303=EDGE_CURVE('',#242,#247,#117,.T.);
#304=EDGE_CURVE('',#248,#249,#118,.T.);
#305=EDGE_CURVE('',#249,#241,#119,.T.);
#306=EDGE_CURVE('',#249,#250,#120,.T.);
#307=EDGE_CURVE('',#250,#239,#121,.T.);
#308=EDGE_CURVE('',#250,#243,#122,.T.);
#309=EDGE_CURVE('',#234,#245,#123,.T.);
#310=EDGE_CURVE('',#251,#252,#124,.T.);
#311=EDGE_CURVE('',#252,#253,#125,.T.);
#312=EDGE_CURVE('',#253,#254,#126,.T.);
#313=EDGE_CURVE('',#254,#255,#127,.T.);
#314=EDGE_CURVE('',#255,#256,#128,.T.);
#315=EDGE_CURVE('',#256,#251,#129,.T.);
#316=EDGE_CURVE('',#257,#258,#130,.T.);
#317=EDGE_CURVE('',#257,#231,#131,.T.);
#318=EDGE_CURVE('',#258,#227,#132,.T.);
#319=EDGE_CURVE('',#259,#257,#133,.T.);
#320=EDGE_CURVE('',#259,#233,#134,.T.);
#321=EDGE_CURVE('',#260,#259,#135,.T.);
#322=EDGE_CURVE('',#260,#235,#136,.T.);
#323=EDGE_CURVE('',#261,#260,#137,.T.);
#324=EDGE_CURVE('',#261,#237,#138,.T.);
#325=EDGE_CURVE('',#262,#261,#139,.T.);
#326=EDGE_CURVE('',#262,#228,#140,.T.);
#327=EDGE_CURVE('',#258,#262,#141,.T.);
#328=EDGE_CURVE('',#232,#247,#142,.T.);
#329=EDGE_CURVE('',#263,#264,#143,.T.);
#330=EDGE_CURVE('',#264,#251,#144,.T.);
#331=EDGE_CURVE('',#263,#256,#145,.T.);
#332=EDGE_CURVE('',#265,#263,#146,.T.);
#333=EDGE_CURVE('',#265,#255,#147,.T.);
#334=EDGE_CURVE('',#266,#265,#148,.T.);
#335=EDGE_CURVE('',#266,#254,#149,.T.);
#336=EDGE_CURVE('',#267,#266,#150,.T.);
#337=EDGE_CURVE('',#267,#253,#151,.T.);
#338=EDGE_CURVE('',#268,#267,#152,.T.);
#339=EDGE_CURVE('',#268,#252,#153,.T.);
#340=EDGE_CURVE('',#264,#268,#154,.T.);
#341=ORIENTED_EDGE('',*,*,#269,.F.);
#342=ORIENTED_EDGE('',*,*,#270,.T.);
#343=ORIENTED_EDGE('',*,*,#271,.T.);
#344=ORIENTED_EDGE('',*,*,#272,.F.);
#345=ORIENTED_EDGE('',*,*,#273,.F.);
#346=ORIENTED_EDGE('',*,*,#274,.T.);
#347=ORIENTED_EDGE('',*,*,#275,.T.);
#348=ORIENTED_EDGE('',*,*,#270,.F.);
#349=ORIENTED_EDGE('',*,*,#276,.F.);
#350=ORIENTED_EDGE('',*,*,#277,.T.);
#351=ORIENTED_EDGE('',*,*,#278,.T.);
#352=ORIENTED_EDGE('',*,*,#274,.F.);
#353=ORIENTED_EDGE('',*,*,#279,.F.);
#354=ORIENTED_EDGE('',*,*,#280,.T.);
#355=ORIENTED_EDGE('',*,*,#281,.T.);
#356=ORIENTED_EDGE('',*,*,#277,.F.);
#357=ORIENTED_EDGE('',*,*,#282,.F.);
#358=ORIENTED_EDGE('',*,*,#283,.T.);
#359=ORIENTED_EDGE('',*,*,#284,.T.);
#360=ORIENTED_EDGE('',*,*,#280,.F.);
#361=ORIENTED_EDGE('',*,*,#285,.F.);
#362=ORIENTED_EDGE('',*,*,#272,.T.);
#363=ORIENTED_EDGE('',*,*,#286,.T.);
#364=ORIENTED_EDGE('',*,*,#283,.F.);
#365=ORIENTED_EDGE('',*,*,#284,.F.);
#366=ORIENTED_EDGE('',*,*,#287,.T.);
#367=ORIENTED_EDGE('',*,*,#288,.F.);
#368=ORIENTED_EDGE('',*,*,#289,.F.);
#369=ORIENTED_EDGE('',*,*,#286,.F.);
#370=ORIENTED_EDGE('',*,*,#290,.T.);
#371=ORIENTED_EDGE('',*,*,#291,.F.);
#372=ORIENTED_EDGE('',*,*,#287,.F.);
#373=ORIENTED_EDGE('',*,*,#271,.F.);
#374=ORIENTED_EDGE('',*,*,#292,.T.);
#375=ORIENTED_EDGE('',*,*,#293,.F.);
#376=ORIENTED_EDGE('',*,*,#290,.F.);
#377=ORIENTED_EDGE('',*,*,#294,.T.);
#378=ORIENTED_EDGE('',*,*,#295,.T.);
#379=ORIENTED_EDGE('',*,*,#296,.T.);
#380=ORIENTED_EDGE('',*,*,#297,.F.);
#381=ORIENTED_EDGE('',*,*,#298,.T.);
#382=ORIENTED_EDGE('',*,*,#299,.T.);
#383=ORIENTED_EDGE('',*,*,#300,.T.);
#384=ORIENTED_EDGE('',*,*,#295,.F.);
#385=ORIENTED_EDGE('',*,*,#301,.T.);
#386=ORIENTED_EDGE('',*,*,#302,.T.);
#387=ORIENTED_EDGE('',*,*,#303,.T.);
#388=ORIENTED_EDGE('',*,*,#299,.F.);
#389=ORIENTED_EDGE('',*,*,#304,.T.);
#390=ORIENTED_EDGE('',*,*,#305,.T.);
#391=ORIENTED_EDGE('',*,*,#293,.T.);
#392=ORIENTED_EDGE('',*,*,#302,.F.);
#393=ORIENTED_EDGE('',*,*,#291,.T.);
#394=ORIENTED_EDGE('',*,*,#305,.F.);
#395=ORIENTED_EDGE('',*,*,#306,.T.);
#396=ORIENTED_EDGE('',*,*,#307,.T.);
#397=ORIENTED_EDGE('',*,*,#288,.T.);
#398=ORIENTED_EDGE('',*,*,#307,.F.);
#399=ORIENTED_EDGE('',*,*,#308,.T.);
#400=ORIENTED_EDGE('',*,*,#297,.T.);
#401=ORIENTED_EDGE('',*,*,#281,.F.);
#402=ORIENTED_EDGE('',*,*,#289,.T.);
#403=ORIENTED_EDGE('',*,*,#296,.F.);
#404=ORIENTED_EDGE('',*,*,#309,.F.);
#405=ORIENTED_EDGE('',*,*,#310,.T.);
#406=ORIENTED_EDGE('',*,*,#311,.T.);
#407=ORIENTED_EDGE('',*,*,#312,.T.);
#408=ORIENTED_EDGE('',*,*,#313,.T.);
#409=ORIENTED_EDGE('',*,*,#314,.T.);
#410=ORIENTED_EDGE('',*,*,#315,.T.);
#411=ORIENTED_EDGE('',*,*,#294,.F.);
#412=ORIENTED_EDGE('',*,*,#308,.F.);
#413=ORIENTED_EDGE('',*,*,#306,.F.);
#414=ORIENTED_EDGE('',*,*,#304,.F.);
#415=ORIENTED_EDGE('',*,*,#301,.F.);
#416=ORIENTED_EDGE('',*,*,#298,.F.);
#417=ORIENTED_EDGE('',*,*,#316,.F.);
#418=ORIENTED_EDGE('',*,*,#317,.T.);
#419=ORIENTED_EDGE('',*,*,#273,.T.);
#420=ORIENTED_EDGE('',*,*,#318,.F.);
#421=ORIENTED_EDGE('',*,*,#319,.F.);
#422=ORIENTED_EDGE('',*,*,#320,.T.);
#423=ORIENTED_EDGE('',*,*,#276,.T.);
#424=ORIENTED_EDGE('',*,*,#317,.F.);
#425=ORIENTED_EDGE('',*,*,#321,.F.);
#426=ORIENTED_EDGE('',*,*,#322,.T.);
#427=ORIENTED_EDGE('',*,*,#279,.T.);
#428=ORIENTED_EDGE('',*,*,#320,.F.);
#429=ORIENTED_EDGE('',*,*,#323,.F.);
#430=ORIENTED_EDGE('',*,*,#324,.T.);
#431=ORIENTED_EDGE('',*,*,#282,.T.);
#432=ORIENTED_EDGE('',*,*,#322,.F.);
#433=ORIENTED_EDGE('',*,*,#325,.F.);
#434=ORIENTED_EDGE('',*,*,#326,.T.);
#435=ORIENTED_EDGE('',*,*,#285,.T.);
#436=ORIENTED_EDGE('',*,*,#324,.F.);
#437=ORIENTED_EDGE('',*,*,#327,.F.);
#438=ORIENTED_EDGE('',*,*,#318,.T.);
#439=ORIENTED_EDGE('',*,*,#269,.T.);
#440=ORIENTED_EDGE('',*,*,#326,.F.);
#441=ORIENTED_EDGE('',*,*,#275,.F.);
#442=ORIENTED_EDGE('',*,*,#328,.T.);
#443=ORIENTED_EDGE('',*,*,#303,.F.);
#444=ORIENTED_EDGE('',*,*,#292,.F.);
#445=ORIENTED_EDGE('',*,*,#278,.F.);
#446=ORIENTED_EDGE('',*,*,#309,.T.);
#447=ORIENTED_EDGE('',*,*,#300,.F.);
#448=ORIENTED_EDGE('',*,*,#328,.F.);
#449=ORIENTED_EDGE('',*,*,#329,.T.);
#450=ORIENTED_EDGE('',*,*,#330,.T.);
#451=ORIENTED_EDGE('',*,*,#315,.F.);
#452=ORIENTED_EDGE('',*,*,#331,.F.);
#453=ORIENTED_EDGE('',*,*,#332,.T.);
#454=ORIENTED_EDGE('',*,*,#331,.T.);
#455=ORIENTED_EDGE('',*,*,#314,.F.);
#456=ORIENTED_EDGE('',*,*,#333,.F.);
#457=ORIENTED_EDGE('',*,*,#334,.T.);
#458=ORIENTED_EDGE('',*,*,#333,.T.);
#459=ORIENTED_EDGE('',*,*,#313,.F.);
#460=ORIENTED_EDGE('',*,*,#335,.F.);
#461=ORIENTED_EDGE('',*,*,#336,.T.);
#462=ORIENTED_EDGE('',*,*,#335,.T.);
#463=ORIENTED_EDGE('',*,*,#312,.F.);
#464=ORIENTED_EDGE('',*,*,#337,.F.);
#465=ORIENTED_EDGE('',*,*,#338,.T.);
#466=ORIENTED_EDGE('',*,*,#337,.T.);
#467=ORIENTED_EDGE('',*,*,#311,.F.);
#468=ORIENTED_EDGE('',*,*,#339,.F.);
#469=ORIENTED_EDGE('',*,*,#340,.T.);
#470=ORIENTED_EDGE('',*,*,#339,.T.);
#471=ORIENTED_EDGE('',*,*,#310,.F.);
#472=ORIENTED_EDGE('',*,*,#330,.F.);
#473=ORIENTED_EDGE('',*,*,#340,.F.);
#474=ORIENTED_EDGE('',*,*,#329,.F.);
#475=ORIENTED_EDGE('',*,*,#332,.F.);
#476=ORIENTED_EDGE('',*,*,#334,.F.);
#477=ORIENTED_EDGE('',*,*,#336,.F.);
#478=ORIENTED_EDGE('',*,*,#338,.F.);
#479=ORIENTED_EDGE('',*,*,#316,.T.);
#480=ORIENTED_EDGE('',*,*,#327,.T.);
#481=ORIENTED_EDGE('',*,*,#325,.T.);
#482=ORIENTED_EDGE('',*,*,#323,.T.);
#483=ORIENTED_EDGE('',*,*,#321,.T.);
#484=ORIENTED_EDGE('',*,*,#319,.T.);
#485=PLANE('',#563);
#486=PLANE('',#564);
#487=PLANE('',#565);
#488=PLANE('',#566);
#489=PLANE('',#567);
#490=PLANE('',#568);
#491=PLANE('',#569);
#492=PLANE('',#570);
#493=PLANE('',#571);
#494=PLANE('',#572);
#495=PLANE('',#573);
#496=PLANE('',#574);
#497=PLANE('',#575);
#498=PLANE('',#576);
#499=PLANE('',#577);
#500=PLANE('',#578);
#501=PLANE('',#579);
#502=PLANE('',#580);
#503=PLANE('',#581);
#504=PLANE('',#582);
#505=PLANE('',#583);
#506=PLANE('',#584);
#507=PLANE('',#585);
#508=PLANE('',#586);
#509=PLANE('',#587);
#510=PLANE('',#588);
#511=PLANE('',#589);
#512=PLANE('',#590);
#513=PLANE('',#591);
#514=PLANE('',#592);
#515=PLANE('',#593);
#516=PLANE('',#594);
#517=ADVANCED_FACE('',(#17),#485,.T.);
#518=ADVANCED_FACE('',(#18),#486,.T.);
#519=ADVANCED_FACE('',(#19),#487,.T.);
#520=ADVANCED_FACE('',(#20),#488,.T.);
#521=ADVANCED_FACE('',(#21),#489,.T.);
#522=ADVANCED_FACE('',(#22),#490,.T.);
#523=ADVANCED_FACE('',(#23),#491,.T.);
#524=ADVANCED_FACE('',(#24),#492,.T.);
#525=ADVANCED_FACE('',(#25),#493,.T.);
#526=ADVANCED_FACE('',(#26),#494,.T.);
#527=ADVANCED_FACE('',(#27),#495,.T.);
#528=ADVANCED_FACE('',(#28),#496,.T.);
#529=ADVANCED_FACE('',(#29),#497,.T.);
#530=ADVANCED_FACE('',(#30),#498,.T.);
#531=ADVANCED_FACE('',(#31),#499,.T.);
#532=ADVANCED_FACE('',(#32),#500,.T.);
#533=ADVANCED_FACE('',(#33,#15),#501,.T.);
#534=ADVANCED_FACE('',(#34),#502,.F.);
#535=ADVANCED_FACE('',(#35),#503,.F.);
#536=ADVANCED_FACE('',(#36),#504,.F.);
#537=ADVANCED_FACE('',(#37),#505,.F.);
#538=ADVANCED_FACE('',(#38),#506,.F.);
#539=ADVANCED_FACE('',(#39),#507,.F.);
#540=ADVANCED_FACE('',(#40),#508,.T.);
#541=ADVANCED_FACE('',(#41),#509,.T.);
#542=ADVANCED_FACE('',(#42),#510,.T.);
#543=ADVANCED_FACE('',(#43),#511,.T.);
#544=ADVANCED_FACE('',(#44),#512,.T.);
#545=ADVANCED_FACE('',(#45),#513,.T.);
#546=ADVANCED_FACE('',(#46),#514,.T.);
#547=ADVANCED_FACE('',(#47),#515,.T.);
#548=ADVANCED_FACE('',(#48,#16),#516,.F.);
#549=CLOSED_SHELL('',(#517,#518,#519,#520,#521,#522,#523,#524,#525,#526,
#527,#528,#529,#530,#531,#532,#533,#534,#535,#536,#537,#538,#539,#540,#541,
#542,#543,#544,#545,#546,#547,#548));
#550=DERIVED_UNIT_ELEMENT(#552,1.);
#551=DERIVED_UNIT_ELEMENT(#885,-3.);
#552=(
MASS_UNIT()
NAMED_UNIT(*)
SI_UNIT(.KILO.,.GRAM.)
);
#553=DERIVED_UNIT((#550,#551));
#554=MEASURE_REPRESENTATION_ITEM('density measure',
POSITIVE_RATIO_MEASURE(7850.),#553);
#555=PROPERTY_DEFINITION_REPRESENTATION(#560,#557);
#556=PROPERTY_DEFINITION_REPRESENTATION(#561,#558);
#557=REPRESENTATION('material name',(#559),#882);
#558=REPRESENTATION('density',(#554),#882);
#559=DESCRIPTIVE_REPRESENTATION_ITEM('Steel','Steel');
#560=PROPERTY_DEFINITION('material property','material name',#892);
#561=PROPERTY_DEFINITION('material property','density of part',#892);
#562=AXIS2_PLACEMENT_3D('',#733,#595,#596);
#563=AXIS2_PLACEMENT_3D('',#734,#597,#598);
#564=AXIS2_PLACEMENT_3D('',#743,#603,#604);
#565=AXIS2_PLACEMENT_3D('',#749,#608,#609);
#566=AXIS2_PLACEMENT_3D('',#755,#613,#614);
#567=AXIS2_PLACEMENT_3D('',#761,#618,#619);
#568=AXIS2_PLACEMENT_3D('',#767,#623,#624);
#569=AXIS2_PLACEMENT_3D('',#770,#627,#628);
#570=AXIS2_PLACEMENT_3D('',#776,#632,#633);
#571=AXIS2_PLACEMENT_3D('',#780,#636,#637);
#572=AXIS2_PLACEMENT_3D('',#784,#640,#641);
#573=AXIS2_PLACEMENT_3D('',#792,#646,#647);
#574=AXIS2_PLACEMENT_3D('',#798,#651,#652);
#575=AXIS2_PLACEMENT_3D('',#803,#656,#657);
#576=AXIS2_PLACEMENT_3D('',#807,#660,#661);
#577=AXIS2_PLACEMENT_3D('',#811,#664,#665);
#578=AXIS2_PLACEMENT_3D('',#813,#667,#668);
#579=AXIS2_PLACEMENT_3D('',#815,#670,#671);
#580=AXIS2_PLACEMENT_3D('',#828,#678,#679);
#581=AXIS2_PLACEMENT_3D('',#834,#683,#684);
#582=AXIS2_PLACEMENT_3D('',#838,#687,#688);
#583=AXIS2_PLACEMENT_3D('',#842,#691,#692);
#584=AXIS2_PLACEMENT_3D('',#846,#695,#696);
#585=AXIS2_PLACEMENT_3D('',#850,#699,#700);
#586=AXIS2_PLACEMENT_3D('',#852,#702,#703);
#587=AXIS2_PLACEMENT_3D('',#854,#705,#706);
#588=AXIS2_PLACEMENT_3D('',#855,#707,#708);
#589=AXIS2_PLACEMENT_3D('',#861,#712,#713);
#590=AXIS2_PLACEMENT_3D('',#865,#716,#717);
#591=AXIS2_PLACEMENT_3D('',#869,#720,#721);
#592=AXIS2_PLACEMENT_3D('',#873,#724,#725);
#593=AXIS2_PLACEMENT_3D('',#877,#728,#729);
#594=AXIS2_PLACEMENT_3D('',#879,#731,#732);
#595=DIRECTION('axis',(0.,0.,1.));
#596=DIRECTION('refdir',(1.,0.,0.));
#597=DIRECTION('center_axis',(-4.07921980574644E-16,-0.707106781186547,
-0.707106781186548));
#598=DIRECTION('ref_axis',(-1.,0.,5.76888797318756E-16));
#599=DIRECTION('',(-1.,3.49629574606206E-16,0.));
#600=DIRECTION('',(-0.377964473009227,-0.654653670707977,0.654653670707977));
#601=DIRECTION('',(-1.,5.76888797318756E-16,0.));
#602=DIRECTION('',(0.377964473009227,-0.654653670707977,0.654653670707977));
#603=DIRECTION('center_axis',(-0.612372435695795,-0.353553390593274,-0.707106781186548));
#604=DIRECTION('ref_axis',(-0.755928946018454,0.,0.654653670707977));
#605=DIRECTION('',(-0.5,0.866025403784439,0.));
#606=DIRECTION('',(-0.755928946018454,2.18043473512611E-15,0.654653670707977));
#607=DIRECTION('',(-0.5,0.866025403784439,0.));
#608=DIRECTION('center_axis',(-0.612372435695794,0.353553390593274,-0.707106781186548));
#609=DIRECTION('ref_axis',(-0.755928946018455,0.,0.654653670707977));
#610=DIRECTION('',(0.500000000000001,0.866025403784438,0.));
#611=DIRECTION('',(-0.377964473009227,0.654653670707978,0.654653670707976));
#612=DIRECTION('',(0.5,0.866025403784438,0.));
#613=DIRECTION('center_axis',(4.07921980574644E-16,0.707106781186547,-0.707106781186548));
#614=DIRECTION('ref_axis',(-1.,0.,-5.76888797318755E-16));
#615=DIRECTION('',(1.,-6.99259149212411E-16,0.));
#616=DIRECTION('',(0.377964473009227,0.654653670707978,0.654653670707976));
#617=DIRECTION('',(1.,-5.76888797318756E-16,0.));
#618=DIRECTION('center_axis',(0.612372435695794,0.353553390593273,-0.707106781186548));
#619=DIRECTION('ref_axis',(-0.755928946018455,0.,-0.654653670707976));
#620=DIRECTION('',(0.5,-0.866025403784439,0.));
#621=DIRECTION('',(0.755928946018454,3.63405789187686E-16,0.654653670707977));
#622=DIRECTION('',(0.499999999999999,-0.866025403784439,0.));
#623=DIRECTION('center_axis',(0.612372435695794,-0.353553390593274,-0.707106781186548));
#624=DIRECTION('ref_axis',(-0.755928946018455,0.,-0.654653670707977));
#625=DIRECTION('',(-0.5,-0.866025403784438,0.));
#626=DIRECTION('',(-0.5,-0.866025403784438,0.));
#627=DIRECTION('center_axis',(0.866025403784439,0.5,0.));
#628=DIRECTION('ref_axis',(-0.499999999999999,0.866025403784439,0.));
#629=DIRECTION('',(0.,0.,1.));
#630=DIRECTION('',(-0.499999999999999,0.866025403784439,0.));
#631=DIRECTION('',(0.,0.,1.));
#632=DIRECTION('center_axis',(0.866025403784438,-0.5,0.));
#633=DIRECTION('ref_axis',(0.5,0.866025403784438,0.));
#634=DIRECTION('',(0.,0.,1.));
#635=DIRECTION('',(0.5,0.866025403784438,0.));
#636=DIRECTION('center_axis',(-5.76888797318756E-16,-1.,0.));
#637=DIRECTION('ref_axis',(1.,-5.76888797318756E-16,0.));
#638=DIRECTION('',(0.,0.,1.));
#639=DIRECTION('',(1.,-5.76888797318756E-16,0.));
#640=DIRECTION('center_axis',(4.07921980574644E-16,0.707106781186548,0.707106781186548));
#641=DIRECTION('ref_axis',(1.,0.,-5.76888797318756E-16));
#642=DIRECTION('',(1.,-5.76888797318756E-16,0.));
#643=DIRECTION('',(-0.377964473009224,0.654653670707979,-0.654653670707977));
#644=DIRECTION('',(-1.,5.76888797318756E-16,0.));
#645=DIRECTION('',(0.377964473009225,0.654653670707978,-0.654653670707978));
#646=DIRECTION('center_axis',(-0.612372435695796,0.353553390593275,0.707106781186545));
#647=DIRECTION('ref_axis',(0.755928946018453,0.,0.654653670707979));
#648=DIRECTION('',(0.5,0.866025403784438,0.));
#649=DIRECTION('',(-0.755928946018454,1.45362315675074E-15,-0.654653670707978));
#650=DIRECTION('',(-0.5,-0.866025403784438,0.));
#651=DIRECTION('center_axis',(-0.612372435695796,-0.353553390593274,0.707106781186546));
#652=DIRECTION('ref_axis',(0.755928946018453,0.,0.654653670707979));
#653=DIRECTION('',(-0.5,0.866025403784439,0.));
#654=DIRECTION('',(-0.377964473009227,-0.654653670707976,-0.654653670707979));
#655=DIRECTION('',(0.5,-0.866025403784439,0.));
#656=DIRECTION('center_axis',(-4.07921980574645E-16,-0.707106781186549,
0.707106781186546));
#657=DIRECTION('ref_axis',(1.,0.,5.76888797318759E-16));
#658=DIRECTION('',(-1.,5.76888797318756E-16,0.));
#659=DIRECTION('',(0.377964473009232,-0.654653670707973,-0.654653670707979));
#660=DIRECTION('center_axis',(0.612372435695795,-0.353553390593274,0.707106781186547));
#661=DIRECTION('ref_axis',(0.755928946018454,0.,-0.654653670707977));
#662=DIRECTION('',(-0.5,-0.866025403784438,0.));
#663=DIRECTION('',(0.755928946018454,-1.45362315675074E-15,-0.654653670707978));
#664=DIRECTION('center_axis',(0.612372435695796,0.353553390593274,0.707106781186546));
#665=DIRECTION('ref_axis',(0.755928946018453,0.,-0.654653670707979));
#666=DIRECTION('',(0.499999999999999,-0.866025403784439,0.));
#667=DIRECTION('center_axis',(5.76888797318756E-16,1.,0.));
#668=DIRECTION('ref_axis',(-1.,5.76888797318756E-16,0.));
#669=DIRECTION('',(0.,0.,1.));
#670=DIRECTION('center_axis',(0.,0.,1.));
#671=DIRECTION('ref_axis',(1.,0.,0.));
#672=DIRECTION('',(0.499999999999999,-0.866025403784439,0.));
#673=DIRECTION('',(1.,-6.51851749864472E-16,0.));
#674=DIRECTION('',(0.5,0.866025403784438,0.));
#675=DIRECTION('',(-0.5,0.866025403784439,0.));
#676=DIRECTION('',(-1.,3.25925874932236E-16,0.));
#677=DIRECTION('',(-0.5,-0.866025403784438,0.));
#678=DIRECTION('center_axis',(0.866025403784439,0.5,0.));
#679=DIRECTION('ref_axis',(-0.5,0.866025403784439,0.));
#680=DIRECTION('',(-0.5,0.866025403784439,0.));
#681=DIRECTION('',(0.,0.,1.));
#682=DIRECTION('',(0.,0.,1.));
#683=DIRECTION('center_axis',(0.866025403784438,-0.500000000000001,0.));
#684=DIRECTION('ref_axis',(0.500000000000001,0.866025403784438,0.));
#685=DIRECTION('',(0.500000000000001,0.866025403784438,0.));
#686=DIRECTION('',(0.,0.,1.));
#687=DIRECTION('center_axis',(-6.99259149212411E-16,-1.,0.));
#688=DIRECTION('ref_axis',(1.,-6.99259149212411E-16,0.));
#689=DIRECTION('',(1.,-6.99259149212411E-16,0.));
#690=DIRECTION('',(0.,0.,1.));
#691=DIRECTION('center_axis',(-0.866025403784439,-0.5,0.));
#692=DIRECTION('ref_axis',(0.5,-0.866025403784439,0.));
#693=DIRECTION('',(0.5,-0.866025403784439,0.));
#694=DIRECTION('',(0.,0.,1.));
#695=DIRECTION('center_axis',(-0.866025403784438,0.5,0.));
#696=DIRECTION('ref_axis',(-0.5,-0.866025403784438,0.));
#697=DIRECTION('',(-0.5,-0.866025403784438,0.));
#698=DIRECTION('',(0.,0.,1.));
#699=DIRECTION('center_axis',(3.49629574606206E-16,1.,0.));
#700=DIRECTION('ref_axis',(-1.,3.49629574606206E-16,0.));
#701=DIRECTION('',(-1.,3.49629574606206E-16,0.));
#702=DIRECTION('center_axis',(-0.866025403784439,-0.5,0.));
#703=DIRECTION('ref_axis',(0.5,-0.866025403784439,0.));
#704=DIRECTION('',(0.,0.,1.));
#705=DIRECTION('center_axis',(-0.866025403784438,0.5,0.));
#706=DIRECTION('ref_axis',(-0.5,-0.866025403784438,0.));
#707=DIRECTION('center_axis',(-0.866025403784438,0.5,0.));
#708=DIRECTION('ref_axis',(-0.5,-0.866025403784438,0.));
#709=DIRECTION('',(-0.5,-0.866025403784438,0.));
#710=DIRECTION('',(0.,0.,1.));
#711=DIRECTION('',(0.,0.,1.));
#712=DIRECTION('center_axis',(3.25925874932236E-16,1.,0.));
#713=DIRECTION('ref_axis',(-1.,3.25925874932236E-16,0.));
#714=DIRECTION('',(-1.,3.25925874932236E-16,0.));
#715=DIRECTION('',(0.,0.,1.));
#716=DIRECTION('center_axis',(0.866025403784439,0.5,0.));
#717=DIRECTION('ref_axis',(-0.5,0.866025403784439,0.));
#718=DIRECTION('',(-0.5,0.866025403784439,0.));
#719=DIRECTION('',(0.,0.,1.));
#720=DIRECTION('center_axis',(0.866025403784438,-0.5,0.));
#721=DIRECTION('ref_axis',(0.5,0.866025403784438,0.));
#722=DIRECTION('',(0.5,0.866025403784438,0.));
#723=DIRECTION('',(0.,0.,1.));
#724=DIRECTION('center_axis',(-6.51851749864472E-16,-1.,0.));
#725=DIRECTION('ref_axis',(1.,-6.51851749864472E-16,0.));
#726=DIRECTION('',(1.,-6.51851749864472E-16,0.));
#727=DIRECTION('',(0.,0.,1.));
#728=DIRECTION('center_axis',(-0.866025403784439,-0.5,0.));
#729=DIRECTION('ref_axis',(0.499999999999999,-0.866025403784439,0.));
#730=DIRECTION('',(0.499999999999999,-0.866025403784439,0.));
#731=DIRECTION('center_axis',(0.,0.,1.));
#732=DIRECTION('ref_axis',(1.,0.,0.));
#733=CARTESIAN_POINT('',(0.,0.,0.));
#734=CARTESIAN_POINT('Origin',(-2.88675138896407,10.5000001490116,2.5));
#735=CARTESIAN_POINT('',(6.35085304711778,11.0000001490116,2.));
#736=CARTESIAN_POINT('',(-6.35085304711777,11.0000001490116,2.));
#737=CARTESIAN_POINT('',(6.35085304711778,11.0000001490116,2.));
#738=CARTESIAN_POINT('',(5.77350277792816,10.0000001490116,3.));
#739=CARTESIAN_POINT('',(6.35085304711778,11.0000001490116,2.));
#740=CARTESIAN_POINT('',(-5.77350277792815,10.0000001490116,3.));
#741=CARTESIAN_POINT('',(-2.88675138896407,10.0000001490116,3.));
#742=CARTESIAN_POINT('',(-6.35085304711777,11.0000001490116,2.));
#743=CARTESIAN_POINT('Origin',(7.64989117430241,7.7500001117587,2.5));
#744=CARTESIAN_POINT('',(12.7017060942356,-4.44089209850063E-15,2.));
#745=CARTESIAN_POINT('',(12.7017060942356,-4.44089209850063E-15,2.));
#746=CARTESIAN_POINT('',(11.5470055558563,-4.44089209850063E-15,3.));
#747=CARTESIAN_POINT('',(12.7017060942356,-7.7715611723761E-15,2.));
#748=CARTESIAN_POINT('',(7.21687847241019,7.5000001117587,3.));
#749=CARTESIAN_POINT('Origin',(10.5366425632665,-2.75000003725291,2.5));
#750=CARTESIAN_POINT('',(6.35085304711777,-11.0000001490116,2.));
#751=CARTESIAN_POINT('',(6.35085304711777,-11.0000001490116,2.));
#752=CARTESIAN_POINT('',(5.77350277792815,-10.0000001490116,3.));
#753=CARTESIAN_POINT('',(6.35085304711778,-11.0000001490116,2.));
#754=CARTESIAN_POINT('',(10.1036298613743,-2.50000003725291,3.));
#755=CARTESIAN_POINT('Origin',(2.88675138896407,-10.5000001490116,2.5));
#756=CARTESIAN_POINT('',(-6.35085304711778,-11.0000001490116,2.));
#757=CARTESIAN_POINT('',(-6.35085304711779,-11.0000001490116,2.));
#758=CARTESIAN_POINT('',(-5.77350277792816,-10.0000001490116,3.));
#759=CARTESIAN_POINT('',(-6.35085304711779,-11.0000001490116,2.));
#760=CARTESIAN_POINT('',(2.88675138896407,-10.0000001490116,3.));
#761=CARTESIAN_POINT('Origin',(-7.64989117430241,-7.7500001117587,2.5));
#762=CARTESIAN_POINT('',(-12.7017060942356,4.44089209850063E-15,2.));
#763=CARTESIAN_POINT('',(-12.7017060942356,4.44089209850063E-15,2.));
#764=CARTESIAN_POINT('',(-11.5470055558563,7.7715611723761E-15,3.));
#765=CARTESIAN_POINT('',(-12.7017060942356,7.21644966006352E-15,2.));
#766=CARTESIAN_POINT('',(-7.21687847241019,-7.5000001117587,3.));
#767=CARTESIAN_POINT('Origin',(-10.5366425632665,2.75000003725291,2.5));
#768=CARTESIAN_POINT('',(-6.35085304711777,11.0000001490116,2.));
#769=CARTESIAN_POINT('',(-10.1036298613743,2.50000003725291,3.));
#770=CARTESIAN_POINT('Origin',(-5.77350277792816,-10.0000001490116,0.));
#771=CARTESIAN_POINT('',(-11.5470055558563,7.7715611723761E-15,7.5));
#772=CARTESIAN_POINT('',(-11.5470055558563,7.7715611723761E-15,0.));
#773=CARTESIAN_POINT('',(-5.77350277792816,-10.0000001490116,7.5));
#774=CARTESIAN_POINT('',(-7.21687847241019,-7.5000001117587,7.5));
#775=CARTESIAN_POINT('',(-5.77350277792816,-10.0000001490116,0.));
#776=CARTESIAN_POINT('Origin',(-11.5470055558563,6.66133814775094E-15,0.));
#777=CARTESIAN_POINT('',(-5.77350277792815,10.0000001490116,7.5));
#778=CARTESIAN_POINT('',(-5.77350277792815,10.0000001490116,0.));
#779=CARTESIAN_POINT('',(-10.1036298613743,2.50000003725291,7.5));
#780=CARTESIAN_POINT('Origin',(-5.77350277792814,10.0000001490116,0.));
#781=CARTESIAN_POINT('',(5.77350277792816,10.0000001490116,7.5));
#782=CARTESIAN_POINT('',(5.77350277792816,10.0000001490116,0.));
#783=CARTESIAN_POINT('',(-2.88675138896407,10.0000001490116,7.5));
#784=CARTESIAN_POINT('Origin',(2.88675138896407,-10.2500001490116,7.75));
#785=CARTESIAN_POINT('',(-6.06217791252297,-10.5000001490116,8.));
#786=CARTESIAN_POINT('',(6.06217791252296,-10.5000001490116,8.));
#787=CARTESIAN_POINT('',(2.88675138896407,-10.5000001490116,8.));
#788=CARTESIAN_POINT('',(5.77350277792815,-10.0000001490116,7.5));
#789=CARTESIAN_POINT('',(6.06217791252296,-10.5000001490116,8.));
#790=CARTESIAN_POINT('',(2.88675138896407,-10.0000001490116,7.5));
#791=CARTESIAN_POINT('',(-6.06217791252297,-10.5000001490116,8.));
#792=CARTESIAN_POINT('Origin',(10.3201362123204,-2.62500003725291,7.75));
#793=CARTESIAN_POINT('',(12.1243558250459,-7.7715611723761E-15,8.));
#794=CARTESIAN_POINT('',(10.5366425632665,-2.75000003725291,8.));
#795=CARTESIAN_POINT('',(11.5470055558563,-4.44089209850063E-15,7.5));
#796=CARTESIAN_POINT('',(12.1243558250459,-5.55111512312578E-15,8.));
#797=CARTESIAN_POINT('',(10.1036298613743,-2.50000003725291,7.5));
#798=CARTESIAN_POINT('Origin',(7.4333848233563,7.6250001117587,7.75));
#799=CARTESIAN_POINT('',(6.06217791252297,10.5000001490116,8.));
#800=CARTESIAN_POINT('',(7.64989117430241,7.7500001117587,8.));
#801=CARTESIAN_POINT('',(6.06217791252297,10.5000001490116,8.));
#802=CARTESIAN_POINT('',(7.21687847241019,7.5000001117587,7.5));
#803=CARTESIAN_POINT('Origin',(-2.88675138896407,10.2500001490116,7.75));
#804=CARTESIAN_POINT('',(-6.06217791252296,10.5000001490116,8.));
#805=CARTESIAN_POINT('',(-2.88675138896407,10.5000001490116,8.));
#806=CARTESIAN_POINT('',(-6.06217791252296,10.5000001490116,8.));
#807=CARTESIAN_POINT('Origin',(-10.3201362123204,2.62500003725291,7.75));
#808=CARTESIAN_POINT('',(-12.1243558250459,9.99200722162641E-15,8.));
#809=CARTESIAN_POINT('',(-10.5366425632665,2.75000003725291,8.));
#810=CARTESIAN_POINT('',(-12.1243558250459,8.88178419700125E-15,8.));
#811=CARTESIAN_POINT('Origin',(-7.4333848233563,-7.6250001117587,7.75));
#812=CARTESIAN_POINT('',(-7.64989117430241,-7.7500001117587,8.));
#813=CARTESIAN_POINT('Origin',(5.77350277792815,-10.0000001490116,0.));
#814=CARTESIAN_POINT('',(5.77350277792815,-10.0000001490116,0.));
#815=CARTESIAN_POINT('Origin',(0.,0.,8.));
#816=CARTESIAN_POINT('',(-13.625466524939,6.66133814775094E-15,8.));
#817=CARTESIAN_POINT('',(-6.81273326246949,-11.8000001490116,8.));
#818=CARTESIAN_POINT('',(-13.625466524939,6.66133814775094E-15,8.));
#819=CARTESIAN_POINT('',(6.81273326246947,-11.8000001490116,8.));
#820=CARTESIAN_POINT('',(-6.81273326246949,-11.8000001490116,8.));
#821=CARTESIAN_POINT('',(13.625466524939,-4.44089209850063E-15,8.));
#822=CARTESIAN_POINT('',(6.81273326246947,-11.8000001490116,8.));
#823=CARTESIAN_POINT('',(6.81273326246948,11.8000001490116,8.));
#824=CARTESIAN_POINT('',(13.625466524939,-4.44089209850063E-15,8.));
#825=CARTESIAN_POINT('',(-6.81273326246947,11.8000001490116,8.));
#826=CARTESIAN_POINT('',(6.81273326246948,11.8000001490116,8.));
#827=CARTESIAN_POINT('',(-6.81273326246947,11.8000001490116,8.));
#828=CARTESIAN_POINT('Origin',(12.7017060942356,-4.44089209850063E-15,0.));
#829=CARTESIAN_POINT('',(12.7017060942356,-4.44089209850063E-15,0.));
#830=CARTESIAN_POINT('',(6.35085304711778,11.0000001490116,0.));
#831=CARTESIAN_POINT('',(11.1139928324561,2.7500000372529,0.));
#832=CARTESIAN_POINT('',(12.7017060942356,-4.44089209850063E-15,0.));
#833=CARTESIAN_POINT('',(6.35085304711778,11.0000001490116,0.));
#834=CARTESIAN_POINT('Origin',(6.35085304711777,-11.0000001490116,0.));
#835=CARTESIAN_POINT('',(6.35085304711777,-11.0000001490116,0.));
#836=CARTESIAN_POINT('',(7.93856630889722,-8.25000011175871,0.));
#837=CARTESIAN_POINT('',(6.35085304711777,-11.0000001490116,0.));
#838=CARTESIAN_POINT('Origin',(-6.35085304711779,-11.0000001490116,0.));
#839=CARTESIAN_POINT('',(-6.35085304711779,-11.0000001490116,0.));
#840=CARTESIAN_POINT('',(-3.1754265235589,-11.0000001490116,0.));
#841=CARTESIAN_POINT('',(-6.35085304711779,-11.0000001490116,0.));
#842=CARTESIAN_POINT('Origin',(-12.7017060942356,4.44089209850063E-15,0.));
#843=CARTESIAN_POINT('',(-12.7017060942356,4.44089209850063E-15,0.));
#844=CARTESIAN_POINT('',(-11.1139928324561,-2.7500000372529,0.));
#845=CARTESIAN_POINT('',(-12.7017060942356,4.44089209850063E-15,0.));
#846=CARTESIAN_POINT('Origin',(-6.35085304711777,11.0000001490116,0.));
#847=CARTESIAN_POINT('',(-6.35085304711777,11.0000001490116,0.));
#848=CARTESIAN_POINT('',(-7.93856630889722,8.25000011175871,0.));
#849=CARTESIAN_POINT('',(-6.35085304711777,11.0000001490116,0.));
#850=CARTESIAN_POINT('Origin',(6.35085304711778,11.0000001490116,0.));
#851=CARTESIAN_POINT('',(3.17542652355889,11.0000001490116,0.));
#852=CARTESIAN_POINT('Origin',(5.77350277792816,10.0000001490116,0.));
#853=CARTESIAN_POINT('',(11.5470055558563,-4.44089209850063E-15,0.));
#854=CARTESIAN_POINT('Origin',(11.5470055558563,-4.44089209850063E-15,0.));
#855=CARTESIAN_POINT('Origin',(-6.81273326246947,11.8000001490116,0.));
#856=CARTESIAN_POINT('',(-6.81273326246947,11.8000001490116,0.));
#857=CARTESIAN_POINT('',(-13.625466524939,6.66133814775094E-15,0.));
#858=CARTESIAN_POINT('',(-6.81273326246947,11.8000001490116,0.));
#859=CARTESIAN_POINT('',(-13.625466524939,6.66133814775094E-15,0.));
#860=CARTESIAN_POINT('',(-6.81273326246947,11.8000001490116,0.));
#861=CARTESIAN_POINT('Origin',(6.81273326246948,11.8000001490116,0.));
#862=CARTESIAN_POINT('',(6.81273326246948,11.8000001490116,0.));
#863=CARTESIAN_POINT('',(6.81273326246948,11.8000001490116,0.));
#864=CARTESIAN_POINT('',(6.81273326246948,11.8000001490116,0.));
#865=CARTESIAN_POINT('Origin',(13.625466524939,-4.44089209850063E-15,0.));
#866=CARTESIAN_POINT('',(13.625466524939,-4.44089209850063E-15,0.));
#867=CARTESIAN_POINT('',(13.625466524939,-4.44089209850063E-15,0.));
#868=CARTESIAN_POINT('',(13.625466524939,-4.44089209850063E-15,0.));
#869=CARTESIAN_POINT('Origin',(6.81273326246947,-11.8000001490116,0.));
#870=CARTESIAN_POINT('',(6.81273326246947,-11.8000001490116,0.));
#871=CARTESIAN_POINT('',(6.81273326246947,-11.8000001490116,0.));
#872=CARTESIAN_POINT('',(6.81273326246947,-11.8000001490116,0.));
#873=CARTESIAN_POINT('Origin',(-6.81273326246949,-11.8000001490116,0.));
#874=CARTESIAN_POINT('',(-6.81273326246949,-11.8000001490116,0.));
#875=CARTESIAN_POINT('',(-6.81273326246949,-11.8000001490116,0.));
#876=CARTESIAN_POINT('',(-6.81273326246949,-11.8000001490116,0.));
#877=CARTESIAN_POINT('Origin',(-13.625466524939,6.66133814775094E-15,0.));
#878=CARTESIAN_POINT('',(-13.625466524939,6.66133814775094E-15,0.));
#879=CARTESIAN_POINT('Origin',(0.,0.,0.));
#880=UNCERTAINTY_MEASURE_WITH_UNIT(LENGTH_MEASURE(0.01),#884,
'DISTANCE_ACCURACY_VALUE',
'Maximum model space distance between geometric entities at asserted c
onnectivities');
#881=UNCERTAINTY_MEASURE_WITH_UNIT(LENGTH_MEASURE(0.01),#884,
'DISTANCE_ACCURACY_VALUE',
'Maximum model space distance between geometric entities at asserted c
onnectivities');
#882=(
GEOMETRIC_REPRESENTATION_CONTEXT(3)
GLOBAL_UNCERTAINTY_ASSIGNED_CONTEXT((#880))
GLOBAL_UNIT_ASSIGNED_CONTEXT((#884,#886,#887))
REPRESENTATION_CONTEXT('','3D')
);
#883=(
GEOMETRIC_REPRESENTATION_CONTEXT(3)
GLOBAL_UNCERTAINTY_ASSIGNED_CONTEXT((#881))
GLOBAL_UNIT_ASSIGNED_CONTEXT((#884,#886,#887))
REPRESENTATION_CONTEXT('','3D')
);
#884=(
LENGTH_UNIT()
NAMED_UNIT(*)
SI_UNIT(.MILLI.,.METRE.)
);
#885=(
LENGTH_UNIT()
NAMED_UNIT(*)
SI_UNIT($,.METRE.)
);
#886=(
NAMED_UNIT(*)
PLANE_ANGLE_UNIT()
SI_UNIT($,.RADIAN.)
);
#887=(
NAMED_UNIT(*)
SI_UNIT($,.STERADIAN.)
SOLID_ANGLE_UNIT()
);
#888=SHAPE_DEFINITION_REPRESENTATION(#889,#890);
#889=PRODUCT_DEFINITION_SHAPE('',$,#892);
#890=SHAPE_REPRESENTATION('',(#562),#882);
#891=PRODUCT_DEFINITION_CONTEXT('part definition',#896,'design');
#892=PRODUCT_DEFINITION('cell','cell v1',#893,#891);
#893=PRODUCT_DEFINITION_FORMATION('',$,#898);
#894=PRODUCT_RELATED_PRODUCT_CATEGORY('cell v1','cell v1',(#898));
#895=APPLICATION_PROTOCOL_DEFINITION('international standard',
'automotive_design',2009,#896);
#896=APPLICATION_CONTEXT(
'Core Data for Automotive Mechanical Design Process');
#897=PRODUCT_CONTEXT('part definition',#896,'mechanical');
#898=PRODUCT('cell','cell v1',$,(#897));
#899=PRESENTATION_STYLE_ASSIGNMENT((#900));
#900=SURFACE_STYLE_USAGE(.BOTH.,#901);
#901=SURFACE_SIDE_STYLE('',(#902));
#902=SURFACE_STYLE_FILL_AREA(#903);
#903=FILL_AREA_STYLE('Steel - Satin',(#904));
#904=FILL_AREA_STYLE_COLOUR('Steel - Satin',#905);
#905=COLOUR_RGB('Steel - Satin',0.627450980392157,0.627450980392157,0.627450980392157);
ENDSEC;
END-ISO-10303-21;
