ISO-10303-21;
HEADER;
/* Generated by software containing ST-Developer
 * from STEP Tools, Inc. (www.steptools.com)
 */

FILE_DESCRIPTION(
/* description */ (''),
/* implementation_level */ '2;1');

FILE_NAME(
/* name */ 'box-normal.step',
/* time_stamp */ '2026-08-06T19:08:19+08:00',
/* author */ (''),
/* organization */ (''),
/* preprocessor_version */ 'ST-DEVELOPER v20.1',
/* originating_system */ 'Autodesk Translation Framework v15.8.0.0',
/* authorisation */ '');

FILE_SCHEMA (('AUTOMOTIVE_DESIGN { 1 0 10303 214 3 1 1 }'));
ENDSEC;

DATA;
#10=MECHANICAL_DESIGN_GEOMETRIC_PRESENTATION_REPRESENTATION('',(#13),#697);
#11=SHAPE_REPRESENTATION_RELATIONSHIP('SRR','None',#704,#12);
#12=ADVANCED_BREP_SHAPE_REPRESENTATION('',(#14),#696);
#13=STYLED_ITEM('',(#713),#14);
#14=MANIFOLD_SOLID_BREP('Body1',#413);
#15=FACE_BOUND('',#60,.T.);
#16=PLANE('',#431);
#17=PLANE('',#435);
#18=PLANE('',#436);
#19=PLANE('',#443);
#20=PLANE('',#444);
#21=PLANE('',#446);
#22=PLANE('',#449);
#23=PLANE('',#450);
#24=PLANE('',#451);
#25=PLANE('',#452);
#26=PLANE('',#453);
#27=PLANE('',#454);
#28=PLANE('',#455);
#29=PLANE('',#456);
#30=PLANE('',#457);
#31=PLANE('',#458);
#32=PLANE('',#459);
#33=PLANE('',#460);
#34=PLANE('',#461);
#35=FACE_OUTER_BOUND('',#58,.T.);
#36=FACE_OUTER_BOUND('',#59,.T.);
#37=FACE_OUTER_BOUND('',#61,.T.);
#38=FACE_OUTER_BOUND('',#62,.T.);
#39=FACE_OUTER_BOUND('',#63,.T.);
#40=FACE_OUTER_BOUND('',#64,.T.);
#41=FACE_OUTER_BOUND('',#65,.T.);
#42=FACE_OUTER_BOUND('',#66,.T.);
#43=FACE_OUTER_BOUND('',#67,.T.);
#44=FACE_OUTER_BOUND('',#68,.T.);
#45=FACE_OUTER_BOUND('',#69,.T.);
#46=FACE_OUTER_BOUND('',#70,.T.);
#47=FACE_OUTER_BOUND('',#71,.T.);
#48=FACE_OUTER_BOUND('',#72,.T.);
#49=FACE_OUTER_BOUND('',#73,.T.);
#50=FACE_OUTER_BOUND('',#74,.T.);
#51=FACE_OUTER_BOUND('',#75,.T.);
#52=FACE_OUTER_BOUND('',#76,.T.);
#53=FACE_OUTER_BOUND('',#77,.T.);
#54=FACE_OUTER_BOUND('',#78,.T.);
#55=FACE_OUTER_BOUND('',#79,.T.);
#56=FACE_OUTER_BOUND('',#80,.T.);
#57=FACE_OUTER_BOUND('',#81,.T.);
#58=EDGE_LOOP('',(#274,#275,#276,#277,#278));
#59=EDGE_LOOP('',(#279,#280,#281,#282,#283,#284,#285,#286));
#60=EDGE_LOOP('',(#287,#288,#289,#290));
#61=EDGE_LOOP('',(#291,#292,#293,#294));
#62=EDGE_LOOP('',(#295,#296,#297,#298,#299,#300));
#63=EDGE_LOOP('',(#301,#302,#303,#304,#305));
#64=EDGE_LOOP('',(#306,#307,#308,#309,#310));
#65=EDGE_LOOP('',(#311,#312,#313,#314));
#66=EDGE_LOOP('',(#315,#316,#317,#318,#319,#320));
#67=EDGE_LOOP('',(#321,#322,#323,#324,#325,#326));
#68=EDGE_LOOP('',(#327,#328,#329,#330,#331));
#69=EDGE_LOOP('',(#332,#333,#334,#335));
#70=EDGE_LOOP('',(#336,#337,#338,#339,#340,#341));
#71=EDGE_LOOP('',(#342,#343,#344,#345));
#72=EDGE_LOOP('',(#346,#347,#348,#349));
#73=EDGE_LOOP('',(#350,#351,#352,#353));
#74=EDGE_LOOP('',(#354,#355,#356,#357));
#75=EDGE_LOOP('',(#358,#359,#360,#361));
#76=EDGE_LOOP('',(#362,#363,#364,#365));
#77=EDGE_LOOP('',(#366,#367,#368,#369));
#78=EDGE_LOOP('',(#370,#371,#372,#373));
#79=EDGE_LOOP('',(#374,#375,#376,#377));
#80=EDGE_LOOP('',(#378,#379,#380,#381));
#81=EDGE_LOOP('',(#382,#383,#384,#385));
#82=ELLIPSE('',#429,1.4142135623731,1.);
#83=ELLIPSE('',#430,1.41421356237309,1.);
#84=ELLIPSE('',#437,1.41421356237309,1.);
#85=ELLIPSE('',#439,1.41421356237309,1.);
#86=ELLIPSE('',#441,1.41421356237309,1.);
#87=ELLIPSE('',#442,1.41421356237309,1.);
#88=ELLIPSE('',#445,1.41421356237309,1.);
#89=ELLIPSE('',#448,1.4142135623731,1.);
#90=LINE('',#584,#134);
#91=LINE('',#589,#135);
#92=LINE('',#592,#136);
#93=LINE('',#596,#137);
#94=LINE('',#600,#138);
#95=LINE('',#603,#139);
#96=LINE('',#606,#140);
#97=LINE('',#608,#141);
#98=LINE('',#610,#142);
#99=LINE('',#611,#143);
#100=LINE('',#614,#144);
#101=LINE('',#615,#145);
#102=LINE('',#618,#146);
#103=LINE('',#620,#147);
#104=LINE('',#622,#148);
#105=LINE('',#627,#149);
#106=LINE('',#630,#150);
#107=LINE('',#635,#151);
#108=LINE('',#638,#152);
#109=LINE('',#639,#153);
#110=LINE('',#642,#154);
#111=LINE('',#644,#155);
#112=LINE('',#646,#156);
#113=LINE('',#649,#157);
#114=LINE('',#650,#158);
#115=LINE('',#654,#159);
#116=LINE('',#656,#160);
#117=LINE('',#658,#161);
#118=LINE('',#661,#162);
#119=LINE('',#663,#163);
#120=LINE('',#664,#164);
#121=LINE('',#667,#165);
#122=LINE('',#668,#166);
#123=LINE('',#671,#167);
#124=LINE('',#672,#168);
#125=LINE('',#674,#169);
#126=LINE('',#677,#170);
#127=LINE('',#679,#171);
#128=LINE('',#680,#172);
#129=LINE('',#683,#173);
#130=LINE('',#684,#174);
#131=LINE('',#689,#175);
#132=LINE('',#690,#176);
#133=LINE('',#692,#177);
#134=VECTOR('',#468,10.);
#135=VECTOR('',#473,10.);
#136=VECTOR('',#476,10.);
#137=VECTOR('',#479,10.);
#138=VECTOR('',#482,10.);
#139=VECTOR('',#485,10.);
#140=VECTOR('',#486,10.);
#141=VECTOR('',#487,10.);
#142=VECTOR('',#488,10.);
#143=VECTOR('',#489,10.);
#144=VECTOR('',#492,10.);
#145=VECTOR('',#493,10.);
#146=VECTOR('',#496,10.);
#147=VECTOR('',#497,10.);
#148=VECTOR('',#498,10.);
#149=VECTOR('',#505,10.);
#150=VECTOR('',#508,10.);
#151=VECTOR('',#513,10.);
#152=VECTOR('',#516,10.);
#153=VECTOR('',#517,10.);
#154=VECTOR('',#520,10.);
#155=VECTOR('',#521,10.);
#156=VECTOR('',#522,10.);
#157=VECTOR('',#527,10.);
#158=VECTOR('',#528,10.);
#159=VECTOR('',#533,10.);
#160=VECTOR('',#536,10.);
#161=VECTOR('',#539,10.);
#162=VECTOR('',#542,10.);
#163=VECTOR('',#543,10.);
#164=VECTOR('',#544,10.);
#165=VECTOR('',#547,10.);
#166=VECTOR('',#548,10.);
#167=VECTOR('',#551,10.);
#168=VECTOR('',#552,10.);
#169=VECTOR('',#555,10.);
#170=VECTOR('',#558,10.);
#171=VECTOR('',#559,10.);
#172=VECTOR('',#560,10.);
#173=VECTOR('',#563,10.);
#174=VECTOR('',#564,10.);
#175=VECTOR('',#571,10.);
#176=VECTOR('',#572,10.);
#177=VECTOR('',#575,10.);
#178=CIRCLE('',#428,1.);
#179=CIRCLE('',#432,1.);
#180=CIRCLE('',#433,1.);
#181=CIRCLE('',#434,1.);
#182=VERTEX_POINT('',#580);
#183=VERTEX_POINT('',#581);
#184=VERTEX_POINT('',#583);
#185=VERTEX_POINT('',#585);
#186=VERTEX_POINT('',#587);
#187=VERTEX_POINT('',#591);
#188=VERTEX_POINT('',#593);
#189=VERTEX_POINT('',#595);
#190=VERTEX_POINT('',#597);
#191=VERTEX_POINT('',#599);
#192=VERTEX_POINT('',#601);
#193=VERTEX_POINT('',#604);
#194=VERTEX_POINT('',#605);
#195=VERTEX_POINT('',#607);
#196=VERTEX_POINT('',#609);
#197=VERTEX_POINT('',#613);
#198=VERTEX_POINT('',#617);
#199=VERTEX_POINT('',#619);
#200=VERTEX_POINT('',#621);
#201=VERTEX_POINT('',#625);
#202=VERTEX_POINT('',#629);
#203=VERTEX_POINT('',#631);
#204=VERTEX_POINT('',#633);
#205=VERTEX_POINT('',#637);
#206=VERTEX_POINT('',#641);
#207=VERTEX_POINT('',#643);
#208=VERTEX_POINT('',#645);
#209=VERTEX_POINT('',#652);
#210=VERTEX_POINT('',#660);
#211=VERTEX_POINT('',#662);
#212=VERTEX_POINT('',#666);
#213=VERTEX_POINT('',#670);
#214=VERTEX_POINT('',#676);
#215=VERTEX_POINT('',#678);
#216=VERTEX_POINT('',#682);
#217=VERTEX_POINT('',#688);
#218=EDGE_CURVE('',#182,#183,#178,.T.);
#219=EDGE_CURVE('',#183,#184,#90,.T.);
#220=EDGE_CURVE('',#184,#185,#82,.T.);
#221=EDGE_CURVE('',#185,#186,#83,.T.);
#222=EDGE_CURVE('',#186,#182,#91,.T.);
#223=EDGE_CURVE('',#182,#187,#92,.T.);
#224=EDGE_CURVE('',#188,#187,#179,.T.);
#225=EDGE_CURVE('',#188,#189,#93,.T.);
#226=EDGE_CURVE('',#190,#189,#180,.T.);
#227=EDGE_CURVE('',#190,#191,#94,.T.);
#228=EDGE_CURVE('',#192,#191,#181,.T.);
#229=EDGE_CURVE('',#192,#183,#95,.T.);
#230=EDGE_CURVE('',#193,#194,#96,.T.);
#231=EDGE_CURVE('',#195,#193,#97,.T.);
#232=EDGE_CURVE('',#196,#195,#98,.T.);
#233=EDGE_CURVE('',#194,#196,#99,.T.);
#234=EDGE_CURVE('',#197,#186,#100,.T.);
#235=EDGE_CURVE('',#187,#197,#101,.T.);
#236=EDGE_CURVE('',#198,#185,#102,.T.);
#237=EDGE_CURVE('',#198,#199,#103,.T.);
#238=EDGE_CURVE('',#200,#199,#104,.T.);
#239=EDGE_CURVE('',#197,#200,#84,.T.);
#240=EDGE_CURVE('',#200,#201,#85,.T.);
#241=EDGE_CURVE('',#201,#188,#105,.T.);
#242=EDGE_CURVE('',#189,#202,#106,.T.);
#243=EDGE_CURVE('',#202,#203,#86,.T.);
#244=EDGE_CURVE('',#203,#204,#87,.T.);
#245=EDGE_CURVE('',#204,#190,#107,.T.);
#246=EDGE_CURVE('',#205,#204,#108,.T.);
#247=EDGE_CURVE('',#191,#205,#109,.T.);
#248=EDGE_CURVE('',#206,#203,#110,.T.);
#249=EDGE_CURVE('',#206,#207,#111,.T.);
#250=EDGE_CURVE('',#207,#208,#112,.T.);
#251=EDGE_CURVE('',#205,#208,#88,.T.);
#252=EDGE_CURVE('',#199,#206,#113,.T.);
#253=EDGE_CURVE('',#202,#201,#114,.T.);
#254=EDGE_CURVE('',#208,#209,#89,.T.);
#255=EDGE_CURVE('',#209,#192,#115,.T.);
#256=EDGE_CURVE('',#184,#209,#116,.T.);
#257=EDGE_CURVE('',#207,#198,#117,.T.);
#258=EDGE_CURVE('',#194,#210,#118,.T.);
#259=EDGE_CURVE('',#210,#211,#119,.T.);
#260=EDGE_CURVE('',#193,#211,#120,.T.);
#261=EDGE_CURVE('',#196,#212,#121,.T.);
#262=EDGE_CURVE('',#212,#210,#122,.T.);
#263=EDGE_CURVE('',#195,#213,#123,.T.);
#264=EDGE_CURVE('',#213,#212,#124,.T.);
#265=EDGE_CURVE('',#211,#213,#125,.T.);
#266=EDGE_CURVE('',#214,#211,#126,.T.);
#267=EDGE_CURVE('',#215,#214,#127,.T.);
#268=EDGE_CURVE('',#215,#213,#128,.T.);
#269=EDGE_CURVE('',#216,#210,#129,.T.);
#270=EDGE_CURVE('',#214,#216,#130,.T.);
#271=EDGE_CURVE('',#217,#215,#131,.T.);
#272=EDGE_CURVE('',#217,#212,#132,.T.);
#273=EDGE_CURVE('',#216,#217,#133,.T.);
#274=ORIENTED_EDGE('',*,*,#218,.T.);
#275=ORIENTED_EDGE('',*,*,#219,.T.);
#276=ORIENTED_EDGE('',*,*,#220,.T.);
#277=ORIENTED_EDGE('',*,*,#221,.T.);
#278=ORIENTED_EDGE('',*,*,#222,.T.);
#279=ORIENTED_EDGE('',*,*,#218,.F.);
#280=ORIENTED_EDGE('',*,*,#223,.T.);
#281=ORIENTED_EDGE('',*,*,#224,.F.);
#282=ORIENTED_EDGE('',*,*,#225,.T.);
#283=ORIENTED_EDGE('',*,*,#226,.F.);
#284=ORIENTED_EDGE('',*,*,#227,.T.);
#285=ORIENTED_EDGE('',*,*,#228,.F.);
#286=ORIENTED_EDGE('',*,*,#229,.T.);
#287=ORIENTED_EDGE('',*,*,#230,.F.);
#288=ORIENTED_EDGE('',*,*,#231,.F.);
#289=ORIENTED_EDGE('',*,*,#232,.F.);
#290=ORIENTED_EDGE('',*,*,#233,.F.);
#291=ORIENTED_EDGE('',*,*,#222,.F.);
#292=ORIENTED_EDGE('',*,*,#234,.F.);
#293=ORIENTED_EDGE('',*,*,#235,.F.);
#294=ORIENTED_EDGE('',*,*,#223,.F.);
#295=ORIENTED_EDGE('',*,*,#221,.F.);
#296=ORIENTED_EDGE('',*,*,#236,.F.);
#297=ORIENTED_EDGE('',*,*,#237,.T.);
#298=ORIENTED_EDGE('',*,*,#238,.F.);
#299=ORIENTED_EDGE('',*,*,#239,.F.);
#300=ORIENTED_EDGE('',*,*,#234,.T.);
#301=ORIENTED_EDGE('',*,*,#224,.T.);
#302=ORIENTED_EDGE('',*,*,#235,.T.);
#303=ORIENTED_EDGE('',*,*,#239,.T.);
#304=ORIENTED_EDGE('',*,*,#240,.T.);
#305=ORIENTED_EDGE('',*,*,#241,.T.);
#306=ORIENTED_EDGE('',*,*,#226,.T.);
#307=ORIENTED_EDGE('',*,*,#242,.T.);
#308=ORIENTED_EDGE('',*,*,#243,.T.);
#309=ORIENTED_EDGE('',*,*,#244,.T.);
#310=ORIENTED_EDGE('',*,*,#245,.T.);
#311=ORIENTED_EDGE('',*,*,#245,.F.);
#312=ORIENTED_EDGE('',*,*,#246,.F.);
#313=ORIENTED_EDGE('',*,*,#247,.F.);
#314=ORIENTED_EDGE('',*,*,#227,.F.);
#315=ORIENTED_EDGE('',*,*,#244,.F.);
#316=ORIENTED_EDGE('',*,*,#248,.F.);
#317=ORIENTED_EDGE('',*,*,#249,.T.);
#318=ORIENTED_EDGE('',*,*,#250,.T.);
#319=ORIENTED_EDGE('',*,*,#251,.F.);
#320=ORIENTED_EDGE('',*,*,#246,.T.);
#321=ORIENTED_EDGE('',*,*,#240,.F.);
#322=ORIENTED_EDGE('',*,*,#238,.T.);
#323=ORIENTED_EDGE('',*,*,#252,.T.);
#324=ORIENTED_EDGE('',*,*,#248,.T.);
#325=ORIENTED_EDGE('',*,*,#243,.F.);
#326=ORIENTED_EDGE('',*,*,#253,.T.);
#327=ORIENTED_EDGE('',*,*,#228,.T.);
#328=ORIENTED_EDGE('',*,*,#247,.T.);
#329=ORIENTED_EDGE('',*,*,#251,.T.);
#330=ORIENTED_EDGE('',*,*,#254,.T.);
#331=ORIENTED_EDGE('',*,*,#255,.T.);
#332=ORIENTED_EDGE('',*,*,#219,.F.);
#333=ORIENTED_EDGE('',*,*,#229,.F.);
#334=ORIENTED_EDGE('',*,*,#255,.F.);
#335=ORIENTED_EDGE('',*,*,#256,.F.);
#336=ORIENTED_EDGE('',*,*,#220,.F.);
#337=ORIENTED_EDGE('',*,*,#256,.T.);
#338=ORIENTED_EDGE('',*,*,#254,.F.);
#339=ORIENTED_EDGE('',*,*,#250,.F.);
#340=ORIENTED_EDGE('',*,*,#257,.T.);
#341=ORIENTED_EDGE('',*,*,#236,.T.);
#342=ORIENTED_EDGE('',*,*,#230,.T.);
#343=ORIENTED_EDGE('',*,*,#258,.T.);
#344=ORIENTED_EDGE('',*,*,#259,.T.);
#345=ORIENTED_EDGE('',*,*,#260,.F.);
#346=ORIENTED_EDGE('',*,*,#233,.T.);
#347=ORIENTED_EDGE('',*,*,#261,.T.);
#348=ORIENTED_EDGE('',*,*,#262,.T.);
#349=ORIENTED_EDGE('',*,*,#258,.F.);
#350=ORIENTED_EDGE('',*,*,#232,.T.);
#351=ORIENTED_EDGE('',*,*,#263,.T.);
#352=ORIENTED_EDGE('',*,*,#264,.T.);
#353=ORIENTED_EDGE('',*,*,#261,.F.);
#354=ORIENTED_EDGE('',*,*,#265,.T.);
#355=ORIENTED_EDGE('',*,*,#263,.F.);
#356=ORIENTED_EDGE('',*,*,#231,.T.);
#357=ORIENTED_EDGE('',*,*,#260,.T.);
#358=ORIENTED_EDGE('',*,*,#265,.F.);
#359=ORIENTED_EDGE('',*,*,#266,.F.);
#360=ORIENTED_EDGE('',*,*,#267,.F.);
#361=ORIENTED_EDGE('',*,*,#268,.T.);
#362=ORIENTED_EDGE('',*,*,#259,.F.);
#363=ORIENTED_EDGE('',*,*,#269,.F.);
#364=ORIENTED_EDGE('',*,*,#270,.F.);
#365=ORIENTED_EDGE('',*,*,#266,.T.);
#366=ORIENTED_EDGE('',*,*,#241,.F.);
#367=ORIENTED_EDGE('',*,*,#253,.F.);
#368=ORIENTED_EDGE('',*,*,#242,.F.);
#369=ORIENTED_EDGE('',*,*,#225,.F.);
#370=ORIENTED_EDGE('',*,*,#252,.F.);
#371=ORIENTED_EDGE('',*,*,#237,.F.);
#372=ORIENTED_EDGE('',*,*,#257,.F.);
#373=ORIENTED_EDGE('',*,*,#249,.F.);
#374=ORIENTED_EDGE('',*,*,#264,.F.);
#375=ORIENTED_EDGE('',*,*,#268,.F.);
#376=ORIENTED_EDGE('',*,*,#271,.F.);
#377=ORIENTED_EDGE('',*,*,#272,.T.);
#378=ORIENTED_EDGE('',*,*,#262,.F.);
#379=ORIENTED_EDGE('',*,*,#272,.F.);
#380=ORIENTED_EDGE('',*,*,#273,.F.);
#381=ORIENTED_EDGE('',*,*,#269,.T.);
#382=ORIENTED_EDGE('',*,*,#273,.T.);
#383=ORIENTED_EDGE('',*,*,#271,.T.);
#384=ORIENTED_EDGE('',*,*,#267,.T.);
#385=ORIENTED_EDGE('',*,*,#270,.T.);
#386=CYLINDRICAL_SURFACE('',#427,1.);
#387=CYLINDRICAL_SURFACE('',#438,1.);
#388=CYLINDRICAL_SURFACE('',#440,1.);
#389=CYLINDRICAL_SURFACE('',#447,1.);
#390=ADVANCED_FACE('',(#35),#386,.T.);
#391=ADVANCED_FACE('',(#36,#15),#16,.T.);
#392=ADVANCED_FACE('',(#37),#17,.T.);
#393=ADVANCED_FACE('',(#38),#18,.T.);
#394=ADVANCED_FACE('',(#39),#387,.T.);
#395=ADVANCED_FACE('',(#40),#388,.T.);
#396=ADVANCED_FACE('',(#41),#19,.T.);
#397=ADVANCED_FACE('',(#42),#20,.T.);
#398=ADVANCED_FACE('',(#43),#21,.T.);
#399=ADVANCED_FACE('',(#44),#389,.T.);
#400=ADVANCED_FACE('',(#45),#22,.T.);
#401=ADVANCED_FACE('',(#46),#23,.T.);
#402=ADVANCED_FACE('',(#47),#24,.T.);
#403=ADVANCED_FACE('',(#48),#25,.T.);
#404=ADVANCED_FACE('',(#49),#26,.T.);
#405=ADVANCED_FACE('',(#50),#27,.T.);
#406=ADVANCED_FACE('',(#51),#28,.T.);
#407=ADVANCED_FACE('',(#52),#29,.T.);
#408=ADVANCED_FACE('',(#53),#30,.T.);
#409=ADVANCED_FACE('',(#54),#31,.F.);
#410=ADVANCED_FACE('',(#55),#32,.T.);
#411=ADVANCED_FACE('',(#56),#33,.T.);
#412=ADVANCED_FACE('',(#57),#34,.T.);
#413=CLOSED_SHELL('',(#390,#391,#392,#393,#394,#395,#396,#397,#398,#399,
#400,#401,#402,#403,#404,#405,#406,#407,#408,#409,#410,#411,#412));
#414=DERIVED_UNIT_ELEMENT(#416,1.);
#415=DERIVED_UNIT_ELEMENT(#699,-3.);
#416=(
MASS_UNIT()
NAMED_UNIT(*)
SI_UNIT(.KILO.,.GRAM.)
);
#417=DERIVED_UNIT((#414,#415));
#418=MEASURE_REPRESENTATION_ITEM('density measure',
POSITIVE_RATIO_MEASURE(7850.),#417);
#419=PROPERTY_DEFINITION_REPRESENTATION(#424,#421);
#420=PROPERTY_DEFINITION_REPRESENTATION(#425,#422);
#421=REPRESENTATION('material name',(#423),#696);
#422=REPRESENTATION('density',(#418),#696);
#423=DESCRIPTIVE_REPRESENTATION_ITEM('Steel','Steel');
#424=PROPERTY_DEFINITION('material property','material name',#706);
#425=PROPERTY_DEFINITION('material property','density of part',#706);
#426=AXIS2_PLACEMENT_3D('',#578,#462,#463);
#427=AXIS2_PLACEMENT_3D('',#579,#464,#465);
#428=AXIS2_PLACEMENT_3D('',#582,#466,#467);
#429=AXIS2_PLACEMENT_3D('',#586,#469,#470);
#430=AXIS2_PLACEMENT_3D('',#588,#471,#472);
#431=AXIS2_PLACEMENT_3D('',#590,#474,#475);
#432=AXIS2_PLACEMENT_3D('',#594,#477,#478);
#433=AXIS2_PLACEMENT_3D('',#598,#480,#481);
#434=AXIS2_PLACEMENT_3D('',#602,#483,#484);
#435=AXIS2_PLACEMENT_3D('',#612,#490,#491);
#436=AXIS2_PLACEMENT_3D('',#616,#494,#495);
#437=AXIS2_PLACEMENT_3D('',#623,#499,#500);
#438=AXIS2_PLACEMENT_3D('',#624,#501,#502);
#439=AXIS2_PLACEMENT_3D('',#626,#503,#504);
#440=AXIS2_PLACEMENT_3D('',#628,#506,#507);
#441=AXIS2_PLACEMENT_3D('',#632,#509,#510);
#442=AXIS2_PLACEMENT_3D('',#634,#511,#512);
#443=AXIS2_PLACEMENT_3D('',#636,#514,#515);
#444=AXIS2_PLACEMENT_3D('',#640,#518,#519);
#445=AXIS2_PLACEMENT_3D('',#647,#523,#524);
#446=AXIS2_PLACEMENT_3D('',#648,#525,#526);
#447=AXIS2_PLACEMENT_3D('',#651,#529,#530);
#448=AXIS2_PLACEMENT_3D('',#653,#531,#532);
#449=AXIS2_PLACEMENT_3D('',#655,#534,#535);
#450=AXIS2_PLACEMENT_3D('',#657,#537,#538);
#451=AXIS2_PLACEMENT_3D('',#659,#540,#541);
#452=AXIS2_PLACEMENT_3D('',#665,#545,#546);
#453=AXIS2_PLACEMENT_3D('',#669,#549,#550);
#454=AXIS2_PLACEMENT_3D('',#673,#553,#554);
#455=AXIS2_PLACEMENT_3D('',#675,#556,#557);
#456=AXIS2_PLACEMENT_3D('',#681,#561,#562);
#457=AXIS2_PLACEMENT_3D('',#685,#565,#566);
#458=AXIS2_PLACEMENT_3D('',#686,#567,#568);
#459=AXIS2_PLACEMENT_3D('',#687,#569,#570);
#460=AXIS2_PLACEMENT_3D('',#691,#573,#574);
#461=AXIS2_PLACEMENT_3D('',#693,#576,#577);
#462=DIRECTION('axis',(0.,0.,1.));
#463=DIRECTION('refdir',(1.,0.,0.));
#464=DIRECTION('center_axis',(0.,0.,1.));
#465=DIRECTION('ref_axis',(0.707106781186547,-0.707106781186548,0.));
#466=DIRECTION('center_axis',(0.,0.,-1.));
#467=DIRECTION('ref_axis',(0.707106781186547,-0.707106781186548,0.));
#468=DIRECTION('',(0.,0.,-1.));
#469=DIRECTION('center_axis',(-2.30466649185406E-16,0.707106781186549,0.707106781186546));
#470=DIRECTION('ref_axis',(2.45326946669339E-16,-0.707106781186546,0.707106781186549));
#471=DIRECTION('center_axis',(-0.707106781186547,-1.99588024408954E-16,
0.707106781186548));
#472=DIRECTION('ref_axis',(0.707106781186548,2.4532694666934E-16,0.707106781186547));
#473=DIRECTION('',(0.,0.,1.));
#474=DIRECTION('center_axis',(0.,0.,1.));
#475=DIRECTION('ref_axis',(1.,0.,0.));
#476=DIRECTION('',(-2.82260091006396E-16,1.,0.));
#477=DIRECTION('center_axis',(0.,0.,-1.));
#478=DIRECTION('ref_axis',(0.707106781186547,0.707106781186548,0.));
#479=DIRECTION('',(-1.,0.,0.));
#480=DIRECTION('center_axis',(0.,0.,-1.));
#481=DIRECTION('ref_axis',(-0.707106781186547,0.707106781186548,0.));
#482=DIRECTION('',(1.31721375802985E-15,-1.,0.));
#483=DIRECTION('center_axis',(0.,0.,-1.));
#484=DIRECTION('ref_axis',(-0.707106781186547,-0.707106781186548,0.));
#485=DIRECTION('',(1.,3.25929060952683E-16,0.));
#486=DIRECTION('',(-1.,1.08384935693963E-15,0.));
#487=DIRECTION('',(6.167905692362E-16,1.,0.));
#488=DIRECTION('',(1.,-1.08384935693963E-15,0.));
#489=DIRECTION('',(-1.74757327950257E-15,-1.,0.));
#490=DIRECTION('center_axis',(1.,2.82260091006396E-16,0.));
#491=DIRECTION('ref_axis',(-2.82260091006396E-16,1.,0.));
#492=DIRECTION('',(2.82260091006396E-16,-1.,0.));
#493=DIRECTION('',(0.,0.,-1.));
#494=DIRECTION('center_axis',(0.707106781186547,1.99588024408954E-16,-0.707106781186548));
#495=DIRECTION('ref_axis',(-0.707106781186548,0.,-0.707106781186547));
#496=DIRECTION('',(0.577350269189629,-0.577350269189622,0.577350269189627));
#497=DIRECTION('',(-2.82260091006396E-16,1.,0.));
#498=DIRECTION('',(-0.577350269189626,-0.577350269189626,-0.577350269189625));
#499=DIRECTION('center_axis',(-0.707106781186547,-1.99588024408954E-16,
0.707106781186548));
#500=DIRECTION('ref_axis',(0.707106781186548,1.47196168001604E-16,0.707106781186547));
#501=DIRECTION('center_axis',(0.,0.,1.));
#502=DIRECTION('ref_axis',(0.707106781186547,0.707106781186548,0.));
#503=DIRECTION('center_axis',(0.,-0.707106781186547,0.707106781186548));
#504=DIRECTION('ref_axis',(-9.8130778667736E-17,0.707106781186548,0.707106781186547));
#505=DIRECTION('',(0.,0.,1.));
#506=DIRECTION('center_axis',(0.,0.,1.));
#507=DIRECTION('ref_axis',(-0.707106781186547,0.707106781186548,0.));
#508=DIRECTION('',(0.,0.,-1.));
#509=DIRECTION('center_axis',(0.,-0.707106781186547,0.707106781186548));
#510=DIRECTION('ref_axis',(9.8130778667736E-17,0.707106781186548,0.707106781186547));
#511=DIRECTION('center_axis',(0.707106781186546,9.31410780575119E-16,0.707106781186549));
#512=DIRECTION('ref_axis',(-0.707106781186548,-9.32242397343493E-16,0.707106781186546));
#513=DIRECTION('',(0.,0.,1.));
#514=DIRECTION('center_axis',(-1.,-1.31721375802985E-15,0.));
#515=DIRECTION('ref_axis',(1.31721375802985E-15,-1.,0.));
#516=DIRECTION('',(-1.31721375802985E-15,1.,0.));
#517=DIRECTION('',(0.,0.,-1.));
#518=DIRECTION('center_axis',(-0.707106781186546,-9.31410780575119E-16,
-0.707106781186549));
#519=DIRECTION('ref_axis',(-0.707106781186549,0.,0.707106781186546));
#520=DIRECTION('',(-0.577350269189627,0.577350269189626,0.577350269189625));
#521=DIRECTION('',(1.31721375802985E-15,-1.,0.));
#522=DIRECTION('',(-0.577350269189626,-0.577350269189625,0.577350269189627));
#523=DIRECTION('center_axis',(0.707106781186546,9.31410780575119E-16,0.707106781186549));
#524=DIRECTION('ref_axis',(-0.707106781186549,-9.32242397343493E-16,0.707106781186546));
#525=DIRECTION('center_axis',(0.,0.707106781186547,-0.707106781186548));
#526=DIRECTION('ref_axis',(-1.,0.,0.));
#527=DIRECTION('',(-1.,0.,0.));
#528=DIRECTION('',(1.,0.,0.));
#529=DIRECTION('center_axis',(0.,0.,1.));
#530=DIRECTION('ref_axis',(-0.707106781186547,-0.707106781186548,0.));
#531=DIRECTION('center_axis',(-2.30466649185406E-16,0.707106781186549,0.707106781186546));
#532=DIRECTION('ref_axis',(1.96261557335472E-16,-0.707106781186546,0.707106781186549));
#533=DIRECTION('',(0.,0.,1.));
#534=DIRECTION('center_axis',(3.25929060952683E-16,-1.,0.));
#535=DIRECTION('ref_axis',(1.,3.25929060952683E-16,0.));
#536=DIRECTION('',(-1.,-3.25929060952683E-16,0.));
#537=DIRECTION('center_axis',(2.30466649185406E-16,-0.707106781186549,-0.707106781186546));
#538=DIRECTION('ref_axis',(-1.,0.,-3.25929060952684E-16));
#539=DIRECTION('',(1.,3.25929060952683E-16,0.));
#540=DIRECTION('center_axis',(-7.6639723007669E-16,-0.707106781186548,0.707106781186548));
#541=DIRECTION('ref_axis',(1.,0.,1.08384935693963E-15));
#542=DIRECTION('',(0.577350269189624,-0.577350269189628,-0.577350269189626));
#543=DIRECTION('',(1.,-1.08384935693963E-15,0.));
#544=DIRECTION('',(-0.577350269189627,-0.577350269189625,-0.577350269189625));
#545=DIRECTION('center_axis',(0.707106781186549,-1.23572091655668E-15,0.707106781186546));
#546=DIRECTION('ref_axis',(0.707106781186546,0.,-0.707106781186549));
#547=DIRECTION('',(0.577350269189624,0.577350269189626,-0.577350269189626));
#548=DIRECTION('',(1.74757327950257E-15,1.,0.));
#549=DIRECTION('center_axis',(7.66397230076689E-16,0.707106781186548,0.707106781186548));
#550=DIRECTION('ref_axis',(1.,0.,-1.08384935693963E-15));
#551=DIRECTION('',(-0.577350269189625,0.577350269189627,-0.577350269189625));
#552=DIRECTION('',(-1.,1.08384935693963E-15,0.));
#553=DIRECTION('center_axis',(-0.707106781186548,4.36136794078827E-16,0.707106781186548));
#554=DIRECTION('ref_axis',(0.707106781186548,0.,0.707106781186548));
#555=DIRECTION('',(-6.167905692362E-16,-1.,0.));
#556=DIRECTION('center_axis',(-1.,6.167905692362E-16,0.));
#557=DIRECTION('ref_axis',(-6.167905692362E-16,-1.,0.));
#558=DIRECTION('',(0.,0.,1.));
#559=DIRECTION('',(6.167905692362E-16,1.,0.));
#560=DIRECTION('',(0.,0.,1.));
#561=DIRECTION('center_axis',(-1.08384935693963E-15,-1.,0.));
#562=DIRECTION('ref_axis',(1.,-1.08384935693963E-15,0.));
#563=DIRECTION('',(0.,0.,1.));
#564=DIRECTION('',(-1.,1.08384935693963E-15,0.));
#565=DIRECTION('center_axis',(0.,1.,0.));
#566=DIRECTION('ref_axis',(-1.,0.,0.));
#567=DIRECTION('center_axis',(0.,0.,1.));
#568=DIRECTION('ref_axis',(1.,0.,0.));
#569=DIRECTION('center_axis',(1.08384935693963E-15,1.,0.));
#570=DIRECTION('ref_axis',(-1.,1.08384935693963E-15,0.));
#571=DIRECTION('',(1.,-1.08384935693963E-15,0.));
#572=DIRECTION('',(0.,0.,1.));
#573=DIRECTION('center_axis',(1.,-1.74757327950257E-15,0.));
#574=DIRECTION('ref_axis',(1.74757327950257E-15,1.,0.));
#575=DIRECTION('',(-1.74757327950257E-15,-1.,0.));
#576=DIRECTION('center_axis',(0.,0.,1.));
#577=DIRECTION('ref_axis',(1.,0.,0.));
#578=CARTESIAN_POINT('',(0.,0.,0.));
#579=CARTESIAN_POINT('Origin',(9.21900000000001,-10.8,0.));
#580=CARTESIAN_POINT('',(10.219,-10.8,10.));
#581=CARTESIAN_POINT('',(9.21900000000001,-11.8,10.));
#582=CARTESIAN_POINT('Origin',(9.21900000000001,-10.8,10.));
#583=CARTESIAN_POINT('',(9.21900000000001,-11.8,0.5));
#584=CARTESIAN_POINT('',(9.21900000000001,-11.8,0.));
#585=CARTESIAN_POINT('',(9.92610678118656,-11.5071067811865,0.207106781186549));
#586=CARTESIAN_POINT('Origin',(9.21900000000001,-10.8,-0.500000000000002));
#587=CARTESIAN_POINT('',(10.219,-10.8,0.5));
#588=CARTESIAN_POINT('Origin',(9.21900000000001,-10.8,-0.499999999999998));
#589=CARTESIAN_POINT('',(10.219,-10.8,0.));
#590=CARTESIAN_POINT('Origin',(-6.66133814775094E-15,6.66133814775094E-15,
10.));
#591=CARTESIAN_POINT('',(10.219,10.8,10.));
#592=CARTESIAN_POINT('',(10.219,11.8,10.));
#593=CARTESIAN_POINT('',(9.219,11.8,10.));
#594=CARTESIAN_POINT('Origin',(9.219,10.8,10.));
#595=CARTESIAN_POINT('',(-9.21900000000002,11.8,10.));
#596=CARTESIAN_POINT('',(-10.219,11.8,10.));
#597=CARTESIAN_POINT('',(-10.219,10.8,10.));
#598=CARTESIAN_POINT('Origin',(-9.21900000000002,10.8,10.));
#599=CARTESIAN_POINT('',(-10.219,-10.8,10.));
#600=CARTESIAN_POINT('',(-10.219,-11.8,10.));
#601=CARTESIAN_POINT('',(-9.21899999999999,-11.8,10.));
#602=CARTESIAN_POINT('Origin',(-9.21899999999999,-10.8,10.));
#603=CARTESIAN_POINT('',(10.219,-11.8,10.));
#604=CARTESIAN_POINT('',(9.819,11.4,10.));
#605=CARTESIAN_POINT('',(-9.81899999999996,11.4,10.));
#606=CARTESIAN_POINT('',(-4.60949999999998,11.4,10.));
#607=CARTESIAN_POINT('',(9.81899999999998,-11.4,10.));
#608=CARTESIAN_POINT('',(9.81899999999999,5.39999999999999,10.));
#609=CARTESIAN_POINT('',(-9.819,-11.4,10.));
#610=CARTESIAN_POINT('',(4.60949999999998,-11.4,10.));
#611=CARTESIAN_POINT('',(-9.81899999999999,-5.39999999999996,10.));
#612=CARTESIAN_POINT('Origin',(10.219,-11.8,0.));
#613=CARTESIAN_POINT('',(10.219,10.8,0.5));
#614=CARTESIAN_POINT('',(10.219,-5.89999999999999,0.5));
#615=CARTESIAN_POINT('',(10.219,10.8,0.));
#616=CARTESIAN_POINT('Origin',(9.96900000000001,-5.89999999999999,0.25));
#617=CARTESIAN_POINT('',(9.71900000000001,-11.3,0.));
#618=CARTESIAN_POINT('',(9.71900000000001,-11.3,0.));
#619=CARTESIAN_POINT('',(9.719,11.3,0.));
#620=CARTESIAN_POINT('',(9.71900000000001,-5.89999999999999,0.));
#621=CARTESIAN_POINT('',(9.92610678118655,11.5071067811866,0.207106781186548));
#622=CARTESIAN_POINT('',(10.219,11.8,0.5));
#623=CARTESIAN_POINT('Origin',(9.219,10.8,-0.499999999999997));
#624=CARTESIAN_POINT('Origin',(9.219,10.8,0.));
#625=CARTESIAN_POINT('',(9.219,11.8,0.5));
#626=CARTESIAN_POINT('Origin',(9.219,10.8,-0.499999999999999));
#627=CARTESIAN_POINT('',(9.219,11.8,0.));
#628=CARTESIAN_POINT('Origin',(-9.21900000000002,10.8,0.));
#629=CARTESIAN_POINT('',(-9.21900000000002,11.8,0.5));
#630=CARTESIAN_POINT('',(-9.21900000000002,11.8,0.));
#631=CARTESIAN_POINT('',(-9.92610678118657,11.5071067811866,0.207106781186546));
#632=CARTESIAN_POINT('Origin',(-9.21900000000002,10.8,-0.500000000000001));
#633=CARTESIAN_POINT('',(-10.219,10.8,0.5));
#634=CARTESIAN_POINT('Origin',(-9.21900000000002,10.8,-0.499999999999997));
#635=CARTESIAN_POINT('',(-10.219,10.8,0.));
#636=CARTESIAN_POINT('Origin',(-10.219,11.8,0.));
#637=CARTESIAN_POINT('',(-10.219,-10.8,0.5));
#638=CARTESIAN_POINT('',(-10.219,5.9,0.5));
#639=CARTESIAN_POINT('',(-10.219,-10.8,0.));
#640=CARTESIAN_POINT('Origin',(-9.96900000000001,5.9,0.25));
#641=CARTESIAN_POINT('',(-9.71900000000002,11.3,0.));
#642=CARTESIAN_POINT('',(-9.71900000000002,11.3,0.));
#643=CARTESIAN_POINT('',(-9.71899999999999,-11.3,0.));
#644=CARTESIAN_POINT('',(-9.71900000000001,5.9,0.));
#645=CARTESIAN_POINT('',(-9.92610678118654,-11.5071067811865,0.207106781186547));
#646=CARTESIAN_POINT('',(-9.71899999999999,-11.3,0.));
#647=CARTESIAN_POINT('Origin',(-9.21899999999999,-10.8,-0.499999999999996));
#648=CARTESIAN_POINT('Origin',(5.1095,11.55,0.25));
#649=CARTESIAN_POINT('',(5.1095,11.3,0.));
#650=CARTESIAN_POINT('',(5.1095,11.8,0.5));
#651=CARTESIAN_POINT('Origin',(-9.21899999999999,-10.8,0.));
#652=CARTESIAN_POINT('',(-9.21899999999999,-11.8,0.5));
#653=CARTESIAN_POINT('Origin',(-9.21899999999999,-10.8,-0.500000000000004));
#654=CARTESIAN_POINT('',(-9.21899999999999,-11.8,0.));
#655=CARTESIAN_POINT('Origin',(-10.219,-11.8,0.));
#656=CARTESIAN_POINT('',(-5.10949999999999,-11.8,0.5));
#657=CARTESIAN_POINT('Origin',(-5.10949999999999,-11.55,0.25));
#658=CARTESIAN_POINT('',(-5.10949999999999,-11.3,0.));
#659=CARTESIAN_POINT('Origin',(-4.60949999999998,11.1,9.7));
#660=CARTESIAN_POINT('',(-9.21899999999996,10.8,9.4));
#661=CARTESIAN_POINT('',(-9.81899999999996,11.4,10.));
#662=CARTESIAN_POINT('',(9.219,10.8,9.4));
#663=CARTESIAN_POINT('',(-4.60949999999998,10.8,9.4));
#664=CARTESIAN_POINT('',(9.819,11.4,10.));
#665=CARTESIAN_POINT('Origin',(-9.51899999999999,-5.39999999999996,9.7));
#666=CARTESIAN_POINT('',(-9.219,-10.8,9.4));
#667=CARTESIAN_POINT('',(-9.819,-11.4,10.));
#668=CARTESIAN_POINT('',(-9.21899999999999,-5.39999999999996,9.4));
#669=CARTESIAN_POINT('Origin',(4.60949999999998,-11.1,9.7));
#670=CARTESIAN_POINT('',(9.21899999999998,-10.8,9.4));
#671=CARTESIAN_POINT('',(9.81899999999998,-11.4,10.));
#672=CARTESIAN_POINT('',(4.60949999999998,-10.8,9.4));
#673=CARTESIAN_POINT('Origin',(9.51899999999999,5.39999999999999,9.7));
#674=CARTESIAN_POINT('',(9.21899999999999,5.39999999999999,9.4));
#675=CARTESIAN_POINT('Origin',(9.219,10.8,0.));
#676=CARTESIAN_POINT('',(9.219,10.8,1.));
#677=CARTESIAN_POINT('',(9.219,10.8,0.));
#678=CARTESIAN_POINT('',(9.21899999999998,-10.8,1.));
#679=CARTESIAN_POINT('',(9.219,10.8,1.));
#680=CARTESIAN_POINT('',(9.21899999999998,-10.8,0.));
#681=CARTESIAN_POINT('Origin',(-9.21899999999996,10.8,0.));
#682=CARTESIAN_POINT('',(-9.21899999999996,10.8,1.));
#683=CARTESIAN_POINT('',(-9.21899999999996,10.8,0.));
#684=CARTESIAN_POINT('',(-9.21899999999996,10.8,1.));
#685=CARTESIAN_POINT('Origin',(10.219,11.8,0.));
#686=CARTESIAN_POINT('Origin',(-2.22044604925031E-15,1.33226762955019E-14,
0.));
#687=CARTESIAN_POINT('Origin',(9.21899999999998,-10.8,0.));
#688=CARTESIAN_POINT('',(-9.219,-10.8,1.));
#689=CARTESIAN_POINT('',(9.21899999999998,-10.8,1.));
#690=CARTESIAN_POINT('',(-9.219,-10.8,0.));
#691=CARTESIAN_POINT('Origin',(-9.219,-10.8,0.));
#692=CARTESIAN_POINT('',(-9.219,-10.8,1.));
#693=CARTESIAN_POINT('Origin',(-2.22044604925031E-15,1.33226762955019E-14,
1.));
#694=UNCERTAINTY_MEASURE_WITH_UNIT(LENGTH_MEASURE(0.01),#698,
'DISTANCE_ACCURACY_VALUE',
'Maximum model space distance between geometric entities at asserted c
onnectivities');
#695=UNCERTAINTY_MEASURE_WITH_UNIT(LENGTH_MEASURE(0.01),#698,
'DISTANCE_ACCURACY_VALUE',
'Maximum model space distance between geometric entities at asserted c
onnectivities');
#696=(
GEOMETRIC_REPRESENTATION_CONTEXT(3)
GLOBAL_UNCERTAINTY_ASSIGNED_CONTEXT((#694))
GLOBAL_UNIT_ASSIGNED_CONTEXT((#698,#700,#701))
REPRESENTATION_CONTEXT('','3D')
);
#697=(
GEOMETRIC_REPRESENTATION_CONTEXT(3)
GLOBAL_UNCERTAINTY_ASSIGNED_CONTEXT((#695))
GLOBAL_UNIT_ASSIGNED_CONTEXT((#698,#700,#701))
REPRESENTATION_CONTEXT('','3D')
);
#698=(
LENGTH_UNIT()
NAMED_UNIT(*)
SI_UNIT(.MILLI.,.METRE.)
);
#699=(
LENGTH_UNIT()
NAMED_UNIT(*)
SI_UNIT($,.METRE.)
);
#700=(
NAMED_UNIT(*)
PLANE_ANGLE_UNIT()
SI_UNIT($,.RADIAN.)
);
#701=(
NAMED_UNIT(*)
SI_UNIT($,.STERADIAN.)
SOLID_ANGLE_UNIT()
);
#702=SHAPE_DEFINITION_REPRESENTATION(#703,#704);
#703=PRODUCT_DEFINITION_SHAPE('',$,#706);
#704=SHAPE_REPRESENTATION('',(#426),#696);
#705=PRODUCT_DEFINITION_CONTEXT('part definition',#710,'design');
#706=PRODUCT_DEFINITION('box-normal','box-normal v3',#707,#705);
#707=PRODUCT_DEFINITION_FORMATION('',$,#712);
#708=PRODUCT_RELATED_PRODUCT_CATEGORY('box-normal v3','box-normal v3',(#712));
#709=APPLICATION_PROTOCOL_DEFINITION('international standard',
'automotive_design',2009,#710);
#710=APPLICATION_CONTEXT(
'Core Data for Automotive Mechanical Design Process');
#711=PRODUCT_CONTEXT('part definition',#710,'mechanical');
#712=PRODUCT('box-normal','box-normal v3',$,(#711));
#713=PRESENTATION_STYLE_ASSIGNMENT((#714));
#714=SURFACE_STYLE_USAGE(.BOTH.,#715);
#715=SURFACE_SIDE_STYLE('',(#716));
#716=SURFACE_STYLE_FILL_AREA(#717);
#717=FILL_AREA_STYLE('Steel - Satin',(#718));
#718=FILL_AREA_STYLE_COLOUR('Steel - Satin',#719);
#719=COLOUR_RGB('Steel - Satin',0.627450980392157,0.627450980392157,0.627450980392157);
ENDSEC;
END-ISO-10303-21;
