ISO-10303-21;
HEADER;
/* Generated by software containing ST-Developer
 * from STEP Tools, Inc. (www.steptools.com) 
 */

FILE_DESCRIPTION(
/* description */ (''),
/* implementation_level */ '2;1');

FILE_NAME(
/* name */ '',
/* time_stamp */ '2026-08-22T15:27:20+08:00',
/* author */ (''),
/* organization */ (''),
/* preprocessor_version */ 'ST-DEVELOPER v20.1',
/* originating_system */ 'Autodesk Translation Framework v15.8.0.0',
/* authorisation */ '');

FILE_SCHEMA (('AUTOMOTIVE_DESIGN { 1 0 10303 214 3 1 1 }'));
ENDSEC;

DATA;
#10=MECHANICAL_DESIGN_GEOMETRIC_PRESENTATION_REPRESENTATION('',(#13),#390);
#11=SHAPE_REPRESENTATION_RELATIONSHIP('SRR','None',#397,#12);
#12=ADVANCED_BREP_SHAPE_REPRESENTATION('',(#14),#389);
#13=STYLED_ITEM('',(#406),#14);
#14=MANIFOLD_SOLID_BREP('Body1',#220);
#15=FACE_BOUND('',#55,.T.);
#16=FACE_BOUND('',#57,.T.);
#17=CYLINDRICAL_SURFACE('',#243,2.5);
#18=CYLINDRICAL_SURFACE('',#247,2.5);
#19=CYLINDRICAL_SURFACE('',#250,3.5);
#20=CIRCLE('',#236,2.5);
#21=CIRCLE('',#239,2.5);
#22=CIRCLE('',#244,2.5);
#23=CIRCLE('',#245,2.5);
#24=CIRCLE('',#248,2.5);
#25=CIRCLE('',#249,2.5);
#26=CIRCLE('',#251,3.5);
#27=CIRCLE('',#252,3.5);
#28=CONICAL_SURFACE('',#235,1.,0.785398163397448);
#29=CONICAL_SURFACE('',#238,1.,0.785398163397448);
#30=FACE_OUTER_BOUND('',#43,.T.);
#31=FACE_OUTER_BOUND('',#44,.T.);
#32=FACE_OUTER_BOUND('',#45,.T.);
#33=FACE_OUTER_BOUND('',#46,.T.);
#34=FACE_OUTER_BOUND('',#47,.T.);
#35=FACE_OUTER_BOUND('',#48,.T.);
#36=FACE_OUTER_BOUND('',#49,.T.);
#37=FACE_OUTER_BOUND('',#50,.T.);
#38=FACE_OUTER_BOUND('',#51,.T.);
#39=FACE_OUTER_BOUND('',#52,.T.);
#40=FACE_OUTER_BOUND('',#53,.T.);
#41=FACE_OUTER_BOUND('',#54,.T.);
#42=FACE_OUTER_BOUND('',#56,.T.);
#43=EDGE_LOOP('',(#141,#142,#143));
#44=EDGE_LOOP('',(#144,#145,#146,#147));
#45=EDGE_LOOP('',(#148,#149,#150));
#46=EDGE_LOOP('',(#151,#152,#153,#154));
#47=EDGE_LOOP('',(#155,#156,#157,#158,#159));
#48=EDGE_LOOP('',(#160,#161,#162));
#49=EDGE_LOOP('',(#163,#164,#165,#166,#167));
#50=EDGE_LOOP('',(#168,#169,#170,#171));
#51=EDGE_LOOP('',(#172,#173,#174));
#52=EDGE_LOOP('',(#175,#176,#177,#178));
#53=EDGE_LOOP('',(#179,#180,#181,#182));
#54=EDGE_LOOP('',(#183));
#55=EDGE_LOOP('',(#184,#185,#186,#187,#188,#189,#190,#191));
#56=EDGE_LOOP('',(#192));
#57=EDGE_LOOP('',(#193,#194,#195,#196,#197,#198));
#58=LINE('',#322,#73);
#59=LINE('',#323,#74);
#60=LINE('',#341,#75);
#61=LINE('',#342,#76);
#62=LINE('',#356,#77);
#63=LINE('',#357,#78);
#64=LINE('',#358,#79);
#65=LINE('',#361,#80);
#66=LINE('',#362,#81);
#67=LINE('',#366,#82);
#68=LINE('',#367,#83);
#69=LINE('',#368,#84);
#70=LINE('',#373,#85);
#71=LINE('',#375,#86);
#72=LINE('',#383,#87);
#73=VECTOR('',#259,10.);
#74=VECTOR('',#260,10.);
#75=VECTOR('',#267,10.);
#76=VECTOR('',#268,10.);
#77=VECTOR('',#275,10.);
#78=VECTOR('',#276,10.);
#79=VECTOR('',#277,10.);
#80=VECTOR('',#280,10.);
#81=VECTOR('',#281,10.);
#82=VECTOR('',#284,10.);
#83=VECTOR('',#285,10.);
#84=VECTOR('',#286,10.);
#85=VECTOR('',#293,10.);
#86=VECTOR('',#296,10.);
#87=VECTOR('',#307,3.5);
#88=(
BOUNDED_CURVE()
B_SPLINE_CURVE(2,(#318,#319,#320),.UNSPECIFIED.,.F.,.F.)
B_SPLINE_CURVE_WITH_KNOTS((3,3),(0.,0.168785073439106),.UNSPECIFIED.)
CURVE()
GEOMETRIC_REPRESENTATION_ITEM()
RATIONAL_B_SPLINE_CURVE((1.,1.05930308657502,1.))
REPRESENTATION_ITEM('')
);
#89=(
BOUNDED_CURVE()
B_SPLINE_CURVE(2,(#326,#327,#328),.UNSPECIFIED.,.F.,.F.)
B_SPLINE_CURVE_WITH_KNOTS((3,3),(0.120436649676942,0.277276724598706),
 .UNSPECIFIED.)
CURVE()
GEOMETRIC_REPRESENTATION_ITEM()
RATIONAL_B_SPLINE_CURVE((1.15865514964953,1.18263286281021,1.))
REPRESENTATION_ITEM('')
);
#90=(
BOUNDED_CURVE()
B_SPLINE_CURVE(2,(#330,#331,#332),.UNSPECIFIED.,.F.,.F.)
B_SPLINE_CURVE_WITH_KNOTS((3,3),(0.277276724598706,0.554553449197413),
 .UNSPECIFIED.)
CURVE()
GEOMETRIC_REPRESENTATION_ITEM()
RATIONAL_B_SPLINE_CURVE((1.,1.3228756555323,1.))
REPRESENTATION_ITEM('')
);
#91=(
BOUNDED_CURVE()
B_SPLINE_CURVE(2,(#337,#338,#339),.UNSPECIFIED.,.F.,.F.)
B_SPLINE_CURVE_WITH_KNOTS((3,3),(0.,0.168785073439106),.UNSPECIFIED.)
CURVE()
GEOMETRIC_REPRESENTATION_ITEM()
RATIONAL_B_SPLINE_CURVE((1.,1.05930308657502,1.))
REPRESENTATION_ITEM('')
);
#92=(
BOUNDED_CURVE()
B_SPLINE_CURVE(2,(#345,#346,#347),.UNSPECIFIED.,.F.,.F.)
B_SPLINE_CURVE_WITH_KNOTS((3,3),(0.120436649676942,0.277276724598706),
 .UNSPECIFIED.)
CURVE()
GEOMETRIC_REPRESENTATION_ITEM()
RATIONAL_B_SPLINE_CURVE((1.15865514964953,1.18263286281021,1.))
REPRESENTATION_ITEM('')
);
#93=(
BOUNDED_CURVE()
B_SPLINE_CURVE(2,(#349,#350,#351),.UNSPECIFIED.,.F.,.F.)
B_SPLINE_CURVE_WITH_KNOTS((3,3),(0.277276724598706,0.554553449197413),
 .UNSPECIFIED.)
CURVE()
GEOMETRIC_REPRESENTATION_ITEM()
RATIONAL_B_SPLINE_CURVE((1.,1.3228756555323,1.))
REPRESENTATION_ITEM('')
);
#94=VERTEX_POINT('',#316);
#95=VERTEX_POINT('',#317);
#96=VERTEX_POINT('',#321);
#97=VERTEX_POINT('',#325);
#98=VERTEX_POINT('',#329);
#99=VERTEX_POINT('',#335);
#100=VERTEX_POINT('',#336);
#101=VERTEX_POINT('',#340);
#102=VERTEX_POINT('',#344);
#103=VERTEX_POINT('',#348);
#104=VERTEX_POINT('',#354);
#105=VERTEX_POINT('',#355);
#106=VERTEX_POINT('',#360);
#107=VERTEX_POINT('',#364);
#108=VERTEX_POINT('',#365);
#109=VERTEX_POINT('',#370);
#110=VERTEX_POINT('',#380);
#111=VERTEX_POINT('',#382);
#112=EDGE_CURVE('',#94,#95,#88,.T.);
#113=EDGE_CURVE('',#96,#94,#58,.T.);
#114=EDGE_CURVE('',#96,#95,#59,.T.);
#115=EDGE_CURVE('',#95,#97,#89,.T.);
#116=EDGE_CURVE('',#97,#98,#90,.T.);
#117=EDGE_CURVE('',#94,#98,#20,.T.);
#118=EDGE_CURVE('',#99,#100,#91,.T.);
#119=EDGE_CURVE('',#101,#99,#60,.T.);
#120=EDGE_CURVE('',#101,#100,#61,.T.);
#121=EDGE_CURVE('',#100,#102,#92,.T.);
#122=EDGE_CURVE('',#102,#103,#93,.T.);
#123=EDGE_CURVE('',#99,#103,#21,.T.);
#124=EDGE_CURVE('',#104,#105,#62,.T.);
#125=EDGE_CURVE('',#102,#105,#63,.T.);
#126=EDGE_CURVE('',#104,#101,#64,.T.);
#127=EDGE_CURVE('',#106,#97,#65,.T.);
#128=EDGE_CURVE('',#98,#106,#66,.T.);
#129=EDGE_CURVE('',#107,#108,#67,.T.);
#130=EDGE_CURVE('',#97,#108,#68,.T.);
#131=EDGE_CURVE('',#107,#96,#69,.T.);
#132=EDGE_CURVE('',#108,#109,#22,.T.);
#133=EDGE_CURVE('',#103,#107,#23,.T.);
#134=EDGE_CURVE('',#103,#109,#70,.T.);
#135=EDGE_CURVE('',#109,#102,#71,.T.);
#136=EDGE_CURVE('',#105,#106,#24,.T.);
#137=EDGE_CURVE('',#98,#104,#25,.T.);
#138=EDGE_CURVE('',#110,#110,#26,.T.);
#139=EDGE_CURVE('',#110,#111,#72,.T.);
#140=EDGE_CURVE('',#111,#111,#27,.T.);
#141=ORIENTED_EDGE('',*,*,#112,.F.);
#142=ORIENTED_EDGE('',*,*,#113,.F.);
#143=ORIENTED_EDGE('',*,*,#114,.T.);
#144=ORIENTED_EDGE('',*,*,#112,.T.);
#145=ORIENTED_EDGE('',*,*,#115,.T.);
#146=ORIENTED_EDGE('',*,*,#116,.T.);
#147=ORIENTED_EDGE('',*,*,#117,.F.);
#148=ORIENTED_EDGE('',*,*,#118,.F.);
#149=ORIENTED_EDGE('',*,*,#119,.F.);
#150=ORIENTED_EDGE('',*,*,#120,.T.);
#151=ORIENTED_EDGE('',*,*,#118,.T.);
#152=ORIENTED_EDGE('',*,*,#121,.T.);
#153=ORIENTED_EDGE('',*,*,#122,.T.);
#154=ORIENTED_EDGE('',*,*,#123,.F.);
#155=ORIENTED_EDGE('',*,*,#124,.T.);
#156=ORIENTED_EDGE('',*,*,#125,.F.);
#157=ORIENTED_EDGE('',*,*,#121,.F.);
#158=ORIENTED_EDGE('',*,*,#120,.F.);
#159=ORIENTED_EDGE('',*,*,#126,.F.);
#160=ORIENTED_EDGE('',*,*,#116,.F.);
#161=ORIENTED_EDGE('',*,*,#127,.F.);
#162=ORIENTED_EDGE('',*,*,#128,.F.);
#163=ORIENTED_EDGE('',*,*,#129,.T.);
#164=ORIENTED_EDGE('',*,*,#130,.F.);
#165=ORIENTED_EDGE('',*,*,#115,.F.);
#166=ORIENTED_EDGE('',*,*,#114,.F.);
#167=ORIENTED_EDGE('',*,*,#131,.F.);
#168=ORIENTED_EDGE('',*,*,#132,.F.);
#169=ORIENTED_EDGE('',*,*,#129,.F.);
#170=ORIENTED_EDGE('',*,*,#133,.F.);
#171=ORIENTED_EDGE('',*,*,#134,.T.);
#172=ORIENTED_EDGE('',*,*,#122,.F.);
#173=ORIENTED_EDGE('',*,*,#135,.F.);
#174=ORIENTED_EDGE('',*,*,#134,.F.);
#175=ORIENTED_EDGE('',*,*,#136,.F.);
#176=ORIENTED_EDGE('',*,*,#124,.F.);
#177=ORIENTED_EDGE('',*,*,#137,.F.);
#178=ORIENTED_EDGE('',*,*,#128,.T.);
#179=ORIENTED_EDGE('',*,*,#138,.F.);
#180=ORIENTED_EDGE('',*,*,#139,.T.);
#181=ORIENTED_EDGE('',*,*,#140,.T.);
#182=ORIENTED_EDGE('',*,*,#139,.F.);
#183=ORIENTED_EDGE('',*,*,#138,.T.);
#184=ORIENTED_EDGE('',*,*,#137,.T.);
#185=ORIENTED_EDGE('',*,*,#126,.T.);
#186=ORIENTED_EDGE('',*,*,#119,.T.);
#187=ORIENTED_EDGE('',*,*,#123,.T.);
#188=ORIENTED_EDGE('',*,*,#133,.T.);
#189=ORIENTED_EDGE('',*,*,#131,.T.);
#190=ORIENTED_EDGE('',*,*,#113,.T.);
#191=ORIENTED_EDGE('',*,*,#117,.T.);
#192=ORIENTED_EDGE('',*,*,#140,.F.);
#193=ORIENTED_EDGE('',*,*,#130,.T.);
#194=ORIENTED_EDGE('',*,*,#132,.T.);
#195=ORIENTED_EDGE('',*,*,#135,.T.);
#196=ORIENTED_EDGE('',*,*,#125,.T.);
#197=ORIENTED_EDGE('',*,*,#136,.T.);
#198=ORIENTED_EDGE('',*,*,#127,.T.);
#199=PLANE('',#234);
#200=PLANE('',#237);
#201=PLANE('',#240);
#202=PLANE('',#241);
#203=PLANE('',#242);
#204=PLANE('',#246);
#205=PLANE('',#253);
#206=PLANE('',#254);
#207=ADVANCED_FACE('',(#30),#199,.T.);
#208=ADVANCED_FACE('',(#31),#28,.F.);
#209=ADVANCED_FACE('',(#32),#200,.T.);
#210=ADVANCED_FACE('',(#33),#29,.F.);
#211=ADVANCED_FACE('',(#34),#201,.F.);
#212=ADVANCED_FACE('',(#35),#202,.F.);
#213=ADVANCED_FACE('',(#36),#203,.F.);
#214=ADVANCED_FACE('',(#37),#17,.F.);
#215=ADVANCED_FACE('',(#38),#204,.F.);
#216=ADVANCED_FACE('',(#39),#18,.F.);
#217=ADVANCED_FACE('',(#40),#19,.T.);
#218=ADVANCED_FACE('',(#41,#15),#205,.T.);
#219=ADVANCED_FACE('',(#42,#16),#206,.F.);
#220=CLOSED_SHELL('',(#207,#208,#209,#210,#211,#212,#213,#214,#215,#216,
#217,#218,#219));
#221=DERIVED_UNIT_ELEMENT(#223,1.);
#222=DERIVED_UNIT_ELEMENT(#392,-3.);
#223=(
MASS_UNIT()
NAMED_UNIT(*)
SI_UNIT(.KILO.,.GRAM.)
);
#224=DERIVED_UNIT((#221,#222));
#225=MEASURE_REPRESENTATION_ITEM('density measure',
POSITIVE_RATIO_MEASURE(7850.),#224);
#226=PROPERTY_DEFINITION_REPRESENTATION(#231,#228);
#227=PROPERTY_DEFINITION_REPRESENTATION(#232,#229);
#228=REPRESENTATION('material name',(#230),#389);
#229=REPRESENTATION('density',(#225),#389);
#230=DESCRIPTIVE_REPRESENTATION_ITEM('Steel','Steel');
#231=PROPERTY_DEFINITION('material property','material name',#399);
#232=PROPERTY_DEFINITION('material property','density of part',#399);
#233=AXIS2_PLACEMENT_3D('',#314,#255,#256);
#234=AXIS2_PLACEMENT_3D('',#315,#257,#258);
#235=AXIS2_PLACEMENT_3D('',#324,#261,#262);
#236=AXIS2_PLACEMENT_3D('',#333,#263,#264);
#237=AXIS2_PLACEMENT_3D('',#334,#265,#266);
#238=AXIS2_PLACEMENT_3D('',#343,#269,#270);
#239=AXIS2_PLACEMENT_3D('',#352,#271,#272);
#240=AXIS2_PLACEMENT_3D('',#353,#273,#274);
#241=AXIS2_PLACEMENT_3D('',#359,#278,#279);
#242=AXIS2_PLACEMENT_3D('',#363,#282,#283);
#243=AXIS2_PLACEMENT_3D('',#369,#287,#288);
#244=AXIS2_PLACEMENT_3D('',#371,#289,#290);
#245=AXIS2_PLACEMENT_3D('',#372,#291,#292);
#246=AXIS2_PLACEMENT_3D('',#374,#294,#295);
#247=AXIS2_PLACEMENT_3D('',#376,#297,#298);
#248=AXIS2_PLACEMENT_3D('',#377,#299,#300);
#249=AXIS2_PLACEMENT_3D('',#378,#301,#302);
#250=AXIS2_PLACEMENT_3D('',#379,#303,#304);
#251=AXIS2_PLACEMENT_3D('',#381,#305,#306);
#252=AXIS2_PLACEMENT_3D('',#384,#308,#309);
#253=AXIS2_PLACEMENT_3D('',#385,#310,#311);
#254=AXIS2_PLACEMENT_3D('',#386,#312,#313);
#255=DIRECTION('axis',(0.,0.,1.));
#256=DIRECTION('refdir',(1.,0.,0.));
#257=DIRECTION('center_axis',(1.,0.,0.));
#258=DIRECTION('ref_axis',(0.,-1.,0.));
#259=DIRECTION('',(0.,1.,0.));
#260=DIRECTION('',(0.,0.,-1.));
#261=DIRECTION('center_axis',(0.,0.,1.));
#262=DIRECTION('ref_axis',(-1.,0.,0.));
#263=DIRECTION('center_axis',(0.,0.,-1.));
#264=DIRECTION('ref_axis',(-1.,0.,0.));
#265=DIRECTION('center_axis',(-1.,0.,0.));
#266=DIRECTION('ref_axis',(0.,1.,0.));
#267=DIRECTION('',(0.,-1.,0.));
#268=DIRECTION('',(0.,0.,-1.));
#269=DIRECTION('center_axis',(0.,0.,1.));
#270=DIRECTION('ref_axis',(-1.,0.,0.));
#271=DIRECTION('center_axis',(0.,0.,-1.));
#272=DIRECTION('ref_axis',(-1.,0.,0.));
#273=DIRECTION('center_axis',(0.,-1.,0.));
#274=DIRECTION('ref_axis',(-1.,0.,0.));
#275=DIRECTION('',(0.,0.,-1.));
#276=DIRECTION('',(1.,0.,0.));
#277=DIRECTION('',(-1.,0.,0.));
#278=DIRECTION('center_axis',(0.,1.,0.));
#279=DIRECTION('ref_axis',(1.,0.,0.));
#280=DIRECTION('',(-1.,0.,0.));
#281=DIRECTION('',(0.,0.,-1.));
#282=DIRECTION('center_axis',(0.,1.,0.));
#283=DIRECTION('ref_axis',(1.,0.,0.));
#284=DIRECTION('',(0.,0.,-1.));
#285=DIRECTION('',(-1.,0.,0.));
#286=DIRECTION('',(1.,0.,0.));
#287=DIRECTION('center_axis',(0.,0.,-1.));
#288=DIRECTION('ref_axis',(-1.,0.,0.));
#289=DIRECTION('center_axis',(0.,0.,1.));
#290=DIRECTION('ref_axis',(-1.,0.,0.));
#291=DIRECTION('center_axis',(0.,0.,-1.));
#292=DIRECTION('ref_axis',(-1.,0.,0.));
#293=DIRECTION('',(0.,0.,-1.));
#294=DIRECTION('center_axis',(0.,-1.,0.));
#295=DIRECTION('ref_axis',(-1.,0.,0.));
#296=DIRECTION('',(1.,0.,0.));
#297=DIRECTION('center_axis',(0.,0.,-1.));
#298=DIRECTION('ref_axis',(1.,1.22464679914735E-16,0.));
#299=DIRECTION('center_axis',(0.,0.,1.));
#300=DIRECTION('ref_axis',(-1.,0.,0.));
#301=DIRECTION('center_axis',(0.,0.,-1.));
#302=DIRECTION('ref_axis',(-1.,0.,0.));
#303=DIRECTION('center_axis',(0.,0.,1.));
#304=DIRECTION('ref_axis',(-1.,0.,0.));
#305=DIRECTION('center_axis',(0.,0.,1.));
#306=DIRECTION('ref_axis',(-1.,0.,0.));
#307=DIRECTION('',(0.,0.,-1.));
#308=DIRECTION('center_axis',(0.,0.,1.));
#309=DIRECTION('ref_axis',(-1.,0.,0.));
#310=DIRECTION('center_axis',(0.,0.,1.));
#311=DIRECTION('ref_axis',(-1.,0.,0.));
#312=DIRECTION('center_axis',(0.,0.,1.));
#313=DIRECTION('ref_axis',(-1.,0.,0.));
#314=CARTESIAN_POINT('',(0.,0.,0.));
#315=CARTESIAN_POINT('Origin',(-1.,2.29128784747792,4.5));
#316=CARTESIAN_POINT('',(-1.,2.29128784747792,4.5));
#317=CARTESIAN_POINT('',(-1.,1.,3.4142135623731));
#318=CARTESIAN_POINT('Ctrl Pts',(-1.,2.29128784747792,4.5));
#319=CARTESIAN_POINT('Ctrl Pts',(-1.,1.466545005205,3.74411069928226));
#320=CARTESIAN_POINT('Ctrl Pts',(-1.,1.,3.4142135623731));
#321=CARTESIAN_POINT('',(-1.,1.,4.5));
#322=CARTESIAN_POINT('',(-1.,-3.16929497662655,4.5));
#323=CARTESIAN_POINT('',(-1.,1.,4.5));
#324=CARTESIAN_POINT('Origin',(0.,0.,3.));
#325=CARTESIAN_POINT('',(0.,1.,3.));
#326=CARTESIAN_POINT('Ctrl Pts',(-1.,1.,3.4142135623731));
#327=CARTESIAN_POINT('Ctrl Pts',(-0.414213562373096,1.,3.));
#328=CARTESIAN_POINT('Ctrl Pts',(0.,1.,3.));
#329=CARTESIAN_POINT('',(2.29128784747792,1.,4.5));
#330=CARTESIAN_POINT('Ctrl Pts',(0.,1.,3.));
#331=CARTESIAN_POINT('Ctrl Pts',(0.654653670707978,1.,3.));
#332=CARTESIAN_POINT('Ctrl Pts',(2.29128784747792,1.,4.5));
#333=CARTESIAN_POINT('Origin',(0.,0.,4.5));
#334=CARTESIAN_POINT('Origin',(1.,-2.29128784747792,4.5));
#335=CARTESIAN_POINT('',(1.,-2.29128784747792,4.5));
#336=CARTESIAN_POINT('',(1.,-1.,3.4142135623731));
#337=CARTESIAN_POINT('Ctrl Pts',(1.,-2.29128784747792,4.5));
#338=CARTESIAN_POINT('Ctrl Pts',(1.,-1.466545005205,3.74411069928226));
#339=CARTESIAN_POINT('Ctrl Pts',(1.,-1.,3.4142135623731));
#340=CARTESIAN_POINT('',(1.,-1.,4.5));
#341=CARTESIAN_POINT('',(1.,3.16929497662655,4.5));
#342=CARTESIAN_POINT('',(1.,-1.,4.5));
#343=CARTESIAN_POINT('Origin',(0.,0.,3.));
#344=CARTESIAN_POINT('',(0.,-1.,3.));
#345=CARTESIAN_POINT('Ctrl Pts',(1.,-1.,3.4142135623731));
#346=CARTESIAN_POINT('Ctrl Pts',(0.414213562373096,-1.,3.));
#347=CARTESIAN_POINT('Ctrl Pts',(0.,-1.,3.));
#348=CARTESIAN_POINT('',(-2.29128784747792,-1.,4.5));
#349=CARTESIAN_POINT('Ctrl Pts',(0.,-1.,3.));
#350=CARTESIAN_POINT('Ctrl Pts',(-0.654653670707978,-1.,3.));
#351=CARTESIAN_POINT('Ctrl Pts',(-2.29128784747792,-1.,4.5));
#352=CARTESIAN_POINT('Origin',(0.,0.,4.5));
#353=CARTESIAN_POINT('Origin',(2.29128784747792,-1.,4.5));
#354=CARTESIAN_POINT('',(2.29128784747792,-1.,4.5));
#355=CARTESIAN_POINT('',(2.29128784747792,-1.,3.));
#356=CARTESIAN_POINT('',(2.29128784747792,-1.,4.5));
#357=CARTESIAN_POINT('',(1.14564392373896,-1.,3.));
#358=CARTESIAN_POINT('',(2.94715317367996,-1.,4.5));
#359=CARTESIAN_POINT('Origin',(-2.29128784747792,1.,4.5));
#360=CARTESIAN_POINT('',(2.29128784747792,1.,3.));
#361=CARTESIAN_POINT('',(-1.14564392373896,1.,3.));
#362=CARTESIAN_POINT('',(2.29128784747792,1.,4.5));
#363=CARTESIAN_POINT('Origin',(-2.29128784747792,1.,4.5));
#364=CARTESIAN_POINT('',(-2.29128784747792,1.,4.5));
#365=CARTESIAN_POINT('',(-2.29128784747792,1.,3.));
#366=CARTESIAN_POINT('',(-2.29128784747792,1.,4.5));
#367=CARTESIAN_POINT('',(-1.14564392373896,1.,3.));
#368=CARTESIAN_POINT('',(-2.94715317367996,1.,4.5));
#369=CARTESIAN_POINT('Origin',(0.,0.,4.5));
#370=CARTESIAN_POINT('',(-2.29128784747792,-1.,3.));
#371=CARTESIAN_POINT('Origin',(0.,0.,3.));
#372=CARTESIAN_POINT('Origin',(0.,0.,4.5));
#373=CARTESIAN_POINT('',(-2.29128784747792,-1.,4.5));
#374=CARTESIAN_POINT('Origin',(2.29128784747792,-1.,4.5));
#375=CARTESIAN_POINT('',(1.14564392373896,-1.,3.));
#376=CARTESIAN_POINT('Origin',(0.,0.,4.5));
#377=CARTESIAN_POINT('Origin',(0.,0.,3.));
#378=CARTESIAN_POINT('Origin',(0.,0.,4.5));
#379=CARTESIAN_POINT('Origin',(0.,0.,3.));
#380=CARTESIAN_POINT('',(3.5,4.28626379701574E-16,4.5));
#381=CARTESIAN_POINT('Origin',(0.,0.,4.5));
#382=CARTESIAN_POINT('',(3.5,4.28626379701574E-16,3.));
#383=CARTESIAN_POINT('',(3.5,4.28626379701574E-16,3.));
#384=CARTESIAN_POINT('Origin',(0.,0.,3.));
#385=CARTESIAN_POINT('Origin',(0.,0.,4.5));
#386=CARTESIAN_POINT('Origin',(0.,0.,3.));
#387=UNCERTAINTY_MEASURE_WITH_UNIT(LENGTH_MEASURE(0.01),#391,
'DISTANCE_ACCURACY_VALUE',
'Maximum model space distance between geometric entities at asserted c
onnectivities');
#388=UNCERTAINTY_MEASURE_WITH_UNIT(LENGTH_MEASURE(0.01),#391,
'DISTANCE_ACCURACY_VALUE',
'Maximum model space distance between geometric entities at asserted c
onnectivities');
#389=(
GEOMETRIC_REPRESENTATION_CONTEXT(3)
GLOBAL_UNCERTAINTY_ASSIGNED_CONTEXT((#387))
GLOBAL_UNIT_ASSIGNED_CONTEXT((#391,#393,#394))
REPRESENTATION_CONTEXT('','3D')
);
#390=(
GEOMETRIC_REPRESENTATION_CONTEXT(3)
GLOBAL_UNCERTAINTY_ASSIGNED_CONTEXT((#388))
GLOBAL_UNIT_ASSIGNED_CONTEXT((#391,#393,#394))
REPRESENTATION_CONTEXT('','3D')
);
#391=(
LENGTH_UNIT()
NAMED_UNIT(*)
SI_UNIT(.MILLI.,.METRE.)
);
#392=(
LENGTH_UNIT()
NAMED_UNIT(*)
SI_UNIT($,.METRE.)
);
#393=(
NAMED_UNIT(*)
PLANE_ANGLE_UNIT()
SI_UNIT($,.RADIAN.)
);
#394=(
NAMED_UNIT(*)
SI_UNIT($,.STERADIAN.)
SOLID_ANGLE_UNIT()
);
#395=SHAPE_DEFINITION_REPRESENTATION(#396,#397);
#396=PRODUCT_DEFINITION_SHAPE('',$,#399);
#397=SHAPE_REPRESENTATION('',(#233),#389);
#398=PRODUCT_DEFINITION_CONTEXT('part definition',#403,'design');
#399=PRODUCT_DEFINITION('\X2\89D25EA75E955EA7\X0\','\X2\89D25EA75E955EA7\X0\ 
v2',#400,#398);
#400=PRODUCT_DEFINITION_FORMATION('',$,#405);
#401=PRODUCT_RELATED_PRODUCT_CATEGORY('\X2\89D25EA75E955EA7\X0\ v2',
'\X2\89D25EA75E955EA7\X0\ v2',(#405));
#402=APPLICATION_PROTOCOL_DEFINITION('international standard',
'automotive_design',2009,#403);
#403=APPLICATION_CONTEXT(
'Core Data for Automotive Mechanical Design Process');
#404=PRODUCT_CONTEXT('part definition',#403,'mechanical');
#405=PRODUCT('\X2\89D25EA75E955EA7\X0\','\X2\89D25EA75E955EA7\X0\ v2',$,
(#404));
#406=PRESENTATION_STYLE_ASSIGNMENT((#407));
#407=SURFACE_STYLE_USAGE(.BOTH.,#408);
#408=SURFACE_SIDE_STYLE('',(#409));
#409=SURFACE_STYLE_FILL_AREA(#410);
#410=FILL_AREA_STYLE('Steel - Satin',(#411));
#411=FILL_AREA_STYLE_COLOUR('Steel - Satin',#412);
#412=COLOUR_RGB('Steel - Satin',0.627450980392157,0.627450980392157,0.627450980392157);
ENDSEC;
END-ISO-10303-21;
