ISO-10303-21;
HEADER;
/* Generated by software containing ST-Developer
 * from STEP Tools, Inc. (www.steptools.com) 
 */

FILE_DESCRIPTION(
/* description */ (''),
/* implementation_level */ '2;1');

FILE_NAME(
/* name */ '',
/* time_stamp */ '2026-08-25T23:06:06+08:00',
/* author */ (''),
/* organization */ (''),
/* preprocessor_version */ 'ST-DEVELOPER v20.1',
/* originating_system */ 'Autodesk Translation Framework v15.8.0.0',
/* authorisation */ '');

FILE_SCHEMA (('AUTOMOTIVE_DESIGN { 1 0 10303 214 3 1 1 }'));
ENDSEC;

DATA;
#10=MECHANICAL_DESIGN_GEOMETRIC_PRESENTATION_REPRESENTATION('',(#13),#280);
#11=SHAPE_REPRESENTATION_RELATIONSHIP('SRR','None',#286,#12);
#12=ADVANCED_BREP_SHAPE_REPRESENTATION('',(#14),#279);
#13=STYLED_ITEM('',(#295),#14);
#14=MANIFOLD_SOLID_BREP('Body1',#159);
#15=FACE_BOUND('',#44,.T.);
#16=(
BOUNDED_CURVE()
B_SPLINE_CURVE(2,(#265,#266,#267),.UNSPECIFIED.,.F.,.F.)
B_SPLINE_CURVE_WITH_KNOTS((3,3),(0.287444750795319,1.79048238775816),
 .UNSPECIFIED.)
CURVE()
GEOMETRIC_REPRESENTATION_ITEM()
RATIONAL_B_SPLINE_CURVE((2.69027478486293,6.40000726990784,2.69027478486524))
REPRESENTATION_ITEM('')
);
#17=(
BOUNDED_CURVE()
B_SPLINE_CURVE(2,(#269,#270,#271),.UNSPECIFIED.,.F.,.F.)
B_SPLINE_CURVE_WITH_KNOTS((3,3),(0.287444750795319,1.79048238775816),
 .UNSPECIFIED.)
CURVE()
GEOMETRIC_REPRESENTATION_ITEM()
RATIONAL_B_SPLINE_CURVE((2.69027478486293,6.40000726990784,2.69027478486524))
REPRESENTATION_ITEM('')
);
#18=CONICAL_SURFACE('',#169,2.4,0.785398163397449);
#19=CONICAL_SURFACE('',#179,0.978786796564403,0.785398163397448);
#20=PLANE('',#168);
#21=PLANE('',#174);
#22=PLANE('',#175);
#23=PLANE('',#176);
#24=PLANE('',#177);
#25=FACE_OUTER_BOUND('',#35,.T.);
#26=FACE_OUTER_BOUND('',#36,.T.);
#27=FACE_OUTER_BOUND('',#37,.T.);
#28=FACE_OUTER_BOUND('',#38,.T.);
#29=FACE_OUTER_BOUND('',#39,.T.);
#30=FACE_OUTER_BOUND('',#40,.T.);
#31=FACE_OUTER_BOUND('',#41,.T.);
#32=FACE_OUTER_BOUND('',#42,.T.);
#33=FACE_OUTER_BOUND('',#43,.T.);
#34=FACE_OUTER_BOUND('',#45,.T.);
#35=EDGE_LOOP('',(#106,#107,#108,#109,#110));
#36=EDGE_LOOP('',(#111,#112,#113,#114));
#37=EDGE_LOOP('',(#115,#116,#117,#118));
#38=EDGE_LOOP('',(#119,#120,#121,#122));
#39=EDGE_LOOP('',(#123,#124,#125,#126));
#40=EDGE_LOOP('',(#127));
#41=EDGE_LOOP('',(#128,#129,#130,#131));
#42=EDGE_LOOP('',(#132,#133,#134,#135));
#43=EDGE_LOOP('',(#136));
#44=EDGE_LOOP('',(#137));
#45=EDGE_LOOP('',(#138,#139,#140,#141,#142,#143,#144,#145));
#46=LINE('',#235,#55);
#47=LINE('',#239,#56);
#48=LINE('',#246,#57);
#49=LINE('',#249,#58);
#50=LINE('',#251,#59);
#51=LINE('',#252,#60);
#52=LINE('',#257,#61);
#53=LINE('',#262,#62);
#54=LINE('',#276,#63);
#55=VECTOR('',#186,10.);
#56=VECTOR('',#189,10.);
#57=VECTOR('',#196,10.);
#58=VECTOR('',#199,10.);
#59=VECTOR('',#202,10.);
#60=VECTOR('',#203,10.);
#61=VECTOR('',#208,2.4);
#62=VECTOR('',#215,2.5);
#63=VECTOR('',#228,1.);
#64=CIRCLE('',#162,2.30757359312881);
#65=CIRCLE('',#163,2.30757359312881);
#66=CIRCLE('',#164,2.30757359312881);
#67=CIRCLE('',#166,2.30757359312881);
#68=CIRCLE('',#167,2.30757359312881);
#69=CIRCLE('',#170,2.5);
#70=CIRCLE('',#171,2.3);
#71=CIRCLE('',#173,2.5);
#72=CIRCLE('',#178,0.957573593128807);
#73=VERTEX_POINT('',#231);
#74=VERTEX_POINT('',#232);
#75=VERTEX_POINT('',#234);
#76=VERTEX_POINT('',#236);
#77=VERTEX_POINT('',#238);
#78=VERTEX_POINT('',#242);
#79=VERTEX_POINT('',#243);
#80=VERTEX_POINT('',#245);
#81=VERTEX_POINT('',#247);
#82=VERTEX_POINT('',#254);
#83=VERTEX_POINT('',#256);
#84=VERTEX_POINT('',#260);
#85=VERTEX_POINT('',#273);
#86=EDGE_CURVE('',#73,#74,#64,.T.);
#87=EDGE_CURVE('',#73,#75,#46,.T.);
#88=EDGE_CURVE('',#76,#75,#65,.T.);
#89=EDGE_CURVE('',#77,#76,#47,.T.);
#90=EDGE_CURVE('',#74,#77,#66,.T.);
#91=EDGE_CURVE('',#78,#79,#67,.T.);
#92=EDGE_CURVE('',#78,#80,#48,.T.);
#93=EDGE_CURVE('',#81,#80,#68,.T.);
#94=EDGE_CURVE('',#79,#81,#49,.T.);
#95=EDGE_CURVE('',#80,#76,#50,.T.);
#96=EDGE_CURVE('',#75,#81,#51,.T.);
#97=EDGE_CURVE('',#82,#82,#69,.T.);
#98=EDGE_CURVE('',#82,#83,#52,.T.);
#99=EDGE_CURVE('',#83,#83,#70,.T.);
#100=EDGE_CURVE('',#84,#84,#71,.T.);
#101=EDGE_CURVE('',#84,#82,#53,.T.);
#102=EDGE_CURVE('',#79,#73,#16,.F.);
#103=EDGE_CURVE('',#77,#78,#17,.F.);
#104=EDGE_CURVE('',#85,#85,#72,.T.);
#105=EDGE_CURVE('',#74,#85,#54,.T.);
#106=ORIENTED_EDGE('',*,*,#86,.F.);
#107=ORIENTED_EDGE('',*,*,#87,.T.);
#108=ORIENTED_EDGE('',*,*,#88,.F.);
#109=ORIENTED_EDGE('',*,*,#89,.F.);
#110=ORIENTED_EDGE('',*,*,#90,.F.);
#111=ORIENTED_EDGE('',*,*,#91,.F.);
#112=ORIENTED_EDGE('',*,*,#92,.T.);
#113=ORIENTED_EDGE('',*,*,#93,.F.);
#114=ORIENTED_EDGE('',*,*,#94,.F.);
#115=ORIENTED_EDGE('',*,*,#93,.T.);
#116=ORIENTED_EDGE('',*,*,#95,.T.);
#117=ORIENTED_EDGE('',*,*,#88,.T.);
#118=ORIENTED_EDGE('',*,*,#96,.T.);
#119=ORIENTED_EDGE('',*,*,#97,.T.);
#120=ORIENTED_EDGE('',*,*,#98,.T.);
#121=ORIENTED_EDGE('',*,*,#99,.T.);
#122=ORIENTED_EDGE('',*,*,#98,.F.);
#123=ORIENTED_EDGE('',*,*,#100,.F.);
#124=ORIENTED_EDGE('',*,*,#101,.T.);
#125=ORIENTED_EDGE('',*,*,#97,.F.);
#126=ORIENTED_EDGE('',*,*,#101,.F.);
#127=ORIENTED_EDGE('',*,*,#99,.F.);
#128=ORIENTED_EDGE('',*,*,#102,.F.);
#129=ORIENTED_EDGE('',*,*,#94,.T.);
#130=ORIENTED_EDGE('',*,*,#96,.F.);
#131=ORIENTED_EDGE('',*,*,#87,.F.);
#132=ORIENTED_EDGE('',*,*,#103,.F.);
#133=ORIENTED_EDGE('',*,*,#89,.T.);
#134=ORIENTED_EDGE('',*,*,#95,.F.);
#135=ORIENTED_EDGE('',*,*,#92,.F.);
#136=ORIENTED_EDGE('',*,*,#100,.T.);
#137=ORIENTED_EDGE('',*,*,#104,.T.);
#138=ORIENTED_EDGE('',*,*,#91,.T.);
#139=ORIENTED_EDGE('',*,*,#102,.T.);
#140=ORIENTED_EDGE('',*,*,#86,.T.);
#141=ORIENTED_EDGE('',*,*,#105,.T.);
#142=ORIENTED_EDGE('',*,*,#104,.F.);
#143=ORIENTED_EDGE('',*,*,#105,.F.);
#144=ORIENTED_EDGE('',*,*,#90,.T.);
#145=ORIENTED_EDGE('',*,*,#103,.T.);
#146=CYLINDRICAL_SURFACE('',#161,2.30757359312881);
#147=CYLINDRICAL_SURFACE('',#165,2.30757359312881);
#148=CYLINDRICAL_SURFACE('',#172,2.5);
#149=ADVANCED_FACE('',(#25),#146,.T.);
#150=ADVANCED_FACE('',(#26),#147,.T.);
#151=ADVANCED_FACE('',(#27),#20,.T.);
#152=ADVANCED_FACE('',(#28),#18,.T.);
#153=ADVANCED_FACE('',(#29),#148,.T.);
#154=ADVANCED_FACE('',(#30),#21,.F.);
#155=ADVANCED_FACE('',(#31),#22,.F.);
#156=ADVANCED_FACE('',(#32),#23,.F.);
#157=ADVANCED_FACE('',(#33,#15),#24,.T.);
#158=ADVANCED_FACE('',(#34),#19,.T.);
#159=CLOSED_SHELL('',(#149,#150,#151,#152,#153,#154,#155,#156,#157,#158));
#160=AXIS2_PLACEMENT_3D('',#229,#180,#181);
#161=AXIS2_PLACEMENT_3D('',#230,#182,#183);
#162=AXIS2_PLACEMENT_3D('',#233,#184,#185);
#163=AXIS2_PLACEMENT_3D('',#237,#187,#188);
#164=AXIS2_PLACEMENT_3D('',#240,#190,#191);
#165=AXIS2_PLACEMENT_3D('',#241,#192,#193);
#166=AXIS2_PLACEMENT_3D('',#244,#194,#195);
#167=AXIS2_PLACEMENT_3D('',#248,#197,#198);
#168=AXIS2_PLACEMENT_3D('',#250,#200,#201);
#169=AXIS2_PLACEMENT_3D('',#253,#204,#205);
#170=AXIS2_PLACEMENT_3D('',#255,#206,#207);
#171=AXIS2_PLACEMENT_3D('',#258,#209,#210);
#172=AXIS2_PLACEMENT_3D('',#259,#211,#212);
#173=AXIS2_PLACEMENT_3D('',#261,#213,#214);
#174=AXIS2_PLACEMENT_3D('',#263,#216,#217);
#175=AXIS2_PLACEMENT_3D('',#264,#218,#219);
#176=AXIS2_PLACEMENT_3D('',#268,#220,#221);
#177=AXIS2_PLACEMENT_3D('',#272,#222,#223);
#178=AXIS2_PLACEMENT_3D('',#274,#224,#225);
#179=AXIS2_PLACEMENT_3D('',#275,#226,#227);
#180=DIRECTION('axis',(0.,0.,1.));
#181=DIRECTION('refdir',(1.,0.,0.));
#182=DIRECTION('center_axis',(0.,0.,1.));
#183=DIRECTION('ref_axis',(1.,-1.22464679914735E-16,0.));
#184=DIRECTION('center_axis',(0.,0.,-1.));
#185=DIRECTION('ref_axis',(-1.,0.,0.));
#186=DIRECTION('',(0.,0.,1.));
#187=DIRECTION('center_axis',(0.,0.,1.));
#188=DIRECTION('ref_axis',(-1.,0.,0.));
#189=DIRECTION('',(0.,0.,1.));
#190=DIRECTION('center_axis',(0.,0.,-1.));
#191=DIRECTION('ref_axis',(-1.,0.,0.));
#192=DIRECTION('center_axis',(0.,0.,1.));
#193=DIRECTION('ref_axis',(-1.,0.,0.));
#194=DIRECTION('center_axis',(0.,0.,-1.));
#195=DIRECTION('ref_axis',(-1.,0.,0.));
#196=DIRECTION('',(0.,0.,1.));
#197=DIRECTION('center_axis',(0.,0.,1.));
#198=DIRECTION('ref_axis',(-1.,0.,0.));
#199=DIRECTION('',(0.,0.,1.));
#200=DIRECTION('center_axis',(0.,0.,1.));
#201=DIRECTION('ref_axis',(-1.,0.,0.));
#202=DIRECTION('',(1.,0.,0.));
#203=DIRECTION('',(-1.,0.,0.));
#204=DIRECTION('center_axis',(0.,0.,1.));
#205=DIRECTION('ref_axis',(1.,0.,0.));
#206=DIRECTION('center_axis',(0.,0.,-1.));
#207=DIRECTION('ref_axis',(1.,0.,0.));
#208=DIRECTION('',(0.707106781186548,8.65956056235493E-17,-0.707106781186547));
#209=DIRECTION('center_axis',(0.,0.,1.));
#210=DIRECTION('ref_axis',(1.,0.,0.));
#211=DIRECTION('center_axis',(0.,0.,1.));
#212=DIRECTION('ref_axis',(1.,0.,0.));
#213=DIRECTION('center_axis',(0.,0.,1.));
#214=DIRECTION('ref_axis',(1.,0.,0.));
#215=DIRECTION('',(0.,0.,-1.));
#216=DIRECTION('center_axis',(0.,0.,1.));
#217=DIRECTION('ref_axis',(1.,0.,0.));
#218=DIRECTION('center_axis',(0.,-1.,0.));
#219=DIRECTION('ref_axis',(1.,0.,0.));
#220=DIRECTION('center_axis',(0.,1.,0.));
#221=DIRECTION('ref_axis',(-1.,0.,0.));
#222=DIRECTION('center_axis',(0.,0.,1.));
#223=DIRECTION('ref_axis',(1.,0.,0.));
#224=DIRECTION('center_axis',(0.,0.,-1.));
#225=DIRECTION('ref_axis',(-1.,0.,0.));
#226=DIRECTION('center_axis',(0.,0.,1.));
#227=DIRECTION('ref_axis',(-1.,0.,0.));
#228=DIRECTION('',(-0.707106781186547,-8.65956056235493E-17,-0.707106781186548));
#229=CARTESIAN_POINT('',(0.,0.,0.));
#230=CARTESIAN_POINT('Origin',(0.,0.,5.15));
#231=CARTESIAN_POINT('',(2.09379939051127,0.97,5.15));
#232=CARTESIAN_POINT('',(2.30757359312947,2.82596261462296E-16,5.15000000000066));
#233=CARTESIAN_POINT('Origin',(0.,0.,5.15));
#234=CARTESIAN_POINT('',(2.09379939051127,0.97,5.3));
#235=CARTESIAN_POINT('',(2.09379939051127,0.97,5.15));
#236=CARTESIAN_POINT('',(2.09379939051127,-0.97,5.3));
#237=CARTESIAN_POINT('Origin',(0.,0.,5.3));
#238=CARTESIAN_POINT('',(2.09379939051127,-0.97,5.15));
#239=CARTESIAN_POINT('',(2.09379939051127,-0.97,5.15));
#240=CARTESIAN_POINT('Origin',(0.,0.,5.15));
#241=CARTESIAN_POINT('Origin',(0.,0.,5.15));
#242=CARTESIAN_POINT('',(-2.09379939051127,-0.97,5.15));
#243=CARTESIAN_POINT('',(-2.09379939051127,0.97,5.15));
#244=CARTESIAN_POINT('Origin',(0.,0.,5.15));
#245=CARTESIAN_POINT('',(-2.09379939051127,-0.97,5.3));
#246=CARTESIAN_POINT('',(-2.09379939051127,-0.97,5.15));
#247=CARTESIAN_POINT('',(-2.09379939051127,0.97,5.3));
#248=CARTESIAN_POINT('Origin',(0.,0.,5.3));
#249=CARTESIAN_POINT('',(-2.09379939051127,0.97,5.15));
#250=CARTESIAN_POINT('Origin',(0.,0.,5.3));
#251=CARTESIAN_POINT('',(1.67705098312484,-0.97,5.3));
#252=CARTESIAN_POINT('',(-1.67705098312484,0.97,5.3));
#253=CARTESIAN_POINT('Origin',(0.,0.,0.1));
#254=CARTESIAN_POINT('',(-2.5,3.06161699786838E-16,0.2));
#255=CARTESIAN_POINT('Origin',(0.,0.,0.2));
#256=CARTESIAN_POINT('',(-2.3,-2.81668763803891E-16,0.));
#257=CARTESIAN_POINT('',(-2.4,-2.93915231795365E-16,0.1));
#258=CARTESIAN_POINT('Origin',(0.,0.,0.));
#259=CARTESIAN_POINT('Origin',(0.,0.,0.));
#260=CARTESIAN_POINT('',(-2.5,-3.06161699786838E-16,3.8));
#261=CARTESIAN_POINT('Origin',(0.,0.,3.8));
#262=CARTESIAN_POINT('',(-2.5,-3.06161699786838E-16,0.));
#263=CARTESIAN_POINT('Origin',(0.,0.,0.));
#264=CARTESIAN_POINT('Origin',(-3.35410196624969,0.97,3.8));
#265=CARTESIAN_POINT('Ctrl Pts',(2.09379939051201,0.97,5.15000000000066));
#266=CARTESIAN_POINT('Ctrl Pts',(2.73947531326257E-13,0.970000000000001,
3.25017071578598));
#267=CARTESIAN_POINT('Ctrl Pts',(-2.0937993905089,0.970000000000001,5.14999999999785));
#268=CARTESIAN_POINT('Origin',(3.35410196624969,-0.97,3.8));
#269=CARTESIAN_POINT('Ctrl Pts',(-2.09379939051201,-0.97,5.15000000000066));
#270=CARTESIAN_POINT('Ctrl Pts',(-2.72837308301632E-13,-0.970000000000001,
3.25017071578597));
#271=CARTESIAN_POINT('Ctrl Pts',(2.0937993905089,-0.970000000000001,5.14999999999785));
#272=CARTESIAN_POINT('Origin',(0.,0.,3.8));
#273=CARTESIAN_POINT('',(0.957573593128807,1.17268943577322E-16,3.8));
#274=CARTESIAN_POINT('Origin',(0.,0.,3.8));
#275=CARTESIAN_POINT('Origin',(0.,0.,3.8212132034356));
#276=CARTESIAN_POINT('',(0.978786796564403,1.19866811746029E-16,3.8212132034356));
#277=UNCERTAINTY_MEASURE_WITH_UNIT(LENGTH_MEASURE(0.01),#281,
'DISTANCE_ACCURACY_VALUE',
'Maximum model space distance between geometric entities at asserted c
onnectivities');
#278=UNCERTAINTY_MEASURE_WITH_UNIT(LENGTH_MEASURE(0.01),#281,
'DISTANCE_ACCURACY_VALUE',
'Maximum model space distance between geometric entities at asserted c
onnectivities');
#279=(
GEOMETRIC_REPRESENTATION_CONTEXT(3)
GLOBAL_UNCERTAINTY_ASSIGNED_CONTEXT((#277))
GLOBAL_UNIT_ASSIGNED_CONTEXT((#281,#282,#283))
REPRESENTATION_CONTEXT('','3D')
);
#280=(
GEOMETRIC_REPRESENTATION_CONTEXT(3)
GLOBAL_UNCERTAINTY_ASSIGNED_CONTEXT((#278))
GLOBAL_UNIT_ASSIGNED_CONTEXT((#281,#282,#283))
REPRESENTATION_CONTEXT('','3D')
);
#281=(
LENGTH_UNIT()
NAMED_UNIT(*)
SI_UNIT(.MILLI.,.METRE.)
);
#282=(
NAMED_UNIT(*)
PLANE_ANGLE_UNIT()
SI_UNIT($,.RADIAN.)
);
#283=(
NAMED_UNIT(*)
SI_UNIT($,.STERADIAN.)
SOLID_ANGLE_UNIT()
);
#284=SHAPE_DEFINITION_REPRESENTATION(#285,#286);
#285=PRODUCT_DEFINITION_SHAPE('',$,#288);
#286=SHAPE_REPRESENTATION('',(#160),#279);
#287=PRODUCT_DEFINITION_CONTEXT('part definition',#292,'design');
#288=PRODUCT_DEFINITION('\X2\89D25EA7\X0\','\X2\89D25EA7\X0\ v6',#289,#287);
#289=PRODUCT_DEFINITION_FORMATION('',$,#294);
#290=PRODUCT_RELATED_PRODUCT_CATEGORY('\X2\89D25EA7\X0\ v6','\X2\89D25EA7\X0\ 
v6',(#294));
#291=APPLICATION_PROTOCOL_DEFINITION('international standard',
'automotive_design',2009,#292);
#292=APPLICATION_CONTEXT(
'Core Data for Automotive Mechanical Design Process');
#293=PRODUCT_CONTEXT('part definition',#292,'mechanical');
#294=PRODUCT('\X2\89D25EA7\X0\','\X2\89D25EA7\X0\ v6',$,(#293));
#295=PRESENTATION_STYLE_ASSIGNMENT((#296));
#296=SURFACE_STYLE_USAGE(.BOTH.,#297);
#297=SURFACE_SIDE_STYLE('',(#298));
#298=SURFACE_STYLE_FILL_AREA(#299);
#299=FILL_AREA_STYLE('Steel - Satin',(#300));
#300=FILL_AREA_STYLE_COLOUR('Steel - Satin',#301);
#301=COLOUR_RGB('Steel - Satin',0.627450980392157,0.627450980392157,0.627450980392157);
ENDSEC;
END-ISO-10303-21;
