ISO-10303-21;
HEADER;
/* Generated by software containing ST-Developer
 * from STEP Tools, Inc. (www.steptools.com) 
 */

FILE_DESCRIPTION(
/* description */ (''),
/* implementation_level */ '2;1');

FILE_NAME(
/* name */ '',
/* time_stamp */ '2026-09-05T23:16:37+08:00',
/* author */ (''),
/* organization */ (''),
/* preprocessor_version */ 'ST-DEVELOPER v20.1',
/* originating_system */ 'Autodesk Translation Framework v15.8.0.0',
/* authorisation */ '');

FILE_SCHEMA (('AUTOMOTIVE_DESIGN { 1 0 10303 214 3 1 1 }'));
ENDSEC;

DATA;
#10=MECHANICAL_DESIGN_GEOMETRIC_PRESENTATION_REPRESENTATION('',(#13),#455);
#11=SHAPE_REPRESENTATION_RELATIONSHIP('SRR','None',#461,#12);
#12=ADVANCED_BREP_SHAPE_REPRESENTATION('',(#14),#454);
#13=STYLED_ITEM('',(#470),#14);
#14=MANIFOLD_SOLID_BREP('Body1',#268);
#15=(
BOUNDED_CURVE()
B_SPLINE_CURVE(2,(#429,#430,#431),.UNSPECIFIED.,.F.,.F.)
B_SPLINE_CURVE_WITH_KNOTS((3,3),(0.206353324898889,0.41458625677234),
 .UNSPECIFIED.)
CURVE()
GEOMETRIC_REPRESENTATION_ITEM()
RATIONAL_B_SPLINE_CURVE((2.28088426744969,2.86510170456458,3.32407204161873))
REPRESENTATION_ITEM('')
);
#16=(
BOUNDED_CURVE()
B_SPLINE_CURVE(2,(#434,#435,#436),.UNSPECIFIED.,.F.,.F.)
B_SPLINE_CURVE_WITH_KNOTS((3,3),(1.94073319161368,2.14896612348581),
 .UNSPECIFIED.)
CURVE()
GEOMETRIC_REPRESENTATION_ITEM()
RATIONAL_B_SPLINE_CURVE((3.32407204161873,2.86510170456747,2.28088426745706))
REPRESENTATION_ITEM('')
);
#17=(
BOUNDED_CURVE()
B_SPLINE_CURVE(2,(#439,#440,#441),.UNSPECIFIED.,.F.,.F.)
B_SPLINE_CURVE_WITH_KNOTS((3,3),(1.94073319161368,2.14896612348581),
 .UNSPECIFIED.)
CURVE()
GEOMETRIC_REPRESENTATION_ITEM()
RATIONAL_B_SPLINE_CURVE((3.32407204161873,2.86510170456747,2.28088426745706))
REPRESENTATION_ITEM('')
);
#18=(
BOUNDED_CURVE()
B_SPLINE_CURVE(2,(#445,#446,#447),.UNSPECIFIED.,.F.,.F.)
B_SPLINE_CURVE_WITH_KNOTS((3,3),(0.206353324898889,0.41458625677234),
 .UNSPECIFIED.)
CURVE()
GEOMETRIC_REPRESENTATION_ITEM()
RATIONAL_B_SPLINE_CURVE((2.28088426744969,2.86510170456458,3.32407204161873))
REPRESENTATION_ITEM('')
);
#19=FACE_BOUND('',#63,.T.);
#20=FACE_BOUND('',#68,.T.);
#21=CONICAL_SURFACE('',#282,2.4,0.785398163397449);
#22=CONICAL_SURFACE('',#289,1.98585786437627,0.785398163397448);
#23=CONICAL_SURFACE('',#294,1.98585786437627,0.785398163397448);
#24=CIRCLE('',#276,3.32171572875254);
#25=CIRCLE('',#277,3.32171572875254);
#26=CIRCLE('',#279,3.32171572875254);
#27=CIRCLE('',#280,3.32171572875254);
#28=CIRCLE('',#283,2.5);
#29=CIRCLE('',#284,2.3);
#30=CIRCLE('',#286,2.5);
#31=CIRCLE('',#290,1.97171572875254);
#32=CIRCLE('',#293,1.97171572875254);
#33=CYLINDRICAL_SURFACE('',#275,3.32171572875254);
#34=CYLINDRICAL_SURFACE('',#278,3.32171572875254);
#35=CYLINDRICAL_SURFACE('',#285,2.5);
#36=FACE_OUTER_BOUND('',#52,.T.);
#37=FACE_OUTER_BOUND('',#53,.T.);
#38=FACE_OUTER_BOUND('',#54,.T.);
#39=FACE_OUTER_BOUND('',#55,.T.);
#40=FACE_OUTER_BOUND('',#56,.T.);
#41=FACE_OUTER_BOUND('',#57,.T.);
#42=FACE_OUTER_BOUND('',#58,.T.);
#43=FACE_OUTER_BOUND('',#59,.T.);
#44=FACE_OUTER_BOUND('',#60,.T.);
#45=FACE_OUTER_BOUND('',#61,.T.);
#46=FACE_OUTER_BOUND('',#62,.T.);
#47=FACE_OUTER_BOUND('',#64,.T.);
#48=FACE_OUTER_BOUND('',#65,.T.);
#49=FACE_OUTER_BOUND('',#66,.T.);
#50=FACE_OUTER_BOUND('',#67,.T.);
#51=FACE_OUTER_BOUND('',#69,.T.);
#52=EDGE_LOOP('',(#172,#173,#174,#175));
#53=EDGE_LOOP('',(#176,#177,#178,#179));
#54=EDGE_LOOP('',(#180,#181,#182,#183));
#55=EDGE_LOOP('',(#184,#185,#186,#187));
#56=EDGE_LOOP('',(#188,#189,#190,#191));
#57=EDGE_LOOP('',(#192,#193,#194,#195));
#58=EDGE_LOOP('',(#196,#197,#198,#199));
#59=EDGE_LOOP('',(#200,#201,#202,#203));
#60=EDGE_LOOP('',(#204,#205,#206,#207));
#61=EDGE_LOOP('',(#208,#209,#210,#211));
#62=EDGE_LOOP('',(#212));
#63=EDGE_LOOP('',(#213,#214,#215,#216));
#64=EDGE_LOOP('',(#217,#218,#219,#220,#221,#222));
#65=EDGE_LOOP('',(#223,#224,#225,#226));
#66=EDGE_LOOP('',(#227,#228,#229,#230,#231,#232));
#67=EDGE_LOOP('',(#233));
#68=EDGE_LOOP('',(#234,#235,#236,#237));
#69=EDGE_LOOP('',(#238,#239,#240,#241));
#70=LINE('',#373,#92);
#71=LINE('',#375,#93);
#72=LINE('',#377,#94);
#73=LINE('',#378,#95);
#74=LINE('',#381,#96);
#75=LINE('',#383,#97);
#76=LINE('',#384,#98);
#77=LINE('',#387,#99);
#78=LINE('',#389,#100);
#79=LINE('',#390,#101);
#80=LINE('',#392,#102);
#81=LINE('',#393,#103);
#82=LINE('',#400,#104);
#83=LINE('',#403,#105);
#84=LINE('',#409,#106);
#85=LINE('',#412,#107);
#86=LINE('',#414,#108);
#87=LINE('',#415,#109);
#88=LINE('',#420,#110);
#89=LINE('',#425,#111);
#90=LINE('',#433,#112);
#91=LINE('',#448,#113);
#92=VECTOR('',#299,10.);
#93=VECTOR('',#300,10.);
#94=VECTOR('',#301,10.);
#95=VECTOR('',#302,10.);
#96=VECTOR('',#305,10.);
#97=VECTOR('',#306,10.);
#98=VECTOR('',#307,10.);
#99=VECTOR('',#310,10.);
#100=VECTOR('',#311,10.);
#101=VECTOR('',#312,10.);
#102=VECTOR('',#315,10.);
#103=VECTOR('',#316,10.);
#104=VECTOR('',#323,10.);
#105=VECTOR('',#326,10.);
#106=VECTOR('',#331,10.);
#107=VECTOR('',#334,10.);
#108=VECTOR('',#337,10.);
#109=VECTOR('',#338,10.);
#110=VECTOR('',#343,2.4);
#111=VECTOR('',#350,2.5);
#112=VECTOR('',#355,10.);
#113=VECTOR('',#362,10.);
#114=VERTEX_POINT('',#371);
#115=VERTEX_POINT('',#372);
#116=VERTEX_POINT('',#374);
#117=VERTEX_POINT('',#376);
#118=VERTEX_POINT('',#380);
#119=VERTEX_POINT('',#382);
#120=VERTEX_POINT('',#386);
#121=VERTEX_POINT('',#388);
#122=VERTEX_POINT('',#396);
#123=VERTEX_POINT('',#397);
#124=VERTEX_POINT('',#399);
#125=VERTEX_POINT('',#401);
#126=VERTEX_POINT('',#405);
#127=VERTEX_POINT('',#406);
#128=VERTEX_POINT('',#408);
#129=VERTEX_POINT('',#410);
#130=VERTEX_POINT('',#417);
#131=VERTEX_POINT('',#419);
#132=VERTEX_POINT('',#423);
#133=VERTEX_POINT('',#428);
#134=VERTEX_POINT('',#432);
#135=VERTEX_POINT('',#438);
#136=VERTEX_POINT('',#444);
#137=EDGE_CURVE('',#114,#115,#70,.T.);
#138=EDGE_CURVE('',#114,#116,#71,.T.);
#139=EDGE_CURVE('',#116,#117,#72,.T.);
#140=EDGE_CURVE('',#115,#117,#73,.T.);
#141=EDGE_CURVE('',#118,#114,#74,.T.);
#142=EDGE_CURVE('',#118,#119,#75,.T.);
#143=EDGE_CURVE('',#119,#116,#76,.T.);
#144=EDGE_CURVE('',#120,#118,#77,.T.);
#145=EDGE_CURVE('',#120,#121,#78,.T.);
#146=EDGE_CURVE('',#121,#119,#79,.T.);
#147=EDGE_CURVE('',#115,#120,#80,.T.);
#148=EDGE_CURVE('',#117,#121,#81,.T.);
#149=EDGE_CURVE('',#122,#123,#24,.T.);
#150=EDGE_CURVE('',#122,#124,#82,.T.);
#151=EDGE_CURVE('',#125,#124,#25,.T.);
#152=EDGE_CURVE('',#123,#125,#83,.T.);
#153=EDGE_CURVE('',#126,#127,#26,.T.);
#154=EDGE_CURVE('',#126,#128,#84,.T.);
#155=EDGE_CURVE('',#129,#128,#27,.T.);
#156=EDGE_CURVE('',#127,#129,#85,.T.);
#157=EDGE_CURVE('',#128,#125,#86,.T.);
#158=EDGE_CURVE('',#124,#129,#87,.T.);
#159=EDGE_CURVE('',#130,#130,#28,.T.);
#160=EDGE_CURVE('',#130,#131,#88,.T.);
#161=EDGE_CURVE('',#131,#131,#29,.T.);
#162=EDGE_CURVE('',#132,#132,#30,.T.);
#163=EDGE_CURVE('',#132,#130,#89,.T.);
#164=EDGE_CURVE('',#133,#122,#15,.F.);
#165=EDGE_CURVE('',#134,#133,#90,.F.);
#166=EDGE_CURVE('',#127,#134,#16,.F.);
#167=EDGE_CURVE('',#123,#135,#17,.F.);
#168=EDGE_CURVE('',#133,#135,#31,.T.);
#169=EDGE_CURVE('',#136,#126,#18,.F.);
#170=EDGE_CURVE('',#135,#136,#91,.F.);
#171=EDGE_CURVE('',#136,#134,#32,.T.);
#172=ORIENTED_EDGE('',*,*,#137,.F.);
#173=ORIENTED_EDGE('',*,*,#138,.T.);
#174=ORIENTED_EDGE('',*,*,#139,.T.);
#175=ORIENTED_EDGE('',*,*,#140,.F.);
#176=ORIENTED_EDGE('',*,*,#141,.F.);
#177=ORIENTED_EDGE('',*,*,#142,.T.);
#178=ORIENTED_EDGE('',*,*,#143,.T.);
#179=ORIENTED_EDGE('',*,*,#138,.F.);
#180=ORIENTED_EDGE('',*,*,#144,.F.);
#181=ORIENTED_EDGE('',*,*,#145,.T.);
#182=ORIENTED_EDGE('',*,*,#146,.T.);
#183=ORIENTED_EDGE('',*,*,#142,.F.);
#184=ORIENTED_EDGE('',*,*,#147,.F.);
#185=ORIENTED_EDGE('',*,*,#140,.T.);
#186=ORIENTED_EDGE('',*,*,#148,.T.);
#187=ORIENTED_EDGE('',*,*,#145,.F.);
#188=ORIENTED_EDGE('',*,*,#148,.F.);
#189=ORIENTED_EDGE('',*,*,#139,.F.);
#190=ORIENTED_EDGE('',*,*,#143,.F.);
#191=ORIENTED_EDGE('',*,*,#146,.F.);
#192=ORIENTED_EDGE('',*,*,#149,.F.);
#193=ORIENTED_EDGE('',*,*,#150,.T.);
#194=ORIENTED_EDGE('',*,*,#151,.F.);
#195=ORIENTED_EDGE('',*,*,#152,.F.);
#196=ORIENTED_EDGE('',*,*,#153,.F.);
#197=ORIENTED_EDGE('',*,*,#154,.T.);
#198=ORIENTED_EDGE('',*,*,#155,.F.);
#199=ORIENTED_EDGE('',*,*,#156,.F.);
#200=ORIENTED_EDGE('',*,*,#155,.T.);
#201=ORIENTED_EDGE('',*,*,#157,.T.);
#202=ORIENTED_EDGE('',*,*,#151,.T.);
#203=ORIENTED_EDGE('',*,*,#158,.T.);
#204=ORIENTED_EDGE('',*,*,#159,.T.);
#205=ORIENTED_EDGE('',*,*,#160,.T.);
#206=ORIENTED_EDGE('',*,*,#161,.T.);
#207=ORIENTED_EDGE('',*,*,#160,.F.);
#208=ORIENTED_EDGE('',*,*,#162,.F.);
#209=ORIENTED_EDGE('',*,*,#163,.T.);
#210=ORIENTED_EDGE('',*,*,#159,.F.);
#211=ORIENTED_EDGE('',*,*,#163,.F.);
#212=ORIENTED_EDGE('',*,*,#161,.F.);
#213=ORIENTED_EDGE('',*,*,#137,.T.);
#214=ORIENTED_EDGE('',*,*,#147,.T.);
#215=ORIENTED_EDGE('',*,*,#144,.T.);
#216=ORIENTED_EDGE('',*,*,#141,.T.);
#217=ORIENTED_EDGE('',*,*,#164,.F.);
#218=ORIENTED_EDGE('',*,*,#165,.F.);
#219=ORIENTED_EDGE('',*,*,#166,.F.);
#220=ORIENTED_EDGE('',*,*,#156,.T.);
#221=ORIENTED_EDGE('',*,*,#158,.F.);
#222=ORIENTED_EDGE('',*,*,#150,.F.);
#223=ORIENTED_EDGE('',*,*,#149,.T.);
#224=ORIENTED_EDGE('',*,*,#167,.T.);
#225=ORIENTED_EDGE('',*,*,#168,.F.);
#226=ORIENTED_EDGE('',*,*,#164,.T.);
#227=ORIENTED_EDGE('',*,*,#169,.F.);
#228=ORIENTED_EDGE('',*,*,#170,.F.);
#229=ORIENTED_EDGE('',*,*,#167,.F.);
#230=ORIENTED_EDGE('',*,*,#152,.T.);
#231=ORIENTED_EDGE('',*,*,#157,.F.);
#232=ORIENTED_EDGE('',*,*,#154,.F.);
#233=ORIENTED_EDGE('',*,*,#162,.T.);
#234=ORIENTED_EDGE('',*,*,#168,.T.);
#235=ORIENTED_EDGE('',*,*,#170,.T.);
#236=ORIENTED_EDGE('',*,*,#171,.T.);
#237=ORIENTED_EDGE('',*,*,#165,.T.);
#238=ORIENTED_EDGE('',*,*,#153,.T.);
#239=ORIENTED_EDGE('',*,*,#166,.T.);
#240=ORIENTED_EDGE('',*,*,#171,.F.);
#241=ORIENTED_EDGE('',*,*,#169,.T.);
#242=PLANE('',#270);
#243=PLANE('',#271);
#244=PLANE('',#272);
#245=PLANE('',#273);
#246=PLANE('',#274);
#247=PLANE('',#281);
#248=PLANE('',#287);
#249=PLANE('',#288);
#250=PLANE('',#291);
#251=PLANE('',#292);
#252=ADVANCED_FACE('',(#36),#242,.F.);
#253=ADVANCED_FACE('',(#37),#243,.F.);
#254=ADVANCED_FACE('',(#38),#244,.F.);
#255=ADVANCED_FACE('',(#39),#245,.F.);
#256=ADVANCED_FACE('',(#40),#246,.F.);
#257=ADVANCED_FACE('',(#41),#33,.T.);
#258=ADVANCED_FACE('',(#42),#34,.T.);
#259=ADVANCED_FACE('',(#43),#247,.T.);
#260=ADVANCED_FACE('',(#44),#21,.T.);
#261=ADVANCED_FACE('',(#45),#35,.T.);
#262=ADVANCED_FACE('',(#46,#19),#248,.F.);
#263=ADVANCED_FACE('',(#47),#249,.F.);
#264=ADVANCED_FACE('',(#48),#22,.T.);
#265=ADVANCED_FACE('',(#49),#250,.F.);
#266=ADVANCED_FACE('',(#50,#20),#251,.T.);
#267=ADVANCED_FACE('',(#51),#23,.T.);
#268=CLOSED_SHELL('',(#252,#253,#254,#255,#256,#257,#258,#259,#260,#261,
#262,#263,#264,#265,#266,#267));
#269=AXIS2_PLACEMENT_3D('',#369,#295,#296);
#270=AXIS2_PLACEMENT_3D('',#370,#297,#298);
#271=AXIS2_PLACEMENT_3D('',#379,#303,#304);
#272=AXIS2_PLACEMENT_3D('',#385,#308,#309);
#273=AXIS2_PLACEMENT_3D('',#391,#313,#314);
#274=AXIS2_PLACEMENT_3D('',#394,#317,#318);
#275=AXIS2_PLACEMENT_3D('',#395,#319,#320);
#276=AXIS2_PLACEMENT_3D('',#398,#321,#322);
#277=AXIS2_PLACEMENT_3D('',#402,#324,#325);
#278=AXIS2_PLACEMENT_3D('',#404,#327,#328);
#279=AXIS2_PLACEMENT_3D('',#407,#329,#330);
#280=AXIS2_PLACEMENT_3D('',#411,#332,#333);
#281=AXIS2_PLACEMENT_3D('',#413,#335,#336);
#282=AXIS2_PLACEMENT_3D('',#416,#339,#340);
#283=AXIS2_PLACEMENT_3D('',#418,#341,#342);
#284=AXIS2_PLACEMENT_3D('',#421,#344,#345);
#285=AXIS2_PLACEMENT_3D('',#422,#346,#347);
#286=AXIS2_PLACEMENT_3D('',#424,#348,#349);
#287=AXIS2_PLACEMENT_3D('',#426,#351,#352);
#288=AXIS2_PLACEMENT_3D('',#427,#353,#354);
#289=AXIS2_PLACEMENT_3D('',#437,#356,#357);
#290=AXIS2_PLACEMENT_3D('',#442,#358,#359);
#291=AXIS2_PLACEMENT_3D('',#443,#360,#361);
#292=AXIS2_PLACEMENT_3D('',#449,#363,#364);
#293=AXIS2_PLACEMENT_3D('',#450,#365,#366);
#294=AXIS2_PLACEMENT_3D('',#451,#367,#368);
#295=DIRECTION('axis',(0.,0.,1.));
#296=DIRECTION('refdir',(1.,0.,0.));
#297=DIRECTION('center_axis',(-1.,0.,0.));
#298=DIRECTION('ref_axis',(0.,-1.,0.));
#299=DIRECTION('',(0.,-1.,0.));
#300=DIRECTION('',(0.,0.,1.));
#301=DIRECTION('',(0.,-1.,0.));
#302=DIRECTION('',(0.,0.,1.));
#303=DIRECTION('center_axis',(0.,1.,0.));
#304=DIRECTION('ref_axis',(-1.,0.,0.));
#305=DIRECTION('',(-1.,0.,0.));
#306=DIRECTION('',(0.,0.,1.));
#307=DIRECTION('',(-1.,0.,0.));
#308=DIRECTION('center_axis',(1.,0.,0.));
#309=DIRECTION('ref_axis',(0.,1.,0.));
#310=DIRECTION('',(0.,1.,0.));
#311=DIRECTION('',(0.,0.,1.));
#312=DIRECTION('',(0.,1.,0.));
#313=DIRECTION('center_axis',(0.,-1.,0.));
#314=DIRECTION('ref_axis',(1.,0.,0.));
#315=DIRECTION('',(1.,0.,0.));
#316=DIRECTION('',(1.,0.,0.));
#317=DIRECTION('center_axis',(0.,0.,1.));
#318=DIRECTION('ref_axis',(1.,0.,0.));
#319=DIRECTION('center_axis',(0.,0.,1.));
#320=DIRECTION('ref_axis',(-1.,0.,0.));
#321=DIRECTION('center_axis',(0.,0.,-1.));
#322=DIRECTION('ref_axis',(-1.,0.,0.));
#323=DIRECTION('',(0.,0.,1.));
#324=DIRECTION('center_axis',(0.,0.,1.));
#325=DIRECTION('ref_axis',(-1.,0.,0.));
#326=DIRECTION('',(0.,0.,1.));
#327=DIRECTION('center_axis',(0.,0.,1.));
#328=DIRECTION('ref_axis',(1.,-1.22464679914735E-16,0.));
#329=DIRECTION('center_axis',(0.,0.,-1.));
#330=DIRECTION('ref_axis',(-1.,0.,0.));
#331=DIRECTION('',(0.,0.,1.));
#332=DIRECTION('center_axis',(0.,0.,1.));
#333=DIRECTION('ref_axis',(-1.,0.,0.));
#334=DIRECTION('',(0.,0.,1.));
#335=DIRECTION('center_axis',(0.,0.,1.));
#336=DIRECTION('ref_axis',(-1.,0.,0.));
#337=DIRECTION('',(-1.,0.,0.));
#338=DIRECTION('',(1.,0.,0.));
#339=DIRECTION('center_axis',(0.,0.,1.));
#340=DIRECTION('ref_axis',(1.,0.,0.));
#341=DIRECTION('center_axis',(0.,0.,-1.));
#342=DIRECTION('ref_axis',(1.,0.,0.));
#343=DIRECTION('',(0.707106781186548,8.65956056235493E-17,-0.707106781186547));
#344=DIRECTION('center_axis',(0.,0.,1.));
#345=DIRECTION('ref_axis',(1.,0.,0.));
#346=DIRECTION('center_axis',(0.,0.,1.));
#347=DIRECTION('ref_axis',(1.,0.,0.));
#348=DIRECTION('center_axis',(0.,0.,1.));
#349=DIRECTION('ref_axis',(1.,0.,0.));
#350=DIRECTION('',(0.,0.,-1.));
#351=DIRECTION('center_axis',(0.,0.,1.));
#352=DIRECTION('ref_axis',(1.,0.,0.));
#353=DIRECTION('center_axis',(0.,1.,0.));
#354=DIRECTION('ref_axis',(-1.,0.,0.));
#355=DIRECTION('',(1.,0.,0.));
#356=DIRECTION('center_axis',(0.,0.,1.));
#357=DIRECTION('ref_axis',(-1.,0.,0.));
#358=DIRECTION('center_axis',(0.,0.,-1.));
#359=DIRECTION('ref_axis',(-1.,0.,0.));
#360=DIRECTION('center_axis',(0.,-1.,0.));
#361=DIRECTION('ref_axis',(1.,0.,0.));
#362=DIRECTION('',(-1.,0.,0.));
#363=DIRECTION('center_axis',(0.,0.,1.));
#364=DIRECTION('ref_axis',(1.,0.,0.));
#365=DIRECTION('center_axis',(0.,0.,-1.));
#366=DIRECTION('ref_axis',(-1.,0.,0.));
#367=DIRECTION('center_axis',(0.,0.,1.));
#368=DIRECTION('ref_axis',(1.,-5.66553889764798E-16,0.));
#369=CARTESIAN_POINT('',(0.,0.,0.));
#370=CARTESIAN_POINT('Origin',(-1.5,0.25,0.));
#371=CARTESIAN_POINT('',(-1.5,0.25,0.));
#372=CARTESIAN_POINT('',(-1.5,-0.25,0.));
#373=CARTESIAN_POINT('',(-1.5,0.125,0.));
#374=CARTESIAN_POINT('',(-1.5,0.25,0.4));
#375=CARTESIAN_POINT('',(-1.5,0.25,0.));
#376=CARTESIAN_POINT('',(-1.5,-0.25,0.4));
#377=CARTESIAN_POINT('',(-1.5,0.25,0.4));
#378=CARTESIAN_POINT('',(-1.5,-0.25,0.));
#379=CARTESIAN_POINT('Origin',(1.5,0.25,0.));
#380=CARTESIAN_POINT('',(1.5,0.25,0.));
#381=CARTESIAN_POINT('',(0.75,0.25,0.));
#382=CARTESIAN_POINT('',(1.5,0.25,0.4));
#383=CARTESIAN_POINT('',(1.5,0.25,0.));
#384=CARTESIAN_POINT('',(1.5,0.25,0.4));
#385=CARTESIAN_POINT('Origin',(1.5,-0.25,0.));
#386=CARTESIAN_POINT('',(1.5,-0.25,0.));
#387=CARTESIAN_POINT('',(1.5,-0.125,0.));
#388=CARTESIAN_POINT('',(1.5,-0.25,0.4));
#389=CARTESIAN_POINT('',(1.5,-0.25,0.));
#390=CARTESIAN_POINT('',(1.5,-0.25,0.4));
#391=CARTESIAN_POINT('Origin',(-1.5,-0.25,0.));
#392=CARTESIAN_POINT('',(-0.75,-0.25,0.));
#393=CARTESIAN_POINT('',(-1.5,-0.25,0.4));
#394=CARTESIAN_POINT('Origin',(0.,0.,0.4));
#395=CARTESIAN_POINT('Origin',(0.,0.,5.15));
#396=CARTESIAN_POINT('',(-3.17386127337696,-0.98,5.15));
#397=CARTESIAN_POINT('',(-3.17386127337696,0.98,5.15));
#398=CARTESIAN_POINT('Origin',(0.,0.,5.15));
#399=CARTESIAN_POINT('',(-3.17386127337696,-0.98,5.3));
#400=CARTESIAN_POINT('',(-3.17386127337696,-0.98,5.15));
#401=CARTESIAN_POINT('',(-3.17386127337696,0.98,5.3));
#402=CARTESIAN_POINT('Origin',(0.,0.,5.3));
#403=CARTESIAN_POINT('',(-3.17386127337696,0.98,5.15));
#404=CARTESIAN_POINT('Origin',(0.,0.,5.15));
#405=CARTESIAN_POINT('',(3.17386127337696,0.98,5.15));
#406=CARTESIAN_POINT('',(3.17386127337696,-0.98,5.15));
#407=CARTESIAN_POINT('Origin',(0.,0.,5.15));
#408=CARTESIAN_POINT('',(3.17386127337696,0.98,5.3));
#409=CARTESIAN_POINT('',(3.17386127337696,0.98,5.15));
#410=CARTESIAN_POINT('',(3.17386127337696,-0.98,5.3));
#411=CARTESIAN_POINT('Origin',(0.,0.,5.3));
#412=CARTESIAN_POINT('',(3.17386127337696,-0.98,5.15));
#413=CARTESIAN_POINT('Origin',(0.,0.,5.3));
#414=CARTESIAN_POINT('',(-1.67705098312484,0.98,5.3));
#415=CARTESIAN_POINT('',(1.67705098312484,-0.98,5.3));
#416=CARTESIAN_POINT('Origin',(0.,0.,0.1));
#417=CARTESIAN_POINT('',(-2.5,3.06161699786838E-16,0.2));
#418=CARTESIAN_POINT('Origin',(0.,0.,0.2));
#419=CARTESIAN_POINT('',(-2.3,-2.81668763803891E-16,0.));
#420=CARTESIAN_POINT('',(-2.4,-2.93915231795365E-16,0.1));
#421=CARTESIAN_POINT('Origin',(0.,0.,0.));
#422=CARTESIAN_POINT('Origin',(0.,0.,0.));
#423=CARTESIAN_POINT('',(-2.5,-3.06161699786838E-16,3.8));
#424=CARTESIAN_POINT('Origin',(0.,0.,3.8));
#425=CARTESIAN_POINT('',(-2.5,-3.06161699786838E-16,0.));
#426=CARTESIAN_POINT('Origin',(0.,0.,0.));
#427=CARTESIAN_POINT('Origin',(3.35410196624969,-0.98,3.8));
#428=CARTESIAN_POINT('',(-1.71092457899527,-0.98,3.8));
#429=CARTESIAN_POINT('Ctrl Pts',(-3.17386127337696,-0.980000000000001,5.15));
#430=CARTESIAN_POINT('Ctrl Pts',(-2.25584431841911,-0.98,4.27284533067543));
#431=CARTESIAN_POINT('Ctrl Pts',(-1.71092457899527,-0.98,3.79999999999999));
#432=CARTESIAN_POINT('',(1.71092457899527,-0.98,3.8));
#433=CARTESIAN_POINT('',(1.67705098312484,-0.98,3.8));
#434=CARTESIAN_POINT('Ctrl Pts',(1.71092457899527,-0.98,3.79999999999999));
#435=CARTESIAN_POINT('Ctrl Pts',(2.25584431841512,-0.98,4.27284533067197));
#436=CARTESIAN_POINT('Ctrl Pts',(3.17386127336241,-0.980000000000001,5.1499999999861));
#437=CARTESIAN_POINT('Origin',(0.,0.,3.81414213562373));
#438=CARTESIAN_POINT('',(-1.71092457899527,0.98,3.8));
#439=CARTESIAN_POINT('Ctrl Pts',(-1.71092457899527,0.98,3.79999999999999));
#440=CARTESIAN_POINT('Ctrl Pts',(-2.25584431841512,0.98,4.27284533067197));
#441=CARTESIAN_POINT('Ctrl Pts',(-3.17386127336241,0.980000000000001,5.1499999999861));
#442=CARTESIAN_POINT('Origin',(0.,0.,3.8));
#443=CARTESIAN_POINT('Origin',(-3.35410196624969,0.98,3.8));
#444=CARTESIAN_POINT('',(1.71092457899527,0.98,3.8));
#445=CARTESIAN_POINT('Ctrl Pts',(3.17386127337696,0.980000000000001,5.15));
#446=CARTESIAN_POINT('Ctrl Pts',(2.25584431841911,0.98,4.27284533067543));
#447=CARTESIAN_POINT('Ctrl Pts',(1.71092457899527,0.98,3.79999999999999));
#448=CARTESIAN_POINT('',(-1.67705098312484,0.98,3.8));
#449=CARTESIAN_POINT('Origin',(0.,0.,3.8));
#450=CARTESIAN_POINT('Origin',(0.,0.,3.8));
#451=CARTESIAN_POINT('Origin',(0.,0.,3.81414213562373));
#452=UNCERTAINTY_MEASURE_WITH_UNIT(LENGTH_MEASURE(0.01),#456,
'DISTANCE_ACCURACY_VALUE',
'Maximum model space distance between geometric entities at asserted c
onnectivities');
#453=UNCERTAINTY_MEASURE_WITH_UNIT(LENGTH_MEASURE(0.01),#456,
'DISTANCE_ACCURACY_VALUE',
'Maximum model space distance between geometric entities at asserted c
onnectivities');
#454=(
GEOMETRIC_REPRESENTATION_CONTEXT(3)
GLOBAL_UNCERTAINTY_ASSIGNED_CONTEXT((#452))
GLOBAL_UNIT_ASSIGNED_CONTEXT((#456,#457,#458))
REPRESENTATION_CONTEXT('','3D')
);
#455=(
GEOMETRIC_REPRESENTATION_CONTEXT(3)
GLOBAL_UNCERTAINTY_ASSIGNED_CONTEXT((#453))
GLOBAL_UNIT_ASSIGNED_CONTEXT((#456,#457,#458))
REPRESENTATION_CONTEXT('','3D')
);
#456=(
LENGTH_UNIT()
NAMED_UNIT(*)
SI_UNIT(.MILLI.,.METRE.)
);
#457=(
NAMED_UNIT(*)
PLANE_ANGLE_UNIT()
SI_UNIT($,.RADIAN.)
);
#458=(
NAMED_UNIT(*)
SI_UNIT($,.STERADIAN.)
SOLID_ANGLE_UNIT()
);
#459=SHAPE_DEFINITION_REPRESENTATION(#460,#461);
#460=PRODUCT_DEFINITION_SHAPE('',$,#463);
#461=SHAPE_REPRESENTATION('',(#269),#454);
#462=PRODUCT_DEFINITION_CONTEXT('part definition',#467,'design');
#463=PRODUCT_DEFINITION('\X2\89D25EA7\X0\','\X2\89D25EA7\X0\ v13',#464,
#462);
#464=PRODUCT_DEFINITION_FORMATION('',$,#469);
#465=PRODUCT_RELATED_PRODUCT_CATEGORY('\X2\89D25EA7\X0\ v13',
'\X2\89D25EA7\X0\ v13',(#469));
#466=APPLICATION_PROTOCOL_DEFINITION('international standard',
'automotive_design',2009,#467);
#467=APPLICATION_CONTEXT(
'Core Data for Automotive Mechanical Design Process');
#468=PRODUCT_CONTEXT('part definition',#467,'mechanical');
#469=PRODUCT('\X2\89D25EA7\X0\','\X2\89D25EA7\X0\ v13',$,(#468));
#470=PRESENTATION_STYLE_ASSIGNMENT((#471));
#471=SURFACE_STYLE_USAGE(.BOTH.,#472);
#472=SURFACE_SIDE_STYLE('',(#473));
#473=SURFACE_STYLE_FILL_AREA(#474);
#474=FILL_AREA_STYLE('Steel - Satin',(#475));
#475=FILL_AREA_STYLE_COLOUR('Steel - Satin',#476);
#476=COLOUR_RGB('Steel - Satin',0.627450980392157,0.627450980392157,0.627450980392157);
ENDSEC;
END-ISO-10303-21;
