ISO-10303-21;
HEADER;
/* Generated by software containing ST-Developer
 * from STEP Tools, Inc. (www.steptools.com) 
 */

FILE_DESCRIPTION(
/* description */ (''),
/* implementation_level */ '2;1');

FILE_NAME(
/* name */ '',
/* time_stamp */ '2026-09-05T23:16:47+08:00',
/* author */ (''),
/* organization */ (''),
/* preprocessor_version */ 'ST-DEVELOPER v20.1',
/* originating_system */ 'Autodesk Translation Framework v15.8.0.0',
/* authorisation */ '');

FILE_SCHEMA (('AUTOMOTIVE_DESIGN { 1 0 10303 214 3 1 1 }'));
ENDSEC;

DATA;
#10=MECHANICAL_DESIGN_GEOMETRIC_PRESENTATION_REPRESENTATION('',(#13),#460);
#11=SHAPE_REPRESENTATION_RELATIONSHIP('SRR','None',#467,#12);
#12=ADVANCED_BREP_SHAPE_REPRESENTATION('',(#14),#459);
#13=STYLED_ITEM('',(#476),#14);
#14=MANIFOLD_SOLID_BREP('Body1',#256);
#15=FACE_BOUND('',#63,.T.);
#16=FACE_BOUND('',#67,.T.);
#17=CYLINDRICAL_SURFACE('',#279,3.5);
#18=CYLINDRICAL_SURFACE('',#283,3.5);
#19=CYLINDRICAL_SURFACE('',#294,5.5);
#20=CIRCLE('',#272,2.);
#21=CIRCLE('',#275,2.);
#22=CIRCLE('',#280,3.5);
#23=CIRCLE('',#281,3.5);
#24=CIRCLE('',#284,3.5);
#25=CIRCLE('',#285,3.5);
#26=CIRCLE('',#287,2.);
#27=CIRCLE('',#288,3.5);
#28=CIRCLE('',#290,5.5);
#29=CIRCLE('',#291,3.5);
#30=CIRCLE('',#293,2.);
#31=CIRCLE('',#295,5.5);
#32=CONICAL_SURFACE('',#271,1.,0.785398163397448);
#33=CONICAL_SURFACE('',#274,1.,0.785398163397448);
#34=CONICAL_SURFACE('',#286,2.,0.785398163397448);
#35=CONICAL_SURFACE('',#292,2.,0.785398163397448);
#36=FACE_OUTER_BOUND('',#51,.T.);
#37=FACE_OUTER_BOUND('',#52,.T.);
#38=FACE_OUTER_BOUND('',#53,.T.);
#39=FACE_OUTER_BOUND('',#54,.T.);
#40=FACE_OUTER_BOUND('',#55,.T.);
#41=FACE_OUTER_BOUND('',#56,.T.);
#42=FACE_OUTER_BOUND('',#57,.T.);
#43=FACE_OUTER_BOUND('',#58,.T.);
#44=FACE_OUTER_BOUND('',#59,.T.);
#45=FACE_OUTER_BOUND('',#60,.T.);
#46=FACE_OUTER_BOUND('',#61,.T.);
#47=FACE_OUTER_BOUND('',#62,.T.);
#48=FACE_OUTER_BOUND('',#64,.T.);
#49=FACE_OUTER_BOUND('',#65,.T.);
#50=FACE_OUTER_BOUND('',#66,.T.);
#51=EDGE_LOOP('',(#163,#164,#165,#166));
#52=EDGE_LOOP('',(#167,#168,#169));
#53=EDGE_LOOP('',(#170,#171,#172,#173));
#54=EDGE_LOOP('',(#174,#175,#176));
#55=EDGE_LOOP('',(#177,#178,#179,#180,#181));
#56=EDGE_LOOP('',(#182,#183,#184));
#57=EDGE_LOOP('',(#185,#186,#187,#188,#189));
#58=EDGE_LOOP('',(#190,#191,#192,#193));
#59=EDGE_LOOP('',(#194,#195,#196));
#60=EDGE_LOOP('',(#197,#198,#199,#200));
#61=EDGE_LOOP('',(#201,#202,#203,#204));
#62=EDGE_LOOP('',(#205));
#63=EDGE_LOOP('',(#206,#207,#208,#209,#210,#211,#212,#213));
#64=EDGE_LOOP('',(#214,#215,#216,#217));
#65=EDGE_LOOP('',(#218,#219,#220,#221));
#66=EDGE_LOOP('',(#222));
#67=EDGE_LOOP('',(#223,#224,#225,#226,#227,#228,#229,#230,#231,#232));
#68=LINE('',#380,#83);
#69=LINE('',#381,#84);
#70=LINE('',#399,#85);
#71=LINE('',#400,#86);
#72=LINE('',#410,#87);
#73=LINE('',#411,#88);
#74=LINE('',#412,#89);
#75=LINE('',#420,#90);
#76=LINE('',#421,#91);
#77=LINE('',#425,#92);
#78=LINE('',#426,#93);
#79=LINE('',#427,#94);
#80=LINE('',#433,#95);
#81=LINE('',#439,#96);
#82=LINE('',#454,#97);
#83=VECTOR('',#301,10.);
#84=VECTOR('',#302,10.);
#85=VECTOR('',#309,10.);
#86=VECTOR('',#310,10.);
#87=VECTOR('',#317,10.);
#88=VECTOR('',#318,10.);
#89=VECTOR('',#319,10.);
#90=VECTOR('',#322,10.);
#91=VECTOR('',#323,10.);
#92=VECTOR('',#326,10.);
#93=VECTOR('',#327,10.);
#94=VECTOR('',#328,10.);
#95=VECTOR('',#335,10.);
#96=VECTOR('',#338,10.);
#97=VECTOR('',#363,3.5);
#98=(
BOUNDED_CURVE()
B_SPLINE_CURVE(2,(#372,#373,#374),.UNSPECIFIED.,.F.,.F.)
B_SPLINE_CURVE_WITH_KNOTS((3,3),(0.,0.0565122129571411),.UNSPECIFIED.)
CURVE()
GEOMETRIC_REPRESENTATION_ITEM()
RATIONAL_B_SPLINE_CURVE((1.,1.14128053239285,1.24264068711929))
REPRESENTATION_ITEM('')
);
#99=(
BOUNDED_CURVE()
B_SPLINE_CURVE(2,(#376,#377,#378),.UNSPECIFIED.,.F.,.F.)
B_SPLINE_CURVE_WITH_KNOTS((3,3),(0.,0.220946649732791),.UNSPECIFIED.)
CURVE()
GEOMETRIC_REPRESENTATION_ITEM()
RATIONAL_B_SPLINE_CURVE((1.,1.04654789204515,1.))
REPRESENTATION_ITEM('')
);
#100=(
BOUNDED_CURVE()
B_SPLINE_CURVE(2,(#384,#385,#386),.UNSPECIFIED.,.F.,.F.)
B_SPLINE_CURVE_WITH_KNOTS((3,3),(0.343487787042859,0.4),.UNSPECIFIED.)
CURVE()
GEOMETRIC_REPRESENTATION_ITEM()
RATIONAL_B_SPLINE_CURVE((1.24264068711929,1.14128053239285,1.))
REPRESENTATION_ITEM('')
);
#101=(
BOUNDED_CURVE()
B_SPLINE_CURVE(2,(#391,#392,#393),.UNSPECIFIED.,.F.,.F.)
B_SPLINE_CURVE_WITH_KNOTS((3,3),(0.,0.0565122129571411),.UNSPECIFIED.)
CURVE()
GEOMETRIC_REPRESENTATION_ITEM()
RATIONAL_B_SPLINE_CURVE((1.,1.14128053239285,1.24264068711929))
REPRESENTATION_ITEM('')
);
#102=(
BOUNDED_CURVE()
B_SPLINE_CURVE(2,(#395,#396,#397),.UNSPECIFIED.,.F.,.F.)
B_SPLINE_CURVE_WITH_KNOTS((3,3),(0.,0.220946649732791),.UNSPECIFIED.)
CURVE()
GEOMETRIC_REPRESENTATION_ITEM()
RATIONAL_B_SPLINE_CURVE((1.,1.04654789204515,1.))
REPRESENTATION_ITEM('')
);
#103=(
BOUNDED_CURVE()
B_SPLINE_CURVE(2,(#403,#404,#405),.UNSPECIFIED.,.F.,.F.)
B_SPLINE_CURVE_WITH_KNOTS((3,3),(0.343487787042859,0.4),.UNSPECIFIED.)
CURVE()
GEOMETRIC_REPRESENTATION_ITEM()
RATIONAL_B_SPLINE_CURVE((1.24264068711929,1.14128053239285,1.))
REPRESENTATION_ITEM('')
);
#104=(
BOUNDED_CURVE()
B_SPLINE_CURVE(2,(#416,#417,#418),.UNSPECIFIED.,.F.,.F.)
B_SPLINE_CURVE_WITH_KNOTS((3,3),(0.,0.220946649732791),.UNSPECIFIED.)
CURVE()
GEOMETRIC_REPRESENTATION_ITEM()
RATIONAL_B_SPLINE_CURVE((1.,1.04654789204519,1.))
REPRESENTATION_ITEM('')
);
#105=(
BOUNDED_CURVE()
B_SPLINE_CURVE(2,(#436,#437,#438),.UNSPECIFIED.,.F.,.F.)
B_SPLINE_CURVE_WITH_KNOTS((3,3),(0.,0.220946649732791),.UNSPECIFIED.)
CURVE()
GEOMETRIC_REPRESENTATION_ITEM()
RATIONAL_B_SPLINE_CURVE((1.,1.04654789204519,1.))
REPRESENTATION_ITEM('')
);
#106=VERTEX_POINT('',#370);
#107=VERTEX_POINT('',#371);
#108=VERTEX_POINT('',#375);
#109=VERTEX_POINT('',#379);
#110=VERTEX_POINT('',#383);
#111=VERTEX_POINT('',#389);
#112=VERTEX_POINT('',#390);
#113=VERTEX_POINT('',#394);
#114=VERTEX_POINT('',#398);
#115=VERTEX_POINT('',#402);
#116=VERTEX_POINT('',#408);
#117=VERTEX_POINT('',#409);
#118=VERTEX_POINT('',#414);
#119=VERTEX_POINT('',#415);
#120=VERTEX_POINT('',#419);
#121=VERTEX_POINT('',#423);
#122=VERTEX_POINT('',#424);
#123=VERTEX_POINT('',#429);
#124=VERTEX_POINT('',#431);
#125=VERTEX_POINT('',#435);
#126=VERTEX_POINT('',#447);
#127=VERTEX_POINT('',#453);
#128=EDGE_CURVE('',#106,#107,#98,.T.);
#129=EDGE_CURVE('',#108,#106,#99,.T.);
#130=EDGE_CURVE('',#109,#108,#68,.T.);
#131=EDGE_CURVE('',#109,#107,#69,.T.);
#132=EDGE_CURVE('',#107,#110,#100,.T.);
#133=EDGE_CURVE('',#110,#106,#20,.T.);
#134=EDGE_CURVE('',#111,#112,#101,.T.);
#135=EDGE_CURVE('',#113,#111,#102,.T.);
#136=EDGE_CURVE('',#114,#113,#70,.T.);
#137=EDGE_CURVE('',#114,#112,#71,.T.);
#138=EDGE_CURVE('',#112,#115,#103,.T.);
#139=EDGE_CURVE('',#115,#111,#21,.T.);
#140=EDGE_CURVE('',#116,#117,#72,.T.);
#141=EDGE_CURVE('',#110,#117,#73,.T.);
#142=EDGE_CURVE('',#116,#109,#74,.T.);
#143=EDGE_CURVE('',#118,#119,#104,.T.);
#144=EDGE_CURVE('',#120,#118,#75,.T.);
#145=EDGE_CURVE('',#119,#120,#76,.T.);
#146=EDGE_CURVE('',#121,#122,#77,.T.);
#147=EDGE_CURVE('',#115,#122,#78,.T.);
#148=EDGE_CURVE('',#121,#114,#79,.T.);
#149=EDGE_CURVE('',#122,#123,#22,.T.);
#150=EDGE_CURVE('',#121,#124,#23,.T.);
#151=EDGE_CURVE('',#124,#123,#80,.T.);
#152=EDGE_CURVE('',#125,#124,#105,.T.);
#153=EDGE_CURVE('',#123,#125,#81,.T.);
#154=EDGE_CURVE('',#117,#120,#24,.T.);
#155=EDGE_CURVE('',#116,#119,#25,.T.);
#156=EDGE_CURVE('',#111,#118,#26,.T.);
#157=EDGE_CURVE('',#119,#113,#27,.T.);
#158=EDGE_CURVE('',#126,#126,#28,.T.);
#159=EDGE_CURVE('',#124,#108,#29,.T.);
#160=EDGE_CURVE('',#106,#125,#30,.T.);
#161=EDGE_CURVE('',#126,#127,#82,.T.);
#162=EDGE_CURVE('',#127,#127,#31,.F.);
#163=ORIENTED_EDGE('',*,*,#128,.F.);
#164=ORIENTED_EDGE('',*,*,#129,.F.);
#165=ORIENTED_EDGE('',*,*,#130,.F.);
#166=ORIENTED_EDGE('',*,*,#131,.T.);
#167=ORIENTED_EDGE('',*,*,#132,.T.);
#168=ORIENTED_EDGE('',*,*,#133,.T.);
#169=ORIENTED_EDGE('',*,*,#128,.T.);
#170=ORIENTED_EDGE('',*,*,#134,.F.);
#171=ORIENTED_EDGE('',*,*,#135,.F.);
#172=ORIENTED_EDGE('',*,*,#136,.F.);
#173=ORIENTED_EDGE('',*,*,#137,.T.);
#174=ORIENTED_EDGE('',*,*,#138,.T.);
#175=ORIENTED_EDGE('',*,*,#139,.T.);
#176=ORIENTED_EDGE('',*,*,#134,.T.);
#177=ORIENTED_EDGE('',*,*,#140,.T.);
#178=ORIENTED_EDGE('',*,*,#141,.F.);
#179=ORIENTED_EDGE('',*,*,#132,.F.);
#180=ORIENTED_EDGE('',*,*,#131,.F.);
#181=ORIENTED_EDGE('',*,*,#142,.F.);
#182=ORIENTED_EDGE('',*,*,#143,.F.);
#183=ORIENTED_EDGE('',*,*,#144,.F.);
#184=ORIENTED_EDGE('',*,*,#145,.F.);
#185=ORIENTED_EDGE('',*,*,#146,.T.);
#186=ORIENTED_EDGE('',*,*,#147,.F.);
#187=ORIENTED_EDGE('',*,*,#138,.F.);
#188=ORIENTED_EDGE('',*,*,#137,.F.);
#189=ORIENTED_EDGE('',*,*,#148,.F.);
#190=ORIENTED_EDGE('',*,*,#149,.F.);
#191=ORIENTED_EDGE('',*,*,#146,.F.);
#192=ORIENTED_EDGE('',*,*,#150,.T.);
#193=ORIENTED_EDGE('',*,*,#151,.T.);
#194=ORIENTED_EDGE('',*,*,#152,.F.);
#195=ORIENTED_EDGE('',*,*,#153,.F.);
#196=ORIENTED_EDGE('',*,*,#151,.F.);
#197=ORIENTED_EDGE('',*,*,#154,.F.);
#198=ORIENTED_EDGE('',*,*,#140,.F.);
#199=ORIENTED_EDGE('',*,*,#155,.T.);
#200=ORIENTED_EDGE('',*,*,#145,.T.);
#201=ORIENTED_EDGE('',*,*,#135,.T.);
#202=ORIENTED_EDGE('',*,*,#156,.T.);
#203=ORIENTED_EDGE('',*,*,#143,.T.);
#204=ORIENTED_EDGE('',*,*,#157,.T.);
#205=ORIENTED_EDGE('',*,*,#158,.F.);
#206=ORIENTED_EDGE('',*,*,#155,.F.);
#207=ORIENTED_EDGE('',*,*,#142,.T.);
#208=ORIENTED_EDGE('',*,*,#130,.T.);
#209=ORIENTED_EDGE('',*,*,#159,.F.);
#210=ORIENTED_EDGE('',*,*,#150,.F.);
#211=ORIENTED_EDGE('',*,*,#148,.T.);
#212=ORIENTED_EDGE('',*,*,#136,.T.);
#213=ORIENTED_EDGE('',*,*,#157,.F.);
#214=ORIENTED_EDGE('',*,*,#129,.T.);
#215=ORIENTED_EDGE('',*,*,#160,.T.);
#216=ORIENTED_EDGE('',*,*,#152,.T.);
#217=ORIENTED_EDGE('',*,*,#159,.T.);
#218=ORIENTED_EDGE('',*,*,#158,.T.);
#219=ORIENTED_EDGE('',*,*,#161,.T.);
#220=ORIENTED_EDGE('',*,*,#162,.T.);
#221=ORIENTED_EDGE('',*,*,#161,.F.);
#222=ORIENTED_EDGE('',*,*,#162,.F.);
#223=ORIENTED_EDGE('',*,*,#153,.T.);
#224=ORIENTED_EDGE('',*,*,#160,.F.);
#225=ORIENTED_EDGE('',*,*,#133,.F.);
#226=ORIENTED_EDGE('',*,*,#141,.T.);
#227=ORIENTED_EDGE('',*,*,#154,.T.);
#228=ORIENTED_EDGE('',*,*,#144,.T.);
#229=ORIENTED_EDGE('',*,*,#156,.F.);
#230=ORIENTED_EDGE('',*,*,#139,.F.);
#231=ORIENTED_EDGE('',*,*,#147,.T.);
#232=ORIENTED_EDGE('',*,*,#149,.T.);
#233=PLANE('',#270);
#234=PLANE('',#273);
#235=PLANE('',#276);
#236=PLANE('',#277);
#237=PLANE('',#278);
#238=PLANE('',#282);
#239=PLANE('',#289);
#240=PLANE('',#296);
#241=ADVANCED_FACE('',(#36),#233,.T.);
#242=ADVANCED_FACE('',(#37),#32,.F.);
#243=ADVANCED_FACE('',(#38),#234,.T.);
#244=ADVANCED_FACE('',(#39),#33,.F.);
#245=ADVANCED_FACE('',(#40),#235,.F.);
#246=ADVANCED_FACE('',(#41),#236,.F.);
#247=ADVANCED_FACE('',(#42),#237,.F.);
#248=ADVANCED_FACE('',(#43),#17,.F.);
#249=ADVANCED_FACE('',(#44),#238,.F.);
#250=ADVANCED_FACE('',(#45),#18,.F.);
#251=ADVANCED_FACE('',(#46),#34,.F.);
#252=ADVANCED_FACE('',(#47,#15),#239,.T.);
#253=ADVANCED_FACE('',(#48),#35,.F.);
#254=ADVANCED_FACE('',(#49),#19,.T.);
#255=ADVANCED_FACE('',(#50,#16),#240,.F.);
#256=CLOSED_SHELL('',(#241,#242,#243,#244,#245,#246,#247,#248,#249,#250,
#251,#252,#253,#254,#255));
#257=DERIVED_UNIT_ELEMENT(#259,1.);
#258=DERIVED_UNIT_ELEMENT(#462,-3.);
#259=(
MASS_UNIT()
NAMED_UNIT(*)
SI_UNIT(.KILO.,.GRAM.)
);
#260=DERIVED_UNIT((#257,#258));
#261=MEASURE_REPRESENTATION_ITEM('density measure',
POSITIVE_RATIO_MEASURE(7850.),#260);
#262=PROPERTY_DEFINITION_REPRESENTATION(#267,#264);
#263=PROPERTY_DEFINITION_REPRESENTATION(#268,#265);
#264=REPRESENTATION('material name',(#266),#459);
#265=REPRESENTATION('density',(#261),#459);
#266=DESCRIPTIVE_REPRESENTATION_ITEM('Steel','Steel');
#267=PROPERTY_DEFINITION('material property','material name',#469);
#268=PROPERTY_DEFINITION('material property','density of part',#469);
#269=AXIS2_PLACEMENT_3D('',#368,#297,#298);
#270=AXIS2_PLACEMENT_3D('',#369,#299,#300);
#271=AXIS2_PLACEMENT_3D('',#382,#303,#304);
#272=AXIS2_PLACEMENT_3D('',#387,#305,#306);
#273=AXIS2_PLACEMENT_3D('',#388,#307,#308);
#274=AXIS2_PLACEMENT_3D('',#401,#311,#312);
#275=AXIS2_PLACEMENT_3D('',#406,#313,#314);
#276=AXIS2_PLACEMENT_3D('',#407,#315,#316);
#277=AXIS2_PLACEMENT_3D('',#413,#320,#321);
#278=AXIS2_PLACEMENT_3D('',#422,#324,#325);
#279=AXIS2_PLACEMENT_3D('',#428,#329,#330);
#280=AXIS2_PLACEMENT_3D('',#430,#331,#332);
#281=AXIS2_PLACEMENT_3D('',#432,#333,#334);
#282=AXIS2_PLACEMENT_3D('',#434,#336,#337);
#283=AXIS2_PLACEMENT_3D('',#440,#339,#340);
#284=AXIS2_PLACEMENT_3D('',#441,#341,#342);
#285=AXIS2_PLACEMENT_3D('',#442,#343,#344);
#286=AXIS2_PLACEMENT_3D('',#443,#345,#346);
#287=AXIS2_PLACEMENT_3D('',#444,#347,#348);
#288=AXIS2_PLACEMENT_3D('',#445,#349,#350);
#289=AXIS2_PLACEMENT_3D('',#446,#351,#352);
#290=AXIS2_PLACEMENT_3D('',#448,#353,#354);
#291=AXIS2_PLACEMENT_3D('',#449,#355,#356);
#292=AXIS2_PLACEMENT_3D('',#450,#357,#358);
#293=AXIS2_PLACEMENT_3D('',#451,#359,#360);
#294=AXIS2_PLACEMENT_3D('',#452,#361,#362);
#295=AXIS2_PLACEMENT_3D('',#455,#364,#365);
#296=AXIS2_PLACEMENT_3D('',#456,#366,#367);
#297=DIRECTION('axis',(0.,0.,1.));
#298=DIRECTION('refdir',(1.,0.,0.));
#299=DIRECTION('center_axis',(-1.,0.,0.));
#300=DIRECTION('ref_axis',(0.,1.,0.));
#301=DIRECTION('',(0.,-1.,0.));
#302=DIRECTION('',(0.,0.,-1.));
#303=DIRECTION('center_axis',(0.,0.,-1.));
#304=DIRECTION('ref_axis',(1.,0.,0.));
#305=DIRECTION('center_axis',(0.,0.,-1.));
#306=DIRECTION('ref_axis',(-1.,0.,0.));
#307=DIRECTION('center_axis',(1.,0.,0.));
#308=DIRECTION('ref_axis',(0.,-1.,0.));
#309=DIRECTION('',(0.,1.,0.));
#310=DIRECTION('',(0.,0.,-1.));
#311=DIRECTION('center_axis',(0.,0.,-1.));
#312=DIRECTION('ref_axis',(1.,0.,0.));
#313=DIRECTION('center_axis',(0.,0.,-1.));
#314=DIRECTION('ref_axis',(-1.,0.,0.));
#315=DIRECTION('center_axis',(0.,-1.,0.));
#316=DIRECTION('ref_axis',(-1.,0.,0.));
#317=DIRECTION('',(0.,0.,-1.));
#318=DIRECTION('',(1.,0.,0.));
#319=DIRECTION('',(-1.,0.,0.));
#320=DIRECTION('center_axis',(0.,1.,0.));
#321=DIRECTION('ref_axis',(1.,0.,0.));
#322=DIRECTION('',(-1.,0.,0.));
#323=DIRECTION('',(0.,0.,-1.));
#324=DIRECTION('center_axis',(0.,1.,0.));
#325=DIRECTION('ref_axis',(1.,0.,0.));
#326=DIRECTION('',(0.,0.,-1.));
#327=DIRECTION('',(-1.,0.,0.));
#328=DIRECTION('',(1.,0.,0.));
#329=DIRECTION('center_axis',(0.,0.,-1.));
#330=DIRECTION('ref_axis',(-1.,0.,0.));
#331=DIRECTION('center_axis',(0.,0.,1.));
#332=DIRECTION('ref_axis',(-1.,0.,0.));
#333=DIRECTION('center_axis',(0.,0.,1.));
#334=DIRECTION('ref_axis',(-1.,0.,0.));
#335=DIRECTION('',(0.,0.,-1.));
#336=DIRECTION('center_axis',(0.,-1.,0.));
#337=DIRECTION('ref_axis',(-1.,0.,0.));
#338=DIRECTION('',(1.,0.,0.));
#339=DIRECTION('center_axis',(0.,0.,-1.));
#340=DIRECTION('ref_axis',(1.,1.22464679914735E-16,0.));
#341=DIRECTION('center_axis',(0.,0.,1.));
#342=DIRECTION('ref_axis',(-1.,0.,0.));
#343=DIRECTION('center_axis',(0.,0.,1.));
#344=DIRECTION('ref_axis',(-1.,0.,0.));
#345=DIRECTION('center_axis',(0.,0.,1.));
#346=DIRECTION('ref_axis',(-1.,0.,0.));
#347=DIRECTION('center_axis',(0.,0.,-1.));
#348=DIRECTION('ref_axis',(-1.,0.,0.));
#349=DIRECTION('center_axis',(0.,0.,1.));
#350=DIRECTION('ref_axis',(-1.,0.,0.));
#351=DIRECTION('center_axis',(0.,0.,1.));
#352=DIRECTION('ref_axis',(-1.,0.,0.));
#353=DIRECTION('center_axis',(0.,0.,-1.));
#354=DIRECTION('ref_axis',(-1.,0.,0.));
#355=DIRECTION('center_axis',(0.,0.,1.));
#356=DIRECTION('ref_axis',(-1.,0.,0.));
#357=DIRECTION('center_axis',(0.,0.,1.));
#358=DIRECTION('ref_axis',(-1.,0.,0.));
#359=DIRECTION('center_axis',(0.,0.,-1.));
#360=DIRECTION('ref_axis',(-1.,0.,0.));
#361=DIRECTION('center_axis',(0.,0.,1.));
#362=DIRECTION('ref_axis',(-1.,0.,0.));
#363=DIRECTION('',(0.,0.,-1.));
#364=DIRECTION('center_axis',(0.,0.,-1.));
#365=DIRECTION('ref_axis',(-1.,0.,0.));
#366=DIRECTION('center_axis',(0.,0.,1.));
#367=DIRECTION('ref_axis',(-1.,0.,0.));
#368=CARTESIAN_POINT('',(0.,0.,0.));
#369=CARTESIAN_POINT('Origin',(1.,-3.35410196624968,5.3));
#370=CARTESIAN_POINT('',(1.,-1.73205080756888,3.8));
#371=CARTESIAN_POINT('',(1.,-1.,4.3857864376269));
#372=CARTESIAN_POINT('Ctrl Pts',(1.,-1.73205080756888,3.8));
#373=CARTESIAN_POINT('Ctrl Pts',(1.,-1.30322537284121,4.17137372026307));
#374=CARTESIAN_POINT('Ctrl Pts',(1.,-1.,4.3857864376269));
#375=CARTESIAN_POINT('',(1.,-3.35410196624969,5.3));
#376=CARTESIAN_POINT('Ctrl Pts',(1.,-3.35410196624969,5.3));
#377=CARTESIAN_POINT('Ctrl Pts',(1.,-2.32188759254381,4.31081363987484));
#378=CARTESIAN_POINT('Ctrl Pts',(1.,-1.73205080756888,3.8));
#379=CARTESIAN_POINT('',(1.,-1.,5.3));
#380=CARTESIAN_POINT('',(1.,4.5,5.3));
#381=CARTESIAN_POINT('',(1.,-1.,5.3));
#382=CARTESIAN_POINT('Origin',(0.,0.,4.8));
#383=CARTESIAN_POINT('',(1.73205080756888,-1.,3.8));
#384=CARTESIAN_POINT('Ctrl Pts',(1.,-1.,4.3857864376269));
#385=CARTESIAN_POINT('Ctrl Pts',(1.30322537284121,-1.,4.17137372026307));
#386=CARTESIAN_POINT('Ctrl Pts',(1.73205080756888,-1.,3.8));
#387=CARTESIAN_POINT('Origin',(0.,0.,3.8));
#388=CARTESIAN_POINT('Origin',(-1.,3.35410196624968,5.3));
#389=CARTESIAN_POINT('',(-1.,1.73205080756888,3.8));
#390=CARTESIAN_POINT('',(-1.,1.,4.3857864376269));
#391=CARTESIAN_POINT('Ctrl Pts',(-1.,1.73205080756888,3.8));
#392=CARTESIAN_POINT('Ctrl Pts',(-1.,1.30322537284121,4.17137372026307));
#393=CARTESIAN_POINT('Ctrl Pts',(-1.,1.,4.3857864376269));
#394=CARTESIAN_POINT('',(-1.,3.35410196624969,5.3));
#395=CARTESIAN_POINT('Ctrl Pts',(-1.,3.35410196624969,5.3));
#396=CARTESIAN_POINT('Ctrl Pts',(-1.,2.32188759254381,4.31081363987484));
#397=CARTESIAN_POINT('Ctrl Pts',(-1.,1.73205080756888,3.8));
#398=CARTESIAN_POINT('',(-1.,1.,5.3));
#399=CARTESIAN_POINT('',(-1.,-4.5,5.3));
#400=CARTESIAN_POINT('',(-1.,1.,5.3));
#401=CARTESIAN_POINT('Origin',(0.,0.,4.8));
#402=CARTESIAN_POINT('',(-1.73205080756888,1.,3.8));
#403=CARTESIAN_POINT('Ctrl Pts',(-1.,1.,4.3857864376269));
#404=CARTESIAN_POINT('Ctrl Pts',(-1.30322537284121,1.,4.17137372026307));
#405=CARTESIAN_POINT('Ctrl Pts',(-1.73205080756888,1.,3.8));
#406=CARTESIAN_POINT('Origin',(0.,0.,3.8));
#407=CARTESIAN_POINT('Origin',(3.35410196624969,-1.,5.3));
#408=CARTESIAN_POINT('',(3.35410196624969,-1.,5.3));
#409=CARTESIAN_POINT('',(3.35410196624969,-1.,3.8));
#410=CARTESIAN_POINT('',(3.35410196624969,-1.,5.3));
#411=CARTESIAN_POINT('',(1.67705098312484,-1.,3.8));
#412=CARTESIAN_POINT('',(4.5,-1.,5.3));
#413=CARTESIAN_POINT('Origin',(-3.35410196624969,1.,5.3));
#414=CARTESIAN_POINT('',(1.73205080756888,1.,3.8));
#415=CARTESIAN_POINT('',(3.35410196624969,1.,5.3));
#416=CARTESIAN_POINT('Ctrl Pts',(1.73205080756888,1.,3.8));
#417=CARTESIAN_POINT('Ctrl Pts',(2.32188759254372,1.,4.31081363987476));
#418=CARTESIAN_POINT('Ctrl Pts',(3.35410196624969,1.,5.3));
#419=CARTESIAN_POINT('',(3.35410196624969,1.,3.8));
#420=CARTESIAN_POINT('',(-1.67705098312484,1.,3.8));
#421=CARTESIAN_POINT('',(3.35410196624969,1.,5.3));
#422=CARTESIAN_POINT('Origin',(-3.35410196624969,1.,5.3));
#423=CARTESIAN_POINT('',(-3.35410196624969,1.,5.3));
#424=CARTESIAN_POINT('',(-3.35410196624969,1.,3.8));
#425=CARTESIAN_POINT('',(-3.35410196624969,1.,5.3));
#426=CARTESIAN_POINT('',(-1.67705098312484,1.,3.8));
#427=CARTESIAN_POINT('',(-4.5,1.,5.3));
#428=CARTESIAN_POINT('Origin',(0.,0.,5.3));
#429=CARTESIAN_POINT('',(-3.35410196624969,-1.,3.8));
#430=CARTESIAN_POINT('Origin',(0.,0.,3.8));
#431=CARTESIAN_POINT('',(-3.35410196624969,-1.,5.3));
#432=CARTESIAN_POINT('Origin',(0.,0.,5.3));
#433=CARTESIAN_POINT('',(-3.35410196624969,-1.,5.3));
#434=CARTESIAN_POINT('Origin',(3.35410196624969,-1.,5.3));
#435=CARTESIAN_POINT('',(-1.73205080756888,-1.,3.8));
#436=CARTESIAN_POINT('Ctrl Pts',(-1.73205080756888,-1.,3.8));
#437=CARTESIAN_POINT('Ctrl Pts',(-2.32188759254372,-1.,4.31081363987476));
#438=CARTESIAN_POINT('Ctrl Pts',(-3.35410196624969,-1.,5.3));
#439=CARTESIAN_POINT('',(1.67705098312484,-1.,3.8));
#440=CARTESIAN_POINT('Origin',(0.,0.,5.3));
#441=CARTESIAN_POINT('Origin',(0.,0.,3.8));
#442=CARTESIAN_POINT('Origin',(0.,0.,5.3));
#443=CARTESIAN_POINT('Origin',(0.,0.,3.8));
#444=CARTESIAN_POINT('Origin',(0.,0.,3.8));
#445=CARTESIAN_POINT('Origin',(0.,0.,5.3));
#446=CARTESIAN_POINT('Origin',(0.,0.,5.3));
#447=CARTESIAN_POINT('',(5.5,-6.73555739531044E-16,5.3));
#448=CARTESIAN_POINT('Origin',(0.,0.,5.3));
#449=CARTESIAN_POINT('Origin',(0.,0.,5.3));
#450=CARTESIAN_POINT('Origin',(0.,0.,3.8));
#451=CARTESIAN_POINT('Origin',(0.,0.,3.8));
#452=CARTESIAN_POINT('Origin',(0.,0.,3.8));
#453=CARTESIAN_POINT('',(5.5,-6.73555739531044E-16,3.8));
#454=CARTESIAN_POINT('',(5.5,6.73555739531044E-16,3.8));
#455=CARTESIAN_POINT('Origin',(0.,0.,3.8));
#456=CARTESIAN_POINT('Origin',(0.,0.,3.8));
#457=UNCERTAINTY_MEASURE_WITH_UNIT(LENGTH_MEASURE(0.01),#461,
'DISTANCE_ACCURACY_VALUE',
'Maximum model space distance between geometric entities at asserted c
onnectivities');
#458=UNCERTAINTY_MEASURE_WITH_UNIT(LENGTH_MEASURE(0.01),#461,
'DISTANCE_ACCURACY_VALUE',
'Maximum model space distance between geometric entities at asserted c
onnectivities');
#459=(
GEOMETRIC_REPRESENTATION_CONTEXT(3)
GLOBAL_UNCERTAINTY_ASSIGNED_CONTEXT((#457))
GLOBAL_UNIT_ASSIGNED_CONTEXT((#461,#463,#464))
REPRESENTATION_CONTEXT('','3D')
);
#460=(
GEOMETRIC_REPRESENTATION_CONTEXT(3)
GLOBAL_UNCERTAINTY_ASSIGNED_CONTEXT((#458))
GLOBAL_UNIT_ASSIGNED_CONTEXT((#461,#463,#464))
REPRESENTATION_CONTEXT('','3D')
);
#461=(
LENGTH_UNIT()
NAMED_UNIT(*)
SI_UNIT(.MILLI.,.METRE.)
);
#462=(
LENGTH_UNIT()
NAMED_UNIT(*)
SI_UNIT($,.METRE.)
);
#463=(
NAMED_UNIT(*)
PLANE_ANGLE_UNIT()
SI_UNIT($,.RADIAN.)
);
#464=(
NAMED_UNIT(*)
SI_UNIT($,.STERADIAN.)
SOLID_ANGLE_UNIT()
);
#465=SHAPE_DEFINITION_REPRESENTATION(#466,#467);
#466=PRODUCT_DEFINITION_SHAPE('',$,#469);
#467=SHAPE_REPRESENTATION('',(#269),#459);
#468=PRODUCT_DEFINITION_CONTEXT('part definition',#473,'design');
#469=PRODUCT_DEFINITION('\X2\89D25EA75E955EA7\X0\_7mm',
'\X2\89D25EA75E955EA7\X0\_7mm v2',#470,#468);
#470=PRODUCT_DEFINITION_FORMATION('',$,#475);
#471=PRODUCT_RELATED_PRODUCT_CATEGORY('\X2\89D25EA75E955EA7\X0\_7mm v2',
'\X2\89D25EA75E955EA7\X0\_7mm v2',(#475));
#472=APPLICATION_PROTOCOL_DEFINITION('international standard',
'automotive_design',2009,#473);
#473=APPLICATION_CONTEXT(
'Core Data for Automotive Mechanical Design Process');
#474=PRODUCT_CONTEXT('part definition',#473,'mechanical');
#475=PRODUCT('\X2\89D25EA75E955EA7\X0\_7mm','\X2\89D25EA75E955EA7\X0\_
7mm v2',$,(#474));
#476=PRESENTATION_STYLE_ASSIGNMENT((#477));
#477=SURFACE_STYLE_USAGE(.BOTH.,#478);
#478=SURFACE_SIDE_STYLE('',(#479));
#479=SURFACE_STYLE_FILL_AREA(#480);
#480=FILL_AREA_STYLE('Steel - Satin',(#481));
#481=FILL_AREA_STYLE_COLOUR('Steel - Satin',#482);
#482=COLOUR_RGB('Steel - Satin',0.627450980392157,0.627450980392157,0.627450980392157);
ENDSEC;
END-ISO-10303-21;
