ISO-10303-21;
HEADER;
/* Generated by software containing ST-Developer
 * from STEP Tools, Inc. (www.steptools.com)
 */

FILE_DESCRIPTION(
/* description */ (''),
/* implementation_level */ '2;1');

FILE_NAME(
/* name */ 'hexagonal.step',
/* time_stamp */ '2026-08-06T16:49:25+08:00',
/* author */ (''),
/* organization */ (''),
/* preprocessor_version */ 'ST-DEVELOPER v20.1',
/* originating_system */ 'Autodesk Translation Framework v15.8.0.0',
/* authorisation */ '');

FILE_SCHEMA (('AUTOMOTIVE_DESIGN { 1 0 10303 214 3 1 1 }'));
ENDSEC;

DATA;
#10=MECHANICAL_DESIGN_GEOMETRIC_PRESENTATION_REPRESENTATION('',(#13),#915);
#11=SHAPE_REPRESENTATION_RELATIONSHIP('SRR','None',#922,#12);
#12=ADVANCED_BREP_SHAPE_REPRESENTATION('',(#14),#914);
#13=STYLED_ITEM('',(#931),#14);
#14=MANIFOLD_SOLID_BREP('Body1',#563);
#15=FACE_OUTER_BOUND('',#53,.T.);
#16=FACE_OUTER_BOUND('',#54,.T.);
#17=FACE_OUTER_BOUND('',#55,.T.);
#18=FACE_OUTER_BOUND('',#56,.T.);
#19=FACE_OUTER_BOUND('',#57,.T.);
#20=FACE_OUTER_BOUND('',#58,.T.);
#21=FACE_OUTER_BOUND('',#59,.T.);
#22=FACE_OUTER_BOUND('',#60,.T.);
#23=FACE_OUTER_BOUND('',#61,.T.);
#24=FACE_OUTER_BOUND('',#62,.T.);
#25=FACE_OUTER_BOUND('',#63,.T.);
#26=FACE_OUTER_BOUND('',#64,.T.);
#27=FACE_OUTER_BOUND('',#65,.T.);
#28=FACE_OUTER_BOUND('',#66,.T.);
#29=FACE_OUTER_BOUND('',#67,.T.);
#30=FACE_OUTER_BOUND('',#68,.T.);
#31=FACE_OUTER_BOUND('',#69,.T.);
#32=FACE_OUTER_BOUND('',#70,.T.);
#33=FACE_OUTER_BOUND('',#71,.T.);
#34=FACE_OUTER_BOUND('',#72,.T.);
#35=FACE_OUTER_BOUND('',#73,.T.);
#36=FACE_OUTER_BOUND('',#74,.T.);
#37=FACE_OUTER_BOUND('',#75,.T.);
#38=FACE_OUTER_BOUND('',#76,.T.);
#39=FACE_OUTER_BOUND('',#77,.T.);
#40=FACE_OUTER_BOUND('',#78,.T.);
#41=FACE_OUTER_BOUND('',#79,.T.);
#42=FACE_OUTER_BOUND('',#80,.T.);
#43=FACE_OUTER_BOUND('',#81,.T.);
#44=FACE_OUTER_BOUND('',#82,.T.);
#45=FACE_OUTER_BOUND('',#83,.T.);
#46=FACE_OUTER_BOUND('',#84,.T.);
#47=FACE_OUTER_BOUND('',#85,.T.);
#48=FACE_OUTER_BOUND('',#86,.T.);
#49=FACE_OUTER_BOUND('',#87,.T.);
#50=FACE_OUTER_BOUND('',#88,.T.);
#51=FACE_OUTER_BOUND('',#89,.T.);
#52=FACE_OUTER_BOUND('',#90,.T.);
#53=EDGE_LOOP('',(#343,#344,#345));
#54=EDGE_LOOP('',(#346,#347,#348));
#55=EDGE_LOOP('',(#349,#350,#351));
#56=EDGE_LOOP('',(#352,#353,#354));
#57=EDGE_LOOP('',(#355,#356,#357));
#58=EDGE_LOOP('',(#358,#359,#360));
#59=EDGE_LOOP('',(#361,#362,#363));
#60=EDGE_LOOP('',(#364,#365,#366));
#61=EDGE_LOOP('',(#367,#368,#369));
#62=EDGE_LOOP('',(#370,#371,#372,#373));
#63=EDGE_LOOP('',(#374,#375,#376));
#64=EDGE_LOOP('',(#377,#378,#379));
#65=EDGE_LOOP('',(#380,#381,#382));
#66=EDGE_LOOP('',(#383,#384,#385,#386));
#67=EDGE_LOOP('',(#387,#388,#389,#390));
#68=EDGE_LOOP('',(#391,#392,#393,#394));
#69=EDGE_LOOP('',(#395,#396,#397,#398));
#70=EDGE_LOOP('',(#399,#400,#401,#402));
#71=EDGE_LOOP('',(#403,#404,#405,#406));
#72=EDGE_LOOP('',(#407,#408,#409,#410));
#73=EDGE_LOOP('',(#411,#412,#413,#414));
#74=EDGE_LOOP('',(#415,#416,#417,#418));
#75=EDGE_LOOP('',(#419,#420,#421,#422));
#76=EDGE_LOOP('',(#423,#424,#425,#426));
#77=EDGE_LOOP('',(#427,#428,#429,#430));
#78=EDGE_LOOP('',(#431,#432,#433,#434));
#79=EDGE_LOOP('',(#435,#436,#437,#438));
#80=EDGE_LOOP('',(#439,#440,#441,#442));
#81=EDGE_LOOP('',(#443,#444,#445,#446));
#82=EDGE_LOOP('',(#447,#448,#449,#450));
#83=EDGE_LOOP('',(#451,#452,#453,#454));
#84=EDGE_LOOP('',(#455,#456,#457,#458,#459,#460));
#85=EDGE_LOOP('',(#461,#462,#463,#464));
#86=EDGE_LOOP('',(#465,#466,#467,#468));
#87=EDGE_LOOP('',(#469,#470,#471,#472,#473,#474));
#88=EDGE_LOOP('',(#475,#476,#477,#478));
#89=EDGE_LOOP('',(#479,#480,#481,#482));
#90=EDGE_LOOP('',(#483,#484,#485,#486));
#91=LINE('',#769,#163);
#92=LINE('',#771,#164);
#93=LINE('',#772,#165);
#94=LINE('',#776,#166);
#95=LINE('',#778,#167);
#96=LINE('',#779,#168);
#97=LINE('',#783,#169);
#98=LINE('',#785,#170);
#99=LINE('',#786,#171);
#100=LINE('',#790,#172);
#101=LINE('',#792,#173);
#102=LINE('',#793,#174);
#103=LINE('',#797,#175);
#104=LINE('',#799,#176);
#105=LINE('',#800,#177);
#106=LINE('',#804,#178);
#107=LINE('',#806,#179);
#108=LINE('',#807,#180);
#109=LINE('',#811,#181);
#110=LINE('',#813,#182);
#111=LINE('',#814,#183);
#112=LINE('',#818,#184);
#113=LINE('',#820,#185);
#114=LINE('',#821,#186);
#115=LINE('',#825,#187);
#116=LINE('',#827,#188);
#117=LINE('',#828,#189);
#118=LINE('',#830,#190);
#119=LINE('',#831,#191);
#120=LINE('',#835,#192);
#121=LINE('',#837,#193);
#122=LINE('',#838,#194);
#123=LINE('',#842,#195);
#124=LINE('',#844,#196);
#125=LINE('',#845,#197);
#126=LINE('',#849,#198);
#127=LINE('',#851,#199);
#128=LINE('',#852,#200);
#129=LINE('',#854,#201);
#130=LINE('',#855,#202);
#131=LINE('',#857,#203);
#132=LINE('',#858,#204);
#133=LINE('',#860,#205);
#134=LINE('',#861,#206);
#135=LINE('',#863,#207);
#136=LINE('',#864,#208);
#137=LINE('',#866,#209);
#138=LINE('',#867,#210);
#139=LINE('',#869,#211);
#140=LINE('',#870,#212);
#141=LINE('',#872,#213);
#142=LINE('',#873,#214);
#143=LINE('',#875,#215);
#144=LINE('',#876,#216);
#145=LINE('',#878,#217);
#146=LINE('',#879,#218);
#147=LINE('',#881,#219);
#148=LINE('',#882,#220);
#149=LINE('',#884,#221);
#150=LINE('',#885,#222);
#151=LINE('',#887,#223);
#152=LINE('',#888,#224);
#153=LINE('',#890,#225);
#154=LINE('',#891,#226);
#155=LINE('',#893,#227);
#156=LINE('',#894,#228);
#157=LINE('',#896,#229);
#158=LINE('',#897,#230);
#159=LINE('',#899,#231);
#160=LINE('',#900,#232);
#161=LINE('',#902,#233);
#162=LINE('',#903,#234);
#163=VECTOR('',#619,10.);
#164=VECTOR('',#620,10.);
#165=VECTOR('',#621,10.);
#166=VECTOR('',#624,10.);
#167=VECTOR('',#625,10.);
#168=VECTOR('',#626,10.);
#169=VECTOR('',#629,10.);
#170=VECTOR('',#630,10.);
#171=VECTOR('',#631,10.);
#172=VECTOR('',#634,10.);
#173=VECTOR('',#635,10.);
#174=VECTOR('',#636,10.);
#175=VECTOR('',#639,10.);
#176=VECTOR('',#640,10.);
#177=VECTOR('',#641,10.);
#178=VECTOR('',#644,10.);
#179=VECTOR('',#645,10.);
#180=VECTOR('',#646,10.);
#181=VECTOR('',#649,10.);
#182=VECTOR('',#650,10.);
#183=VECTOR('',#651,10.);
#184=VECTOR('',#654,10.);
#185=VECTOR('',#655,10.);
#186=VECTOR('',#656,10.);
#187=VECTOR('',#659,10.);
#188=VECTOR('',#660,10.);
#189=VECTOR('',#661,10.);
#190=VECTOR('',#664,10.);
#191=VECTOR('',#665,10.);
#192=VECTOR('',#668,10.);
#193=VECTOR('',#669,10.);
#194=VECTOR('',#670,10.);
#195=VECTOR('',#673,10.);
#196=VECTOR('',#674,10.);
#197=VECTOR('',#675,10.);
#198=VECTOR('',#678,10.);
#199=VECTOR('',#679,10.);
#200=VECTOR('',#680,10.);
#201=VECTOR('',#683,10.);
#202=VECTOR('',#684,10.);
#203=VECTOR('',#687,10.);
#204=VECTOR('',#688,10.);
#205=VECTOR('',#691,10.);
#206=VECTOR('',#692,10.);
#207=VECTOR('',#695,10.);
#208=VECTOR('',#696,10.);
#209=VECTOR('',#699,10.);
#210=VECTOR('',#700,10.);
#211=VECTOR('',#703,10.);
#212=VECTOR('',#704,10.);
#213=VECTOR('',#707,10.);
#214=VECTOR('',#708,10.);
#215=VECTOR('',#711,10.);
#216=VECTOR('',#712,10.);
#217=VECTOR('',#715,10.);
#218=VECTOR('',#716,10.);
#219=VECTOR('',#719,10.);
#220=VECTOR('',#720,10.);
#221=VECTOR('',#723,10.);
#222=VECTOR('',#724,10.);
#223=VECTOR('',#727,10.);
#224=VECTOR('',#728,10.);
#225=VECTOR('',#731,10.);
#226=VECTOR('',#732,10.);
#227=VECTOR('',#735,10.);
#228=VECTOR('',#736,10.);
#229=VECTOR('',#739,10.);
#230=VECTOR('',#740,10.);
#231=VECTOR('',#743,10.);
#232=VECTOR('',#744,10.);
#233=VECTOR('',#747,10.);
#234=VECTOR('',#748,10.);
#235=VERTEX_POINT('',#767);
#236=VERTEX_POINT('',#768);
#237=VERTEX_POINT('',#770);
#238=VERTEX_POINT('',#774);
#239=VERTEX_POINT('',#775);
#240=VERTEX_POINT('',#777);
#241=VERTEX_POINT('',#781);
#242=VERTEX_POINT('',#782);
#243=VERTEX_POINT('',#784);
#244=VERTEX_POINT('',#788);
#245=VERTEX_POINT('',#789);
#246=VERTEX_POINT('',#791);
#247=VERTEX_POINT('',#795);
#248=VERTEX_POINT('',#796);
#249=VERTEX_POINT('',#798);
#250=VERTEX_POINT('',#802);
#251=VERTEX_POINT('',#803);
#252=VERTEX_POINT('',#805);
#253=VERTEX_POINT('',#809);
#254=VERTEX_POINT('',#810);
#255=VERTEX_POINT('',#812);
#256=VERTEX_POINT('',#816);
#257=VERTEX_POINT('',#817);
#258=VERTEX_POINT('',#819);
#259=VERTEX_POINT('',#823);
#260=VERTEX_POINT('',#824);
#261=VERTEX_POINT('',#826);
#262=VERTEX_POINT('',#833);
#263=VERTEX_POINT('',#834);
#264=VERTEX_POINT('',#836);
#265=VERTEX_POINT('',#840);
#266=VERTEX_POINT('',#841);
#267=VERTEX_POINT('',#843);
#268=VERTEX_POINT('',#847);
#269=VERTEX_POINT('',#848);
#270=VERTEX_POINT('',#850);
#271=EDGE_CURVE('',#235,#236,#91,.T.);
#272=EDGE_CURVE('',#237,#235,#92,.T.);
#273=EDGE_CURVE('',#236,#237,#93,.T.);
#274=EDGE_CURVE('',#238,#239,#94,.T.);
#275=EDGE_CURVE('',#240,#238,#95,.T.);
#276=EDGE_CURVE('',#239,#240,#96,.T.);
#277=EDGE_CURVE('',#241,#242,#97,.T.);
#278=EDGE_CURVE('',#243,#241,#98,.T.);
#279=EDGE_CURVE('',#242,#243,#99,.T.);
#280=EDGE_CURVE('',#244,#245,#100,.T.);
#281=EDGE_CURVE('',#246,#244,#101,.T.);
#282=EDGE_CURVE('',#245,#246,#102,.T.);
#283=EDGE_CURVE('',#247,#248,#103,.T.);
#284=EDGE_CURVE('',#249,#247,#104,.T.);
#285=EDGE_CURVE('',#248,#249,#105,.T.);
#286=EDGE_CURVE('',#250,#251,#106,.T.);
#287=EDGE_CURVE('',#252,#250,#107,.T.);
#288=EDGE_CURVE('',#251,#252,#108,.T.);
#289=EDGE_CURVE('',#253,#254,#109,.T.);
#290=EDGE_CURVE('',#255,#253,#110,.T.);
#291=EDGE_CURVE('',#254,#255,#111,.T.);
#292=EDGE_CURVE('',#256,#257,#112,.T.);
#293=EDGE_CURVE('',#258,#256,#113,.T.);
#294=EDGE_CURVE('',#257,#258,#114,.T.);
#295=EDGE_CURVE('',#259,#260,#115,.T.);
#296=EDGE_CURVE('',#261,#259,#116,.T.);
#297=EDGE_CURVE('',#260,#261,#117,.T.);
#298=EDGE_CURVE('',#259,#249,#118,.T.);
#299=EDGE_CURVE('',#247,#261,#119,.T.);
#300=EDGE_CURVE('',#262,#263,#120,.T.);
#301=EDGE_CURVE('',#264,#262,#121,.T.);
#302=EDGE_CURVE('',#263,#264,#122,.T.);
#303=EDGE_CURVE('',#265,#266,#123,.T.);
#304=EDGE_CURVE('',#267,#265,#124,.T.);
#305=EDGE_CURVE('',#266,#267,#125,.T.);
#306=EDGE_CURVE('',#268,#269,#126,.T.);
#307=EDGE_CURVE('',#270,#268,#127,.T.);
#308=EDGE_CURVE('',#269,#270,#128,.T.);
#309=EDGE_CURVE('',#268,#260,#129,.T.);
#310=EDGE_CURVE('',#261,#270,#130,.T.);
#311=EDGE_CURVE('',#262,#269,#131,.T.);
#312=EDGE_CURVE('',#270,#264,#132,.T.);
#313=EDGE_CURVE('',#265,#268,#133,.T.);
#314=EDGE_CURVE('',#269,#267,#134,.T.);
#315=EDGE_CURVE('',#254,#266,#135,.T.);
#316=EDGE_CURVE('',#267,#253,#136,.T.);
#317=EDGE_CURVE('',#266,#257,#137,.T.);
#318=EDGE_CURVE('',#258,#265,#138,.T.);
#319=EDGE_CURVE('',#250,#263,#139,.T.);
#320=EDGE_CURVE('',#264,#252,#140,.T.);
#321=EDGE_CURVE('',#253,#262,#141,.T.);
#322=EDGE_CURVE('',#263,#255,#142,.T.);
#323=EDGE_CURVE('',#256,#259,#143,.T.);
#324=EDGE_CURVE('',#260,#258,#144,.T.);
#325=EDGE_CURVE('',#257,#245,#145,.T.);
#326=EDGE_CURVE('',#246,#256,#146,.T.);
#327=EDGE_CURVE('',#242,#254,#147,.T.);
#328=EDGE_CURVE('',#255,#241,#148,.T.);
#329=EDGE_CURVE('',#238,#251,#149,.T.);
#330=EDGE_CURVE('',#252,#240,#150,.T.);
#331=EDGE_CURVE('',#241,#250,#151,.T.);
#332=EDGE_CURVE('',#251,#243,#152,.T.);
#333=EDGE_CURVE('',#244,#248,#153,.T.);
#334=EDGE_CURVE('',#249,#246,#154,.T.);
#335=EDGE_CURVE('',#248,#239,#155,.T.);
#336=EDGE_CURVE('',#240,#247,#156,.T.);
#337=EDGE_CURVE('',#245,#236,#157,.T.);
#338=EDGE_CURVE('',#237,#244,#158,.T.);
#339=EDGE_CURVE('',#236,#242,#159,.T.);
#340=EDGE_CURVE('',#243,#235,#160,.T.);
#341=EDGE_CURVE('',#235,#238,#161,.T.);
#342=EDGE_CURVE('',#239,#237,#162,.T.);
#343=ORIENTED_EDGE('',*,*,#271,.F.);
#344=ORIENTED_EDGE('',*,*,#272,.F.);
#345=ORIENTED_EDGE('',*,*,#273,.F.);
#346=ORIENTED_EDGE('',*,*,#274,.F.);
#347=ORIENTED_EDGE('',*,*,#275,.F.);
#348=ORIENTED_EDGE('',*,*,#276,.F.);
#349=ORIENTED_EDGE('',*,*,#277,.F.);
#350=ORIENTED_EDGE('',*,*,#278,.F.);
#351=ORIENTED_EDGE('',*,*,#279,.F.);
#352=ORIENTED_EDGE('',*,*,#280,.F.);
#353=ORIENTED_EDGE('',*,*,#281,.F.);
#354=ORIENTED_EDGE('',*,*,#282,.F.);
#355=ORIENTED_EDGE('',*,*,#283,.F.);
#356=ORIENTED_EDGE('',*,*,#284,.F.);
#357=ORIENTED_EDGE('',*,*,#285,.F.);
#358=ORIENTED_EDGE('',*,*,#286,.F.);
#359=ORIENTED_EDGE('',*,*,#287,.F.);
#360=ORIENTED_EDGE('',*,*,#288,.F.);
#361=ORIENTED_EDGE('',*,*,#289,.F.);
#362=ORIENTED_EDGE('',*,*,#290,.F.);
#363=ORIENTED_EDGE('',*,*,#291,.F.);
#364=ORIENTED_EDGE('',*,*,#292,.F.);
#365=ORIENTED_EDGE('',*,*,#293,.F.);
#366=ORIENTED_EDGE('',*,*,#294,.F.);
#367=ORIENTED_EDGE('',*,*,#295,.F.);
#368=ORIENTED_EDGE('',*,*,#296,.F.);
#369=ORIENTED_EDGE('',*,*,#297,.F.);
#370=ORIENTED_EDGE('',*,*,#296,.T.);
#371=ORIENTED_EDGE('',*,*,#298,.T.);
#372=ORIENTED_EDGE('',*,*,#284,.T.);
#373=ORIENTED_EDGE('',*,*,#299,.T.);
#374=ORIENTED_EDGE('',*,*,#300,.F.);
#375=ORIENTED_EDGE('',*,*,#301,.F.);
#376=ORIENTED_EDGE('',*,*,#302,.F.);
#377=ORIENTED_EDGE('',*,*,#303,.F.);
#378=ORIENTED_EDGE('',*,*,#304,.F.);
#379=ORIENTED_EDGE('',*,*,#305,.F.);
#380=ORIENTED_EDGE('',*,*,#306,.F.);
#381=ORIENTED_EDGE('',*,*,#307,.F.);
#382=ORIENTED_EDGE('',*,*,#308,.F.);
#383=ORIENTED_EDGE('',*,*,#307,.T.);
#384=ORIENTED_EDGE('',*,*,#309,.T.);
#385=ORIENTED_EDGE('',*,*,#297,.T.);
#386=ORIENTED_EDGE('',*,*,#310,.T.);
#387=ORIENTED_EDGE('',*,*,#301,.T.);
#388=ORIENTED_EDGE('',*,*,#311,.T.);
#389=ORIENTED_EDGE('',*,*,#308,.T.);
#390=ORIENTED_EDGE('',*,*,#312,.T.);
#391=ORIENTED_EDGE('',*,*,#304,.T.);
#392=ORIENTED_EDGE('',*,*,#313,.T.);
#393=ORIENTED_EDGE('',*,*,#306,.T.);
#394=ORIENTED_EDGE('',*,*,#314,.T.);
#395=ORIENTED_EDGE('',*,*,#289,.T.);
#396=ORIENTED_EDGE('',*,*,#315,.T.);
#397=ORIENTED_EDGE('',*,*,#305,.T.);
#398=ORIENTED_EDGE('',*,*,#316,.T.);
#399=ORIENTED_EDGE('',*,*,#303,.T.);
#400=ORIENTED_EDGE('',*,*,#317,.T.);
#401=ORIENTED_EDGE('',*,*,#294,.T.);
#402=ORIENTED_EDGE('',*,*,#318,.T.);
#403=ORIENTED_EDGE('',*,*,#287,.T.);
#404=ORIENTED_EDGE('',*,*,#319,.T.);
#405=ORIENTED_EDGE('',*,*,#302,.T.);
#406=ORIENTED_EDGE('',*,*,#320,.T.);
#407=ORIENTED_EDGE('',*,*,#290,.T.);
#408=ORIENTED_EDGE('',*,*,#321,.T.);
#409=ORIENTED_EDGE('',*,*,#300,.T.);
#410=ORIENTED_EDGE('',*,*,#322,.T.);
#411=ORIENTED_EDGE('',*,*,#293,.T.);
#412=ORIENTED_EDGE('',*,*,#323,.T.);
#413=ORIENTED_EDGE('',*,*,#295,.T.);
#414=ORIENTED_EDGE('',*,*,#324,.T.);
#415=ORIENTED_EDGE('',*,*,#292,.T.);
#416=ORIENTED_EDGE('',*,*,#325,.T.);
#417=ORIENTED_EDGE('',*,*,#282,.T.);
#418=ORIENTED_EDGE('',*,*,#326,.T.);
#419=ORIENTED_EDGE('',*,*,#277,.T.);
#420=ORIENTED_EDGE('',*,*,#327,.T.);
#421=ORIENTED_EDGE('',*,*,#291,.T.);
#422=ORIENTED_EDGE('',*,*,#328,.T.);
#423=ORIENTED_EDGE('',*,*,#275,.T.);
#424=ORIENTED_EDGE('',*,*,#329,.T.);
#425=ORIENTED_EDGE('',*,*,#288,.T.);
#426=ORIENTED_EDGE('',*,*,#330,.T.);
#427=ORIENTED_EDGE('',*,*,#278,.T.);
#428=ORIENTED_EDGE('',*,*,#331,.T.);
#429=ORIENTED_EDGE('',*,*,#286,.T.);
#430=ORIENTED_EDGE('',*,*,#332,.T.);
#431=ORIENTED_EDGE('',*,*,#281,.T.);
#432=ORIENTED_EDGE('',*,*,#333,.T.);
#433=ORIENTED_EDGE('',*,*,#285,.T.);
#434=ORIENTED_EDGE('',*,*,#334,.T.);
#435=ORIENTED_EDGE('',*,*,#283,.T.);
#436=ORIENTED_EDGE('',*,*,#335,.T.);
#437=ORIENTED_EDGE('',*,*,#276,.T.);
#438=ORIENTED_EDGE('',*,*,#336,.T.);
#439=ORIENTED_EDGE('',*,*,#280,.T.);
#440=ORIENTED_EDGE('',*,*,#337,.T.);
#441=ORIENTED_EDGE('',*,*,#273,.T.);
#442=ORIENTED_EDGE('',*,*,#338,.T.);
#443=ORIENTED_EDGE('',*,*,#271,.T.);
#444=ORIENTED_EDGE('',*,*,#339,.T.);
#445=ORIENTED_EDGE('',*,*,#279,.T.);
#446=ORIENTED_EDGE('',*,*,#340,.T.);
#447=ORIENTED_EDGE('',*,*,#272,.T.);
#448=ORIENTED_EDGE('',*,*,#341,.T.);
#449=ORIENTED_EDGE('',*,*,#274,.T.);
#450=ORIENTED_EDGE('',*,*,#342,.T.);
#451=ORIENTED_EDGE('',*,*,#298,.F.);
#452=ORIENTED_EDGE('',*,*,#323,.F.);
#453=ORIENTED_EDGE('',*,*,#326,.F.);
#454=ORIENTED_EDGE('',*,*,#334,.F.);
#455=ORIENTED_EDGE('',*,*,#299,.F.);
#456=ORIENTED_EDGE('',*,*,#336,.F.);
#457=ORIENTED_EDGE('',*,*,#330,.F.);
#458=ORIENTED_EDGE('',*,*,#320,.F.);
#459=ORIENTED_EDGE('',*,*,#312,.F.);
#460=ORIENTED_EDGE('',*,*,#310,.F.);
#461=ORIENTED_EDGE('',*,*,#309,.F.);
#462=ORIENTED_EDGE('',*,*,#313,.F.);
#463=ORIENTED_EDGE('',*,*,#318,.F.);
#464=ORIENTED_EDGE('',*,*,#324,.F.);
#465=ORIENTED_EDGE('',*,*,#311,.F.);
#466=ORIENTED_EDGE('',*,*,#321,.F.);
#467=ORIENTED_EDGE('',*,*,#316,.F.);
#468=ORIENTED_EDGE('',*,*,#314,.F.);
#469=ORIENTED_EDGE('',*,*,#315,.F.);
#470=ORIENTED_EDGE('',*,*,#327,.F.);
#471=ORIENTED_EDGE('',*,*,#339,.F.);
#472=ORIENTED_EDGE('',*,*,#337,.F.);
#473=ORIENTED_EDGE('',*,*,#325,.F.);
#474=ORIENTED_EDGE('',*,*,#317,.F.);
#475=ORIENTED_EDGE('',*,*,#319,.F.);
#476=ORIENTED_EDGE('',*,*,#331,.F.);
#477=ORIENTED_EDGE('',*,*,#328,.F.);
#478=ORIENTED_EDGE('',*,*,#322,.F.);
#479=ORIENTED_EDGE('',*,*,#329,.F.);
#480=ORIENTED_EDGE('',*,*,#341,.F.);
#481=ORIENTED_EDGE('',*,*,#340,.F.);
#482=ORIENTED_EDGE('',*,*,#332,.F.);
#483=ORIENTED_EDGE('',*,*,#333,.F.);
#484=ORIENTED_EDGE('',*,*,#338,.F.);
#485=ORIENTED_EDGE('',*,*,#342,.F.);
#486=ORIENTED_EDGE('',*,*,#335,.F.);
#487=PLANE('',#577);
#488=PLANE('',#578);
#489=PLANE('',#579);
#490=PLANE('',#580);
#491=PLANE('',#581);
#492=PLANE('',#582);
#493=PLANE('',#583);
#494=PLANE('',#584);
#495=PLANE('',#585);
#496=PLANE('',#586);
#497=PLANE('',#587);
#498=PLANE('',#588);
#499=PLANE('',#589);
#500=PLANE('',#590);
#501=PLANE('',#591);
#502=PLANE('',#592);
#503=PLANE('',#593);
#504=PLANE('',#594);
#505=PLANE('',#595);
#506=PLANE('',#596);
#507=PLANE('',#597);
#508=PLANE('',#598);
#509=PLANE('',#599);
#510=PLANE('',#600);
#511=PLANE('',#601);
#512=PLANE('',#602);
#513=PLANE('',#603);
#514=PLANE('',#604);
#515=PLANE('',#605);
#516=PLANE('',#606);
#517=PLANE('',#607);
#518=PLANE('',#608);
#519=PLANE('',#609);
#520=PLANE('',#610);
#521=PLANE('',#611);
#522=PLANE('',#612);
#523=PLANE('',#613);
#524=PLANE('',#614);
#525=ADVANCED_FACE('',(#15),#487,.T.);
#526=ADVANCED_FACE('',(#16),#488,.T.);
#527=ADVANCED_FACE('',(#17),#489,.T.);
#528=ADVANCED_FACE('',(#18),#490,.T.);
#529=ADVANCED_FACE('',(#19),#491,.T.);
#530=ADVANCED_FACE('',(#20),#492,.T.);
#531=ADVANCED_FACE('',(#21),#493,.T.);
#532=ADVANCED_FACE('',(#22),#494,.T.);
#533=ADVANCED_FACE('',(#23),#495,.T.);
#534=ADVANCED_FACE('',(#24),#496,.T.);
#535=ADVANCED_FACE('',(#25),#497,.T.);
#536=ADVANCED_FACE('',(#26),#498,.T.);
#537=ADVANCED_FACE('',(#27),#499,.T.);
#538=ADVANCED_FACE('',(#28),#500,.T.);
#539=ADVANCED_FACE('',(#29),#501,.T.);
#540=ADVANCED_FACE('',(#30),#502,.T.);
#541=ADVANCED_FACE('',(#31),#503,.T.);
#542=ADVANCED_FACE('',(#32),#504,.T.);
#543=ADVANCED_FACE('',(#33),#505,.T.);
#544=ADVANCED_FACE('',(#34),#506,.T.);
#545=ADVANCED_FACE('',(#35),#507,.T.);
#546=ADVANCED_FACE('',(#36),#508,.T.);
#547=ADVANCED_FACE('',(#37),#509,.T.);
#548=ADVANCED_FACE('',(#38),#510,.T.);
#549=ADVANCED_FACE('',(#39),#511,.T.);
#550=ADVANCED_FACE('',(#40),#512,.T.);
#551=ADVANCED_FACE('',(#41),#513,.T.);
#552=ADVANCED_FACE('',(#42),#514,.T.);
#553=ADVANCED_FACE('',(#43),#515,.T.);
#554=ADVANCED_FACE('',(#44),#516,.T.);
#555=ADVANCED_FACE('',(#45),#517,.T.);
#556=ADVANCED_FACE('',(#46),#518,.F.);
#557=ADVANCED_FACE('',(#47),#519,.T.);
#558=ADVANCED_FACE('',(#48),#520,.T.);
#559=ADVANCED_FACE('',(#49),#521,.T.);
#560=ADVANCED_FACE('',(#50),#522,.T.);
#561=ADVANCED_FACE('',(#51),#523,.T.);
#562=ADVANCED_FACE('',(#52),#524,.T.);
#563=CLOSED_SHELL('',(#525,#526,#527,#528,#529,#530,#531,#532,#533,#534,
#535,#536,#537,#538,#539,#540,#541,#542,#543,#544,#545,#546,#547,#548,#549,
#550,#551,#552,#553,#554,#555,#556,#557,#558,#559,#560,#561,#562));
#564=DERIVED_UNIT_ELEMENT(#566,1.);
#565=DERIVED_UNIT_ELEMENT(#917,-3.);
#566=(
MASS_UNIT()
NAMED_UNIT(*)
SI_UNIT(.KILO.,.GRAM.)
);
#567=DERIVED_UNIT((#564,#565));
#568=MEASURE_REPRESENTATION_ITEM('density measure',
POSITIVE_RATIO_MEASURE(7850.),#567);
#569=PROPERTY_DEFINITION_REPRESENTATION(#574,#571);
#570=PROPERTY_DEFINITION_REPRESENTATION(#575,#572);
#571=REPRESENTATION('material name',(#573),#914);
#572=REPRESENTATION('density',(#568),#914);
#573=DESCRIPTIVE_REPRESENTATION_ITEM('Steel','Steel');
#574=PROPERTY_DEFINITION('material property','material name',#924);
#575=PROPERTY_DEFINITION('material property','density of part',#924);
#576=AXIS2_PLACEMENT_3D('',#765,#615,#616);
#577=AXIS2_PLACEMENT_3D('',#766,#617,#618);
#578=AXIS2_PLACEMENT_3D('',#773,#622,#623);
#579=AXIS2_PLACEMENT_3D('',#780,#627,#628);
#580=AXIS2_PLACEMENT_3D('',#787,#632,#633);
#581=AXIS2_PLACEMENT_3D('',#794,#637,#638);
#582=AXIS2_PLACEMENT_3D('',#801,#642,#643);
#583=AXIS2_PLACEMENT_3D('',#808,#647,#648);
#584=AXIS2_PLACEMENT_3D('',#815,#652,#653);
#585=AXIS2_PLACEMENT_3D('',#822,#657,#658);
#586=AXIS2_PLACEMENT_3D('',#829,#662,#663);
#587=AXIS2_PLACEMENT_3D('',#832,#666,#667);
#588=AXIS2_PLACEMENT_3D('',#839,#671,#672);
#589=AXIS2_PLACEMENT_3D('',#846,#676,#677);
#590=AXIS2_PLACEMENT_3D('',#853,#681,#682);
#591=AXIS2_PLACEMENT_3D('',#856,#685,#686);
#592=AXIS2_PLACEMENT_3D('',#859,#689,#690);
#593=AXIS2_PLACEMENT_3D('',#862,#693,#694);
#594=AXIS2_PLACEMENT_3D('',#865,#697,#698);
#595=AXIS2_PLACEMENT_3D('',#868,#701,#702);
#596=AXIS2_PLACEMENT_3D('',#871,#705,#706);
#597=AXIS2_PLACEMENT_3D('',#874,#709,#710);
#598=AXIS2_PLACEMENT_3D('',#877,#713,#714);
#599=AXIS2_PLACEMENT_3D('',#880,#717,#718);
#600=AXIS2_PLACEMENT_3D('',#883,#721,#722);
#601=AXIS2_PLACEMENT_3D('',#886,#725,#726);
#602=AXIS2_PLACEMENT_3D('',#889,#729,#730);
#603=AXIS2_PLACEMENT_3D('',#892,#733,#734);
#604=AXIS2_PLACEMENT_3D('',#895,#737,#738);
#605=AXIS2_PLACEMENT_3D('',#898,#741,#742);
#606=AXIS2_PLACEMENT_3D('',#901,#745,#746);
#607=AXIS2_PLACEMENT_3D('',#904,#749,#750);
#608=AXIS2_PLACEMENT_3D('',#905,#751,#752);
#609=AXIS2_PLACEMENT_3D('',#906,#753,#754);
#610=AXIS2_PLACEMENT_3D('',#907,#755,#756);
#611=AXIS2_PLACEMENT_3D('',#908,#757,#758);
#612=AXIS2_PLACEMENT_3D('',#909,#759,#760);
#613=AXIS2_PLACEMENT_3D('',#910,#761,#762);
#614=AXIS2_PLACEMENT_3D('',#911,#763,#764);
#615=DIRECTION('axis',(0.,0.,1.));
#616=DIRECTION('refdir',(1.,0.,0.));
#617=DIRECTION('center_axis',(0.547750005235851,0.72455327535185,-0.418321028566616));
#618=DIRECTION('ref_axis',(-0.606949534647157,0.,-0.79474037420506));
#619=DIRECTION('',(0.67749794402081,-0.0907675134870596,0.729902592366236));
#620=DIRECTION('',(1.92296268638356E-16,-0.5,-0.866025403784439));
#621=DIRECTION('',(-0.677497944020809,0.677497944020809,0.286344323664977));
#622=DIRECTION('center_axis',(-0.54775000523585,0.72455327535185,-0.418321028566617));
#623=DIRECTION('ref_axis',(-0.606949534647159,0.,0.794740374205059));
#624=DIRECTION('',(-1.92296268638356E-16,0.5,0.866025403784439));
#625=DIRECTION('',(0.67749794402081,0.0907675134870596,-0.729902592366237));
#626=DIRECTION('',(-0.677497944020809,-0.677497944020809,-0.286344323664977));
#627=DIRECTION('center_axis',(0.547750005235851,-6.70346440719329E-16,-0.836642057133232));
#628=DIRECTION('ref_axis',(-0.836642057133231,0.,-0.547750005235851));
#629=DIRECTION('',(0.677497944020809,0.586730430533748,0.44355826870126));
#630=DIRECTION('',(-1.77909787493173E-31,-1.,8.01234452659818E-16));
#631=DIRECTION('',(-0.67749794402081,0.586730430533747,-0.44355826870126));
#632=DIRECTION('center_axis',(0.54775000523585,0.724553275351851,0.418321028566615));
#633=DIRECTION('ref_axis',(0.606949534647157,0.,-0.79474037420506));
#634=DIRECTION('',(0.677497944020809,-0.677497944020809,0.286344323664978));
#635=DIRECTION('',(1.92296268638357E-16,0.499999999999999,-0.866025403784439));
#636=DIRECTION('',(-0.67749794402081,0.0907675134870615,0.729902592366236));
#637=DIRECTION('center_axis',(-0.547750005235851,0.724553275351851,0.418321028566615));
#638=DIRECTION('ref_axis',(0.606949534647157,0.,0.794740374205061));
#639=DIRECTION('',(0.677497944020809,0.677497944020809,-0.286344323664978));
#640=DIRECTION('',(-0.677497944020809,-0.0907675134870615,-0.729902592366237));
#641=DIRECTION('',(-1.92296268638357E-16,-0.499999999999999,0.866025403784439));
#642=DIRECTION('center_axis',(-0.547750005235851,-7.01010595071299E-16,
-0.836642057133231));
#643=DIRECTION('ref_axis',(-0.836642057133231,0.,0.547750005235851));
#644=DIRECTION('',(1.77909787493173E-31,1.,-8.01234452659818E-16));
#645=DIRECTION('',(0.677497944020809,-0.586730430533749,-0.44355826870126));
#646=DIRECTION('',(-0.67749794402081,-0.586730430533747,0.443558268701261));
#647=DIRECTION('center_axis',(0.547750005235851,-0.72455327535185,-0.418321028566615));
#648=DIRECTION('ref_axis',(-0.606949534647157,0.,-0.794740374205061));
#649=DIRECTION('',(0.677497944020809,0.677497944020809,-0.286344323664975));
#650=DIRECTION('',(-1.92296268638356E-16,-0.5,0.866025403784439));
#651=DIRECTION('',(-0.677497944020809,-0.0907675134870614,-0.729902592366237));
#652=DIRECTION('center_axis',(0.54775000523585,0.,0.836642057133232));
#653=DIRECTION('ref_axis',(0.836642057133232,0.,-0.54775000523585));
#654=DIRECTION('',(0.677497944020809,-0.586730430533749,-0.443558268701259));
#655=DIRECTION('',(0.,1.,0.));
#656=DIRECTION('',(-0.67749794402081,-0.586730430533749,0.443558268701259));
#657=DIRECTION('center_axis',(-0.547750005235851,-7.01010595071299E-16,
0.836642057133231));
#658=DIRECTION('ref_axis',(0.836642057133231,0.,0.547750005235851));
#659=DIRECTION('',(0.,-1.,0.));
#660=DIRECTION('',(0.677497944020809,0.586730430533748,0.44355826870126));
#661=DIRECTION('',(-0.677497944020809,0.586730430533749,-0.443558268701259));
#662=DIRECTION('center_axis',(-0.707106781186548,0.353553390593274,0.612372435695794));
#663=DIRECTION('ref_axis',(0.654653670707977,0.,0.755928946018455));
#664=DIRECTION('',(1.11022302462516E-16,0.866025403784438,-0.5));
#665=DIRECTION('',(-1.11022302462516E-16,-0.866025403784438,0.5));
#666=DIRECTION('center_axis',(-0.547750005235852,-0.72455327535185,-0.418321028566616));
#667=DIRECTION('ref_axis',(-0.606949534647157,0.,0.79474037420506));
#668=DIRECTION('',(1.92296268638356E-16,0.5,-0.866025403784439));
#669=DIRECTION('',(0.677497944020809,-0.67749794402081,0.286344323664976));
#670=DIRECTION('',(-0.677497944020809,0.0907675134870615,0.729902592366236));
#671=DIRECTION('center_axis',(0.547750005235851,-0.72455327535185,0.418321028566616));
#672=DIRECTION('ref_axis',(0.606949534647158,0.,-0.79474037420506));
#673=DIRECTION('',(0.677497944020809,0.0907675134870595,-0.729902592366237));
#674=DIRECTION('',(-1.92296268638356E-16,0.5,0.866025403784438));
#675=DIRECTION('',(-0.677497944020809,-0.677497944020809,-0.286344323664977));
#676=DIRECTION('center_axis',(-0.547750005235851,-0.72455327535185,0.418321028566616));
#677=DIRECTION('ref_axis',(0.606949534647158,0.,0.79474037420506));
#678=DIRECTION('',(1.92296268638356E-16,-0.5,-0.866025403784438));
#679=DIRECTION('',(0.677497944020809,-0.0907675134870595,0.729902592366237));
#680=DIRECTION('',(-0.677497944020809,0.677497944020809,0.286344323664976));
#681=DIRECTION('center_axis',(-0.707106781186548,-0.353553390593274,0.612372435695795));
#682=DIRECTION('ref_axis',(0.654653670707977,0.,0.755928946018455));
#683=DIRECTION('',(-1.11022302462516E-16,0.866025403784439,0.5));
#684=DIRECTION('',(1.11022302462516E-16,-0.866025403784439,-0.5));
#685=DIRECTION('center_axis',(-0.707106781186548,-0.707106781186547,3.20427032384437E-18));
#686=DIRECTION('ref_axis',(4.53152254949034E-18,0.,1.));
#687=DIRECTION('',(-2.22044604925031E-16,2.26576127474522E-16,1.));
#688=DIRECTION('',(2.22044604925031E-16,-2.26576127474522E-16,-1.));
#689=DIRECTION('center_axis',(-1.11022302462516E-16,-0.866025403784438,
0.500000000000001));
#690=DIRECTION('ref_axis',(1.,0.,2.22044604925031E-16));
#691=DIRECTION('',(-1.,0.,-2.22044604925031E-16));
#692=DIRECTION('',(1.,0.,2.22044604925031E-16));
#693=DIRECTION('center_axis',(0.707106781186548,-0.707106781186548,3.17222762060599E-16));
#694=DIRECTION('ref_axis',(4.48620732399553E-16,0.,-1.));
#695=DIRECTION('',(-2.22044604925031E-16,2.26576127474522E-16,1.));
#696=DIRECTION('',(2.22044604925031E-16,-2.26576127474522E-16,-1.));
#697=DIRECTION('center_axis',(0.707106781186547,-0.353553390593274,0.612372435695795));
#698=DIRECTION('ref_axis',(0.654653670707978,0.,-0.755928946018454));
#699=DIRECTION('',(-1.11022302462516E-16,0.866025403784439,0.5));
#700=DIRECTION('',(1.11022302462516E-16,-0.866025403784439,-0.5));
#701=DIRECTION('center_axis',(-0.707106781186547,-0.353553390593274,-0.612372435695794));
#702=DIRECTION('ref_axis',(-0.654653670707977,0.,0.755928946018454));
#703=DIRECTION('',(-1.11022302462516E-16,-0.866025403784438,0.500000000000001));
#704=DIRECTION('',(1.11022302462516E-16,0.866025403784438,-0.500000000000001));
#705=DIRECTION('center_axis',(1.11022302462516E-16,-0.866025403784439,-0.5));
#706=DIRECTION('ref_axis',(-1.,0.,-2.22044604925031E-16));
#707=DIRECTION('',(-1.,0.,-2.22044604925031E-16));
#708=DIRECTION('',(1.,0.,2.22044604925031E-16));
#709=DIRECTION('center_axis',(-2.22044604925031E-16,0.,1.));
#710=DIRECTION('ref_axis',(1.,0.,2.22044604925031E-16));
#711=DIRECTION('',(-1.,0.,-2.22044604925031E-16));
#712=DIRECTION('',(1.,0.,2.22044604925031E-16));
#713=DIRECTION('center_axis',(0.707106781186547,0.353553390593274,0.612372435695795));
#714=DIRECTION('ref_axis',(0.654653670707977,0.,-0.755928946018454));
#715=DIRECTION('',(1.11022302462516E-16,0.866025403784438,-0.5));
#716=DIRECTION('',(-1.11022302462516E-16,-0.866025403784438,0.5));
#717=DIRECTION('center_axis',(0.707106781186547,-0.353553390593274,-0.612372435695794));
#718=DIRECTION('ref_axis',(-0.654653670707977,0.,-0.755928946018455));
#719=DIRECTION('',(-1.11022302462516E-16,-0.866025403784438,0.500000000000001));
#720=DIRECTION('',(1.11022302462516E-16,0.866025403784438,-0.500000000000001));
#721=DIRECTION('center_axis',(-0.707106781186547,0.353553390593274,-0.612372435695795));
#722=DIRECTION('ref_axis',(-0.654653670707978,0.,0.755928946018454));
#723=DIRECTION('',(1.11022302462516E-16,-0.866025403784439,-0.5));
#724=DIRECTION('',(-1.11022302462516E-16,0.866025403784439,0.5));
#725=DIRECTION('center_axis',(2.22044604925031E-16,-8.01234452659818E-16,
-1.));
#726=DIRECTION('ref_axis',(-1.,0.,-2.22044604925031E-16));
#727=DIRECTION('',(-1.,0.,-2.22044604925031E-16));
#728=DIRECTION('',(1.,0.,2.22044604925031E-16));
#729=DIRECTION('center_axis',(-1.11022302462515E-16,0.866025403784439,0.499999999999999));
#730=DIRECTION('ref_axis',(1.,0.,2.22044604925031E-16));
#731=DIRECTION('',(-1.,0.,-2.22044604925031E-16));
#732=DIRECTION('',(1.,0.,2.22044604925031E-16));
#733=DIRECTION('center_axis',(-0.707106781186548,0.707106781186547,-7.17756552541154E-16));
#734=DIRECTION('ref_axis',(-1.01506105108586E-15,0.,1.));
#735=DIRECTION('',(2.22044604925031E-16,-7.93016446160826E-16,-1.));
#736=DIRECTION('',(-2.22044604925031E-16,7.93016446160826E-16,1.));
#737=DIRECTION('center_axis',(0.707106781186548,0.707106781186548,-4.03738060804399E-16));
#738=DIRECTION('ref_axis',(-5.70971841235795E-16,0.,-1.));
#739=DIRECTION('',(2.22044604925031E-16,-7.93016446160826E-16,-1.));
#740=DIRECTION('',(-2.22044604925031E-16,7.93016446160826E-16,1.));
#741=DIRECTION('center_axis',(0.707106781186547,0.353553390593274,-0.612372435695795));
#742=DIRECTION('ref_axis',(-0.654653670707977,0.,-0.755928946018454));
#743=DIRECTION('',(1.11022302462516E-16,-0.866025403784439,-0.5));
#744=DIRECTION('',(-1.11022302462516E-16,0.866025403784439,0.5));
#745=DIRECTION('center_axis',(1.11022302462516E-16,0.866025403784439,-0.5));
#746=DIRECTION('ref_axis',(1.,0.,2.22044604925031E-16));
#747=DIRECTION('',(-1.,0.,-2.22044604925031E-16));
#748=DIRECTION('',(1.,0.,2.22044604925031E-16));
#749=DIRECTION('center_axis',(-1.92296268638356E-16,0.5,0.866025403784438));
#750=DIRECTION('ref_axis',(-1.11022302462516E-16,-0.866025403784438,0.5));
#751=DIRECTION('center_axis',(1.,0.,2.22044604925031E-16));
#752=DIRECTION('ref_axis',(2.22044604925031E-16,0.,-1.));
#753=DIRECTION('center_axis',(-1.92296268638356E-16,-0.5,0.866025403784439));
#754=DIRECTION('ref_axis',(1.11022302462516E-16,-0.866025403784439,-0.5));
#755=DIRECTION('center_axis',(-5.03100067105237E-32,-1.,2.26576127474522E-16));
#756=DIRECTION('ref_axis',(2.22044604925031E-16,-2.26576127474522E-16,-1.));
#757=DIRECTION('center_axis',(1.,0.,2.22044604925031E-16));
#758=DIRECTION('ref_axis',(2.22044604925031E-16,0.,-1.));
#759=DIRECTION('center_axis',(1.92296268638356E-16,-0.500000000000001,-0.866025403784438));
#760=DIRECTION('ref_axis',(1.11022302462516E-16,0.866025403784438,-0.500000000000001));
#761=DIRECTION('center_axis',(1.92296268638356E-16,0.5,-0.866025403784439));
#762=DIRECTION('ref_axis',(-1.11022302462516E-16,0.866025403784439,0.5));
#763=DIRECTION('center_axis',(1.76085023486833E-31,1.,-7.93016446160826E-16));
#764=DIRECTION('ref_axis',(-2.22044604925031E-16,7.93016446160826E-16,1.));
#765=CARTESIAN_POINT('',(0.,0.,0.));
#766=CARTESIAN_POINT('Origin',(19.8,2.12176223927187,-1.025));
#767=CARTESIAN_POINT('',(19.8,1.94855715851499,-1.325));
#768=CARTESIAN_POINT('',(20.,1.92176223927187,-1.10952994616207));
#769=CARTESIAN_POINT('',(19.8,1.94855715851499,-1.325));
#770=CARTESIAN_POINT('',(19.8,2.12176223927187,-1.025));
#771=CARTESIAN_POINT('',(19.8,2.12176223927187,-1.025));
#772=CARTESIAN_POINT('',(20.,1.92176223927187,-1.10952994616207));
#773=CARTESIAN_POINT('Origin',(2.46365138548049E-16,1.92176223927187,-1.10952994616208));
#774=CARTESIAN_POINT('',(0.2,1.94855715851499,-1.325));
#775=CARTESIAN_POINT('',(0.2,2.12176223927187,-1.025));
#776=CARTESIAN_POINT('',(0.2,1.94855715851499,-1.325));
#777=CARTESIAN_POINT('',(2.46365138548049E-16,1.92176223927187,-1.10952994616208));
#778=CARTESIAN_POINT('',(2.46365138548049E-16,1.92176223927187,-1.10952994616208));
#779=CARTESIAN_POINT('',(0.2,2.12176223927187,-1.025));
#780=CARTESIAN_POINT('Origin',(19.8,0.173205080756887,-2.35));
#781=CARTESIAN_POINT('',(19.8,-0.173205080756889,-2.35));
#782=CARTESIAN_POINT('',(20.,-2.77555756156289E-16,-2.21905989232415));
#783=CARTESIAN_POINT('',(19.8,-0.173205080756888,-2.35));
#784=CARTESIAN_POINT('',(19.8,0.173205080756887,-2.35));
#785=CARTESIAN_POINT('',(19.8,0.173205080756887,-2.35));
#786=CARTESIAN_POINT('',(20.,-4.16333634234434E-16,-2.21905989232415));
#787=CARTESIAN_POINT('Origin',(19.8,1.94855715851499,1.325));
#788=CARTESIAN_POINT('',(19.8,2.12176223927188,1.025));
#789=CARTESIAN_POINT('',(20.,1.92176223927188,1.10952994616208));
#790=CARTESIAN_POINT('',(19.8,2.12176223927188,1.025));
#791=CARTESIAN_POINT('',(19.8,1.94855715851499,1.325));
#792=CARTESIAN_POINT('',(19.8,1.94855715851499,1.325));
#793=CARTESIAN_POINT('',(20.,1.92176223927188,1.10952994616208));
#794=CARTESIAN_POINT('Origin',(0.2,1.94855715851499,1.325));
#795=CARTESIAN_POINT('',(-2.46365138548049E-16,1.92176223927188,1.10952994616207));
#796=CARTESIAN_POINT('',(0.2,2.12176223927188,1.025));
#797=CARTESIAN_POINT('',(-2.46365138548049E-16,1.92176223927188,1.10952994616207));
#798=CARTESIAN_POINT('',(0.2,1.94855715851499,1.325));
#799=CARTESIAN_POINT('',(0.2,1.94855715851499,1.325));
#800=CARTESIAN_POINT('',(0.2,2.12176223927188,1.025));
#801=CARTESIAN_POINT('Origin',(4.92730277096098E-16,-2.77555756156289E-16,
-2.21905989232415));
#802=CARTESIAN_POINT('',(0.200000000000001,-0.173205080756888,-2.35));
#803=CARTESIAN_POINT('',(0.200000000000001,0.173205080756887,-2.35));
#804=CARTESIAN_POINT('',(0.200000000000001,-0.173205080756889,-2.35));
#805=CARTESIAN_POINT('',(4.92730277096098E-16,-2.77555756156289E-16,-2.21905989232415));
#806=CARTESIAN_POINT('',(4.92730277096098E-16,-2.77555756156289E-16,-2.21905989232415));
#807=CARTESIAN_POINT('',(0.200000000000001,0.173205080756887,-2.35));
#808=CARTESIAN_POINT('Origin',(19.8,-1.94855715851499,-1.325));
#809=CARTESIAN_POINT('',(19.8,-2.12176223927187,-1.025));
#810=CARTESIAN_POINT('',(20.,-1.92176223927187,-1.10952994616207));
#811=CARTESIAN_POINT('',(19.8,-2.12176223927187,-1.025));
#812=CARTESIAN_POINT('',(19.8,-1.94855715851499,-1.32499999999999));
#813=CARTESIAN_POINT('',(19.8,-1.94855715851499,-1.325));
#814=CARTESIAN_POINT('',(20.,-1.92176223927187,-1.10952994616207));
#815=CARTESIAN_POINT('Origin',(19.8,-0.173205080756887,2.35));
#816=CARTESIAN_POINT('',(19.8,0.173205080756888,2.35));
#817=CARTESIAN_POINT('',(20.,2.77555756156289E-16,2.21905989232415));
#818=CARTESIAN_POINT('',(19.8,0.173205080756888,2.35));
#819=CARTESIAN_POINT('',(19.8,-0.173205080756887,2.35));
#820=CARTESIAN_POINT('',(19.8,-0.173205080756887,2.35));
#821=CARTESIAN_POINT('',(20.,4.85722573273506E-16,2.21905989232415));
#822=CARTESIAN_POINT('Origin',(-4.92730277096098E-16,5.55111512312578E-16,
2.21905989232415));
#823=CARTESIAN_POINT('',(0.2,0.173205080756888,2.35));
#824=CARTESIAN_POINT('',(0.2,-0.173205080756887,2.35));
#825=CARTESIAN_POINT('',(0.2,0.173205080756888,2.35));
#826=CARTESIAN_POINT('',(-4.92730277096098E-16,4.85722573273506E-16,2.21905989232415));
#827=CARTESIAN_POINT('',(-4.92730277096098E-16,5.55111512312578E-16,2.21905989232415));
#828=CARTESIAN_POINT('',(0.2,-0.173205080756887,2.35));
#829=CARTESIAN_POINT('Origin',(0.0999999999999997,1.54132167945391,1.44464745962155));
#830=CARTESIAN_POINT('',(0.2,1.59132167945391,1.53125));
#831=CARTESIAN_POINT('',(-3.01546547563783E-16,1.49132167945391,1.35804491924311));
#832=CARTESIAN_POINT('Origin',(2.46365138548049E-16,-1.92176223927187,-1.10952994616207));
#833=CARTESIAN_POINT('',(0.2,-2.12176223927187,-1.025));
#834=CARTESIAN_POINT('',(0.2,-1.94855715851499,-1.325));
#835=CARTESIAN_POINT('',(0.2,-2.12176223927187,-1.025));
#836=CARTESIAN_POINT('',(2.46365138548049E-16,-1.92176223927187,-1.10952994616207));
#837=CARTESIAN_POINT('',(2.46365138548049E-16,-1.92176223927187,-1.10952994616207));
#838=CARTESIAN_POINT('',(0.2,-1.94855715851499,-1.325));
#839=CARTESIAN_POINT('Origin',(19.8,-2.12176223927187,1.02500000000001));
#840=CARTESIAN_POINT('',(19.8,-1.94855715851499,1.32500000000001));
#841=CARTESIAN_POINT('',(20.,-1.92176223927187,1.10952994616208));
#842=CARTESIAN_POINT('',(19.8,-1.94855715851499,1.32500000000001));
#843=CARTESIAN_POINT('',(19.8,-2.12176223927187,1.02500000000001));
#844=CARTESIAN_POINT('',(19.8,-2.12176223927187,1.02500000000001));
#845=CARTESIAN_POINT('',(20.,-1.92176223927187,1.10952994616208));
#846=CARTESIAN_POINT('Origin',(-2.46365138548049E-16,-1.92176223927187,
1.10952994616208));
#847=CARTESIAN_POINT('',(0.2,-1.94855715851499,1.325));
#848=CARTESIAN_POINT('',(0.2,-2.12176223927187,1.025));
#849=CARTESIAN_POINT('',(0.2,-1.94855715851499,1.325));
#850=CARTESIAN_POINT('',(-2.46365138548049E-16,-1.92176223927187,1.10952994616208));
#851=CARTESIAN_POINT('',(-2.46365138548049E-16,-1.92176223927187,1.10952994616208));
#852=CARTESIAN_POINT('',(0.2,-2.12176223927187,1.025));
#853=CARTESIAN_POINT('Origin',(0.0999999999999996,-0.480440559817968,2.05714745962156));
#854=CARTESIAN_POINT('',(0.2,-0.530440559817968,2.14375));
#855=CARTESIAN_POINT('',(-4.37548868080365E-16,-0.430440559817968,1.97054491924311));
#856=CARTESIAN_POINT('Origin',(0.0999999999999999,-2.02176223927187,0.6125));
#857=CARTESIAN_POINT('',(0.2,-2.12176223927187,0.6125));
#858=CARTESIAN_POINT('',(-1.36002320516582E-16,-1.92176223927187,0.6125));
#859=CARTESIAN_POINT('Origin',(-2.60902410786912E-16,-2.03515969889343,
1.175));
#860=CARTESIAN_POINT('',(-2.94209101525667E-16,-1.94855715851499,1.325));
#861=CARTESIAN_POINT('',(-2.27595720048157E-16,-2.12176223927187,1.025));
#862=CARTESIAN_POINT('Origin',(19.9,-2.02176223927187,0.612500000000005));
#863=CARTESIAN_POINT('',(20.,-1.92176223927187,0.612500000000005));
#864=CARTESIAN_POINT('',(19.8,-2.12176223927187,0.612500000000005));
#865=CARTESIAN_POINT('Origin',(19.9,-0.480440559817968,2.05714745962156));
#866=CARTESIAN_POINT('',(20.,-0.430440559817968,1.97054491924312));
#867=CARTESIAN_POINT('',(19.8,-0.530440559817968,2.14375));
#868=CARTESIAN_POINT('Origin',(0.1,-1.54132167945391,-1.44464745962156));
#869=CARTESIAN_POINT('',(0.2,-1.59132167945391,-1.53125));
#870=CARTESIAN_POINT('',(3.01546547563783E-16,-1.49132167945391,-1.35804491924311));
#871=CARTESIAN_POINT('Origin',(2.60902410786912E-16,-2.03515969889343,-1.175));
#872=CARTESIAN_POINT('',(2.27595720048157E-16,-2.12176223927187,-1.025));
#873=CARTESIAN_POINT('',(2.94209101525666E-16,-1.94855715851499,-1.325));
#874=CARTESIAN_POINT('Origin',(-5.21804821573823E-16,4.85722573273506E-16,
2.35));
#875=CARTESIAN_POINT('',(-5.21804821573823E-16,0.173205080756888,2.35));
#876=CARTESIAN_POINT('',(-5.21804821573823E-16,-0.173205080756887,2.35));
#877=CARTESIAN_POINT('Origin',(19.9,1.54132167945391,1.44464745962156));
#878=CARTESIAN_POINT('',(20.,1.49132167945391,1.35804491924312));
#879=CARTESIAN_POINT('',(19.8,1.59132167945391,1.53125));
#880=CARTESIAN_POINT('Origin',(19.9,-1.54132167945391,-1.44464745962155));
#881=CARTESIAN_POINT('',(20.,-1.49132167945391,-1.35804491924311));
#882=CARTESIAN_POINT('',(19.8,-1.59132167945391,-1.53124999999999));
#883=CARTESIAN_POINT('Origin',(0.1,0.480440559817968,-2.05714745962156));
#884=CARTESIAN_POINT('',(0.200000000000001,0.530440559817968,-2.14375));
#885=CARTESIAN_POINT('',(4.37548868080365E-16,0.430440559817968,-1.97054491924311));
#886=CARTESIAN_POINT('Origin',(5.21804821573824E-16,-8.32667268468867E-16,
-2.35));
#887=CARTESIAN_POINT('',(5.21804821573824E-16,-0.173205080756889,-2.35));
#888=CARTESIAN_POINT('',(5.21804821573824E-16,0.173205080756887,-2.35));
#889=CARTESIAN_POINT('Origin',(-2.60902410786911E-16,2.03515969889343,1.175));
#890=CARTESIAN_POINT('',(-2.27595720048157E-16,2.12176223927188,1.025));
#891=CARTESIAN_POINT('',(-2.94209101525666E-16,1.94855715851499,1.325));
#892=CARTESIAN_POINT('Origin',(0.1,2.02176223927188,-0.612500000000001));
#893=CARTESIAN_POINT('',(0.2,2.12176223927187,-0.612500000000001));
#894=CARTESIAN_POINT('',(1.36002320516582E-16,1.92176223927187,-0.612500000000001));
#895=CARTESIAN_POINT('Origin',(19.9,2.02176223927188,-0.612499999999997));
#896=CARTESIAN_POINT('',(20.,1.92176223927187,-0.612499999999997));
#897=CARTESIAN_POINT('',(19.8,2.12176223927187,-0.612499999999997));
#898=CARTESIAN_POINT('Origin',(19.9,0.480440559817968,-2.05714745962155));
#899=CARTESIAN_POINT('',(20.,0.430440559817968,-1.97054491924311));
#900=CARTESIAN_POINT('',(19.8,0.530440559817968,-2.14375));
#901=CARTESIAN_POINT('Origin',(2.60902410786912E-16,2.03515969889343,-1.175));
#902=CARTESIAN_POINT('',(2.94209101525667E-16,1.94855715851499,-1.325));
#903=CARTESIAN_POINT('',(2.27595720048157E-16,2.12176223927187,-1.025));
#904=CARTESIAN_POINT('Origin',(-2.72004641033163E-16,2.12176223927188,1.225));
#905=CARTESIAN_POINT('Origin',(6.16297582203915E-32,8.32667268468867E-16,
-2.77555756156289E-16));
#906=CARTESIAN_POINT('Origin',(-5.44009282066327E-16,3.07913416985883E-16,
2.45));
#907=CARTESIAN_POINT('Origin',(-2.72004641033163E-16,-2.12176223927187,
1.225));
#908=CARTESIAN_POINT('Origin',(20.,8.32667268468867E-16,4.16333634234434E-15));
#909=CARTESIAN_POINT('Origin',(2.72004641033163E-16,-2.12176223927187,-1.225));
#910=CARTESIAN_POINT('Origin',(5.44009282066327E-16,-7.0906822080552E-16,
-2.45));
#911=CARTESIAN_POINT('Origin',(2.72004641033164E-16,2.12176223927187,-1.225));
#912=UNCERTAINTY_MEASURE_WITH_UNIT(LENGTH_MEASURE(0.01),#916,
'DISTANCE_ACCURACY_VALUE',
'Maximum model space distance between geometric entities at asserted c
onnectivities');
#913=UNCERTAINTY_MEASURE_WITH_UNIT(LENGTH_MEASURE(0.01),#916,
'DISTANCE_ACCURACY_VALUE',
'Maximum model space distance between geometric entities at asserted c
onnectivities');
#914=(
GEOMETRIC_REPRESENTATION_CONTEXT(3)
GLOBAL_UNCERTAINTY_ASSIGNED_CONTEXT((#912))
GLOBAL_UNIT_ASSIGNED_CONTEXT((#916,#918,#919))
REPRESENTATION_CONTEXT('','3D')
);
#915=(
GEOMETRIC_REPRESENTATION_CONTEXT(3)
GLOBAL_UNCERTAINTY_ASSIGNED_CONTEXT((#913))
GLOBAL_UNIT_ASSIGNED_CONTEXT((#916,#918,#919))
REPRESENTATION_CONTEXT('','3D')
);
#916=(
LENGTH_UNIT()
NAMED_UNIT(*)
SI_UNIT(.MILLI.,.METRE.)
);
#917=(
LENGTH_UNIT()
NAMED_UNIT(*)
SI_UNIT($,.METRE.)
);
#918=(
NAMED_UNIT(*)
PLANE_ANGLE_UNIT()
SI_UNIT($,.RADIAN.)
);
#919=(
NAMED_UNIT(*)
SI_UNIT($,.STERADIAN.)
SOLID_ANGLE_UNIT()
);
#920=SHAPE_DEFINITION_REPRESENTATION(#921,#922);
#921=PRODUCT_DEFINITION_SHAPE('',$,#924);
#922=SHAPE_REPRESENTATION('',(#576),#914);
#923=PRODUCT_DEFINITION_CONTEXT('part definition',#928,'design');
#924=PRODUCT_DEFINITION('hexagonal','hexagonal v2',#925,#923);
#925=PRODUCT_DEFINITION_FORMATION('',$,#930);
#926=PRODUCT_RELATED_PRODUCT_CATEGORY('hexagonal v2','hexagonal v2',(#930));
#927=APPLICATION_PROTOCOL_DEFINITION('international standard',
'automotive_design',2009,#928);
#928=APPLICATION_CONTEXT(
'Core Data for Automotive Mechanical Design Process');
#929=PRODUCT_CONTEXT('part definition',#928,'mechanical');
#930=PRODUCT('hexagonal','hexagonal v2',$,(#929));
#931=PRESENTATION_STYLE_ASSIGNMENT((#932));
#932=SURFACE_STYLE_USAGE(.BOTH.,#933);
#933=SURFACE_SIDE_STYLE('',(#934));
#934=SURFACE_STYLE_FILL_AREA(#935);
#935=FILL_AREA_STYLE('Steel - Satin',(#936));
#936=FILL_AREA_STYLE_COLOUR('Steel - Satin',#937);
#937=COLOUR_RGB('Steel - Satin',0.627450980392157,0.627450980392157,0.627450980392157);
ENDSEC;
END-ISO-10303-21;
